<svg width="121" height="20" viewBox="0 0 121 20" fill="none" xmlns="http://www.w3.org/2000/svg">
<path d="M94.058 8.27091C94.4094 7.59167 94.853 7.00656 95.3913 6.51304C95.9296 6.01951 96.5477 5.63537 97.248 5.36061C97.9475 5.08585 98.7068 4.94851 99.5193 4.94851C100.496 4.94851 101.296 5.08585 101.914 5.36061C102.532 5.63537 103.062 6.03985 103.504 6.57412L106.609 3.66382C105.842 2.85487 104.901 2.28501 103.786 1.95425C102.67 1.62357 101.419 1.45818 100.034 1.45818C98.6503 1.45818 97.4042 1.66932 96.1988 2.08913C94.9942 2.50886 93.9226 3.11176 92.9863 3.89529C92.0484 4.67883 91.2659 5.63029 90.6403 6.74459C90.0123 7.85881 89.6019 9.10536 89.4075 10.4791C89.2123 11.8528 89.2688 13.0968 89.5795 14.2136C89.8893 15.3279 90.4019 16.2794 91.1172 17.0629C91.8358 17.8464 92.7355 18.4493 93.8171 18.8691C94.8995 19.2889 96.1174 19.5 97.4707 19.5C98.7425 19.5 100.004 19.3702 101.258 19.1133C102.512 18.8538 103.749 18.4341 104.973 17.8515L106.244 8.87889H99.4761L98.9627 12.3718H102.066L101.676 15.16C101.301 15.3533 100.796 15.5441 100.161 15.7298C99.5243 15.9155 98.7916 16.0097 97.9608 16.0097C97.1301 16.0097 96.4298 15.8723 95.8092 15.5976C95.1886 15.3228 94.681 14.9387 94.2815 14.4451C93.881 13.9516 93.6019 13.3691 93.4374 12.7C93.2738 12.0284 93.2505 11.2906 93.3635 10.4816C93.4765 9.69047 93.7099 8.95523 94.0605 8.27599L94.058 8.27091ZM120.764 10.2985C120.518 9.50984 120.125 8.83568 119.584 8.27345C119.043 7.71122 118.377 7.28132 117.582 6.9786C116.787 6.67588 115.918 6.52575 114.972 6.52575C114.026 6.52575 113.114 6.67588 112.234 6.9786C111.354 7.28132 110.57 7.71122 109.878 8.27345C109.185 8.83568 108.606 9.50984 108.142 10.2985C107.678 11.0871 107.378 11.9673 107.242 12.9391C107.106 13.9109 107.162 14.7911 107.406 15.5797C107.65 16.3684 108.039 17.0425 108.573 17.6047C109.106 18.1669 109.767 18.5994 110.562 18.8996C111.357 19.2024 112.226 19.3524 113.172 19.3524C114.118 19.3524 115.031 19.2024 115.911 18.8996C116.79 18.5968 117.575 18.1669 118.267 17.6047C118.959 17.0425 119.544 16.3684 120.015 15.5797C120.487 14.7911 120.792 13.9109 120.928 12.9391C121.064 11.9673 121.007 11.0871 120.764 10.2985ZM117.126 12.9391C116.99 13.8626 116.615 14.6079 115.998 15.1778C115.38 15.7476 114.59 16.0326 113.629 16.0326C112.667 16.0326 111.96 15.7476 111.514 15.1778C111.065 14.6079 110.908 13.8626 111.044 12.9391C111.18 12.0182 111.552 11.2703 112.159 10.7004C112.767 10.1305 113.554 9.8456 114.516 9.8456C115.477 9.8456 116.187 10.1305 116.643 10.7004C117.1 11.2703 117.261 12.0157 117.126 12.9391Z" fill="#FFBD00"/>
<path d="M29.6202 8.58732C29.2777 8.07297 28.7729 7.68285 28.1111 7.41678C27.4492 7.15079 26.5762 7.01902 25.4972 7.01902C24.516 7.01902 23.5451 7.17612 22.5896 7.49024C21.6316 7.80444 20.7689 8.27566 19.9989 8.90398L21.6677 10.8853C22.1261 10.4496 22.6206 10.11 23.1536 9.85921C23.6842 9.61094 24.2533 9.48426 24.8585 9.48426C25.4972 9.48426 26.02 9.67424 26.4294 10.0517C26.8389 10.4292 27.0011 10.941 26.9213 11.5846C26.1513 11.5846 25.2963 11.6074 24.3563 11.6581C23.4163 11.7062 22.515 11.8633 21.6574 12.1293C20.7972 12.3954 20.053 12.8058 19.4246 13.3607C18.7937 13.9155 18.4048 14.701 18.258 15.7144C18.1756 16.3099 18.2168 16.8343 18.3816 17.2853C18.5438 17.7362 18.804 18.1138 19.1542 18.4204C19.507 18.7269 19.9268 18.9549 20.4187 19.1095C20.9106 19.2615 21.4333 19.34 21.9896 19.34C22.7416 19.34 23.4781 19.2033 24.1992 18.9296C24.9203 18.656 25.5255 18.205 26.0148 17.5767H26.0637L25.868 19.0487H29.2545L30.0889 13.0845C30.2357 12.1014 30.2821 11.2375 30.2228 10.4875C30.1662 9.73762 29.9653 9.10676 29.6202 8.59241V8.58732ZM26.4706 14.4425C26.4191 14.8404 26.2852 15.1849 26.0766 15.4788C25.8654 15.7727 25.6079 16.0134 25.2989 16.2034C24.9924 16.3934 24.6499 16.5404 24.2713 16.6443C23.8928 16.7481 23.5116 16.7988 23.1253 16.7988C22.9141 16.7988 22.7004 16.7734 22.4815 16.7203C22.2626 16.6696 22.0746 16.5835 21.9149 16.4619C21.7578 16.3402 21.6342 16.1983 21.5467 16.0337C21.4591 15.869 21.4333 15.6663 21.4668 15.4256C21.5183 14.9949 21.7089 14.6579 22.0334 14.4146C22.3579 14.174 22.7339 13.9916 23.1665 13.87C23.5966 13.7484 24.0344 13.6749 24.4825 13.6496C24.9306 13.6242 25.3014 13.6115 25.6002 13.6115H26.5736L26.4681 14.44L26.4706 14.4425ZM18.8426 7.14062C18.6623 7.09249 18.4666 7.05953 18.2528 7.04436C18.0391 7.02911 17.8279 7.01902 17.6142 7.01902C16.7952 7.01902 16.0922 7.19892 15.5024 7.56117C14.9127 7.9235 14.3744 8.46573 13.8826 9.19031H13.8336L14.104 7.30781H10.4214L8.75256 19.0436H12.4352L13.1228 14.141C13.2053 13.5608 13.316 13.0313 13.4551 12.5474C13.5941 12.0635 13.795 11.6505 14.0577 11.3034C14.3204 10.9563 14.6706 10.6877 15.1136 10.4952C15.5565 10.3026 16.1282 10.2063 16.8313 10.2063C17.1094 10.2063 17.3721 10.2265 17.6167 10.2671C17.8614 10.3076 18.1164 10.3685 18.3765 10.4496L18.8426 7.14062ZM5.4433 3.83167H1.76061L0.0428887 15.7853C-0.0395209 16.4289 -0.0034673 16.9761 0.153626 17.4272C0.308144 17.8782 0.563099 18.2455 0.91334 18.5267C1.26616 18.808 1.69366 19.0132 2.20099 19.1424C2.70832 19.2716 3.27232 19.335 3.89554 19.335C4.32046 19.335 4.75826 19.3122 5.20894 19.2615C5.65962 19.2133 6.09742 19.1171 6.52235 18.9727L6.91894 16.1072C6.91894 16.1072 6.50947 16.1907 6.19013 16.2313C5.87079 16.2718 5.61327 16.2921 5.41754 16.2921C5.0261 16.2921 4.71706 16.2389 4.49816 16.135C4.27668 16.0312 4.12217 15.8817 4.03203 15.6891C3.94189 15.4966 3.89811 15.266 3.89811 14.9999C3.89811 14.7339 3.92387 14.44 3.9728 14.1182L4.53679 10.2063H7.77652L8.19372 7.30781H4.95399L5.44587 3.82912L5.4433 3.83167ZM50.3874 9.99098C50.6991 9.84651 51.0081 9.77304 51.3197 9.77304C52.2185 9.77304 52.8906 10.1024 53.3336 10.7637L55.8857 8.56707C55.4119 7.98688 54.7886 7.58404 54.0212 7.35848C53.2512 7.13299 52.476 7.02156 51.688 7.02156C51.0648 7.02156 50.4441 7.09757 49.8235 7.25213C49.2002 7.40415 48.6337 7.64226 48.1186 7.96409C47.6035 8.28583 47.1657 8.69629 46.8052 9.19539C46.4447 9.69449 46.2155 10.2899 46.1176 10.9816C46.0017 11.7215 46.0687 12.3143 46.3133 12.7577C46.558 13.201 46.8979 13.5431 47.3331 13.7838C47.7658 14.0245 48.2422 14.207 48.7573 14.326C49.2723 14.4476 49.7565 14.5591 50.2046 14.663C50.6553 14.7669 51.0235 14.896 51.3094 15.0506C51.5953 15.2026 51.7137 15.4332 51.6648 15.7398C51.6159 16.0616 51.4098 16.282 51.0519 16.4036C50.6913 16.5252 50.2999 16.5835 49.8724 16.5835C49.3161 16.5835 48.8448 16.4745 48.4611 16.2566C48.0774 16.0387 47.7375 15.722 47.4413 15.304L44.8634 17.7439C45.3708 18.3393 46.0326 18.7548 46.8516 18.9879C47.6705 19.221 48.4972 19.3375 49.3316 19.3375C49.9702 19.3375 50.6244 19.2767 51.2965 19.1576C51.9661 19.036 52.5842 18.8282 53.1507 18.5293C53.7147 18.2303 54.2015 17.8377 54.6109 17.3461C55.0204 16.8545 55.2728 16.2313 55.3707 15.4738C55.4685 14.7339 55.399 14.141 55.1621 13.6977C54.9251 13.2543 54.5929 12.9046 54.168 12.6462C53.7431 12.3878 53.2718 12.2003 52.7567 12.0786C52.2417 11.957 51.7627 11.8456 51.3197 11.7417C50.8768 11.6378 50.5085 11.5162 50.2149 11.3794C49.9213 11.2425 49.7977 11.0298 49.8466 10.7384C49.8956 10.3836 50.0758 10.1354 50.3874 9.98844V9.99098ZM62.1643 5.45072C62.2776 4.67793 62.4991 4.16612 62.8262 3.91784C63.1532 3.66956 63.6116 3.54288 64.2011 3.54288C64.4304 3.54288 64.6314 3.56313 64.8042 3.60364C64.9762 3.64423 65.1598 3.70498 65.355 3.78353L65.9681 0.717858C65.6408 0.636766 65.296 0.581011 64.938 0.548131C64.5774 0.515169 64.2094 0.5 63.8331 0.5C62.8339 0.5 62.0124 0.624139 61.366 0.874959C60.7196 1.12578 60.1993 1.46778 59.8079 1.90103C59.4139 2.33683 59.1254 2.83847 58.9374 3.41112C58.7495 3.98368 58.6052 4.59175 58.5074 5.23532L56.5424 19.0487H60.2251L61.4767 10.2088H64.2011L64.619 7.31035H61.8939L62.1643 5.45072ZM87.5724 7.04436C87.3589 7.02911 87.147 7.01902 86.9335 7.01902C86.1144 7.01902 85.4116 7.19892 84.8218 7.56117C84.232 7.9235 83.6936 8.46573 83.2019 9.19031H83.1528L83.4237 7.30781H79.741L78.072 19.0436H81.7547L82.4426 14.141C82.5248 13.5608 82.6353 13.0313 82.7748 12.5474C82.9136 12.0635 83.1146 11.6505 83.3771 11.3034C83.6396 10.9563 83.9902 10.6877 84.433 10.4952C84.8758 10.3026 85.4473 10.2063 86.151 10.2063C86.4285 10.2063 86.6918 10.2265 86.936 10.2671C87.1811 10.3076 87.4361 10.3685 87.6962 10.4496L88.1622 7.14062C87.9819 7.09249 87.7859 7.05953 87.5724 7.04436ZM42.5354 7.44211C41.9945 7.16087 41.258 7.01902 40.3258 7.01902C39.8828 7.01902 39.4656 7.07478 39.0742 7.18875C38.6801 7.3028 38.3299 7.44719 38.0183 7.62455C37.7067 7.8019 37.4285 8.00205 37.1839 8.22753C36.9392 8.45302 36.7409 8.6785 36.5941 8.90398H36.5452L36.7667 7.31035H33.2308L31.562 19.0462H35.2447L36.0791 13.201C36.128 12.8134 36.2027 12.4435 36.3006 12.0888C36.3984 11.7341 36.5452 11.4173 36.7435 11.1362C36.9392 10.855 37.1968 10.6294 37.5161 10.4597C37.8354 10.2899 38.232 10.2063 38.7059 10.2063C39.1797 10.2063 39.5326 10.3026 39.7618 10.4952C39.991 10.6877 40.1455 10.9385 40.2279 11.2451C40.3103 11.5517 40.3335 11.8861 40.3026 12.2484C40.2691 12.6107 40.2279 12.9604 40.179 13.2999L39.3677 19.0487H43.0504L43.9595 12.5753C44.0728 11.7873 44.1217 11.0551 44.1063 10.3786C44.0908 9.70212 43.9595 9.1143 43.7123 8.6152C43.4676 8.1161 43.0736 7.72589 42.5328 7.44465L42.5354 7.44211ZM76.1563 8.69884C75.7468 8.15915 75.2159 7.74361 74.5596 7.45482C73.905 7.16596 73.1507 7.01902 72.3008 7.01902C71.3837 7.01902 70.5006 7.16341 69.6508 7.45482C68.8009 7.74361 68.0383 8.15915 67.3687 8.69884C66.6967 9.23844 66.1384 9.88709 65.6873 10.6421C65.237 11.3996 64.9455 12.2434 64.8167 13.1783C64.6854 14.1132 64.7394 14.9569 64.9762 15.7144C65.2138 16.472 65.5893 17.1181 66.1043 17.6578C66.6194 18.1974 67.2607 18.6129 68.0308 18.9018C68.8009 19.1906 69.6433 19.3375 70.5596 19.3375C71.5258 19.3375 72.4861 19.1373 73.444 18.7345C74.4018 18.3317 75.2234 17.7616 75.9113 17.0193L73.6034 15.1596C73.228 15.5776 72.8134 15.9196 72.3648 16.1857C71.9146 16.4517 71.3862 16.5835 70.7814 16.5835C70.0603 16.5835 69.483 16.3782 69.051 15.9678C68.6182 15.5573 68.3756 15.005 68.3274 14.3133H76.8691L77.0419 13.1783C77.1731 12.2459 77.1607 11.3996 77.0062 10.6421C76.8483 9.88455 76.5684 9.23844 76.1588 8.69884H76.1563ZM73.5295 11.8506H68.6697C68.7336 11.5618 68.8499 11.2831 69.0119 11.0171C69.1773 10.7511 69.38 10.518 69.625 10.3178C69.8693 10.1177 70.1559 9.95294 70.4848 9.82371C70.8122 9.69449 71.1802 9.63119 71.5897 9.63119C72.2593 9.63119 72.7769 9.84905 73.1349 10.2823C73.4955 10.7181 73.6267 11.24 73.5295 11.8531V11.8506Z" fill="#001A3F"/>
</svg>
