<svg width="7" height="12" viewBox="0 0 7 12" fill="none" xmlns="http://www.w3.org/2000/svg">
<path fill-rule="evenodd" clip-rule="evenodd" d="M1.27328 11.4315C1.08515 11.2154 0.979465 10.9224 0.979465 10.6168C0.979465 10.3112 1.08515 10.0182 1.27328 9.80205L4.5778 6.00726L1.27328 2.21246C1.17743 2.10616 1.10098 1.979 1.04839 1.83841C0.995798 1.69781 0.968115 1.54659 0.966957 1.39358C0.965799 1.24057 0.991189 1.08883 1.04165 0.947202C1.0921 0.805578 1.16662 0.676913 1.26084 0.568712C1.35506 0.460512 1.4671 0.374945 1.59043 0.317001C1.71375 0.259059 1.84589 0.2299 1.97914 0.231231C2.11238 0.23256 2.24406 0.26435 2.36649 0.324745C2.48892 0.38514 2.59965 0.472932 2.69222 0.582996L6.70622 5.19252C6.89435 5.40863 7.00003 5.70169 7.00003 6.00726C7.00003 6.31283 6.89435 6.60589 6.70622 6.82199L2.69222 11.4315C2.50404 11.6476 2.24884 11.7689 1.98275 11.7689C1.71666 11.7689 1.46146 11.6476 1.27328 11.4315Z" fill="#D2D6DC"/>
</svg>
