<svg width="13" height="17" viewBox="0 0 13 17" fill="none" xmlns="http://www.w3.org/2000/svg">
<path d="M5.18849 0.74707C6.93165 5.42871 3.08009 5.59473 0.956449 8.57164C-0.522468 10.6448 -0.771475 15.207 4.55763 16.4023C2.31642 15.2236 1.83497 11.8037 4.2588 9.66211C3.633 11.739 4.78291 13.0703 6.22861 12.5815C7.64552 12.1025 8.56611 13.1201 8.542 14.2773C8.5254 15.0742 8.27638 15.6885 7.39649 16.1367C7.39649 16.1367 12.2608 15.207 12.2608 10.459C12.2608 7.57031 9.68751 7.1698 10.9824 4.74805C9.43849 4.88086 8.90539 5.88989 9.05665 7.55371C9.15626 8.64941 8.01075 9.40201 7.16407 8.89877C6.47635 8.49001 6.50001 7.68445 7.09766 7.08887C8.37014 5.82082 8.87403 2.92188 5.18849 0.74707Z" fill="black"/>
</svg>
