<svg width="13" height="16" viewBox="0 0 13 16" fill="none" xmlns="http://www.w3.org/2000/svg">
<path d="M5.18849 0.24707C6.93165 4.92871 3.08009 5.09473 0.956449 8.07164C-0.522468 10.1448 -0.771475 14.707 4.55763 15.9023C2.31642 14.7236 1.83497 11.3037 4.2588 9.16211C3.633 11.239 4.78291 12.5703 6.22861 12.0815C7.64552 11.6025 8.56611 12.6201 8.542 13.7773C8.5254 14.5742 8.27638 15.1885 7.39649 15.6367C7.39649 15.6367 12.2608 14.707 12.2608 9.95898C12.2608 7.07031 9.68751 6.6698 10.9824 4.24805C9.43849 4.38086 8.90539 5.38989 9.05665 7.05371C9.15626 8.14941 8.01075 8.90201 7.16407 8.39877C6.47635 7.99001 6.50001 7.18445 7.09766 6.58887C8.37014 5.32082 8.87403 2.42188 5.18849 0.24707Z" fill="#1B1130"/>
</svg>
