<svg width="15" height="20" viewBox="0 0 15 20" fill="none" xmlns="http://www.w3.org/2000/svg">
<path d="M2.22657 6.57742V13.2355C1.54587 13.3821 0.943464 13.7753 0.535318 14.3395C0.127173 14.9036 -0.057856 15.5988 0.0158531 16.2912C0.0895622 16.9836 0.416798 17.6242 0.934563 18.0898C1.45233 18.5553 2.12402 18.8129 2.82032 18.8129C3.51662 18.8129 4.18831 18.5553 4.70608 18.0898C5.22384 17.6242 5.55108 16.9836 5.62479 16.2912C5.69849 15.5988 5.51347 14.9036 5.10532 14.3395C4.69717 13.7753 4.09477 13.3821 3.41407 13.2355V10.8713H9.05469C9.84178 10.8704 10.5964 10.5573 11.1529 10.0008C11.7095 9.44424 12.0226 8.68964 12.0234 7.90256V6.54105C12.6949 6.35768 13.2748 5.93244 13.6516 5.34715C14.0283 4.76187 14.1753 4.05792 14.0642 3.37079C13.953 2.68366 13.5917 2.06192 13.0496 1.62523C12.5076 1.18854 11.8232 0.96777 11.1282 1.00541C10.4331 1.04305 9.77657 1.33644 9.28487 1.82911C8.79316 2.32178 8.50107 2.97892 8.46479 3.67403C8.42852 4.36914 8.65064 5.0531 9.08839 5.59428C9.52614 6.13545 10.1486 6.49558 10.8359 6.60536V7.90256C10.8354 8.37481 10.6476 8.82756 10.3136 9.16149C9.9797 9.49543 9.52695 9.68327 9.05469 9.68381H3.41407V6.57742C4.09477 6.43083 4.69717 6.03761 5.10532 5.47347C5.51347 4.90933 5.69849 4.21415 5.62479 3.52176C5.55108 2.82937 5.22384 2.18872 4.70608 1.72315C4.18831 1.25758 3.51662 1 2.82032 1C2.12402 1 1.45233 1.25758 0.934563 1.72315C0.416798 2.18872 0.0895622 2.82937 0.0158531 3.52176C-0.057856 4.21415 0.127173 4.90933 0.535318 5.47347C0.943464 6.03761 1.54587 6.43083 2.22657 6.57742ZM9.64844 3.82052C9.64844 3.49758 9.74421 3.1819 9.92362 2.91338C10.103 2.64487 10.358 2.43559 10.6564 2.312C10.9548 2.18842 11.2831 2.15608 11.5998 2.21909C11.9165 2.28209 12.2075 2.4376 12.4358 2.66595C12.6642 2.8943 12.8197 3.18524 12.8827 3.50198C12.9457 3.81871 12.9134 4.14702 12.7898 4.44537C12.6662 4.74373 12.4569 4.99874 12.1884 5.17816C11.9199 5.35757 11.6042 5.45334 11.2813 5.45334C10.8484 5.45286 10.4333 5.28067 10.1272 4.97457C9.82111 4.66846 9.64893 4.25343 9.64844 3.82052ZM4.45313 15.9924C4.45313 16.3153 4.35737 16.631 4.17795 16.8995C3.99854 17.1681 3.74353 17.3773 3.44517 17.5009C3.14681 17.6245 2.81851 17.6568 2.50177 17.5938C2.18504 17.5308 1.8941 17.3753 1.66575 17.147C1.43739 16.9186 1.28188 16.6277 1.21888 16.3109C1.15588 15.9942 1.18821 15.6659 1.3118 15.3675C1.43538 15.0692 1.64466 14.8142 1.91318 14.6348C2.18169 14.4553 2.49738 14.3596 2.82032 14.3596C3.25322 14.3601 3.66825 14.5323 3.97436 14.8384C4.28047 15.1445 4.45265 15.5595 4.45313 15.9924ZM2.82032 2.18771C3.14326 2.18771 3.45895 2.28347 3.72746 2.46289C3.99598 2.64231 4.20526 2.89732 4.32884 3.19567C4.45242 3.49403 4.48476 3.82234 4.42176 4.13907C4.35876 4.4558 4.20324 4.74674 3.97489 4.9751C3.74654 5.20345 3.4556 5.35896 3.13886 5.42196C2.82213 5.48496 2.49383 5.45263 2.19547 5.32905C1.89711 5.20546 1.6421 4.99618 1.46268 4.72767C1.28327 4.45915 1.18751 4.14346 1.18751 3.82052C1.18799 3.38762 1.36017 2.97259 1.66628 2.66648C1.97239 2.36038 2.38742 2.18819 2.82032 2.18771Z" fill="black"/>
</svg>
