<?xml version="1.0" encoding="iso-8859-1"?>
<!-- Generator: Adobe Illustrator 19.0.0, SVG Export Plug-In . SVG Version: 6.00 Build 0)  -->
<svg fill="#444F60" version="1.1" id="Capa_1" xmlns="http://www.w3.org/2000/svg" xmlns:xlink="http://www.w3.org/1999/xlink" x="0px" y="0px"
	 viewBox="0 0 512 512" style="enable-background:new 0 0 512 512;" xml:space="preserve">
<g>
	<g>
		<path d="M44.07,403.93C42.21,402.07,39.63,401,37,401s-5.21,1.069-7.07,2.93C28.07,405.79,27,408.37,27,411s1.07,5.21,2.93,7.069
			C31.79,419.93,34.37,421,37,421s5.21-1.07,7.07-2.931C45.93,416.21,47,413.63,47,411S45.93,405.79,44.07,403.93z"/>
	</g>
</g>
<g>
	<g>
		<path d="M445.627,115.988c-0.004-0.003-0.008-0.007-0.013-0.01l-66.666-45.032c-12.782-8.634-28.008-11.83-42.585-9.68
			c0.651-3.141,0.992-6.369,0.992-9.651c0-12.579-4.899-24.405-13.794-33.301l-4.521-4.521C310.146,4.898,298.319,0,285.74,0
			c-12.579,0-24.406,4.898-33.302,13.794c-8.895,8.896-13.793,20.722-13.793,33.302c0,12.579,4.899,24.405,13.793,33.3l4.521,4.522
			c5.665,5.664,12.521,9.7,20,11.89l-67.283,50.694c-4.282,3.226-7.391,7.463-9.218,12.145c-4.842-0.978-9.974-0.704-14.882,1.049
			l-65.179,23.26c2.381-5.627,3.698-11.809,3.698-18.293v-6.394c0-25.968-21.127-47.095-47.095-47.095s-47.095,21.127-47.095,47.095
			v6.394c0,18.069,10.234,33.785,25.205,41.68C38.195,214.491,27,231.198,27,249.722V369c0,5.522,4.477,10,10,10s10-4.478,10-10
			v-18.3h39.443c2.082,0,4.015-0.638,5.616-1.727l45.219-30.695c4.445-3.017,9.634-4.611,15.005-4.611
			c14.731,0,26.716,11.984,26.716,26.715v61.974l-28,11.205V363.5c0-3.601-1.936-6.923-5.067-8.699
			c-3.131-1.775-6.976-1.731-10.066,0.117L85.2,385.228c-6.292,3.764-10.2,10.657-10.2,17.989V492H47v-41.98c0-5.522-4.477-10-10-10
			s-10,4.478-10,10V502c0,5.522,4.477,10,10,10h48c5.523,0,10-4.478,10-10v-98.783c0-0.337,0.18-0.654,0.468-0.826L131,381.135V502
			c0,5.522,4.477,10,10,10h334c5.523,0,10-4.478,10-10V188.722C485,159.263,470.284,132.089,445.627,115.988z M271.102,70.777
			l-4.521-4.523c-5.118-5.117-7.936-11.921-7.936-19.158c0-7.238,2.818-14.042,7.936-19.159C271.698,22.818,278.502,20,285.74,20
			s14.041,2.818,19.159,7.937l4.521,4.521c10.564,10.563,10.564,27.754,0,38.318C298.855,81.34,281.665,81.34,271.102,70.777z
			 M221.712,163.475l99.208-74.748c13.748-10.357,32.569-10.842,46.833-1.208l55.437,37.447l-48.926,39.357l-38.37-25.919
			c-2.77-1.872-6.292-2.236-9.387-0.968l-97.01,39.726c-3.602,1.472-7.809,0.071-9.808-3.262c-0.009-0.016-0.019-0.031-0.028-0.047
			C217.598,170.372,218.479,165.91,221.712,163.475z M49.905,165.663v-6.394c0-14.94,12.155-27.095,27.095-27.095
			s27.095,12.154,27.095,27.095v6.394c0,14.94-12.155,27.096-27.095,27.096S49.905,180.604,49.905,165.663z M107,262.333v52.327
			L83.371,330.7H47v-27.033v-53.945c0-10.97,6.941-20.816,17.272-24.503l128.025-45.688c3.565-1.271,7.557,0.168,9.487,3.425
			c2.121,3.578,1.097,8.226-2.33,10.581l-88.118,60.555C108.622,255.957,107,259.039,107,262.333z M152.284,293.667
			c-9.012,0-17.726,2.574-25.284,7.442v-33.515l83.782-57.575c4.767-3.276,8.207-7.813,10.173-12.877
			c1.854,0.38,3.748,0.583,5.655,0.583c3.516,0,7.068-0.664,10.467-2.056l92.058-37.697l39.736,26.841
			c8.849,6.784,14.13,17.469,14.13,28.625V292h-19.667c-2.213,0-4.363,0.734-6.115,2.087L257.817,370.9L199,394.395v-54.013
			C199,314.623,178.043,293.667,152.284,293.667z M465,492H151v-56.894l115.534-46.153c0.862-0.344,1.671-0.806,2.405-1.373
			L366.747,312H465V492z M465,292h-20v-78.867c0-5.522-4.477-10-10-10s-10,4.478-10,10V292h-22v-78.562
			c0-13.213-4.771-25.998-13.125-36.005l50.453-40.585C455.89,149.477,465,168.391,465,188.722V292z"/>
	</g>
</g>
<g>
	<g>
		<path d="M427,352.333h-23.333c-5.523,0-10,4.478-10,10c0,5.522,4.477,10,10,10H417V411c0,5.522,4.477,10,10,10s10-4.478,10-10
			v-48.667C437,356.811,432.523,352.333,427,352.333z"/>
	</g>
</g>
<g>
	<g>
		<path d="M434.07,442.951c-1.86-1.861-4.44-2.931-7.07-2.931s-5.21,1.07-7.07,2.931c-1.86,1.859-2.93,4.439-2.93,7.069
			s1.07,5.21,2.93,7.07s4.44,2.93,7.07,2.93s5.21-1.069,7.07-2.93c1.86-1.861,2.93-4.44,2.93-7.07S435.93,444.81,434.07,442.951z"/>
	</g>
</g>
<g>
</g>
<g>
</g>
<g>
</g>
<g>
</g>
<g>
</g>
<g>
</g>
<g>
</g>
<g>
</g>
<g>
</g>
<g>
</g>
<g>
</g>
<g>
</g>
<g>
</g>
<g>
</g>
<g>
</g>
</svg>
