<svg xmlns="http://www.w3.org/2000/svg" width="48" height="48" fill="none" xmlns:v="https://vecta.io/nano"><rect x=".75" y=".75" width="46.5" height="46.5" rx="5.25" fill="#a7f3d0" stroke="#000" stroke-width="1.5"/><path d="M13.698 24.557a1 1 0 1 0-1.396 1.432l1.396-1.432zM21.949 34l-.698.716a1 1 0 0 0 1.536-.169L21.949 34zm13.888-19.453a1 1 0 0 0-1.675-1.093l1.675 1.093zM12.302 25.989l8.949 8.727 1.396-1.432-8.949-8.727-1.396 1.432zm10.485 8.558l13.051-20-1.675-1.093-13.051 20 1.675 1.093z" fill="#000"/></svg>