<svg width="20" height="20" viewBox="0 0 20 20" fill="none" xmlns="http://www.w3.org/2000/svg">
<circle cx="9.69558" cy="9.59524" r="8.59524" stroke="black" stroke-width="1.5"/>
<path d="M11.5074 7.4984H12.7458C12.7084 6.09195 11.5032 5.07141 9.77443 5.07141C8.06643 5.07141 6.75737 6.07908 6.75737 7.59274C6.75737 8.81481 7.60514 9.5309 8.97238 9.91253L9.97807 10.1955C10.8882 10.4442 11.5905 10.753 11.5905 11.5334C11.5905 12.391 10.7967 12.957 9.70379 12.957C8.71472 12.957 7.89189 12.5025 7.81709 11.5462H6.52881C6.61192 13.1371 7.80462 14.119 9.7121 14.119C11.711 14.119 12.8621 13.0342 12.8621 11.5462C12.8621 9.96399 11.4949 9.35081 10.4144 9.07638L9.58327 8.8534C8.91835 8.67759 8.03318 8.356 8.03734 7.51555C8.03734 6.76945 8.6981 6.2163 9.74534 6.2163C10.7219 6.2163 11.4159 6.68798 11.5074 7.4984Z" fill="black"/>
<path d="M9.69556 5.52377V4.16663M9.69556 13.6666V15.0238" stroke="black" stroke-width="1.5"/>
</svg>
