<svg width="16" height="16" viewBox="0 0 16 16" fill="none" xmlns="http://www.w3.org/2000/svg">
<circle cx="8" cy="8" r="8" fill="#9CA3AF"/>
<path d="M7.13178 9.64083C7.13178 9.07585 7.2 8.62556 7.33643 8.28997C7.47287 7.95438 7.7416 7.58693 8.14264 7.18762C8.5478 6.78407 8.80414 6.49733 8.91163 6.32741C9.077 6.06828 9.15969 5.78792 9.15969 5.48631C9.15969 5.087 9.06253 4.78327 8.86822 4.57512C8.67804 4.36272 8.3969 4.25652 8.02481 4.25652C7.66925 4.25652 7.38191 4.3606 7.16279 4.56875C6.9478 4.77265 6.84031 5.05089 6.84031 5.40347H5.33333C5.3416 4.65158 5.58966 4.05687 6.07752 3.61932C6.56951 3.18178 7.21861 2.96301 8.02481 2.96301C8.85581 2.96301 9.50284 3.17966 9.96589 3.61295C10.4331 4.04625 10.6667 4.65158 10.6667 5.42896C10.6667 6.12138 10.3525 6.80318 9.72403 7.47436L8.96124 8.24537C8.68837 8.56397 8.5478 9.02912 8.53954 9.64083H7.13178ZM7.02636 11.6225C7.02636 11.3719 7.10284 11.1701 7.25581 11.0172C7.40879 10.86 7.6155 10.7814 7.87597 10.7814C8.14057 10.7814 8.34935 10.8621 8.50233 11.0235C8.6553 11.1807 8.73178 11.3804 8.73178 11.6225C8.73178 11.8561 8.65737 12.0516 8.50853 12.2087C8.35969 12.3659 8.14884 12.4445 7.87597 12.4445C7.6031 12.4445 7.39225 12.3659 7.24341 12.2087C7.09871 12.0516 7.02636 11.8561 7.02636 11.6225Z" fill="white"/>
</svg>
