<?xml version="1.0" encoding="iso-8859-1"?>
<!-- Generator: Adobe Illustrator 19.0.0, SVG Export Plug-In . SVG Version: 6.00 Build 0)  -->
<svg fill="#444F60" version="1.1" id="Capa_1" xmlns="http://www.w3.org/2000/svg" xmlns:xlink="http://www.w3.org/1999/xlink" x="0px" y="0px"
	 viewBox="0 0 512 512" style="enable-background:new 0 0 512 512;" xml:space="preserve">
<g>
	<g>
		<path d="M256,8.14c-141.152,0-256,114.848-256,256c0,105.312,65.984,201.216,164.224,238.656c4.128,1.6,8.704,1.376,12.672-0.544
			c3.968-1.952,6.976-5.408,8.288-9.632l48-153.28c2.304-7.264-0.864-15.136-7.52-18.784C204.896,309.068,192,287.468,192,264.14
			c0-35.296,28.704-64,64-64s64,28.704,64,64c0,23.328-12.896,44.928-33.696,56.384c-6.656,3.68-9.76,11.52-7.52,18.784l48,153.28
			c1.344,4.224,4.352,7.68,8.32,9.632c2.208,1.056,4.576,1.6,6.976,1.6c1.952,0,3.872-0.352,5.696-1.056
			C446.016,465.356,512,369.452,512,264.14C512,122.988,397.152,8.14,256,8.14z M352.096,466.188l-39.104-124.832
			C337.344,323.244,352,294.668,352,264.14c0-52.928-43.072-96-96-96c-52.928,0-96,43.072-96,96
			c0,30.56,14.656,59.104,39.008,77.216l-39.072,124.832C82.752,429.708,32,350.54,32,264.14c0-123.52,100.48-224,224-224
			c123.488,0,224,100.48,224,224C480,350.54,429.248,429.708,352.096,466.188z"/>
	</g>
</g>
<g>
</g>
<g>
</g>
<g>
</g>
<g>
</g>
<g>
</g>
<g>
</g>
<g>
</g>
<g>
</g>
<g>
</g>
<g>
</g>
<g>
</g>
<g>
</g>
<g>
</g>
<g>
</g>
<g>
</g>
</svg>
