<svg xmlns="http://www.w3.org/2000/svg" viewBox="0 0 1140.64 348.59"><defs><style>.cls-1{fill:#894611;}.cls-2{fill:#ffd184;}.cls-3{fill:#4d4d4d;}</style></defs><title>toast-logo-header</title><g id="Layer_2" data-name="Layer 2"><g id="Layer_1-2" data-name="Layer 1"><path class="cls-1" d="M308.49,124c2-3.35,5.48-8.31,8-11.9,10.79-15.3,23-32.63,20.52-50.3-1.92-13.63-9-26-20.56-35.65C306.77,18,294,11.59,278.4,7.17c-28-8-64.79-9.34-103.44-3.89s-73.58,17-98.33,32.36C66.62,41.87,30.19,65.71,11,90.77,1.4,103.33-1.4,118.41.62,132.73c2.61,18.51,19.92,32.49,35.2,44.82,3.53,2.85,8.41,6.78,11.34,9.56-1.1,7.56-3.86,22.14-6.16,34.33-9.34,49.38-15.75,85.68-13.3,103.07.55,3.9,3.14,13.55,15.25,18.84A54.54,54.54,0,0,0,56.63,347c8.39,1.26,19.8,1.79,33.9,1.57,27.42-.41,63.23-3.56,100.84-8.87s72.89-12.18,99.36-19.37c13.61-3.7,24.42-7.36,32.13-10.89A54.57,54.57,0,0,0,335,302.15c10.18-8.44,30.09-41.38,27.75-57.8-2.37-16.64-18-48.29-39.75-91.19C317.75,142.83,311.48,130.49,308.49,124Z"/><path class="cls-1" d="M217,301.33c-35.81,5.06-69.9,8.05-96,8.45-13.43.2-24.28-.3-32.27-1.5a52.14,52.14,0,0,1-13-3.44c-11.53-5-14-14.23-14.52-17.94-2.34-16.56,3.78-51.12,12.66-98.13,2.2-11.61,4.82-25.49,5.87-32.69-2.79-2.64-7.44-6.39-10.8-9.1-14.54-11.74-31-25-33.51-42.67-1.93-13.64,1.5-27.45,9.89-39.95,7.06-10.5,17.61-20.17,31.34-28.72C101.38,20.23,136.3,8.73,175,3.28S250.35-.79,278.4,7.17C294,11.59,306.77,18,316.46,26.1,328,35.79,335.1,48.12,337,61.75c2.5,17.67-9.73,35-20.52,50.3-2.53,3.59-6,8.55-8,11.9,3,6.54,9.26,18.88,14.52,29.21,21.79,42.9,37.4,74.55,39.75,91.19.52,3.72.7,13.22-9,21.26a51.72,51.72,0,0,1-11.56,6.91c-7.34,3.36-17.64,6.85-30.59,10.37C286.41,289.73,252.81,296.28,217,301.33Z"/><path class="cls-2" d="M288.28,124.82c-1.63-11.53,32.26-42.2,29.7-60.38-5.21-36.95-67.56-52.38-140.33-42.12S49.23,64.67,54.44,101.62c2.56,18.1,43.32,38.32,44.91,49.63,1.29,9.17-22.48,109.16-19.12,133,1.3,9.28,61.94,8.26,134.09-1.92S345,256.32,343.71,247C340.36,223.23,289.54,133.77,288.28,124.82Z"/><path class="cls-3" d="M484.28,102V256.19c0,8-6.39,15-15.66,15s-15.34-6.07-15.34-15V102h-42a15.08,15.08,0,0,1-15.17-14.77c-.1-9.72,6-15.23,15.34-15.23H530.73a14.82,14.82,0,0,1,14.91,14.55c.06,9.65-6,15.45-15.34,15.45Z"/><path class="cls-3" d="M625.45,71c34.13.31,87.85,23.7,87.85,100.17,0,69.83-46.46,99.54-88.8,99.54S535.71,241,535.71,171.21c0-76.47,53.72-99.86,87.84-100.17h1.9ZM683,171.5c0-50.24-33.18-69.83-57.51-70.46h-1C598.59,101,566,120.31,566,171.5c0,55.3,37.29,69.84,58.46,69.84S683,226.8,683,171.5Z"/><path class="cls-3" d="M842.54,102.55c11.69,25.91,22.12,80.58,28.12,141.25.32,3.79,1,7.59,1,11.06,0,8.22-3.16,16.12-14.54,16.12-9.16,0-14.53-5.38-15.48-14.54-2.21-20.22-4.11-37.6-6.64-53.4H762.28c-2.53,15.48-4.74,33.49-6.64,53.4-.95,9.16-6.32,14.54-15.48,14.54-11.38,0-14.54-7.9-14.54-16.12,0-3.47.63-7.27,1-11.06,6-60.67,17.38-115.34,29.07-141.25,10.11-22.12,22.44-31.28,43-31.28S832.43,79.8,842.54,102.55ZM767,173H829.9c-3.48-19.59-7.27-33.81-9.8-43.61-6.63-23.38-13-28.75-21.49-28.75s-14.85,5.37-21.48,28.75C774.28,139.23,770.81,153.45,767,173Z"/><path class="cls-3" d="M885.83,254.27c0-8.85,6-14.85,15.48-14.85,4.43,0,10.75.94,27.81.94,14.85,0,29.39-7.89,29.39-23.69,0-16.12-7.9-21.49-28.76-31.92-29.07-14.54-42.34-30.65-42.34-58.14,0-34.76,26.86-55,70.15-55a97.69,97.69,0,0,1,14.85.95c7.9,1.27,13,7,13,14.85,0,8.54-5.69,15.49-14.22,15.49-4.43,0-13.91-1-22.75-1-20.86,0-30,11.69-30,24.65,0,15.8,7.58,20.85,32.23,34.76,22.75,12.64,39.18,26.22,39.18,55,0,34.13-25.59,54.35-66.36,54.35-10.74,0-19-.32-25-1.9C890.89,266.91,885.83,261.54,885.83,254.27Z"/><path class="cls-3" d="M1079.28,102V256.19c0,8-6.39,15-15.66,15s-15.34-6.07-15.34-15V102h-42a15.09,15.09,0,0,1-15.17-14.78c-.1-9.71,6-15.22,15.34-15.22h119.31a14.82,14.82,0,0,1,14.91,14.55c.06,9.65-6,15.45-15.34,15.45Z"/></g></g></svg>