<?xml version="1.0" standalone="no"?>
<!DOCTYPE svg PUBLIC "-//W3C//DTD SVG 20010904//EN"
 "http://www.w3.org/TR/2001/REC-SVG-20010904/DTD/svg10.dtd">
<svg version="1.0" xmlns="http://www.w3.org/2000/svg"
 width="224.000000pt" height="224.000000pt" viewBox="0 0 224.000000 224.000000"
 preserveAspectRatio="xMidYMid meet">
<metadata>
Created by potrace 1.11, written by Peter Selinger 2001-2013
</metadata>
<g transform="translate(0.000000,224.000000) scale(0.100000,-0.100000)"
fill="#000000" stroke="none">
<path d="M965 2085 c-5 -2 -44 -11 -85 -20 -84 -19 -196 -68 -262 -113 -114
-78 -202 -211 -214 -323 l-6 -54 65 0 65 0 5 37 c17 124 136 244 304 305 92
33 122 38 258 38 204 0 352 -54 468 -171 43 -44 86 -125 89 -171 3 -38 -2 -35
63 -38 62 -2 74 7 69 48 -20 134 -100 252 -232 338 -132 87 -286 128 -467 127
-60 0 -114 -2 -120 -3z"/>
<path d="M525 1380 c-21 -28 -36 -52 -34 -54 56 -40 664 -479 688 -496 27 -19
35 -21 42 -9 4 8 19 29 33 48 14 19 26 38 26 42 0 4 -123 96 -272 205 -150
108 -306 221 -346 251 -40 29 -78 56 -86 59 -8 3 -28 -15 -51 -46z"/>
<path d="M941 1380 c-19 -28 -32 -52 -30 -54 12 -11 684 -496 706 -509 7 -4
25 13 47 43 20 28 36 52 36 54 0 2 -53 42 -117 88 -65 47 -225 162 -356 256
-130 95 -240 172 -245 172 -4 0 -22 -23 -41 -50z"/>
<path d="M404 622 c31 -275 341 -478 715 -467 118 4 136 6 236 36 241 72 408
241 428 432 l5 47 -64 0 c-35 0 -65 -4 -65 -10 -1 -5 -2 -13 -3 -17 -1 -5 -6
-24 -10 -43 -21 -90 -114 -189 -234 -247 -345 -166 -832 -13 -878 276 l-7 41
-64 0 -64 0 5 -48z"/>
</g>
</svg>
