<?xml version="1.0" encoding="utf-8"?>
<!-- Generator: Adobe Illustrator 16.0.0, SVG Export Plug-In . SVG Version: 6.00 Build 0)  -->
<!DOCTYPE svg PUBLIC "-//W3C//DTD SVG 1.1//EN" "http://www.w3.org/Graphics/SVG/1.1/DTD/svg11.dtd">
<svg version="1.1" id="Layer_1" xmlns="http://www.w3.org/2000/svg" xmlns:xlink="http://www.w3.org/1999/xlink" x="0px" y="0px"
	 width="535.016px" height="126.327px" viewBox="0 0 535.016 126.327" enable-background="new 0 0 535.016 126.327"
	 xml:space="preserve">
<g>
	<g>
		<path fill="#1D1D1B" d="M154.912,21.665h10.54l24.425,71.451h-8.713l-5.678-17.129h-30.402l-5.677,17.129h-8.816L154.912,21.665z
			 M173.255,68.486l-12.87-38.917l-13.173,38.917H173.255z"/>
		<path fill="#1D1D1B" d="M202.901,92.709c-3.212-1.555-5.796-3.699-7.752-6.436c-1.964-2.736-3.042-5.861-3.245-9.375l7.5-1.723
			c0.134,2.568,0.844,4.832,2.128,6.791c1.281,1.961,3.005,3.445,5.168,4.459c2.162,1.012,4.561,1.52,7.196,1.52
			c2.295,0,4.357-0.336,6.183-1.014c1.822-0.674,3.292-1.672,4.408-2.99c1.116-1.318,1.671-2.752,1.671-4.307
			c0-1.756-0.606-3.191-1.822-4.309c-1.219-1.113-2.706-1.99-4.46-2.633c-1.757-0.643-4.054-1.334-6.893-2.08
			c-3.92-1.012-7.11-2.025-9.578-3.037c-2.464-1.015-4.544-2.517-6.232-4.511c-1.691-1.993-2.533-4.612-2.533-7.854
			c0-2.838,0.76-5.423,2.281-7.753c1.519-2.33,3.579-4.156,6.18-5.473c2.602-1.317,5.525-1.976,8.769-1.976
			c3.176,0,6.116,0.659,8.818,1.976c2.699,1.317,4.898,3.127,6.585,5.422c1.688,2.298,2.672,4.864,2.94,7.704l-7.5,1.924
			c-0.136-3.105-1.232-5.555-3.294-7.348c-2.062-1.787-4.646-2.684-7.752-2.684c-1.757,0-3.361,0.337-4.816,1.012
			c-1.452,0.675-2.599,1.621-3.444,2.838c-0.844,1.216-1.267,2.568-1.267,4.054c0,1.758,0.609,3.192,1.825,4.306
			c1.216,1.114,2.448,1.926,3.701,2.432c1.249,0.508,3.831,1.202,7.75,2.08c3.717,1.013,6.842,2.093,9.375,3.241
			c2.534,1.151,4.646,2.704,6.333,4.663c1.688,1.961,2.535,4.393,2.535,7.297c0,3.041-0.88,5.795-2.635,8.26
			c-1.758,2.467-4.14,4.393-7.145,5.777c-3.009,1.385-6.402,2.078-10.188,2.078C209.706,95.041,206.109,94.264,202.901,92.709z"/>
		<path fill="#1D1D1B" d="M246.73,116.322c-3.176-1.352-5.961-3.277-8.359-5.777c-2.399-2.5-4.241-5.371-5.524-8.613l6.486-4.357
			c1.147,4.119,3.277,7.447,6.384,9.98s6.722,3.803,10.845,3.803c3.176,0,5.963-0.795,8.359-2.383
			c2.399-1.588,4.292-3.75,5.678-6.486c1.385-2.734,2.078-5.828,2.078-9.271l-0.102-6.893c-0.947,1.689-2.197,3.191-3.749,4.51
			c-1.558,1.316-3.28,2.346-5.17,3.09c-1.893,0.744-3.816,1.117-5.776,1.117c-3.513,0-6.638-0.863-9.375-2.584
			c-2.737-1.723-4.849-4.088-6.333-7.096c-1.488-3.006-2.229-6.469-2.229-10.389V41.934h7.702v33.039c0,2.57,0.472,4.814,1.419,6.74
			c0.943,1.926,2.295,3.463,4.052,4.611c1.754,1.15,3.784,1.723,6.081,1.723c2.497,0,4.762-0.609,6.791-1.824
			c2.025-1.217,3.632-2.887,4.812-5.016c1.184-2.129,1.775-4.545,1.775-7.246V41.934h7.701l0.102,51.283
			c0,4.797-1.012,9.102-3.041,12.92c-2.025,3.816-4.831,6.807-8.411,8.969c-3.583,2.162-7.602,3.244-12.059,3.244
			C253.283,118.35,249.906,117.674,246.73,116.322z"/>
		<path fill="#1D1D1B" d="M290.513,41.934h6.994l0.708,6.791c1.419-2.635,3.479-4.746,6.185-6.335
			c2.7-1.584,5.538-2.381,8.511-2.381c3.514,0,6.639,0.88,9.375,2.635c2.737,1.759,4.865,4.14,6.385,7.145
			c1.521,3.009,2.281,6.437,2.281,10.288v33.04h-7.804v-33.04c0-2.499-0.457-4.728-1.37-6.689c-0.911-1.958-2.263-3.497-4.054-4.611
			c-1.79-1.114-3.833-1.673-6.131-1.673c-2.432,0-4.66,0.61-6.688,1.826c-2.025,1.216-3.648,2.887-4.864,5.016
			c-1.216,2.128-1.825,4.544-1.825,7.246v31.925h-7.702V41.934z"/>
		<path fill="#1D1D1B" d="M350,91.492c-3.646-2.365-6.483-5.623-8.511-9.779s-3.009-8.869-2.94-14.137
			c0-5.337,0.93-10.084,2.788-14.241c1.858-4.155,4.475-7.413,7.854-9.779c3.377-2.365,7.262-3.548,11.655-3.548
			c3.378,0,6.486,0.746,9.323,2.23c2.838,1.486,5.219,3.495,7.146,6.03c1.923,2.533,3.255,5.489,4.003,8.867l-7.4,2.027
			c-0.946-3.714-2.585-6.689-4.915-8.917c-2.33-2.23-5.084-3.345-8.26-3.345c-2.701,0-5.169,0.878-7.397,2.635
			s-3.969,4.207-5.219,7.346c-1.251,3.143-1.877,6.708-1.877,10.694c0,3.986,0.693,7.535,2.08,10.639
			c1.383,3.109,3.31,5.559,5.776,7.35c2.466,1.791,5.254,2.686,8.36,2.686c2.7,0,5.15-0.641,7.346-1.926
			c2.196-1.283,3.989-3.074,5.372-5.371c1.387-2.297,2.283-4.898,2.686-7.805l7.4,1.623c-0.542,3.918-1.876,7.414-4.003,10.488
			c-2.131,3.074-4.816,5.475-8.058,7.197c-3.243,1.721-6.827,2.584-10.743,2.584C357.806,95.041,353.651,93.857,350,91.492z"/>
		<path fill="#1D1D1B" d="M412.529,21.36h15.001l24.426,71.755h-12.67l-4.966-15.912h-28.375l-5.27,15.912h-12.468L412.529,21.36z
			 M431.584,67.373l-11.453-35.27l-11.652,35.27H431.584z"/>
		<path fill="#1D1D1B" d="M458.743,21.36h28.176c4.797,0,9.087,0.949,12.87,2.84c3.782,1.891,6.773,4.526,8.969,7.903
			c2.196,3.379,3.296,7.232,3.296,11.555c0,4.324-1.082,8.157-3.245,11.503c-2.163,3.343-5.152,5.996-8.969,7.955
			c-3.816,1.96-8.092,2.939-12.822,2.939h-16.416v27.06h-11.858V21.36z M485.602,55.92c2.635,0,5.049-0.523,7.246-1.572
			c2.194-1.045,3.918-2.497,5.167-4.357c1.252-1.856,1.876-3.969,1.876-6.333s-0.607-4.475-1.823-6.335
			c-1.218-1.856-2.905-3.31-5.068-4.357c-2.162-1.047-4.628-1.572-7.397-1.572h-15V55.92H485.602z"/>
		<path fill="#1D1D1B" d="M519.855,21.36h12.16v71.755h-12.16V21.36z"/>
	</g>
	<g>
		<path fill="#4775B9" d="M46.5,121.416c-23.583,0-42.768-14.301-42.768-31.879h8.469c0,12.908,15.387,23.408,34.299,23.408
			s34.299-10.5,34.299-23.408h8.469C89.269,107.115,70.085,121.416,46.5,121.416z"/>
	</g>
	<g>
		<path fill="#4775B9" d="M89.269,33.878h-8.469c0-12.906-15.387-23.407-34.299-23.407s-34.299,10.5-34.299,23.407H3.732
			C3.732,16.3,22.918,2,46.5,2C70.085,2,89.269,16.3,89.269,33.878z"/>
	</g>
	<g>
		
			<rect x="6.715" y="57.486" transform="matrix(0.8099 0.5866 -0.5866 0.8099 42.6509 -8.1599)" fill="#63BA90" width="54.4" height="8.469"/>
	</g>
	<g>
		
			<rect x="32.225" y="57.438" transform="matrix(0.8099 0.5866 -0.5866 0.8099 47.4725 -23.1331)" fill="#63BA90" width="54.4" height="8.468"/>
	</g>
</g>
</svg>
