<svg width="17" height="17" viewBox="0 0 17 17" fill="none" xmlns="http://www.w3.org/2000/svg">
<g clip-path="url(#clip0_195_697)">
<path fill-rule="evenodd" clip-rule="evenodd" d="M8.5 0.5C4.08 0.5 0.5 4.08 0.5 8.5C0.5 12.04 2.79 15.03 5.97 16.09C6.37 16.16 6.52 15.92 6.52 15.71C6.52 15.52 6.51 14.89 6.51 14.22C4.5 14.59 3.98 13.73 3.82 13.28C3.73 13.05 3.34 12.34 3 12.15C2.72 12 2.32 11.63 2.99 11.62C3.62 11.61 4.07 12.2 4.22 12.44C4.94 13.65 6.09 13.31 6.55 13.1C6.62 12.58 6.83 12.23 7.06 12.03C5.28 11.83 3.42 11.14 3.42 8.08C3.42 7.21 3.73 6.49 4.24 5.93C4.16 5.73 3.88 4.91 4.32 3.81C4.32 3.81 4.99 3.6 6.52 4.63C7.16 4.45 7.84 4.36 8.52 4.36C9.2 4.36 9.88 4.45 10.52 4.63C12.05 3.59 12.72 3.81 12.72 3.81C13.16 4.91 12.88 5.73 12.8 5.93C13.31 6.49 13.62 7.2 13.62 8.08C13.62 11.15 11.75 11.83 9.97 12.03C10.26 12.28 10.51 12.76 10.51 13.51C10.51 14.58 10.5 15.44 10.5 15.71C10.5 15.92 10.65 16.17 11.05 16.09C12.6381 15.5538 14.0181 14.5331 14.9958 13.1716C15.9734 11.81 16.4995 10.1762 16.5 8.5C16.5 4.08 12.92 0.5 8.5 0.5Z" fill="white"/>
</g>
<defs>
<clipPath id="clip0_195_697">
<rect width="16" height="16" fill="white" transform="translate(0.5 0.5)"/>
</clipPath>
</defs>
</svg>
