<?xml version="1.0" encoding="utf-8"?>
<!-- Generator: Adobe Illustrator 21.0.2, SVG Export Plug-In . SVG Version: 6.00 Build 0)  -->
<svg version="1.1" id="Iconos" xmlns="http://www.w3.org/2000/svg" xmlns:xlink="http://www.w3.org/1999/xlink" x="0px" y="0px"
	 viewBox="0 0 31 28" style="enable-background:new 0 0 31 28;" xml:space="preserve">
<style type="text/css">
	.st0{display:none;}
	.st1{display:inline;}
	.st2{display:inline;clip-path:url(#SVGID_3_);}
	.st3{display:inline;fill:none;stroke:#000000;stroke-width:1.0752;stroke-linecap:round;}
	.st4{display:inline;fill:none;stroke:#000000;stroke-width:1.0752;stroke-linecap:round;stroke-linejoin:round;}
</style>
<g id="Hub" transform="translate(125.000000, 175.000000)" class="st0">
	<path id="Path_10_" class="st1" d="M-105.1-166.7l-8.6,4.2l-0.5-0.9l8.6-4.2L-105.1-166.7z M-105.6-154.2l-8.3-4.2l0.5-0.9l8.3,4.2
		L-105.6-154.2z"/>
	<path id="Path_11_" class="st1" d="M-102.5-171.8c2,0,3.6,1.6,3.6,3.6s-1.6,3.6-3.6,3.6s-3.6-1.6-3.6-3.6S-104.5-171.8-102.5-171.8
		z M-102.5-157.2c2,0,3.6,1.6,3.6,3.6c0,2-1.6,3.6-3.6,3.6s-3.6-1.6-3.6-3.6C-106.2-155.6-104.5-157.2-102.5-157.2z M-116-164.5
		c2,0,3.6,1.6,3.6,3.6c0,2-1.6,3.6-3.6,3.6c-2,0-3.6-1.6-3.6-3.6C-119.7-162.9-118-164.5-116-164.5z M-102.5-170.8
		c-1.4,0-2.6,1.2-2.6,2.6c0,1.4,1.2,2.6,2.6,2.6s2.6-1.2,2.6-2.6C-99.9-169.6-101.1-170.8-102.5-170.8z M-102.5-156.2
		c-1.4,0-2.6,1.2-2.6,2.6c0,1.4,1.2,2.6,2.6,2.6s2.6-1.2,2.6-2.6C-99.9-155-101.1-156.2-102.5-156.2z M-116-163.5
		c-1.4,0-2.6,1.2-2.6,2.6c0,1.4,1.2,2.6,2.6,2.6c1.4,0,2.6-1.2,2.6-2.6C-113.4-162.3-114.6-163.5-116-163.5z"/>
</g>
<g id="Hub_2" transform="translate(225.000000, 225.000000)" class="st0">
	<path id="Path_72_" class="st1" d="M-201.8-206.4h2c0.3,0,0.5,0.2,0.5,0.5c0,0.2-0.2,0.4-0.4,0.5l-0.1,0h-2c-1.3,0-2.4,1-2.5,2.3
		l0,0.2v2c0,0.3-0.2,0.5-0.5,0.5c-0.2,0-0.4-0.2-0.5-0.4l0-0.1v-2c0-1.9,1.5-3.4,3.3-3.5L-201.8-206.4h2H-201.8z M-217.8-206.4
		c1.9,0,3.5,1.6,3.5,3.5l0,0v2c0,0.3-0.2,0.5-0.5,0.5c-0.3,0-0.5-0.2-0.5-0.5l0,0v-2c0-1.4-1.1-2.5-2.5-2.5l0,0h-2
		c-0.3,0-0.5-0.2-0.5-0.5c0-0.3,0.2-0.5,0.5-0.5l0,0H-217.8z M-214.8-221.4c0.2,0,0.4,0.2,0.5,0.4l0,0.1v2c0,1.9-1.5,3.4-3.3,3.5
		l-0.2,0h-2c-0.3,0-0.5-0.2-0.5-0.5c0-0.2,0.2-0.4,0.4-0.5l0.1,0h2c1.3,0,2.4-1,2.5-2.3l0-0.2v-2
		C-215.3-221.2-215.1-221.4-214.8-221.4z M-204.8-221.4c0.2,0,0.4,0.2,0.5,0.4l0,0.1v2c0,1.3,1,2.4,2.3,2.5l0.2,0h2
		c0.3,0,0.5,0.2,0.5,0.5c0,0.2-0.2,0.4-0.4,0.5l-0.1,0h-2c-1.9,0-3.4-1.5-3.5-3.3l0-0.2v-2C-205.3-221.2-205.1-221.4-204.8-221.4z"
		/>
	<path id="Path_73_" class="st1" d="M-207.8-215.4c1.4,0,2.5,1.1,2.5,2.5v4c0,1.4-1.1,2.5-2.5,2.5h-4c-1.4,0-2.5-1.1-2.5-2.5v-4
		c0-1.4,1.1-2.5,2.5-2.5H-207.8z M-207.8-214.4h-4c-0.8,0-1.5,0.7-1.5,1.5v4c0,0.8,0.7,1.5,1.5,1.5h4c0.8,0,1.5-0.7,1.5-1.5v-4
		C-206.3-213.7-207-214.4-207.8-214.4z"/>
</g>
<g id="Hub_3" class="st0">
	<defs>
		<path id="SVGID_1_" d="M5.5,21.6c-1.3,0-2.3-1-2.3-2.3c0-1.3,1-2.3,2.3-2.3c1.3,0,2.3,1,2.3,2.3C7.8,20.5,6.8,21.6,5.5,21.6
			L5.5,21.6z M5.5,20.4c0.6,0,1.1-0.5,1.1-1.1c0-0.6-0.5-1.1-1.1-1.1c-0.6,0-1.1,0.5-1.1,1.1C4.4,19.9,4.9,20.4,5.5,20.4L5.5,20.4z
			 M15.8,26.1c-1.3,0-2.3-1-2.3-2.3c0-1.3,1-2.3,2.3-2.3c1.3,0,2.3,1,2.3,2.3C18.1,25.1,17,26.1,15.8,26.1L15.8,26.1z M15.8,25
			c0.6,0,1.1-0.5,1.1-1.1c0-0.6-0.5-1.1-1.1-1.1c-0.6,0-1.1,0.5-1.1,1.1C14.6,24.5,15.1,25,15.8,25L15.8,25z M22.6,17
			c-1.3,0-2.3-1-2.3-2.3c0-1.3,1-2.3,2.3-2.3c1.3,0,2.3,1,2.3,2.3C24.9,16,23.9,17,22.6,17L22.6,17z M22.6,15.8
			c0.6,0,1.1-0.5,1.1-1.1c0-0.6-0.5-1.1-1.1-1.1c-0.6,0-1.1,0.5-1.1,1.1C21.5,15.3,22,15.8,22.6,15.8L22.6,15.8z M14.6,9
			c-1.3,0-2.3-1-2.3-2.3c0-1.3,1-2.3,2.3-2.3c1.3,0,2.3,1,2.3,2.3C16.9,8,15.9,9,14.6,9L14.6,9z M14.6,7.8c0.6,0,1.1-0.5,1.1-1.1
			c0-0.6-0.5-1.1-1.1-1.1c-0.6,0-1.1,0.5-1.1,1.1C13.5,7.3,14,7.8,14.6,7.8L14.6,7.8z M24.9,6.7c-1.3,0-2.3-1-2.3-2.3
			c0-1.3,1-2.3,2.3-2.3c1.3,0,2.3,1,2.3,2.3C27.2,5.7,26.2,6.7,24.9,6.7L24.9,6.7z M24.9,5.6c0.6,0,1.1-0.5,1.1-1.1
			c0-0.6-0.5-1.1-1.1-1.1c-0.6,0-1.1,0.5-1.1,1.1C23.8,5,24.3,5.6,24.9,5.6L24.9,5.6z"/>
	</defs>
	<defs>
		<path id="SVGID_2_" d="M16.3,7.9c-0.2,0-0.4-0.2-0.5-0.4c-0.1-0.3,0.1-0.6,0.4-0.7L23,4.4c0.3-0.1,0.6,0.1,0.7,0.4
			c0.1,0.3-0.1,0.6-0.4,0.7l-6.8,2.3c0,0-0.1,0-0.1,0c0.1,0,0.2,0.1,0.3,0.2l4.6,4.6c0.2,0.2,0.2,0.6,0,0.8c-0.2,0.2-0.6,0.2-0.8,0
			L16,8.8c-0.2-0.2-0.2-0.6,0-0.8C16.1,7.9,16.2,7.9,16.3,7.9L16.3,7.9z M6.6,20.4l0.5-1l6.9,3.5l-0.5,1L6.6,20.4L6.6,20.4z
			 M21.6,16.1c0.2-0.2,0.6-0.3,0.8-0.1c0.2,0.2,0.3,0.6,0.1,0.8L18,22.6c-0.2,0.2-0.6,0.3-0.8,0.1c-0.2-0.2-0.3-0.6-0.1-0.8
			L21.6,16.1L21.6,16.1z"/>
	</defs>
	<use xlink:href="#SVGID_1_"  style="display:inline;overflow:visible;"/>
	<use xlink:href="#SVGID_2_"  style="display:inline;overflow:visible;"/>
	<clipPath id="SVGID_3_" class="st1">
		<use xlink:href="#SVGID_1_"  style="overflow:visible;"/>
	</clipPath>
	<clipPath id="SVGID_4_" class="st2">
		<use xlink:href="#SVGID_2_"  style="overflow:visible;"/>
	</clipPath>
</g>
<path id="Generator" class="st0" d="M17.2,11.6l3.6,1.6c0.9,0.4,1.2,1.3,0.6,2.1l-8.1,11c-0.4,0.5-1.1,0.2-1.1-0.4l1-9.2L9.6,15
	C8.8,14.7,8.4,13.7,9,13l8.1-11c0.4-0.5,1.1-0.2,1.1,0.4L17.2,11.6L17.2,11.6z M20.5,14.6c0.1-0.1,0-0.2-0.2-0.3l-4-1.8
	c-0.2-0.1-0.4-0.3-0.3-0.6l0.8-7.5l-6.9,9.3c-0.1,0.1,0,0.2,0.2,0.3l4,1.8c0.2,0.1,0.4,0.3,0.3,0.6l-0.8,7.5L20.5,14.6L20.5,14.6z"
	/>
<g id="Parser">
	<path id="Path_53_" d="M6.7,13.3c-0.5-0.5-1.2-0.4-1.6,0c-0.5,0.5-0.4,1.2,0,1.6l7.1,7c0.5,0.5,1.3,0.4,1.7-0.1l11.6-14
		c0.4-0.5,0.3-1.2-0.2-1.6s-1.2-0.3-1.6,0.2l-10.7,13L6.7,13.3z"/>
</g>
<g id="Github_Action" class="st0">
	<path class="st3" d="M21,23.1l-0.5,0"/>
	<path class="st1" d="M16.4,22.6c0.3,0,0.5,0.2,0.5,0.5c0,0.3-0.2,0.5-0.5,0.5s-0.5-0.2-0.5-0.5C15.9,22.8,16.1,22.6,16.4,22.6z"/>
	<path class="st1" d="M14.3,22.6c0.3,0,0.5,0.2,0.5,0.5c0,0.3-0.2,0.5-0.5,0.5c-0.3,0-0.5-0.2-0.5-0.5C13.7,22.8,14,22.6,14.3,22.6z
		"/>
	<path class="st4" d="M18.6,14.5h3.2"/>
	<path class="st1" d="M12.1,15.1c0.3,0,0.5-0.2,0.5-0.5c0-0.3-0.2-0.5-0.5-0.5V15.1z M7.3,11.3c0,2.1,1.7,3.7,3.7,3.7V14
		c-1.5,0-2.7-1.2-2.7-2.7H7.3z M11,15.1h1.1V14H11V15.1z"/>
	<path class="st4" d="M7.8,11.3v8.1c0,2.1,1.7,3.8,3.8,3.8h0.5"/>
	<path class="st4" d="M6.7,4.8c0-0.4,0.5-0.7,0.8-0.5L10.3,6c0.3,0.2,0.3,0.7,0,0.9L7.6,8.7c-0.4,0.2-0.8,0-0.8-0.5V4.8z"/>
	<path class="st4" d="M26.1,13.8l-1.7,1.6l-0.8-0.8"/>
	<path class="st4" d="M25,11.3c1.8,0,3.2,1.4,3.2,3.2c0,1.8-1.4,3.2-3.2,3.2c-1.8,0-3.2-1.4-3.2-3.2C21.8,12.8,23.2,11.3,25,11.3z"
		/>
	<path class="st4" d="M16.4,13.8l-1.7,1.6L14,14.6"/>
	<path class="st4" d="M25,19.9c1.8,0,3.2,1.4,3.2,3.2c0,1.8-1.4,3.2-3.2,3.2c-1.8,0-3.2-1.4-3.2-3.2C21.8,21.4,23.2,19.9,25,19.9z"
		/>
	<path class="st4" d="M15.3,19.9c1.8,0,3.2,1.4,3.2,3.2c0,1.8-1.4,3.2-3.2,3.2s-3.2-1.4-3.2-3.2C12.1,21.4,13.6,19.9,15.3,19.9z"/>
	<path class="st4" d="M15.3,11.3c1.8,0,3.2,1.4,3.2,3.2c0,1.8-1.4,3.2-3.2,3.2s-3.2-1.4-3.2-3.2C12.1,12.8,13.6,11.3,15.3,11.3z"/>
	<path class="st4" d="M8.1,1.6c2.7,0,4.8,2.2,4.8,4.8c0,2.7-2.2,4.8-4.8,4.8c-2.7,0-4.8-2.2-4.8-4.8C3.2,3.8,5.4,1.6,8.1,1.6z"/>
</g>
</svg>
