<svg xmlns="http://www.w3.org/2000/svg" xmlns:xlink="http://www.w3.org/1999/xlink" viewBox="0 0 283 259"><defs><style>.a,.c{fill:none;}.b{fill:#47bcee;}.b,.c,.d,.e,.f,.k{stroke:#1c1131;}.b,.c,.d,.e,.f{stroke-miterlimit:10;}.b,.k{stroke-width:3px;}.c,.d,.e{stroke-width:2.53px;}.d{fill:#875ae2;}.e{fill:#e50e99;}.f,.k{fill:#fff;}.f{stroke-width:0.36px;}.g{clip-path:url(#a);}.h{opacity:0.29;}.i{clip-path:url(#b);}.j{fill:#1c1131;}.k{stroke-linecap:round;stroke-linejoin:round;}</style><clipPath id="a"><path class="a" d="M45.4,25.74H233.45a20.34,20.34,0,0,1,20.34,20.34v168.3a17.36,17.36,0,0,1-17.36,17.36H46.06a18.26,18.26,0,0,1-18.26-18.26V43.33A17.59,17.59,0,0,1,45.4,25.74Z"/></clipPath><clipPath id="b"><rect class="a" x="-196.84" y="25.74" width="450.62" height="412" rx="32.19"/></clipPath></defs><path class="b" d="M261.5,1.5H21.5a20,20,0,0,0-20,20v216a20,20,0,0,0,20,20h240a20,20,0,0,0,20-20V21.5A20,20,0,0,0,261.5,1.5Zm-7.71,211.18a19.09,19.09,0,0,1-19.07,19.06H46.6a19.08,19.08,0,0,1-19.07-19.06V44.8A19.09,19.09,0,0,1,46.6,25.74H234.72A19.08,19.08,0,0,1,253.79,44.8Z"/><line class="c" x1="34.28" y1="227.22" x2="7.46" y2="251.64"/><line class="c" x1="275.64" y1="7.46" x2="248.77" y2="31.92"/><line class="c" x1="275.64" y1="251.64" x2="247.93" y2="226.41"/><line class="c" x1="33.39" y1="31.07" x2="7.46" y2="7.46"/><path class="d" d="M247.93,226.41a18.91,18.91,0,0,1-13.21,5.33H46.6a19,19,0,0,1-12.32-4.52l107.27-97.67Z"/><path class="e" d="M253.79,44.8V212.68a19,19,0,0,1-5.86,13.73L141.55,129.55,248.77,31.92A19,19,0,0,1,253.79,44.8Z"/><path class="d" d="M248.77,31.92,141.55,129.55,33.39,31.07A18.91,18.91,0,0,1,46.6,25.74H234.72A19,19,0,0,1,248.77,31.92Z"/><path class="e" d="M141.55,129.55,34.28,227.22a19,19,0,0,1-6.75-14.54V44.8a19,19,0,0,1,5.86-13.73Z"/><polygon class="f" points="182.05 85.91 183.41 91.56 189.06 92.92 183.41 94.27 182.05 99.92 180.69 94.27 175.04 92.92 180.69 91.56 182.05 85.91"/><g class="g"><g class="h"><g class="i"><path class="j" d="M35.61,226.22a2.84,2.84,0,1,0-2.06-3.45A2.83,2.83,0,0,0,35.61,226.22Z"/><path class="j" d="M47.74,226.32a2.84,2.84,0,1,0-2.06-3.45A2.84,2.84,0,0,0,47.74,226.32Z"/><path class="j" d="M59.86,226.88a2.84,2.84,0,1,0-2.06-3.44A2.84,2.84,0,0,0,59.86,226.88Z"/><path class="j" d="M72,227.91a2.84,2.84,0,1,0-2.06-3.45A2.84,2.84,0,0,0,72,227.91Z"/><path class="j" d="M84,229.39A2.84,2.84,0,1,0,81.94,226,2.83,2.83,0,0,0,84,229.39Z"/><path class="j" d="M96,231.33a2.84,2.84,0,1,0-2.06-3.44A2.83,2.83,0,0,0,96,231.33Z"/><path class="j" d="M107.87,233.73a2.84,2.84,0,1,0-2.06-3.44A2.83,2.83,0,0,0,107.87,233.73Z"/><path class="j" d="M28.91,216.62a2.76,2.76,0,1,0-2-3.35A2.76,2.76,0,0,0,28.91,216.62Z"/><path class="j" d="M41,216.47a2.76,2.76,0,1,0-2-3.35A2.76,2.76,0,0,0,41,216.47Z"/><path class="j" d="M53.18,216.74a2.73,2.73,0,1,0-2-3.31A2.72,2.72,0,0,0,53.18,216.74Z"/><path class="j" d="M65.29,217.49a2.73,2.73,0,1,0-2-3.31A2.74,2.74,0,0,0,65.29,217.49Z"/><path class="j" d="M77.36,218.71a2.76,2.76,0,1,0-2-3.35A2.76,2.76,0,0,0,77.36,218.71Z"/><path class="j" d="M89.39,220.33a2.73,2.73,0,1,0-2-3.32A2.73,2.73,0,0,0,89.39,220.33Z"/><path class="j" d="M101.33,222.43a2.75,2.75,0,1,0-2-3.34A2.75,2.75,0,0,0,101.33,222.43Z"/><path class="j" d="M113.2,225a2.76,2.76,0,1,0-2-3.35A2.76,2.76,0,0,0,113.2,225Z"/><path class="j" d="M125,227.92a2.76,2.76,0,1,0-2-3.35A2.76,2.76,0,0,0,125,227.92Z"/><path class="j" d="M136.62,231.31a2.76,2.76,0,1,0-2-3.35A2.76,2.76,0,0,0,136.62,231.31Z"/><path class="j" d="M148.14,235.13a2.76,2.76,0,1,0-2-3.35A2.75,2.75,0,0,0,148.14,235.13Z"/><path class="j" d="M34.35,206.74a2.65,2.65,0,1,0-1.93-3.22A2.66,2.66,0,0,0,34.35,206.74Z"/><path class="j" d="M46.48,206.79a2.66,2.66,0,1,0-1.92-3.22A2.66,2.66,0,0,0,46.48,206.79Z"/><path class="j" d="M58.61,207.27a2.65,2.65,0,1,0-1.93-3.22A2.63,2.63,0,0,0,58.61,207.27Z"/><path class="j" d="M70.7,208.19A2.65,2.65,0,1,0,68.78,205,2.65,2.65,0,0,0,70.7,208.19Z"/><path class="j" d="M82.76,209.54a2.65,2.65,0,1,0-1.92-3.21A2.65,2.65,0,0,0,82.76,209.54Z"/><path class="j" d="M94.76,211.33a2.65,2.65,0,1,0-1.92-3.22A2.65,2.65,0,0,0,94.76,211.33Z"/><path class="j" d="M106.69,213.55a2.66,2.66,0,1,0-1.92-3.22A2.66,2.66,0,0,0,106.69,213.55Z"/><path class="j" d="M118.54,216.19a2.65,2.65,0,1,0-1.93-3.22A2.64,2.64,0,0,0,118.54,216.19Z"/><path class="j" d="M130.28,219.25a2.65,2.65,0,0,0,1.29-5.14,2.65,2.65,0,1,0-1.29,5.14Z"/><path class="j" d="M141.9,222.74a2.65,2.65,0,1,0-1.92-3.22A2.66,2.66,0,0,0,141.9,222.74Z"/><path class="j" d="M153.39,226.64a2.65,2.65,0,1,0-1.93-3.22A2.66,2.66,0,0,0,153.39,226.64Z"/><path class="j" d="M164.73,231a2.65,2.65,0,1,0-1.92-3.22A2.66,2.66,0,0,0,164.73,231Z"/><path class="j" d="M175.91,235.66a2.65,2.65,0,1,0-1.92-3.21A2.65,2.65,0,0,0,175.91,235.66Z"/><path class="j" d="M27.66,197.13A2.54,2.54,0,1,0,25.81,194,2.53,2.53,0,0,0,27.66,197.13Z"/><path class="j" d="M39.79,196.94a2.54,2.54,0,1,0-1.85-3.08A2.54,2.54,0,0,0,39.79,196.94Z"/><path class="j" d="M51.92,197.18a2.54,2.54,0,1,0-1.85-3.09A2.55,2.55,0,0,0,51.92,197.18Z"/><path class="j" d="M64,197.84a2.54,2.54,0,1,0-1.84-3.09A2.54,2.54,0,0,0,64,197.84Z"/><path class="j" d="M76.12,198.92a2.54,2.54,0,1,0-1.85-3.08A2.54,2.54,0,0,0,76.12,198.92Z"/><path class="j" d="M88.16,200.43a2.55,2.55,0,1,0-1.85-3.09A2.55,2.55,0,0,0,88.16,200.43Z"/><path class="j" d="M100.14,202.35a2.54,2.54,0,1,0-1.85-3.09A2.55,2.55,0,0,0,100.14,202.35Z"/><path class="j" d="M112.05,204.69a2.54,2.54,0,1,0-1.85-3.09A2.53,2.53,0,0,0,112.05,204.69Z"/><path class="j" d="M123.86,207.45a2.55,2.55,0,1,0-1.84-3.09A2.55,2.55,0,0,0,123.86,207.45Z"/><path class="j" d="M135.58,210.61a2.54,2.54,0,1,0-1.85-3.09A2.54,2.54,0,0,0,135.58,210.61Z"/><path class="j" d="M147.17,214.18a2.54,2.54,0,1,0-1.84-3.08A2.53,2.53,0,0,0,147.17,214.18Z"/><path class="j" d="M158.64,218.16a2.55,2.55,0,1,0-1.85-3.09A2.56,2.56,0,0,0,158.64,218.16Z"/><path class="j" d="M170,222.53a2.54,2.54,0,1,0-1.85-3.09A2.53,2.53,0,0,0,170,222.53Z"/><path class="j" d="M181.12,227.3a2.55,2.55,0,1,0-1.85-3.09A2.54,2.54,0,0,0,181.12,227.3Z"/><path class="j" d="M192.1,232.45a2.55,2.55,0,1,0-1.84-3.09A2.55,2.55,0,0,0,192.1,232.45Z"/><path class="j" d="M33.09,187.23a2.43,2.43,0,1,0-1.77-2.95A2.43,2.43,0,0,0,33.09,187.23Z"/><path class="j" d="M45.23,187.24a2.44,2.44,0,1,0-1.77-3A2.44,2.44,0,0,0,45.23,187.24Z"/><path class="j" d="M57.35,187.65a2.44,2.44,0,1,0-1.76-3A2.43,2.43,0,0,0,57.35,187.65Z"/><path class="j" d="M69.46,188.48a2.44,2.44,0,1,0-1.77-3A2.45,2.45,0,0,0,69.46,188.48Z"/><path class="j" d="M81.53,189.71a2.43,2.43,0,1,0-1.77-3A2.44,2.44,0,0,0,81.53,189.71Z"/><path class="j" d="M93.55,191.36a2.44,2.44,0,1,0-1.77-3A2.43,2.43,0,0,0,93.55,191.36Z"/><path class="j" d="M105.51,193.41a2.43,2.43,0,1,0-1.77-2.95A2.43,2.43,0,0,0,105.51,193.41Z"/><path class="j" d="M117.39,195.87a2.44,2.44,0,1,0-1.77-3A2.43,2.43,0,0,0,117.39,195.87Z"/><path class="j" d="M129.18,198.73a2.44,2.44,0,1,0-1.76-3A2.43,2.43,0,0,0,129.18,198.73Z"/><path class="j" d="M140.87,202a2.44,2.44,0,1,0-1.77-3A2.43,2.43,0,0,0,140.87,202Z"/><path class="j" d="M152.44,205.64a2.43,2.43,0,1,0-1.77-2.95A2.44,2.44,0,0,0,152.44,205.64Z"/><path class="j" d="M163.88,209.69a2.44,2.44,0,1,0-1.77-3A2.43,2.43,0,0,0,163.88,209.69Z"/><path class="j" d="M175.18,214.12a2.44,2.44,0,1,0-1.77-3A2.44,2.44,0,0,0,175.18,214.12Z"/><path class="j" d="M186.32,218.93a2.43,2.43,0,1,0-1.77-3A2.42,2.42,0,0,0,186.32,218.93Z"/><path class="j" d="M197.29,224.12a2.44,2.44,0,1,0-1.77-3A2.42,2.42,0,0,0,197.29,224.12Z"/><path class="j" d="M208.07,229.68a2.44,2.44,0,1,0-1.77-3A2.45,2.45,0,0,0,208.07,229.68Z"/><path class="j" d="M218.66,235.6a2.44,2.44,0,1,0,1.19-4.73,2.44,2.44,0,0,0-1.19,4.73Z"/><path class="j" d="M26.4,177.64a2.33,2.33,0,1,0-1.69-2.82A2.33,2.33,0,0,0,26.4,177.64Z"/><path class="j" d="M38.53,177.42a2.33,2.33,0,1,0-1.69-2.82A2.32,2.32,0,0,0,38.53,177.42Z"/><path class="j" d="M50.66,177.6A2.33,2.33,0,1,0,49,174.78,2.32,2.32,0,0,0,50.66,177.6Z"/><path class="j" d="M62.78,178.19a2.33,2.33,0,1,0-1.69-2.83A2.34,2.34,0,0,0,62.78,178.19Z"/><path class="j" d="M74.88,179.17a2.33,2.33,0,1,0-1.69-2.83A2.33,2.33,0,0,0,74.88,179.17Z"/><path class="j" d="M86.93,180.55a2.33,2.33,0,1,0-1.69-2.82A2.32,2.32,0,0,0,86.93,180.55Z"/><path class="j" d="M98.94,182.33a2.33,2.33,0,1,0-1.69-2.82A2.32,2.32,0,0,0,98.94,182.33Z"/><path class="j" d="M110.87,184.51a2.33,2.33,0,1,0-1.69-2.83A2.33,2.33,0,0,0,110.87,184.51Z"/><path class="j" d="M122.73,187.1a2.36,2.36,0,1,0-1.72-2.86A2.35,2.35,0,0,0,122.73,187.1Z"/><path class="j" d="M134.49,190.06a2.36,2.36,0,1,0-1.71-2.86A2.35,2.35,0,0,0,134.49,190.06Z"/><path class="j" d="M146.16,193.39a2.33,2.33,0,1,0-1.69-2.83A2.34,2.34,0,0,0,146.16,193.39Z"/><path class="j" d="M157.71,197.12a2.33,2.33,0,1,0-1.69-2.83A2.34,2.34,0,0,0,157.71,197.12Z"/><path class="j" d="M169.12,201.26a2.36,2.36,0,1,0-1.71-2.86A2.36,2.36,0,0,0,169.12,201.26Z"/><path class="j" d="M180.4,205.72a2.33,2.33,0,1,0,1.13-4.52,2.33,2.33,0,0,0-1.13,4.52Z"/><path class="j" d="M191.52,210.57a2.33,2.33,0,1,0-1.69-2.83A2.31,2.31,0,0,0,191.52,210.57Z"/><path class="j" d="M202.47,215.79a2.33,2.33,0,1,0-1.69-2.82A2.33,2.33,0,0,0,202.47,215.79Z"/><path class="j" d="M213.24,221.37a2.33,2.33,0,1,0-1.69-2.82A2.32,2.32,0,0,0,213.24,221.37Z"/><path class="j" d="M223.83,227.31a2.33,2.33,0,1,0-1.69-2.83A2.33,2.33,0,0,0,223.83,227.31Z"/><path class="j" d="M234.21,233.59a2.33,2.33,0,1,0-1.69-2.83A2.33,2.33,0,0,0,234.21,233.59Z"/><path class="j" d="M31.83,167.76A2.25,2.25,0,1,0,30.2,165,2.25,2.25,0,0,0,31.83,167.76Z"/><path class="j" d="M44,167.72A2.25,2.25,0,1,0,42.33,165,2.26,2.26,0,0,0,44,167.72Z"/><path class="j" d="M56.09,168.07a2.25,2.25,0,1,0-1.63-2.73A2.25,2.25,0,0,0,56.09,168.07Z"/><path class="j" d="M68.21,168.81a2.25,2.25,0,1,0-1.64-2.73A2.24,2.24,0,0,0,68.21,168.81Z"/><path class="j" d="M80.29,169.94a2.25,2.25,0,1,0-1.64-2.73A2.24,2.24,0,0,0,80.29,169.94Z"/><path class="j" d="M92.32,171.46a2.25,2.25,0,1,0-1.63-2.73A2.23,2.23,0,0,0,92.32,171.46Z"/><path class="j" d="M104.31,173.37a2.25,2.25,0,1,0-1.64-2.73A2.25,2.25,0,0,0,104.31,173.37Z"/><circle class="j" cx="116.77" cy="173.48" r="2.25" transform="translate(-72.49 84.52) rotate(-30.88)"/><path class="j" d="M128.06,178.34a2.25,2.25,0,0,0,1.1-4.36,2.25,2.25,0,1,0-1.1,4.36Z"/><path class="j" d="M139.8,181.39a2.25,2.25,0,1,0-1.63-2.73A2.23,2.23,0,0,0,139.8,181.39Z"/><path class="j" d="M151.44,184.83a2.25,2.25,0,1,0-1.63-2.73A2.25,2.25,0,0,0,151.44,184.83Z"/><path class="j" d="M163,188.63a2.25,2.25,0,1,0-1.63-2.73A2.25,2.25,0,0,0,163,188.63Z"/><path class="j" d="M174.35,192.8a2.25,2.25,0,1,0,1.1-4.36,2.25,2.25,0,1,0-1.1,4.36Z"/><path class="j" d="M185.61,197.34a2.25,2.25,0,1,0-1.63-2.73A2.24,2.24,0,0,0,185.61,197.34Z"/><path class="j" d="M196.71,202.24a2.25,2.25,0,1,0-1.63-2.73A2.25,2.25,0,0,0,196.71,202.24Z"/><path class="j" d="M207.65,207.5a2.25,2.25,0,1,0-1.64-2.73A2.26,2.26,0,0,0,207.65,207.5Z"/><path class="j" d="M218.41,213.1a2.25,2.25,0,1,0-1.63-2.73A2.25,2.25,0,0,0,218.41,213.1Z"/><path class="j" d="M229,219.05a2.25,2.25,0,1,0-1.63-2.73A2.25,2.25,0,0,0,229,219.05Z"/><path class="j" d="M239.36,225.33a2.25,2.25,0,1,0-1.63-2.73A2.23,2.23,0,0,0,239.36,225.33Z"/><path class="j" d="M249.54,232a2.25,2.25,0,1,0-1.64-2.73A2.26,2.26,0,0,0,249.54,232Z"/><path class="j" d="M37.27,157.93a2.14,2.14,0,1,0-1.55-2.6A2.14,2.14,0,0,0,37.27,157.93Z"/><path class="j" d="M49.4,158.06a2.14,2.14,0,1,0-1.55-2.6A2.14,2.14,0,0,0,49.4,158.06Z"/><path class="j" d="M61.53,158.58A2.14,2.14,0,1,0,60,156,2.15,2.15,0,0,0,61.53,158.58Z"/><path class="j" d="M73.63,159.47a2.14,2.14,0,1,0-1.56-2.6A2.15,2.15,0,0,0,73.63,159.47Z"/><path class="j" d="M85.69,160.74a2.14,2.14,0,1,0-1.55-2.6A2.13,2.13,0,0,0,85.69,160.74Z"/><path class="j" d="M97.72,162.39a2.14,2.14,0,1,0-1.56-2.6A2.14,2.14,0,0,0,97.72,162.39Z"/><path class="j" d="M109.68,164.42a2.14,2.14,0,1,0-1.56-2.6A2.14,2.14,0,0,0,109.68,164.42Z"/><path class="j" d="M121.57,166.82a2.14,2.14,0,1,0-1.55-2.6A2.14,2.14,0,0,0,121.57,166.82Z"/><path class="j" d="M133.38,169.6a2.15,2.15,0,1,0-1.55-2.6A2.14,2.14,0,0,0,133.38,169.6Z"/><path class="j" d="M145.1,172.74a2.14,2.14,0,1,0-1.55-2.6A2.13,2.13,0,0,0,145.1,172.74Z"/><path class="j" d="M156.72,176.26a2.14,2.14,0,1,0-1.56-2.6A2.15,2.15,0,0,0,156.72,176.26Z"/><path class="j" d="M168.22,180.13a2.14,2.14,0,1,0-1.56-2.6A2.15,2.15,0,0,0,168.22,180.13Z"/><path class="j" d="M179.59,184.36a2.14,2.14,0,1,0-1.56-2.6A2.14,2.14,0,0,0,179.59,184.36Z"/><path class="j" d="M190.82,189a2.14,2.14,0,1,0-1.55-2.6A2.14,2.14,0,0,0,190.82,189Z"/><path class="j" d="M201.9,193.89a2.14,2.14,0,1,0-1.55-2.6A2.14,2.14,0,0,0,201.9,193.89Z"/><path class="j" d="M212.83,199.18a2.14,2.14,0,1,0-1.56-2.6A2.15,2.15,0,0,0,212.83,199.18Z"/><path class="j" d="M223.58,204.8a2.14,2.14,0,1,0-1.56-2.6A2.14,2.14,0,0,0,223.58,204.8Z"/><path class="j" d="M234.15,210.76a2.14,2.14,0,1,0-1.56-2.6A2.15,2.15,0,0,0,234.15,210.76Z"/><path class="j" d="M244.52,217.05a2.14,2.14,0,1,0-1.55-2.6A2.14,2.14,0,0,0,244.52,217.05Z"/><path class="j" d="M254.7,223.66a2.14,2.14,0,1,0-1.56-2.6A2.14,2.14,0,0,0,254.7,223.66Z"/><path class="j" d="M30.57,148.29a2.06,2.06,0,1,0-1.5-2.5A2.06,2.06,0,0,0,30.57,148.29Z"/><path class="j" d="M42.7,148.21a2.06,2.06,0,1,0-1.49-2.5A2.06,2.06,0,0,0,42.7,148.21Z"/><path class="j" d="M54.83,148.5a2.06,2.06,0,1,0-1.49-2.5A2.07,2.07,0,0,0,54.83,148.5Z"/><path class="j" d="M67,149.17a2.06,2.06,0,1,0-1.5-2.5A2.06,2.06,0,0,0,67,149.17Z"/><path class="j" d="M79,150.21a2.06,2.06,0,1,0-1.5-2.51A2.07,2.07,0,0,0,79,150.21Z"/><path class="j" d="M91.09,151.61a2.06,2.06,0,0,0,1-4,2.06,2.06,0,1,0-1,4Z"/><path class="j" d="M103.09,153.39a2.06,2.06,0,1,0-1.49-2.5A2.06,2.06,0,0,0,103.09,153.39Z"/><path class="j" d="M115,155.53a2.06,2.06,0,1,0-1.5-2.5A2.06,2.06,0,0,0,115,155.53Z"/><path class="j" d="M126.91,158a2.06,2.06,0,1,0-1.5-2.5A2.06,2.06,0,0,0,126.91,158Z"/><path class="j" d="M138.7,160.91a2.06,2.06,0,1,0-1.5-2.5A2.06,2.06,0,0,0,138.7,160.91Z"/><path class="j" d="M150.4,164.14a2.06,2.06,0,1,0-1.5-2.5A2.06,2.06,0,0,0,150.4,164.14Z"/><path class="j" d="M162,167.73a2.07,2.07,0,0,0,2.5-1.5,2.06,2.06,0,1,0-2.5,1.5Z"/><path class="j" d="M173.47,171.64a2,2,0,1,0-1.48-2.47A2,2,0,0,0,173.47,171.64Z"/><path class="j" d="M184.81,176a2.06,2.06,0,1,0,1-4,2.06,2.06,0,0,0-1,4Z"/><path class="j" d="M196,180.59a2.06,2.06,0,1,0-1.5-2.5A2.06,2.06,0,0,0,196,180.59Z"/><path class="j" d="M207.09,185.57a2.06,2.06,0,1,0-1.49-2.5A2.06,2.06,0,0,0,207.09,185.57Z"/><path class="j" d="M218,190.88a2.06,2.06,0,0,0,1-4,2.06,2.06,0,1,0-1,4Z"/><path class="j" d="M228.74,196.53a2.06,2.06,0,1,0-1.49-2.5A2,2,0,0,0,228.74,196.53Z"/><path class="j" d="M239.3,202.5a2.06,2.06,0,1,0-1.49-2.5A2.07,2.07,0,0,0,239.3,202.5Z"/><path class="j" d="M249.68,208.8a2.07,2.07,0,0,0,2.5-1.5,2.06,2.06,0,1,0-2.5,1.5Z"/><path class="j" d="M36,138.45a2,2,0,1,0-1.42-2.38A2,2,0,0,0,36,138.45Z"/><path class="j" d="M48.14,138.53a2,2,0,0,0,1-3.79,2,2,0,1,0-1,3.79Z"/><path class="j" d="M60.27,139a2,2,0,1,0-1.42-2.37A1.95,1.95,0,0,0,60.27,139Z"/><path class="j" d="M72.37,139.79A2,2,0,1,0,71,137.42,2,2,0,0,0,72.37,139.79Z"/><path class="j" d="M84.45,141A2,2,0,1,0,83,138.59,2,2,0,0,0,84.45,141Z"/><path class="j" d="M96.49,142.5a2,2,0,1,0-1.42-2.37A2,2,0,0,0,96.49,142.5Z"/><path class="j" d="M108.47,144.39a2,2,0,1,0-1.42-2.37A2,2,0,0,0,108.47,144.39Z"/><path class="j" d="M120.4,146.65a2,2,0,1,0-1.42-2.38A2,2,0,0,0,120.4,146.65Z"/><path class="j" d="M132.25,149.25a2,2,0,1,0-1.42-2.37A1.95,1.95,0,0,0,132.25,149.25Z"/><path class="j" d="M144,152.21a2,2,0,1,0-1.41-2.37A2,2,0,0,0,144,152.21Z"/><path class="j" d="M155.69,155.52a2,2,0,1,0-1.42-2.37A1.94,1.94,0,0,0,155.69,155.52Z"/><path class="j" d="M167.26,159.18a2,2,0,1,0-1.42-2.37A1.95,1.95,0,0,0,167.26,159.18Z"/><path class="j" d="M178.71,163.19a2,2,0,1,0-1.42-2.38A2,2,0,0,0,178.71,163.19Z"/><path class="j" d="M190,167.53a2,2,0,1,0-1.42-2.37A2,2,0,0,0,190,167.53Z"/><path class="j" d="M201.24,172.21a2,2,0,1,0-1.42-2.37A2,2,0,0,0,201.24,172.21Z"/><path class="j" d="M212.29,177.22a2,2,0,1,0-1.42-2.37A1.95,1.95,0,0,0,212.29,177.22Z"/><path class="j" d="M223.18,182.57a2,2,0,1,0-1.42-2.38A2,2,0,0,0,223.18,182.57Z"/><path class="j" d="M233.91,188.23a2,2,0,1,0-1.42-2.37A1.94,1.94,0,0,0,233.91,188.23Z"/><path class="j" d="M244.47,194.22a2,2,0,1,0-1.42-2.38A2,2,0,0,0,244.47,194.22Z"/><path class="j" d="M254.84,200.51a2,2,0,1,0-1.42-2.37A1.94,1.94,0,0,0,254.84,200.51Z"/><path class="j" d="M29.31,128.79A1.85,1.85,0,1,0,28,126.55,1.85,1.85,0,0,0,29.31,128.79Z"/><path class="j" d="M41.45,128.68a1.85,1.85,0,1,0-1.34-2.24A1.84,1.84,0,0,0,41.45,128.68Z"/><path class="j" d="M53.58,128.92a1.85,1.85,0,1,0-1.34-2.24A1.84,1.84,0,0,0,53.58,128.92Z"/><path class="j" d="M65.7,129.52a1.85,1.85,0,1,0-1.34-2.24A1.84,1.84,0,0,0,65.7,129.52Z"/><path class="j" d="M77.79,130.5a1.88,1.88,0,1,0-1.36-2.28A1.87,1.87,0,0,0,77.79,130.5Z"/><path class="j" d="M89.85,131.8a1.88,1.88,0,1,0-1.36-2.28A1.88,1.88,0,0,0,89.85,131.8Z"/><path class="j" d="M101.88,133.43a1.85,1.85,0,1,0-1.34-2.24A1.84,1.84,0,0,0,101.88,133.43Z"/><path class="j" d="M113.84,135.46a1.87,1.87,0,1,0,.91-3.63,1.87,1.87,0,1,0-.91,3.63Z"/><path class="j" d="M125.74,137.82a1.88,1.88,0,1,0-1.36-2.28A1.88,1.88,0,0,0,125.74,137.82Z"/><path class="j" d="M137.57,140.52a1.88,1.88,0,1,0-1.36-2.28A1.88,1.88,0,0,0,137.57,140.52Z"/><path class="j" d="M149.32,143.56a1.87,1.87,0,1,0-1.36-2.27A1.86,1.86,0,0,0,149.32,143.56Z"/><path class="j" d="M161,147a1.87,1.87,0,1,0-1.36-2.27A1.87,1.87,0,0,0,161,147Z"/><path class="j" d="M172.52,150.65a1.85,1.85,0,1,0-1.34-2.24A1.85,1.85,0,0,0,172.52,150.65Z"/><path class="j" d="M184,154.74a1.87,1.87,0,1,0,.92-3.63,1.87,1.87,0,1,0-.92,3.63Z"/><path class="j" d="M195.27,159.11a1.85,1.85,0,1,0-1.34-2.24A1.84,1.84,0,0,0,195.27,159.11Z"/><path class="j" d="M206.44,163.86a1.88,1.88,0,1,0-1.36-2.27A1.87,1.87,0,0,0,206.44,163.86Z"/><path class="j" d="M217.47,168.91a1.88,1.88,0,1,0-1.36-2.28A1.89,1.89,0,0,0,217.47,168.91Z"/><path class="j" d="M228.35,174.28A1.88,1.88,0,1,0,227,172,1.88,1.88,0,0,0,228.35,174.28Z"/><path class="j" d="M239.07,180a1.87,1.87,0,1,0-1.36-2.27A1.88,1.88,0,0,0,239.07,180Z"/><path class="j" d="M249.62,186a1.88,1.88,0,1,0-1.36-2.28A1.88,1.88,0,0,0,249.62,186Z"/><path class="j" d="M34.75,119a1.76,1.76,0,1,0-1.29-2.14A1.76,1.76,0,0,0,34.75,119Z"/><circle class="j" cx="47.31" cy="117.29" r="1.77"/><path class="j" d="M59,119.4a1.77,1.77,0,1,0-1.28-2.15A1.76,1.76,0,0,0,59,119.4Z"/><path class="j" d="M71.12,120.14A1.77,1.77,0,1,0,69.84,118,1.76,1.76,0,0,0,71.12,120.14Z"/><path class="j" d="M83.21,121.22a1.77,1.77,0,1,0-1.29-2.14A1.77,1.77,0,0,0,83.21,121.22Z"/><path class="j" d="M95.25,122.65A1.77,1.77,0,1,0,94,120.5,1.77,1.77,0,0,0,95.25,122.65Z"/><path class="j" d="M107.26,124.42a1.77,1.77,0,1,0-1.28-2.15A1.76,1.76,0,0,0,107.26,124.42Z"/><path class="j" d="M119.21,126.53a1.77,1.77,0,0,0,.86-3.43,1.77,1.77,0,1,0-.86,3.43Z"/><path class="j" d="M131.09,129a1.77,1.77,0,1,0,.86-3.43,1.77,1.77,0,0,0-.86,3.43Z"/><circle class="j" cx="143.33" cy="130.06" r="1.77"/><path class="j" d="M154.62,134.91a1.77,1.77,0,1,0-1.28-2.15A1.78,1.78,0,0,0,154.62,134.91Z"/><path class="j" d="M166.25,138.37a1.77,1.77,0,1,0-1.28-2.15A1.77,1.77,0,0,0,166.25,138.37Z"/><path class="j" d="M177.78,142.16A1.77,1.77,0,1,0,176.5,140,1.76,1.76,0,0,0,177.78,142.16Z"/><circle class="j" cx="189.62" cy="144.57" r="1.77"/><path class="j" d="M200.48,150.72a1.76,1.76,0,1,0-1.28-2.14A1.77,1.77,0,0,0,200.48,150.72Z"/><path class="j" d="M211.64,155.49a1.77,1.77,0,1,0-1.28-2.15A1.77,1.77,0,0,0,211.64,155.49Z"/><path class="j" d="M222.66,160.57a1.77,1.77,0,1,0-1.28-2.15A1.77,1.77,0,0,0,222.66,160.57Z"/><path class="j" d="M233.53,166a1.76,1.76,0,1,0-1.28-2.14A1.77,1.77,0,0,0,233.53,166Z"/><path class="j" d="M244.24,171.67a1.77,1.77,0,1,0,.86-3.43,1.77,1.77,0,0,0-.86,3.43Z"/><path class="j" d="M254.78,177.67a1.77,1.77,0,1,0-1.28-2.14A1.77,1.77,0,0,0,254.78,177.67Z"/><path class="j" d="M28.05,109.35a1.69,1.69,0,1,0-1.23-2A1.68,1.68,0,0,0,28.05,109.35Z"/><path class="j" d="M40.18,109.21a1.69,1.69,0,1,0-1.22-2A1.7,1.7,0,0,0,40.18,109.21Z"/><path class="j" d="M52.31,109.4a1.69,1.69,0,1,0-1.22-2.05A1.69,1.69,0,0,0,52.31,109.4Z"/><path class="j" d="M64.43,109.94a1.69,1.69,0,1,0-1.22-2A1.7,1.7,0,0,0,64.43,109.94Z"/><path class="j" d="M76.54,110.81a1.69,1.69,0,1,0-1.23-2A1.68,1.68,0,0,0,76.54,110.81Z"/><path class="j" d="M88.61,112a1.69,1.69,0,1,0-1.22-2A1.7,1.7,0,0,0,88.61,112Z"/><path class="j" d="M100.65,113.56a1.69,1.69,0,1,0-1.23-2A1.68,1.68,0,0,0,100.65,113.56Z"/><path class="j" d="M112.63,115.44a1.69,1.69,0,1,0-1.22-2A1.69,1.69,0,0,0,112.63,115.44Z"/><path class="j" d="M124.56,117.66a1.69,1.69,0,1,0-1.22-2A1.69,1.69,0,0,0,124.56,117.66Z"/><path class="j" d="M136.43,120.21a1.69,1.69,0,1,0-1.23-2A1.67,1.67,0,0,0,136.43,120.21Z"/><path class="j" d="M148.21,123.09a1.69,1.69,0,1,0-1.22-2A1.69,1.69,0,0,0,148.21,123.09Z"/><path class="j" d="M159.92,126.29a1.69,1.69,0,1,0-1.23-2.05A1.68,1.68,0,0,0,159.92,126.29Z"/><path class="j" d="M171.53,129.82a1.69,1.69,0,1,0-1.23-2A1.68,1.68,0,0,0,171.53,129.82Z"/><path class="j" d="M183,133.68a1.69,1.69,0,1,0-1.22-2.05A1.69,1.69,0,0,0,183,133.68Z"/><path class="j" d="M194.42,137.85a1.69,1.69,0,1,0-1.22-2A1.69,1.69,0,0,0,194.42,137.85Z"/><path class="j" d="M205.7,142.34a1.69,1.69,0,1,0-1.23-2.05A1.68,1.68,0,0,0,205.7,142.34Z"/><path class="j" d="M216.84,147.15a1.69,1.69,0,1,0-1.22-2.05A1.7,1.7,0,0,0,216.84,147.15Z"/><path class="j" d="M227.84,152.26a1.69,1.69,0,1,0-1.22-2A1.68,1.68,0,0,0,227.84,152.26Z"/><path class="j" d="M238.7,157.68a1.69,1.69,0,1,0-1.22-2.05A1.7,1.7,0,0,0,238.7,157.68Z"/><path class="j" d="M249.4,163.4a1.69,1.69,0,1,0-1.22-2.05A1.69,1.69,0,0,0,249.4,163.4Z"/><path class="j" d="M33.48,99.51a1.61,1.61,0,1,0-1.17-2A1.61,1.61,0,0,0,33.48,99.51Z"/><path class="j" d="M45.61,99.52a1.61,1.61,0,1,0-1.16-2A1.61,1.61,0,0,0,45.61,99.52Z"/><path class="j" d="M57.74,99.86a1.61,1.61,0,0,0,.79-3.12,1.61,1.61,0,0,0-.79,3.12Z"/><path class="j" d="M69.86,100.53a1.61,1.61,0,1,0-1.17-2A1.62,1.62,0,0,0,69.86,100.53Z"/><path class="j" d="M82,101.53a1.61,1.61,0,1,0-1.17-2A1.62,1.62,0,0,0,82,101.53Z"/><path class="j" d="M94,102.86a1.61,1.61,0,1,0-1.17-2A1.62,1.62,0,0,0,94,102.86Z"/><path class="j" d="M106,104.52a1.61,1.61,0,1,0-1.17-2A1.62,1.62,0,0,0,106,104.52Z"/><path class="j" d="M118,106.5a1.6,1.6,0,1,0-1.17-2A1.6,1.6,0,0,0,118,106.5Z"/><path class="j" d="M129.91,108.82a1.61,1.61,0,1,0-1.16-1.95A1.61,1.61,0,0,0,129.91,108.82Z"/><path class="j" d="M141.76,111.45a1.6,1.6,0,1,0-1.17-2A1.6,1.6,0,0,0,141.76,111.45Z"/><path class="j" d="M153.52,114.41a1.6,1.6,0,1,0-1.16-2A1.6,1.6,0,0,0,153.52,114.41Z"/><path class="j" d="M165.21,117.69a1.6,1.6,0,1,0-1.17-2A1.6,1.6,0,0,0,165.21,117.69Z"/><path class="j" d="M176.79,121.29a1.6,1.6,0,1,0-1.16-2A1.6,1.6,0,0,0,176.79,121.29Z"/><path class="j" d="M188.28,125.21a1.61,1.61,0,1,0-1.17-1.95A1.62,1.62,0,0,0,188.28,125.21Z"/><path class="j" d="M199.65,129.43a1.6,1.6,0,1,0-1.16-2A1.6,1.6,0,0,0,199.65,129.43Z"/><path class="j" d="M210.91,134a1.61,1.61,0,1,0-1.17-1.95A1.62,1.62,0,0,0,210.91,134Z"/><path class="j" d="M222,138.81a1.61,1.61,0,1,0-1.17-1.95A1.62,1.62,0,0,0,222,138.81Z"/><path class="j" d="M233,144a1.61,1.61,0,1,0-1.17-1.95A1.6,1.6,0,0,0,233,144Z"/><path class="j" d="M243.87,149.39a1.6,1.6,0,1,0-1.16-1.95A1.6,1.6,0,0,0,243.87,149.39Z"/><path class="j" d="M254.56,155.13a1.61,1.61,0,1,0-1.16-1.95A1.61,1.61,0,0,0,254.56,155.13Z"/><path class="j" d="M26.78,89.88a1.5,1.5,0,1,0-1.08-1.82A1.49,1.49,0,0,0,26.78,89.88Z"/><path class="j" d="M38.92,89.71a1.5,1.5,0,1,0-1.09-1.82A1.5,1.5,0,0,0,38.92,89.71Z"/><path class="j" d="M51.05,89.86A1.5,1.5,0,1,0,50,88,1.49,1.49,0,0,0,51.05,89.86Z"/><path class="j" d="M63.18,90.34a1.5,1.5,0,1,0-1.09-1.82A1.51,1.51,0,0,0,63.18,90.34Z"/><path class="j" d="M75.28,91.14a1.5,1.5,0,1,0-1.09-1.82A1.5,1.5,0,0,0,75.28,91.14Z"/><path class="j" d="M87.37,92.26a1.5,1.5,0,1,0-1.09-1.82A1.49,1.49,0,0,0,87.37,92.26Z"/><path class="j" d="M99.41,93.71a1.5,1.5,0,1,0-1.09-1.82A1.5,1.5,0,0,0,99.41,93.71Z"/><path class="j" d="M111.42,95.48a1.5,1.5,0,1,0-1.09-1.82A1.51,1.51,0,0,0,111.42,95.48Z"/><path class="j" d="M123.37,97.56a1.5,1.5,0,1,0-1.09-1.82A1.49,1.49,0,0,0,123.37,97.56Z"/><path class="j" d="M135.26,100a1.5,1.5,0,0,0,.73-2.91,1.5,1.5,0,1,0-.73,2.91Z"/><path class="j" d="M147.08,102.72a1.53,1.53,0,1,0-1.11-1.85A1.52,1.52,0,0,0,147.08,102.72Z"/><path class="j" d="M158.83,105.73a1.5,1.5,0,1,0-1.08-1.82A1.49,1.49,0,0,0,158.83,105.73Z"/><path class="j" d="M170.5,109.09a1.5,1.5,0,1,0,.73-2.91,1.5,1.5,0,1,0-.73,2.91Z"/><path class="j" d="M182.06,112.75a1.5,1.5,0,1,0,.74-2.91,1.5,1.5,0,0,0-.74,2.91Z"/><path class="j" d="M193.53,116.72a1.5,1.5,0,1,0-1.09-1.82A1.51,1.51,0,0,0,193.53,116.72Z"/><path class="j" d="M204.89,121a1.5,1.5,0,0,0,1.82-1.08,1.5,1.5,0,1,0-2.91-.74A1.49,1.49,0,0,0,204.89,121Z"/><path class="j" d="M216.12,125.57a1.5,1.5,0,1,0-1.08-1.82A1.49,1.49,0,0,0,216.12,125.57Z"/><path class="j" d="M227.24,130.45a1.5,1.5,0,1,0,.73-2.91,1.5,1.5,0,0,0-.73,2.91Z"/><path class="j" d="M238.21,135.62a1.5,1.5,0,1,0-1.09-1.82A1.5,1.5,0,0,0,238.21,135.62Z"/><path class="j" d="M249.05,141.08a1.5,1.5,0,1,0-1.09-1.82A1.5,1.5,0,0,0,249.05,141.08Z"/><path class="j" d="M32.22,80a1.42,1.42,0,1,0-1-1.72A1.42,1.42,0,0,0,32.22,80Z"/><path class="j" d="M44.35,80a1.42,1.42,0,1,0-1-1.72A1.41,1.41,0,0,0,44.35,80Z"/><path class="j" d="M56.48,80.29a1.42,1.42,0,1,0-1-1.72A1.41,1.41,0,0,0,56.48,80.29Z"/><path class="j" d="M68.6,80.9a1.42,1.42,0,1,0-1-1.72A1.42,1.42,0,0,0,68.6,80.9Z"/><path class="j" d="M80.7,81.83a1.42,1.42,0,0,0,1.72-1,1.43,1.43,0,0,0-1-1.73,1.42,1.42,0,0,0-.69,2.76Z"/><path class="j" d="M92.77,83.07a1.42,1.42,0,1,0-1-1.72A1.42,1.42,0,0,0,92.77,83.07Z"/><path class="j" d="M104.8,84.62a1.42,1.42,0,1,0-1-1.72A1.42,1.42,0,0,0,104.8,84.62Z"/><path class="j" d="M116.79,86.5a1.42,1.42,0,1,0-1-1.73A1.43,1.43,0,0,0,116.79,86.5Z"/><path class="j" d="M128.73,88.68a1.42,1.42,0,1,0-1-1.72A1.42,1.42,0,0,0,128.73,88.68Z"/><path class="j" d="M140.6,91.18a1.42,1.42,0,1,0-1-1.73A1.42,1.42,0,0,0,140.6,91.18Z"/><path class="j" d="M152.41,94a1.42,1.42,0,1,0-1-1.72A1.42,1.42,0,0,0,152.41,94Z"/><path class="j" d="M164.14,97.1a1.42,1.42,0,0,0,1.72-1,1.43,1.43,0,0,0-1-1.73,1.42,1.42,0,0,0-.69,2.76Z"/><path class="j" d="M175.78,100.52a1.42,1.42,0,0,0,1.72-1,1.43,1.43,0,0,0-1-1.73,1.42,1.42,0,0,0-.69,2.76Z"/><path class="j" d="M187.33,104.24a1.42,1.42,0,1,0-1-1.72A1.42,1.42,0,0,0,187.33,104.24Z"/><path class="j" d="M198.77,108.26a1.42,1.42,0,1,0-1-1.72A1.42,1.42,0,0,0,198.77,108.26Z"/><path class="j" d="M210.11,112.59a1.42,1.42,0,0,0,1.72-1,1.43,1.43,0,0,0-1-1.73,1.42,1.42,0,0,0-.69,2.76Z"/><path class="j" d="M221.33,117.21a1.42,1.42,0,1,0-1-1.73A1.43,1.43,0,0,0,221.33,117.21Z"/><path class="j" d="M232.43,122.12a1.42,1.42,0,1,0-1-1.73A1.43,1.43,0,0,0,232.43,122.12Z"/><path class="j" d="M243.39,127.32a1.42,1.42,0,1,0-1-1.73A1.43,1.43,0,0,0,243.39,127.32Z"/><path class="j" d="M254.22,132.8a1.42,1.42,0,1,0-1-1.72A1.42,1.42,0,0,0,254.22,132.8Z"/><path class="j" d="M37.65,70.25a1.34,1.34,0,1,0-1-1.63A1.34,1.34,0,0,0,37.65,70.25Z"/><path class="j" d="M49.78,70.36a1.34,1.34,0,1,0-1-1.63A1.35,1.35,0,0,0,49.78,70.36Z"/><path class="j" d="M61.91,70.78a1.33,1.33,0,0,0,1.62-1,1.34,1.34,0,1,0-1.62,1Z"/><path class="j" d="M74,71.52a1.34,1.34,0,1,0-1-1.63A1.35,1.35,0,0,0,74,71.52Z"/><path class="j" d="M86.11,72.56a1.34,1.34,0,1,0-1-1.63A1.35,1.35,0,0,0,86.11,72.56Z"/><path class="j" d="M98.17,73.91a1.34,1.34,0,1,0-1-1.62A1.33,1.33,0,0,0,98.17,73.91Z"/><path class="j" d="M110.19,75.58a1.34,1.34,0,1,0-1-1.63A1.34,1.34,0,0,0,110.19,75.58Z"/><path class="j" d="M122.16,77.55a1.34,1.34,0,1,0-1-1.63A1.35,1.35,0,0,0,122.16,77.55Z"/><path class="j" d="M134.08,79.82a1.34,1.34,0,1,0-1-1.62A1.33,1.33,0,0,0,134.08,79.82Z"/><path class="j" d="M145.94,82.4a1.34,1.34,0,1,0,.65-2.59,1.34,1.34,0,1,0-.65,2.59Z"/><path class="j" d="M157.72,85.29a1.34,1.34,0,1,0-1-1.63A1.35,1.35,0,0,0,157.72,85.29Z"/><path class="j" d="M169.43,88.48a1.34,1.34,0,1,0-1-1.63A1.35,1.35,0,0,0,169.43,88.48Z"/><path class="j" d="M181.05,92a1.34,1.34,0,1,0-1-1.62A1.34,1.34,0,0,0,181.05,92Z"/><path class="j" d="M192.58,95.74a1.34,1.34,0,1,0-1-1.62A1.34,1.34,0,0,0,192.58,95.74Z"/><path class="j" d="M204,99.82a1.34,1.34,0,1,0-1-1.63A1.35,1.35,0,0,0,204,99.82Z"/><path class="j" d="M215.33,104.19a1.34,1.34,0,1,0-1-1.63A1.35,1.35,0,0,0,215.33,104.19Z"/><path class="j" d="M226.54,108.84a1.34,1.34,0,1,0-1-1.62A1.33,1.33,0,0,0,226.54,108.84Z"/><path class="j" d="M237.62,113.79a1.34,1.34,0,1,0-1-1.63A1.34,1.34,0,0,0,237.62,113.79Z"/><path class="j" d="M248.57,119a1.34,1.34,0,1,0-1-1.62A1.33,1.33,0,0,0,248.57,119Z"/><path class="j" d="M31,60.58A1.26,1.26,0,1,0,30,59.06,1.26,1.26,0,0,0,31,60.58Z"/><path class="j" d="M43.08,60.52A1.26,1.26,0,1,0,42.17,59,1.26,1.26,0,0,0,43.08,60.52Z"/><path class="j" d="M55.21,60.77a1.26,1.26,0,1,0-.91-1.53A1.26,1.26,0,0,0,55.21,60.77Z"/><path class="j" d="M67.34,61.32a1.26,1.26,0,1,0-.92-1.53A1.25,1.25,0,0,0,67.34,61.32Z"/><path class="j" d="M79.44,62.17a1.26,1.26,0,1,0-.91-1.52A1.26,1.26,0,0,0,79.44,62.17Z"/><path class="j" d="M91.52,63.33a1.26,1.26,0,1,0-.92-1.52A1.26,1.26,0,0,0,91.52,63.33Z"/><path class="j" d="M103.56,64.8a1.26,1.26,0,1,0-.91-1.53A1.26,1.26,0,0,0,103.56,64.8Z"/><path class="j" d="M115.57,66.56a1.26,1.26,0,1,0,.61-2.44,1.26,1.26,0,0,0-.61,2.44Z"/><path class="j" d="M127.53,68.63a1.26,1.26,0,0,0,.61-2.45,1.26,1.26,0,1,0-.61,2.45Z"/><path class="j" d="M139.43,71a1.26,1.26,0,1,0-.92-1.53A1.25,1.25,0,0,0,139.43,71Z"/><path class="j" d="M151.27,73.65a1.25,1.25,0,0,0,1.52-.91,1.26,1.26,0,1,0-1.52.91Z"/><path class="j" d="M163,76.61a1.26,1.26,0,1,0-.91-1.52A1.25,1.25,0,0,0,163,76.61Z"/><path class="j" d="M174.72,79.87a1.26,1.26,0,1,0-.91-1.53A1.26,1.26,0,0,0,174.72,79.87Z"/><path class="j" d="M186.33,83.42a1.26,1.26,0,1,0-.92-1.53A1.25,1.25,0,0,0,186.33,83.42Z"/><path class="j" d="M197.84,87.26a1.26,1.26,0,0,0,.61-2.45,1.26,1.26,0,1,0-.61,2.45Z"/><path class="j" d="M209.25,91.38a1.26,1.26,0,1,0-.92-1.53A1.26,1.26,0,0,0,209.25,91.38Z"/><path class="j" d="M220.55,95.79a1.26,1.26,0,1,0-.91-1.52A1.26,1.26,0,0,0,220.55,95.79Z"/><path class="j" d="M231.74,100.49a1.26,1.26,0,1,0-.91-1.53A1.26,1.26,0,0,0,231.74,100.49Z"/><path class="j" d="M242.81,105.46a1.26,1.26,0,1,0-.92-1.52A1.26,1.26,0,0,0,242.81,105.46Z"/><path class="j" d="M253.75,110.71a1.26,1.26,0,0,0,.61-2.44,1.26,1.26,0,1,0-.61,2.44Z"/><path class="j" d="M36.38,50.78a1.18,1.18,0,1,0-.85-1.43A1.18,1.18,0,0,0,36.38,50.78Z"/><path class="j" d="M48.51,50.86a1.18,1.18,0,0,0,.58-2.29,1.19,1.19,0,0,0-1.43.86A1.18,1.18,0,0,0,48.51,50.86Z"/><path class="j" d="M60.64,51.23a1.18,1.18,0,1,0-.85-1.43A1.18,1.18,0,0,0,60.64,51.23Z"/><path class="j" d="M72.76,51.91a1.18,1.18,0,1,0-.86-1.43A1.18,1.18,0,0,0,72.76,51.91Z"/><path class="j" d="M84.85,52.88A1.18,1.18,0,1,0,84,51.45,1.18,1.18,0,0,0,84.85,52.88Z"/><path class="j" d="M96.92,54.15a1.18,1.18,0,1,0-.85-1.43A1.18,1.18,0,0,0,96.92,54.15Z"/><path class="j" d="M109,55.71a1.18,1.18,0,1,0-.85-1.43A1.17,1.17,0,0,0,109,55.71Z"/><path class="j" d="M120.94,57.57a1.18,1.18,0,1,0-.85-1.43A1.17,1.17,0,0,0,120.94,57.57Z"/><path class="j" d="M132.89,59.73a1.16,1.16,0,0,0,1.42-.85,1.18,1.18,0,1,0-1.42.85Z"/><path class="j" d="M144.77,62.18a1.18,1.18,0,1,0-.86-1.43A1.19,1.19,0,0,0,144.77,62.18Z"/><path class="j" d="M156.59,64.92a1.18,1.18,0,1,0-.86-1.43A1.18,1.18,0,0,0,156.59,64.92Z"/><path class="j" d="M168.34,68a1.18,1.18,0,1,0-.86-1.43A1.18,1.18,0,0,0,168.34,68Z"/><path class="j" d="M180,71.28a1.18,1.18,0,1,0-.86-1.43A1.18,1.18,0,0,0,180,71.28Z"/><path class="j" d="M191.59,74.89a1.18,1.18,0,1,0-.85-1.43A1.18,1.18,0,0,0,191.59,74.89Z"/><path class="j" d="M203.09,78.78a1.18,1.18,0,1,0-.86-1.43A1.18,1.18,0,0,0,203.09,78.78Z"/><path class="j" d="M214.48,83a1.18,1.18,0,1,0-.85-1.43A1.18,1.18,0,0,0,214.48,83Z"/><path class="j" d="M225.77,87.41a1.18,1.18,0,1,0,.57-2.29,1.18,1.18,0,1,0-.57,2.29Z"/><path class="j" d="M236.94,92.14a1.19,1.19,0,0,0,1.43-.86,1.18,1.18,0,1,0-1.43.86Z"/><path class="j" d="M248,97.14a1.18,1.18,0,0,0,1.43-.85,1.18,1.18,0,1,0-1.43.85Z"/><path class="j" d="M29.68,41.14a1.1,1.1,0,1,0-.8-1.34A1.1,1.1,0,0,0,29.68,41.14Z"/><path class="j" d="M41.81,41.05a1.1,1.1,0,1,0,.54-2.13,1.09,1.09,0,0,0-1.33.79A1.11,1.11,0,0,0,41.81,41.05Z"/><path class="j" d="M54,41.25a1.1,1.1,0,1,0-.8-1.33A1.1,1.1,0,0,0,54,41.25Z"/><path class="j" d="M66.07,41.75a1.1,1.1,0,1,0-.8-1.33A1.11,1.11,0,0,0,66.07,41.75Z"/><path class="j" d="M78.18,42.54a1.1,1.1,0,1,0-.8-1.33A1.09,1.09,0,0,0,78.18,42.54Z"/><path class="j" d="M90.26,43.62a1.1,1.1,0,1,0-.79-1.33A1.11,1.11,0,0,0,90.26,43.62Z"/><path class="j" d="M102.32,45a1.1,1.1,0,1,0-.8-1.33A1.11,1.11,0,0,0,102.32,45Z"/><path class="j" d="M114.34,46.66a1.1,1.1,0,1,0-.8-1.33A1.1,1.1,0,0,0,114.34,46.66Z"/><path class="j" d="M126.31,48.62a1.1,1.1,0,1,0-.79-1.33A1.1,1.1,0,0,0,126.31,48.62Z"/><path class="j" d="M138.24,50.86a1.1,1.1,0,0,0,.54-2.13,1.11,1.11,0,0,0-1.34.8A1.09,1.09,0,0,0,138.24,50.86Z"/><path class="j" d="M150.11,53.4a1.11,1.11,0,0,0,1.33-.8,1.1,1.1,0,0,0-2.13-.54A1.1,1.1,0,0,0,150.11,53.4Z"/><path class="j" d="M161.91,56.21a1.1,1.1,0,1,0-.8-1.33A1.1,1.1,0,0,0,161.91,56.21Z"/><path class="j" d="M173.64,59.32a1.1,1.1,0,1,0-.8-1.34A1.1,1.1,0,0,0,173.64,59.32Z"/><path class="j" d="M185.29,62.7a1.1,1.1,0,1,0-.79-1.33A1.09,1.09,0,0,0,185.29,62.7Z"/><path class="j" d="M196.86,66.37a1.1,1.1,0,1,0-.8-1.34A1.1,1.1,0,0,0,196.86,66.37Z"/><path class="j" d="M208.33,70.31a1.1,1.1,0,1,0-.79-1.33A1.1,1.1,0,0,0,208.33,70.31Z"/><path class="j" d="M219.71,74.53a1.1,1.1,0,0,0,.54-2.13,1.1,1.1,0,1,0-.54,2.13Z"/><path class="j" d="M231,79a1.1,1.1,0,1,0-.79-1.33A1.09,1.09,0,0,0,231,79Z"/><path class="j" d="M242.14,83.79a1.1,1.1,0,1,0-.79-1.34A1.09,1.09,0,0,0,242.14,83.79Z"/><path class="j" d="M253.18,88.82a1.1,1.1,0,1,0,.54-2.13,1.1,1.1,0,0,0-.54,2.13Z"/><path class="j" d="M35.11,31.32a1,1,0,0,0,1.24-.73,1,1,0,0,0-.74-1.24,1,1,0,1,0-.5,2Z"/><path class="j" d="M47.25,31.37a1,1,0,1,0-.74-1.24A1,1,0,0,0,47.25,31.37Z"/><path class="j" d="M59.38,31.7a1,1,0,0,0,.49-2,1,1,0,0,0-.49,2Z"/><path class="j" d="M71.49,32.31a1,1,0,1,0,.5-2,1,1,0,0,0-.5,2Z"/><path class="j" d="M83.6,33.22A1,1,0,1,0,82.86,32,1,1,0,0,0,83.6,33.22Z"/><path class="j" d="M95.67,34.41a1,1,0,1,0-.74-1.24A1,1,0,0,0,95.67,34.41Z"/><path class="j" d="M107.71,35.88a1,1,0,1,0,.5-2,1,1,0,0,0-.5,2Z"/><path class="j" d="M119.72,37.64a1,1,0,0,0,1.24-.73,1,1,0,0,0-.74-1.24,1,1,0,1,0-.5,2Z"/><path class="j" d="M131.68,39.69a1,1,0,1,0-.74-1.24A1,1,0,0,0,131.68,39.69Z"/><path class="j" d="M143.59,42a1,1,0,0,0,.5-2,1,1,0,0,0-1.24.74A1,1,0,0,0,143.59,42Z"/><path class="j" d="M155.44,44.63a1,1,0,0,0,.5-2,1,1,0,1,0-.5,2Z"/><path class="j" d="M167.22,47.52a1,1,0,0,0,1.24-.74,1,1,0,0,0-2-.5A1,1,0,0,0,167.22,47.52Z"/><path class="j" d="M178.94,50.69a1,1,0,1,0-.74-1.24A1,1,0,0,0,178.94,50.69Z"/><path class="j" d="M190.57,54.13a1,1,0,0,0,1.24-.73,1,1,0,0,0-.74-1.24,1,1,0,1,0-.5,2Z"/><path class="j" d="M202.12,57.85a1,1,0,0,0,1.24-.73,1,1,0,0,0-.74-1.24,1,1,0,1,0-.5,2Z"/><path class="j" d="M213.58,61.85a1,1,0,0,0,.5-2,1,1,0,0,0-1.24.74A1,1,0,0,0,213.58,61.85Z"/><path class="j" d="M224.94,66.11a1,1,0,0,0,.5-2,1,1,0,0,0-1.24.74A1,1,0,0,0,224.94,66.11Z"/><path class="j" d="M236.2,70.64a1,1,0,1,0-.74-1.23A1,1,0,0,0,236.2,70.64Z"/><path class="j" d="M247.34,75.44a1,1,0,1,0-.74-1.23A1,1,0,0,0,247.34,75.44Z"/><path class="j" d="M113.1,26.8a.94.94,0,0,0,.46-1.82.94.94,0,1,0-.46,1.82Z"/><path class="j" d="M125.1,28.65a.93.93,0,1,0-.68-1.13A.92.92,0,0,0,125.1,28.65Z"/><path class="j" d="M137,30.79a1,1,0,0,0,1.14-.68.94.94,0,0,0-1.82-.46A1,1,0,0,0,137,30.79Z"/><path class="j" d="M148.93,33.2a.94.94,0,1,0-.68-1.14A1,1,0,0,0,148.93,33.2Z"/><path class="j" d="M160.77,35.88a.94.94,0,1,0-.68-1.14A.93.93,0,0,0,160.77,35.88Z"/><path class="j" d="M172.53,38.84A.94.94,0,1,0,173,37a1,1,0,0,0-1.14.68A.94.94,0,0,0,172.53,38.84Z"/><path class="j" d="M184.23,42.08a1,1,0,0,0,1.14-.68.94.94,0,1,0-1.14.68Z"/><path class="j" d="M195.85,45.58a.94.94,0,1,0-.68-1.14A.94.94,0,0,0,195.85,45.58Z"/><path class="j" d="M207.38,49.35a.93.93,0,1,0-.68-1.13A.93.93,0,0,0,207.38,49.35Z"/><path class="j" d="M218.82,53.4a1,1,0,0,0,1.14-.68.94.94,0,1,0-1.14.68Z"/><path class="j" d="M230.17,57.7A.93.93,0,0,0,231.3,57a.94.94,0,1,0-1.13.68Z"/><path class="j" d="M241.41,62.27a.94.94,0,1,0-.68-1.14A.93.93,0,0,0,241.41,62.27Z"/><path class="j" d="M252.54,67.1a.94.94,0,1,0-.68-1.14A.94.94,0,0,0,252.54,67.1Z"/><path class="j" d="M166.09,27.15a.86.86,0,1,0,.42-1.66.86.86,0,0,0-1,.62A.85.85,0,0,0,166.09,27.15Z"/><path class="j" d="M177.84,30.18a.86.86,0,1,0-.62-1A.85.85,0,0,0,177.84,30.18Z"/><path class="j" d="M189.52,33.48a.86.86,0,1,0-.62-1A.85.85,0,0,0,189.52,33.48Z"/><path class="j" d="M201.12,37a.87.87,0,0,0,1-.62.86.86,0,1,0-1,.62Z"/><path class="j" d="M212.63,40.86a.86.86,0,1,0,.42-1.66.86.86,0,1,0-.42,1.66Z"/><path class="j" d="M224.06,45a.86.86,0,1,0-.62-1A.85.85,0,0,0,224.06,45Z"/><path class="j" d="M235.39,49.3a.87.87,0,0,0,1-.62.86.86,0,1,0-1,.62Z"/><path class="j" d="M246.62,53.9a.86.86,0,0,0,1-.62.87.87,0,0,0-.63-1,.85.85,0,0,0-1,.62A.86.86,0,0,0,246.62,53.9Z"/><path class="j" d="M206.39,28.51a.78.78,0,1,0-.57-1A.79.79,0,0,0,206.39,28.51Z"/><path class="j" d="M217.88,32.41a.82.82,0,0,0,1-.59.81.81,0,0,0-.59-1,.8.8,0,0,0-1,.58A.81.81,0,0,0,217.88,32.41Z"/><path class="j" d="M229.3,36.51a.77.77,0,1,0-.57-.94A.78.78,0,0,0,229.3,36.51Z"/><path class="j" d="M240.61,40.9a.78.78,0,1,0-.56-.94A.77.77,0,0,0,240.61,40.9Z"/><path class="j" d="M251.82,45.56a.8.8,0,0,0,1-.58.81.81,0,0,0-.58-1,.82.82,0,0,0-1,.59A.8.8,0,0,0,251.82,45.56Z"/><path class="j" d="M234.52,28.11a.73.73,0,1,0-.52-.88A.73.73,0,0,0,234.52,28.11Z"/><path class="j" d="M245.82,32.53a.72.72,0,0,0,.88-.53.72.72,0,0,0-1.4-.35A.73.73,0,0,0,245.82,32.53Z"/></g></g></g><polyline class="k" points="179.81 170.25 75.42 170.25 75.42 94.86 223.88 94.86 223.88 205.82 179.81 170.25"/><line class="k" x1="97.84" y1="114.96" x2="204.16" y2="114.96"/><line class="k" x1="135.73" y1="133.13" x2="204.16" y2="133.13"/><polyline class="k" points="163.61 137.75 59.22 137.75 59.22 62.36 207.68 62.36 207.68 173.32 163.61 137.75"/><line class="k" x1="101.49" y1="82.46" x2="187.97" y2="82.46"/><line class="k" x1="101.49" y1="100.63" x2="187.97" y2="100.63"/><polyline class="k" points="75.42 81.2 81.58 87.37 92.1 76.86"/><polyline class="k" points="75.42 99.72 81.58 105.89 92.1 95.38"/></svg>