<svg xmlns="http://www.w3.org/2000/svg" xmlns:xlink="http://www.w3.org/1999/xlink" viewBox="0 0 285.37 259"><defs><style>.a,.g,.j,.k,.l,.m,.n,.p{fill:none;}.b{fill:#875ae2;}.b,.g,.h,.j{stroke:#1c1131;}.b,.g,.h,.j,.k,.l,.m,.n,.p{stroke-miterlimit:10;}.b,.g,.h{stroke-width:3px;}.c{clip-path:url(#a);}.d{opacity:0.29;}.e{clip-path:url(#b);}.f{fill:#1c1131;}.h{fill:#ffd23f;}.i{fill:#fff;}.j,.k,.l,.m,.n,.p{stroke-linecap:round;}.j{stroke-width:2.13px;}.k{stroke:#47bcee;}.k,.l,.m,.n{stroke-width:1.06px;}.l{stroke:#e50e99;}.m{stroke:#ffd23f;stroke-dasharray:2.13 3.19;}.n{stroke:#875ae2;}.o{fill:#ff2e93;}.p{stroke:#fff;stroke-width:4.25px;}</style><clipPath id="a" transform="translate(2.01)"><path class="a" d="M22.23,1.5h223a36.42,36.42,0,0,1,36.42,36.42v197a20.6,20.6,0,0,1-20.6,20.6H22.23a20.6,20.6,0,0,1-20.6-20.6V22.1A20.6,20.6,0,0,1,22.23,1.5Z" transform="translate(283.25 257.05) rotate(180)"/></clipPath><clipPath id="b" transform="translate(2.01)"><rect class="a" x="1.62" y="-0.45" width="280" height="256" rx="20" transform="translate(283.25 255.1) rotate(180)"/></clipPath></defs><rect class="b" x="3.51" y="1.5" width="280" height="256" rx="20"/><g class="c"><g class="d"><g class="e"><path class="f" d="M136.18,257.66a3.36,3.36,0,1,1,2.44-4.08A3.37,3.37,0,0,1,136.18,257.66Z" transform="translate(2.01)"/><path class="f" d="M128.66,258a3.36,3.36,0,1,1,2.44-4.08A3.36,3.36,0,0,1,128.66,258Z" transform="translate(2.01)"/><path class="f" d="M132.8,251.63a3.28,3.28,0,1,1,2.38-4A3.28,3.28,0,0,1,132.8,251.63Z" transform="translate(2.01)"/><path class="f" d="M125.29,252.3a3.28,3.28,0,1,1,2.38-4A3.28,3.28,0,0,1,125.29,252.3Z" transform="translate(2.01)"/><path class="f" d="M117.9,253.75a3.28,3.28,0,1,1,2.38-4A3.28,3.28,0,0,1,117.9,253.75Z" transform="translate(2.01)"/><path class="f" d="M110.7,256a3.28,3.28,0,1,1,2.38-4A3.28,3.28,0,0,1,110.7,256Z" transform="translate(2.01)"/><path class="f" d="M137,245.51a3.2,3.2,0,1,1,2.31-3.88A3.19,3.19,0,0,1,137,245.51Z" transform="translate(2.01)"/><path class="f" d="M129.42,245.73a3.2,3.2,0,1,1,2.32-3.88A3.2,3.2,0,0,1,129.42,245.73Z" transform="translate(2.01)"/><path class="f" d="M121.94,246.67a3.19,3.19,0,1,1,2.32-3.88A3.19,3.19,0,0,1,121.94,246.67Z" transform="translate(2.01)"/><path class="f" d="M114.59,248.33a3.19,3.19,0,1,1,2.32-3.87A3.18,3.18,0,0,1,114.59,248.33Z" transform="translate(2.01)"/><path class="f" d="M107.44,250.7a3.2,3.2,0,1,1,2.31-3.88A3.2,3.2,0,0,1,107.44,250.7Z" transform="translate(2.01)"/><path class="f" d="M100.54,253.74a3.2,3.2,0,1,1,2.32-3.88A3.2,3.2,0,0,1,100.54,253.74Z" transform="translate(2.01)"/><path class="f" d="M94,257.43a3.19,3.19,0,1,1,2.32-3.87A3.19,3.19,0,0,1,94,257.43Z" transform="translate(2.01)"/><path class="f" d="M133.57,239.43a3.11,3.11,0,1,1,2.26-3.77A3.1,3.1,0,0,1,133.57,239.43Z" transform="translate(2.01)"/><path class="f" d="M126.06,240a3.13,3.13,0,1,1,2.27-3.8A3.13,3.13,0,0,1,126.06,240Z" transform="translate(2.01)"/><path class="f" d="M118.61,241.12a3.11,3.11,0,1,1,2.25-3.78A3.13,3.13,0,0,1,118.61,241.12Z" transform="translate(2.01)"/><circle class="f" cx="112.55" cy="239.94" r="3.13"/><circle class="f" cx="105.43" cy="242.42" r="3.13"/><path class="f" d="M97.32,248.57a3.13,3.13,0,1,1,2.27-3.8A3.12,3.12,0,0,1,97.32,248.57Z" transform="translate(2.01)"/><circle class="f" cx="92.01" cy="249.25" r="3.13"/><path class="f" d="M84.57,256.58a3.13,3.13,0,1,1,2.27-3.8A3.13,3.13,0,0,1,84.57,256.58Z" transform="translate(2.01)"/><path class="f" d="M137.73,233.38a3,3,0,1,1,2.21-3.7A3,3,0,0,1,137.73,233.38Z" transform="translate(2.01)"/><path class="f" d="M130.19,233.5a3,3,0,1,1,2.21-3.69A3,3,0,0,1,130.19,233.5Z" transform="translate(2.01)"/><path class="f" d="M122.69,234.25a3,3,0,1,1,2.21-3.69A3,3,0,0,1,122.69,234.25Z" transform="translate(2.01)"/><path class="f" d="M115.28,235.63a3,3,0,1,1,2.21-3.7A3,3,0,0,1,115.28,235.63Z" transform="translate(2.01)"/><path class="f" d="M108,237.62a3,3,0,1,1,2.21-3.7A3,3,0,0,1,108,237.62Z" transform="translate(2.01)"/><path class="f" d="M100.94,240.21a3,3,0,1,1,2.21-3.69A3.05,3.05,0,0,1,100.94,240.21Z" transform="translate(2.01)"/><path class="f" d="M94.1,243.39a3,3,0,1,1,2.21-3.7A3.06,3.06,0,0,1,94.1,243.39Z" transform="translate(2.01)"/><path class="f" d="M87.55,247.13a3,3,0,1,1,2.21-3.7A3,3,0,0,1,87.55,247.13Z" transform="translate(2.01)"/><path class="f" d="M81.34,251.4a3,3,0,1,1,2.21-3.7A3,3,0,0,1,81.34,251.4Z" transform="translate(2.01)"/><path class="f" d="M75.51,256.17a3,3,0,1,1,2.21-3.69A3,3,0,0,1,75.51,256.17Z" transform="translate(2.01)"/><path class="f" d="M134.35,227.27a3,3,0,1,1,2.15-3.59A3,3,0,0,1,134.35,227.27Z" transform="translate(2.01)"/><path class="f" d="M126.82,227.65a3,3,0,1,1,2.15-3.59A3,3,0,0,1,126.82,227.65Z" transform="translate(2.01)"/><path class="f" d="M119.34,228.62a3,3,0,1,1,2.15-3.6A3,3,0,0,1,119.34,228.62Z" transform="translate(2.01)"/><path class="f" d="M112,230.17a3,3,0,1,1,2.15-3.59A3,3,0,0,1,112,230.17Z" transform="translate(2.01)"/><path class="f" d="M104.73,232.29a3,3,0,1,1,2.15-3.59A3,3,0,0,1,104.73,232.29Z" transform="translate(2.01)"/><path class="f" d="M97.69,235a3,3,0,1,1,2.15-3.59A3,3,0,0,1,97.69,235Z" transform="translate(2.01)"/><path class="f" d="M90.88,238.21A3,3,0,1,1,93,234.62,2.95,2.95,0,0,1,90.88,238.21Z" transform="translate(2.01)"/><path class="f" d="M84.34,242a3,3,0,1,1,2.15-3.59A3,3,0,0,1,84.34,242Z" transform="translate(2.01)"/><path class="f" d="M78.12,246.22a3,3,0,1,1,2.15-3.6A3,3,0,0,1,78.12,246.22Z" transform="translate(2.01)"/><path class="f" d="M72.26,251a3,3,0,1,1,2.16-3.62A3,3,0,0,1,72.26,251Z" transform="translate(2.01)"/><path class="f" d="M66.78,256.14a3,3,0,1,1,2.16-3.61A3,3,0,0,1,66.78,256.14Z" transform="translate(2.01)"/><path class="f" d="M138.51,221.25a2.89,2.89,0,1,1,2.1-3.51A2.9,2.9,0,0,1,138.51,221.25Z" transform="translate(2.01)"/><path class="f" d="M131,221.3a2.9,2.9,0,1,1,2.1-3.51A2.89,2.89,0,0,1,131,221.3Z" transform="translate(2.01)"/><path class="f" d="M123.46,221.9a2.89,2.89,0,1,1,2.1-3.51A2.9,2.9,0,0,1,123.46,221.9Z" transform="translate(2.01)"/><path class="f" d="M116,223.06a2.9,2.9,0,1,1,2.1-3.51A2.9,2.9,0,0,1,116,223.06Z" transform="translate(2.01)"/><path class="f" d="M108.66,224.76a2.89,2.89,0,1,1,2.1-3.51A2.89,2.89,0,0,1,108.66,224.76Z" transform="translate(2.01)"/><path class="f" d="M101.47,227a2.89,2.89,0,1,1,2.1-3.51A2.9,2.9,0,0,1,101.47,227Z" transform="translate(2.01)"/><circle class="f" cx="95.76" cy="226.96" r="2.9"/><path class="f" d="M87.67,233.05a2.9,2.9,0,1,1,2.1-3.52A2.9,2.9,0,0,1,87.67,233.05Z" transform="translate(2.01)"/><path class="f" d="M81.14,236.82a2.9,2.9,0,1,1,2.1-3.52A2.9,2.9,0,0,1,81.14,236.82Z" transform="translate(2.01)"/><path class="f" d="M74.91,241.06a2.9,2.9,0,1,1,2.1-3.51A2.9,2.9,0,0,1,74.91,241.06Z" transform="translate(2.01)"/><path class="f" d="M69,245.75a2.9,2.9,0,1,1,2.11-3.52A2.89,2.89,0,0,1,69,245.75Z" transform="translate(2.01)"/><path class="f" d="M63.47,250.86a2.89,2.89,0,1,1,2.1-3.51A2.9,2.9,0,0,1,63.47,250.86Z" transform="translate(2.01)"/><path class="f" d="M58.32,256.37a2.9,2.9,0,1,1,2.1-3.51A2.9,2.9,0,0,1,58.32,256.37Z" transform="translate(2.01)"/><path class="f" d="M135.13,215.14a2.83,2.83,0,1,1,2.05-3.43A2.84,2.84,0,0,1,135.13,215.14Z" transform="translate(2.01)"/><path class="f" d="M127.59,215.4a2.81,2.81,0,1,1,2-3.41A2.8,2.8,0,0,1,127.59,215.4Z" transform="translate(2.01)"/><path class="f" d="M120.1,216.22a2.83,2.83,0,1,1,2.05-3.43A2.83,2.83,0,0,1,120.1,216.22Z" transform="translate(2.01)"/><path class="f" d="M112.68,217.55a2.83,2.83,0,1,1,2-3.44A2.82,2.82,0,0,1,112.68,217.55Z" transform="translate(2.01)"/><path class="f" d="M105.37,219.39a2.83,2.83,0,1,1,2-3.44A2.84,2.84,0,0,1,105.37,219.39Z" transform="translate(2.01)"/><path class="f" d="M98.2,221.73a2.83,2.83,0,1,1,2.06-3.43A2.83,2.83,0,0,1,98.2,221.73Z" transform="translate(2.01)"/><path class="f" d="M91.22,224.57a2.83,2.83,0,1,1,2-3.43A2.83,2.83,0,0,1,91.22,224.57Z" transform="translate(2.01)"/><path class="f" d="M84.45,227.89a2.83,2.83,0,1,1,2-3.43A2.83,2.83,0,0,1,84.45,227.89Z" transform="translate(2.01)"/><path class="f" d="M77.93,231.67a2.83,2.83,0,1,1,2-3.43A2.83,2.83,0,0,1,77.93,231.67Z" transform="translate(2.01)"/><path class="f" d="M71.69,235.9a2.83,2.83,0,1,1,2-3.43A2.83,2.83,0,0,1,71.69,235.9Z" transform="translate(2.01)"/><path class="f" d="M65.76,240.55a2.83,2.83,0,1,1,2-3.43A2.82,2.82,0,0,1,65.76,240.55Z" transform="translate(2.01)"/><path class="f" d="M60.17,245.61a2.83,2.83,0,1,1,2-3.43A2.83,2.83,0,0,1,60.17,245.61Z" transform="translate(2.01)"/><path class="f" d="M54.94,251A2.83,2.83,0,1,1,57,247.61,2.82,2.82,0,0,1,54.94,251Z" transform="translate(2.01)"/><path class="f" d="M50.11,256.83a2.83,2.83,0,1,1,2-3.44A2.83,2.83,0,0,1,50.11,256.83Z" transform="translate(2.01)"/><path class="f" d="M139.28,209.13a2.75,2.75,0,1,1,2-3.33A2.74,2.74,0,0,1,139.28,209.13Z" transform="translate(2.01)"/><path class="f" d="M131.74,209.12a2.75,2.75,0,1,1,2-3.34A2.75,2.75,0,0,1,131.74,209.12Z" transform="translate(2.01)"/><path class="f" d="M124.22,209.6a2.74,2.74,0,1,1,2-3.33A2.74,2.74,0,0,1,124.22,209.6Z" transform="translate(2.01)"/><path class="f" d="M116.75,210.58a2.74,2.74,0,1,1,2-3.33A2.74,2.74,0,0,1,116.75,210.58Z" transform="translate(2.01)"/><path class="f" d="M109.35,212.06a2.75,2.75,0,1,1,2-3.33A2.74,2.74,0,0,1,109.35,212.06Z" transform="translate(2.01)"/><path class="f" d="M102.08,214a2.75,2.75,0,1,1,2-3.33A2.75,2.75,0,0,1,102.08,214Z" transform="translate(2.01)"/><path class="f" d="M94.94,216.46a2.75,2.75,0,1,1,2-3.34A2.75,2.75,0,0,1,94.94,216.46Z" transform="translate(2.01)"/><path class="f" d="M88,219.36A2.75,2.75,0,1,1,90,216,2.74,2.74,0,0,1,88,219.36Z" transform="translate(2.01)"/><path class="f" d="M81.23,222.71a2.74,2.74,0,1,1,2-3.33A2.74,2.74,0,0,1,81.23,222.71Z" transform="translate(2.01)"/><path class="f" d="M74.72,226.51a2.75,2.75,0,1,1,2-3.33A2.74,2.74,0,0,1,74.72,226.51Z" transform="translate(2.01)"/><path class="f" d="M68.47,230.73a2.75,2.75,0,1,1,2-3.34A2.75,2.75,0,0,1,68.47,230.73Z" transform="translate(2.01)"/><path class="f" d="M62.52,235.35a2.75,2.75,0,1,1,2-3.33A2.75,2.75,0,0,1,62.52,235.35Z" transform="translate(2.01)"/><path class="f" d="M56.88,240.35a2.74,2.74,0,1,1,2-3.33A2.74,2.74,0,0,1,56.88,240.35Z" transform="translate(2.01)"/><path class="f" d="M51.58,245.72a2.75,2.75,0,1,1,2-3.33A2.74,2.74,0,0,1,51.58,245.72Z" transform="translate(2.01)"/><path class="f" d="M46.65,251.42a2.74,2.74,0,1,1,2-3.33A2.74,2.74,0,0,1,46.65,251.42Z" transform="translate(2.01)"/><path class="f" d="M42.11,257.44a2.75,2.75,0,1,1,2-3.33A2.74,2.74,0,0,1,42.11,257.44Z" transform="translate(2.01)"/><path class="f" d="M135.9,203a2.66,2.66,0,1,1,1.93-3.23A2.66,2.66,0,0,1,135.9,203Z" transform="translate(2.01)"/><path class="f" d="M128.36,203.18A2.66,2.66,0,1,1,130.3,200,2.67,2.67,0,0,1,128.36,203.18Z" transform="translate(2.01)"/><path class="f" d="M120.86,203.85a2.66,2.66,0,1,1,1.93-3.23A2.66,2.66,0,0,1,120.86,203.85Z" transform="translate(2.01)"/><path class="f" d="M113.41,205a2.68,2.68,0,1,1,1.94-3.25A2.68,2.68,0,0,1,113.41,205Z" transform="translate(2.01)"/><path class="f" d="M106,206.62a2.68,2.68,0,1,1,1.95-3.25A2.68,2.68,0,0,1,106,206.62Z" transform="translate(2.01)"/><path class="f" d="M98.79,208.69a2.68,2.68,0,1,1,1.95-3.25A2.68,2.68,0,0,1,98.79,208.69Z" transform="translate(2.01)"/><path class="f" d="M91.68,211.19A2.66,2.66,0,1,1,93.62,208,2.66,2.66,0,0,1,91.68,211.19Z" transform="translate(2.01)"/><path class="f" d="M84.75,214.17a2.68,2.68,0,1,1,2-3.25A2.68,2.68,0,0,1,84.75,214.17Z" transform="translate(2.01)"/><path class="f" d="M78,217.56a2.68,2.68,0,1,1,2-3.25A2.68,2.68,0,0,1,78,217.56Z" transform="translate(2.01)"/><path class="f" d="M71.51,221.36a2.68,2.68,0,1,1,1.95-3.25A2.68,2.68,0,0,1,71.51,221.36Z" transform="translate(2.01)"/><path class="f" d="M65.26,225.57a2.68,2.68,0,1,1,1.94-3.25A2.68,2.68,0,0,1,65.26,225.57Z" transform="translate(2.01)"/><path class="f" d="M59.28,230.16a2.68,2.68,0,1,1,1.94-3.25A2.68,2.68,0,0,1,59.28,230.16Z" transform="translate(2.01)"/><path class="f" d="M53.6,235.12a2.68,2.68,0,1,1,1.94-3.25A2.68,2.68,0,0,1,53.6,235.12Z" transform="translate(2.01)"/><path class="f" d="M48.24,240.42a2.68,2.68,0,1,1,1.95-3.25A2.68,2.68,0,0,1,48.24,240.42Z" transform="translate(2.01)"/><path class="f" d="M43.23,246.05a2.68,2.68,0,1,1,2-3.25A2.68,2.68,0,0,1,43.23,246.05Z" transform="translate(2.01)"/><path class="f" d="M38.58,252a2.68,2.68,0,1,1,2-3.25A2.68,2.68,0,0,1,38.58,252Z" transform="translate(2.01)"/><path class="f" d="M34.31,258.2A2.68,2.68,0,1,1,36.26,255,2.68,2.68,0,0,1,34.31,258.2Z" transform="translate(2.01)"/><path class="f" d="M132.52,196.94a2.59,2.59,0,1,1,1.88-3.15A2.59,2.59,0,0,1,132.52,196.94Z" transform="translate(2.01)"/><path class="f" d="M125,197.34a2.6,2.6,0,1,1,1.89-3.15A2.6,2.6,0,0,1,125,197.34Z" transform="translate(2.01)"/><path class="f" d="M117.5,198.18a2.6,2.6,0,1,1,1.88-3.15A2.6,2.6,0,0,1,117.5,198.18Z" transform="translate(2.01)"/><path class="f" d="M110.07,199.47a2.6,2.6,0,1,1,1.89-3.15A2.61,2.61,0,0,1,110.07,199.47Z" transform="translate(2.01)"/><path class="f" d="M102.73,201.19a2.59,2.59,0,1,1,1.89-3.15A2.59,2.59,0,0,1,102.73,201.19Z" transform="translate(2.01)"/><path class="f" d="M95.51,203.36a2.59,2.59,0,1,1,1.89-3.15A2.59,2.59,0,0,1,95.51,203.36Z" transform="translate(2.01)"/><path class="f" d="M88.43,206a2.59,2.59,0,1,1,1.89-3.15A2.59,2.59,0,0,1,88.43,206Z" transform="translate(2.01)"/><path class="f" d="M81.52,209a2.6,2.6,0,1,1,1.89-3.15A2.6,2.6,0,0,1,81.52,209Z" transform="translate(2.01)"/><path class="f" d="M74.81,212.39a2.6,2.6,0,1,1,1.88-3.15A2.59,2.59,0,0,1,74.81,212.39Z" transform="translate(2.01)"/><path class="f" d="M68.3,216.2a2.59,2.59,0,1,1,1.89-3.15A2.59,2.59,0,0,1,68.3,216.2Z" transform="translate(2.01)"/><path class="f" d="M62,220.4a2.6,2.6,0,1,1,1.89-3.15A2.6,2.6,0,0,1,62,220.4Z" transform="translate(2.01)"/><path class="f" d="M56,225a2.59,2.59,0,1,1,1.89-3.15A2.59,2.59,0,0,1,56,225Z" transform="translate(2.01)"/><path class="f" d="M50.33,229.88a2.6,2.6,0,1,1,1.88-3.15A2.6,2.6,0,0,1,50.33,229.88Z" transform="translate(2.01)"/><path class="f" d="M44.91,235.13A2.6,2.6,0,1,1,46.8,232,2.6,2.6,0,0,1,44.91,235.13Z" transform="translate(2.01)"/><path class="f" d="M39.83,240.69a2.6,2.6,0,1,1,1.88-3.15A2.59,2.59,0,0,1,39.83,240.69Z" transform="translate(2.01)"/><path class="f" d="M35.08,246.55A2.6,2.6,0,1,1,37,243.4,2.6,2.6,0,0,1,35.08,246.55Z" transform="translate(2.01)"/><path class="f" d="M30.69,252.68a2.6,2.6,0,1,1,1.89-3.15A2.6,2.6,0,0,1,30.69,252.68Z" transform="translate(2.01)"/><path class="f" d="M136.68,190.86a2.53,2.53,0,1,1,1.84-3.07A2.53,2.53,0,0,1,136.68,190.86Z" transform="translate(2.01)"/><circle class="f" cx="128.52" cy="188.54" r="2.53" transform="translate(-56.54 57.89) rotate(-20.79)"/><path class="f" d="M121.62,191.56a2.53,2.53,0,1,1,1.84-3.07A2.53,2.53,0,0,1,121.62,191.56Z" transform="translate(2.01)"/><path class="f" d="M114.15,192.55a2.53,2.53,0,1,1,1.84-3.07A2.53,2.53,0,0,1,114.15,192.55Z" transform="translate(2.01)"/><path class="f" d="M106.75,194a2.53,2.53,0,1,1,1.83-3.07A2.53,2.53,0,0,1,106.75,194Z" transform="translate(2.01)"/><path class="f" d="M99.44,195.81a2.53,2.53,0,1,1,1.83-3.07A2.53,2.53,0,0,1,99.44,195.81Z" transform="translate(2.01)"/><circle class="f" cx="91.63" cy="195.61" r="2.53" transform="translate(-69.74 54.31) rotate(-24.05)"/><circle class="f" cx="84.57" cy="198.27" r="2.53" transform="translate(-71.44 51.67) rotate(-24.05)"/><path class="f" d="M78.3,203.78a2.53,2.53,0,1,1,1.83-3.07A2.53,2.53,0,0,1,78.3,203.78Z" transform="translate(2.01)"/><path class="f" d="M71.59,207.23a2.53,2.53,0,1,1,1.84-3.07A2.53,2.53,0,0,1,71.59,207.23Z" transform="translate(2.01)"/><path class="f" d="M65.1,211.05A2.53,2.53,0,1,1,66.93,208,2.52,2.52,0,0,1,65.1,211.05Z" transform="translate(2.01)"/><path class="f" d="M58.83,215.24a2.53,2.53,0,1,1,1.83-3.07A2.53,2.53,0,0,1,58.83,215.24Z" transform="translate(2.01)"/><path class="f" d="M52.81,219.78a2.53,2.53,0,1,1,1.84-3.07A2.53,2.53,0,0,1,52.81,219.78Z" transform="translate(2.01)"/><path class="f" d="M47.06,224.66a2.53,2.53,0,1,1,1.84-3.07A2.53,2.53,0,0,1,47.06,224.66Z" transform="translate(2.01)"/><path class="f" d="M41.6,229.86a2.53,2.53,0,1,1,1.84-3.07A2.53,2.53,0,0,1,41.6,229.86Z" transform="translate(2.01)"/><path class="f" d="M36.44,235.36a2.53,2.53,0,1,1,1.84-3.07A2.53,2.53,0,0,1,36.44,235.36Z" transform="translate(2.01)"/><path class="f" d="M31.61,241.14a2.53,2.53,0,1,1,1.84-3.07A2.53,2.53,0,0,1,31.61,241.14Z" transform="translate(2.01)"/><path class="f" d="M27.11,247.19A2.53,2.53,0,1,1,29,244.12,2.52,2.52,0,0,1,27.11,247.19Z" transform="translate(2.01)"/><path class="f" d="M23,253.49a2.53,2.53,0,1,1,1.84-3.07A2.53,2.53,0,0,1,23,253.49Z" transform="translate(2.01)"/><path class="f" d="M133.3,184.8a2.46,2.46,0,1,1,1.79-3A2.46,2.46,0,0,1,133.3,184.8Z" transform="translate(2.01)"/><path class="f" d="M125.77,185.11a2.46,2.46,0,1,1,1.78-3A2.47,2.47,0,0,1,125.77,185.11Z" transform="translate(2.01)"/><path class="f" d="M118.26,185.84a2.46,2.46,0,1,1,1.79-3A2.47,2.47,0,0,1,118.26,185.84Z" transform="translate(2.01)"/><path class="f" d="M110.81,187a2.46,2.46,0,1,1,1.79-3A2.46,2.46,0,0,1,110.81,187Z" transform="translate(2.01)"/><path class="f" d="M103.43,188.51a2.46,2.46,0,1,1,1.79-3A2.46,2.46,0,0,1,103.43,188.51Z" transform="translate(2.01)"/><path class="f" d="M96.14,190.45a2.46,2.46,0,1,1,1.79-3A2.46,2.46,0,0,1,96.14,190.45Z" transform="translate(2.01)"/><path class="f" d="M89,192.78a2.47,2.47,0,1,1,1.78-3A2.46,2.46,0,0,1,89,192.78Z" transform="translate(2.01)"/><path class="f" d="M82,195.5a2.46,2.46,0,1,1,1.78-3A2.46,2.46,0,0,1,82,195.5Z" transform="translate(2.01)"/><path class="f" d="M75.07,198.6a2.46,2.46,0,1,1,1.79-3A2.44,2.44,0,0,1,75.07,198.6Z" transform="translate(2.01)"/><path class="f" d="M68.38,202.08a2.46,2.46,0,1,1,1.79-3A2.47,2.47,0,0,1,68.38,202.08Z" transform="translate(2.01)"/><path class="f" d="M61.89,205.91a2.46,2.46,0,1,1,1.79-3A2.46,2.46,0,0,1,61.89,205.91Z" transform="translate(2.01)"/><path class="f" d="M55.62,210.09a2.46,2.46,0,1,1,1.78-3A2.46,2.46,0,0,1,55.62,210.09Z" transform="translate(2.01)"/><circle class="f" cx="48.98" cy="212.22" r="2.46" transform="translate(-12.28 3.81) rotate(-3.89)"/><path class="f" d="M43.8,219.45a2.46,2.46,0,1,1,1.79-3A2.47,2.47,0,0,1,43.8,219.45Z" transform="translate(2.01)"/><path class="f" d="M38.3,224.6a2.47,2.47,0,1,1,1.78-3A2.46,2.46,0,0,1,38.3,224.6Z" transform="translate(2.01)"/><path class="f" d="M33.08,230a2.46,2.46,0,1,1,1.79-3A2.46,2.46,0,0,1,33.08,230Z" transform="translate(2.01)"/><circle class="f" cx="27.57" cy="233.37" r="2.46" transform="translate(-3.69 0.74) rotate(-1.4)"/><path class="f" d="M23.57,241.74a2.46,2.46,0,1,1,1.79-3A2.47,2.47,0,0,1,23.57,241.74Z" transform="translate(2.01)"/><path class="f" d="M19.31,248a2.46,2.46,0,1,1,1.79-3A2.46,2.46,0,0,1,19.31,248Z" transform="translate(2.01)"/><path class="f" d="M15.4,254.4a2.46,2.46,0,1,1,1.79-3A2.46,2.46,0,0,1,15.4,254.4Z" transform="translate(2.01)"/><path class="f" d="M137.46,178.72a2.38,2.38,0,1,1,1.72-2.89A2.38,2.38,0,0,1,137.46,178.72Z" transform="translate(2.01)"/><path class="f" d="M129.92,178.8a2.38,2.38,0,1,1,1.72-2.88A2.38,2.38,0,0,1,129.92,178.8Z" transform="translate(2.01)"/><path class="f" d="M122.39,179.28a2.38,2.38,0,1,1,1.73-2.89A2.37,2.37,0,0,1,122.39,179.28Z" transform="translate(2.01)"/><path class="f" d="M114.9,180.15a2.38,2.38,0,1,1,1.73-2.89A2.37,2.37,0,0,1,114.9,180.15Z" transform="translate(2.01)"/><path class="f" d="M107.47,181.41a2.38,2.38,0,1,1,1.73-2.89A2.38,2.38,0,0,1,107.47,181.41Z" transform="translate(2.01)"/><path class="f" d="M100.12,183.07a2.4,2.4,0,1,1,1.74-2.91A2.4,2.4,0,0,1,100.12,183.07Z" transform="translate(2.01)"/><path class="f" d="M92.85,185.09a2.38,2.38,0,1,1,1.73-2.89A2.38,2.38,0,0,1,92.85,185.09Z" transform="translate(2.01)"/><path class="f" d="M85.71,187.49a2.38,2.38,0,1,1,1.73-2.89A2.38,2.38,0,0,1,85.71,187.49Z" transform="translate(2.01)"/><path class="f" d="M78.7,190.27a2.38,2.38,0,1,1,1.73-2.89A2.38,2.38,0,0,1,78.7,190.27Z" transform="translate(2.01)"/><path class="f" d="M71.85,193.41a2.38,2.38,0,1,1,1.72-2.89A2.38,2.38,0,0,1,71.85,193.41Z" transform="translate(2.01)"/><path class="f" d="M65.17,196.91A2.38,2.38,0,1,1,66.89,194,2.38,2.38,0,0,1,65.17,196.91Z" transform="translate(2.01)"/><path class="f" d="M58.68,200.75a2.38,2.38,0,1,1,1.73-2.89A2.39,2.39,0,0,1,58.68,200.75Z" transform="translate(2.01)"/><path class="f" d="M52.4,204.92A2.38,2.38,0,1,1,54.13,202,2.39,2.39,0,0,1,52.4,204.92Z" transform="translate(2.01)"/><path class="f" d="M46.35,209.42a2.38,2.38,0,1,1,1.73-2.89A2.38,2.38,0,0,1,46.35,209.42Z" transform="translate(2.01)"/><path class="f" d="M40.54,214.23a2.38,2.38,0,1,1,1.73-2.89A2.38,2.38,0,0,1,40.54,214.23Z" transform="translate(2.01)"/><path class="f" d="M35,219.33a2.38,2.38,0,1,1,1.72-2.89A2.38,2.38,0,0,1,35,219.33Z" transform="translate(2.01)"/><path class="f" d="M29.72,224.72a2.38,2.38,0,1,1,1.73-2.89A2.37,2.37,0,0,1,29.72,224.72Z" transform="translate(2.01)"/><path class="f" d="M24.74,230.38a2.38,2.38,0,1,1,1.73-2.89A2.39,2.39,0,0,1,24.74,230.38Z" transform="translate(2.01)"/><path class="f" d="M20.06,236.29a2.38,2.38,0,1,1,1.73-2.89A2.39,2.39,0,0,1,20.06,236.29Z" transform="translate(2.01)"/><path class="f" d="M15.69,242.43a2.38,2.38,0,1,1,1.73-2.89A2.37,2.37,0,0,1,15.69,242.43Z" transform="translate(2.01)"/><path class="f" d="M11.66,248.82a2.4,2.4,0,1,1,1.74-2.91A2.41,2.41,0,0,1,11.66,248.82Z" transform="translate(2.01)"/><path class="f" d="M8,255.37a2.38,2.38,0,1,1,1.73-2.89A2.38,2.38,0,0,1,8,255.37Z" transform="translate(2.01)"/><path class="f" d="M134.08,172.64a2.31,2.31,0,1,1,1.67-2.8A2.31,2.31,0,0,1,134.08,172.64Z" transform="translate(2.01)"/><circle class="f" cx="125.98" cy="170.65" r="2.31" transform="matrix(0.51, -0.86, 0.86, 0.51, -83.13, 191.18)"/><path class="f" d="M119,173.52a2.32,2.32,0,1,1,1.68-2.81A2.32,2.32,0,0,1,119,173.52Z" transform="translate(2.01)"/><path class="f" d="M111.56,174.52a2.32,2.32,0,1,1,1.67-2.81A2.32,2.32,0,0,1,111.56,174.52Z" transform="translate(2.01)"/><path class="f" d="M104.14,175.9a2.32,2.32,0,1,1,1.68-2.81A2.31,2.31,0,0,1,104.14,175.9Z" transform="translate(2.01)"/><path class="f" d="M96.81,177.64a2.31,2.31,0,1,1,1.68-2.8A2.31,2.31,0,0,1,96.81,177.64Z" transform="translate(2.01)"/><path class="f" d="M89.57,179.76A2.32,2.32,0,1,1,91.25,177,2.31,2.31,0,0,1,89.57,179.76Z" transform="translate(2.01)"/><path class="f" d="M82.45,182.23a2.31,2.31,0,1,1,1.68-2.81A2.32,2.32,0,0,1,82.45,182.23Z" transform="translate(2.01)"/><path class="f" d="M75.46,185.06a2.31,2.31,0,1,1,1.68-2.81A2.31,2.31,0,0,1,75.46,185.06Z" transform="translate(2.01)"/><path class="f" d="M68.63,188.24a2.32,2.32,0,1,1,1.67-2.81A2.32,2.32,0,0,1,68.63,188.24Z" transform="translate(2.01)"/><path class="f" d="M62,191.75a2.31,2.31,0,1,1,1.68-2.8A2.31,2.31,0,0,1,62,191.75Z" transform="translate(2.01)"/><path class="f" d="M55.47,195.6a2.31,2.31,0,1,1,1.68-2.81A2.31,2.31,0,0,1,55.47,195.6Z" transform="translate(2.01)"/><path class="f" d="M49.19,199.77A2.32,2.32,0,1,1,50.87,197,2.32,2.32,0,0,1,49.19,199.77Z" transform="translate(2.01)"/><path class="f" d="M43.13,204.25a2.32,2.32,0,1,1,1.67-2.81A2.32,2.32,0,0,1,43.13,204.25Z" transform="translate(2.01)"/><path class="f" d="M37.29,209a2.31,2.31,0,1,1,1.68-2.8A2.31,2.31,0,0,1,37.29,209Z" transform="translate(2.01)"/><path class="f" d="M31.71,214.09a2.32,2.32,0,1,1,1.68-2.81A2.32,2.32,0,0,1,31.71,214.09Z" transform="translate(2.01)"/><path class="f" d="M26.39,219.43a2.32,2.32,0,1,1,1.67-2.81A2.32,2.32,0,0,1,26.39,219.43Z" transform="translate(2.01)"/><path class="f" d="M21.34,225a2.31,2.31,0,1,1,1.68-2.8A2.3,2.3,0,0,1,21.34,225Z" transform="translate(2.01)"/><path class="f" d="M16.58,230.87a2.31,2.31,0,1,1,1.68-2.81A2.32,2.32,0,0,1,16.58,230.87Z" transform="translate(2.01)"/><path class="f" d="M12.12,237a2.32,2.32,0,1,1,1.67-2.81A2.32,2.32,0,0,1,12.12,237Z" transform="translate(2.01)"/><path class="f" d="M8,243.24a2.31,2.31,0,1,1,1.67-2.8A2.32,2.32,0,0,1,8,243.24Z" transform="translate(2.01)"/><path class="f" d="M4.14,249.74a2.32,2.32,0,1,1,1.68-2.81A2.32,2.32,0,0,1,4.14,249.74Z" transform="translate(2.01)"/><path class="f" d="M138.24,166.6a2.24,2.24,0,1,1-1.1-4.35,2.24,2.24,0,1,1,1.1,4.35Z" transform="translate(2.01)"/><path class="f" d="M130.7,166.64a2.25,2.25,0,1,1,1.63-2.73A2.25,2.25,0,0,1,130.7,166.64Z" transform="translate(2.01)"/><path class="f" d="M123.17,167a2.25,2.25,0,1,1,1.63-2.73A2.25,2.25,0,0,1,123.17,167Z" transform="translate(2.01)"/><path class="f" d="M115.67,167.8a2.24,2.24,0,1,1,1.63-2.72A2.23,2.23,0,0,1,115.67,167.8Z" transform="translate(2.01)"/><path class="f" d="M108.21,168.93a2.25,2.25,0,1,1,1.63-2.73A2.24,2.24,0,0,1,108.21,168.93Z" transform="translate(2.01)"/><path class="f" d="M100.82,170.41a2.24,2.24,0,1,1,1.63-2.72A2.23,2.23,0,0,1,100.82,170.41Z" transform="translate(2.01)"/><path class="f" d="M93.51,172.25a2.24,2.24,0,1,1,1.63-2.72A2.24,2.24,0,0,1,93.51,172.25Z" transform="translate(2.01)"/><path class="f" d="M86.3,174.44a2.24,2.24,0,1,1,1.63-2.72A2.23,2.23,0,0,1,86.3,174.44Z" transform="translate(2.01)"/><path class="f" d="M79.2,177a2.25,2.25,0,1,1,1.63-2.73A2.25,2.25,0,0,1,79.2,177Z" transform="translate(2.01)"/><path class="f" d="M72.23,179.86a2.25,2.25,0,1,1,1.63-2.73A2.25,2.25,0,0,1,72.23,179.86Z" transform="translate(2.01)"/><path class="f" d="M65.41,183.07A2.25,2.25,0,1,1,67,180.34,2.25,2.25,0,0,1,65.41,183.07Z" transform="translate(2.01)"/><path class="f" d="M58.75,186.6a2.25,2.25,0,1,1,1.63-2.73A2.25,2.25,0,0,1,58.75,186.6Z" transform="translate(2.01)"/><path class="f" d="M52.27,190.45a2.24,2.24,0,1,1,1.63-2.72A2.23,2.23,0,0,1,52.27,190.45Z" transform="translate(2.01)"/><path class="f" d="M46,194.62a2.25,2.25,0,1,1,1.63-2.73A2.26,2.26,0,0,1,46,194.62Z" transform="translate(2.01)"/><path class="f" d="M39.9,199.08a2.25,2.25,0,1,1,1.63-2.73A2.24,2.24,0,0,1,39.9,199.08Z" transform="translate(2.01)"/><path class="f" d="M34.05,203.83a2.25,2.25,0,1,1,1.63-2.73A2.25,2.25,0,0,1,34.05,203.83Z" transform="translate(2.01)"/><path class="f" d="M28.43,208.85a2.24,2.24,0,1,1,1.63-2.72A2.25,2.25,0,0,1,28.43,208.85Z" transform="translate(2.01)"/><path class="f" d="M23.06,214.14a2.24,2.24,0,1,1,1.63-2.72A2.24,2.24,0,0,1,23.06,214.14Z" transform="translate(2.01)"/><path class="f" d="M18,219.69A2.25,2.25,0,1,1,19.58,217,2.26,2.26,0,0,1,18,219.69Z" transform="translate(2.01)"/><path class="f" d="M13.12,225.47a2.24,2.24,0,1,1,1.63-2.72A2.23,2.23,0,0,1,13.12,225.47Z" transform="translate(2.01)"/><path class="f" d="M8.57,231.49a2.25,2.25,0,1,1,1.63-2.73A2.25,2.25,0,0,1,8.57,231.49Z" transform="translate(2.01)"/><path class="f" d="M4.32,237.71A2.25,2.25,0,1,1,6,235,2.25,2.25,0,0,1,4.32,237.71Z" transform="translate(2.01)"/><path class="f" d="M134.86,160.51a2.18,2.18,0,1,1,1.58-2.64A2.18,2.18,0,0,1,134.86,160.51Z" transform="translate(2.01)"/><path class="f" d="M127.32,160.7a2.18,2.18,0,1,1,1.58-2.64A2.18,2.18,0,0,1,127.32,160.7Z" transform="translate(2.01)"/><path class="f" d="M119.8,161.24a2.18,2.18,0,1,1,1.58-2.64A2.18,2.18,0,0,1,119.8,161.24Z" transform="translate(2.01)"/><path class="f" d="M112.31,162.12a2.17,2.17,0,1,1,1.57-2.63A2.17,2.17,0,0,1,112.31,162.12Z" transform="translate(2.01)"/><path class="f" d="M104.88,163.37a2.18,2.18,0,1,1,1.58-2.64A2.17,2.17,0,0,1,104.88,163.37Z" transform="translate(2.01)"/><path class="f" d="M97.51,165a2.18,2.18,0,1,1,1.58-2.65A2.19,2.19,0,0,1,97.51,165Z" transform="translate(2.01)"/><path class="f" d="M90.22,166.88a2.18,2.18,0,1,1,1.58-2.64A2.18,2.18,0,0,1,90.22,166.88Z" transform="translate(2.01)"/><path class="f" d="M83,169.14A2.18,2.18,0,0,1,82,164.91,2.18,2.18,0,1,1,83,169.14Z" transform="translate(2.01)"/><path class="f" d="M75.94,171.72a2.16,2.16,0,1,1,1.57-2.63A2.16,2.16,0,0,1,75.94,171.72Z" transform="translate(2.01)"/><path class="f" d="M69,174.64A2.17,2.17,0,1,1,70.56,172,2.17,2.17,0,0,1,69,174.64Z" transform="translate(2.01)"/><path class="f" d="M62.19,177.9a2.18,2.18,0,1,1,1.58-2.65A2.19,2.19,0,0,1,62.19,177.9Z" transform="translate(2.01)"/><path class="f" d="M55.54,181.45a2.18,2.18,0,1,1,1.58-2.65A2.19,2.19,0,0,1,55.54,181.45Z" transform="translate(2.01)"/><path class="f" d="M49.06,185.31a2.18,2.18,0,1,1,1.58-2.65A2.18,2.18,0,0,1,49.06,185.31Z" transform="translate(2.01)"/><path class="f" d="M42.77,189.46a2.18,2.18,0,1,1,1.58-2.64A2.16,2.16,0,0,1,42.77,189.46Z" transform="translate(2.01)"/><path class="f" d="M36.68,193.91a2.18,2.18,0,1,1,1.58-2.65A2.18,2.18,0,0,1,36.68,193.91Z" transform="translate(2.01)"/><path class="f" d="M30.8,198.63A2.18,2.18,0,1,1,32.39,196,2.18,2.18,0,0,1,30.8,198.63Z" transform="translate(2.01)"/><path class="f" d="M25.15,203.62a2.18,2.18,0,0,1-1.06-4.23,2.18,2.18,0,1,1,1.06,4.23Z" transform="translate(2.01)"/><path class="f" d="M19.74,208.87a2.18,2.18,0,1,1,1.58-2.64A2.17,2.17,0,0,1,19.74,208.87Z" transform="translate(2.01)"/><path class="f" d="M14.58,214.37a2.18,2.18,0,1,1-1.06-4.23,2.18,2.18,0,0,1,1.06,4.23Z" transform="translate(2.01)"/><path class="f" d="M9.68,220.09a2.18,2.18,0,1,1,1.58-2.64A2.18,2.18,0,0,1,9.68,220.09Z" transform="translate(2.01)"/><path class="f" d="M5.05,226a2.18,2.18,0,1,1,1.58-2.64A2.18,2.18,0,0,1,5.05,226Z" transform="translate(2.01)"/><path class="f" d="M.7,232.2A2.18,2.18,0,1,1-.36,228a2.16,2.16,0,0,1,2.64,1.58A2.16,2.16,0,0,1,.7,232.2Z" transform="translate(2.01)"/><path class="f" d="M139,154.49a2.11,2.11,0,1,1,1.53-2.56A2.12,2.12,0,0,1,139,154.49Z" transform="translate(2.01)"/><path class="f" d="M131.48,154.49a2.11,2.11,0,1,1,1.53-2.57A2.12,2.12,0,0,1,131.48,154.49Z" transform="translate(2.01)"/><path class="f" d="M123.94,154.82a2.11,2.11,0,0,1-1-4.1,2.11,2.11,0,1,1,1,4.1Z" transform="translate(2.01)"/><path class="f" d="M116.44,155.5a2.11,2.11,0,1,1,1.53-2.57A2.13,2.13,0,0,1,116.44,155.5Z" transform="translate(2.01)"/><path class="f" d="M109,156.5a2.11,2.11,0,1,1,1.54-2.56A2.1,2.1,0,0,1,109,156.5Z" transform="translate(2.01)"/><path class="f" d="M101.55,157.85a2.11,2.11,0,1,1,1.53-2.57A2.12,2.12,0,0,1,101.55,157.85Z" transform="translate(2.01)"/><path class="f" d="M94.19,159.52A2.1,2.1,0,0,1,91.63,158a2.11,2.11,0,1,1,2.56,1.53Z" transform="translate(2.01)"/><path class="f" d="M86.93,161.53a2.11,2.11,0,1,1-1-4.1A2.1,2.1,0,0,1,88.46,159,2.12,2.12,0,0,1,86.93,161.53Z" transform="translate(2.01)"/><path class="f" d="M79.76,163.85a2.11,2.11,0,1,1,1.53-2.56A2.11,2.11,0,0,1,79.76,163.85Z" transform="translate(2.01)"/><path class="f" d="M72.7,166.5a2.11,2.11,0,1,1,1.53-2.57A2.12,2.12,0,0,1,72.7,166.5Z" transform="translate(2.01)"/><path class="f" d="M65.76,169.46a2.11,2.11,0,1,1,1.54-2.57A2.11,2.11,0,0,1,65.76,169.46Z" transform="translate(2.01)"/><path class="f" d="M59,172.73a2.11,2.11,0,1,1-1-4.1,2.11,2.11,0,0,1,1,4.1Z" transform="translate(2.01)"/><path class="f" d="M52.33,176.3a2.11,2.11,0,1,1-1-4.1,2.11,2.11,0,0,1,1,4.1Z" transform="translate(2.01)"/><path class="f" d="M45.85,180.16a2.11,2.11,0,0,1-1-4.1,2.13,2.13,0,0,1,2.57,1.54A2.11,2.11,0,0,1,45.85,180.16Z" transform="translate(2.01)"/><path class="f" d="M39.56,184.31a2.11,2.11,0,1,1,1.53-2.56A2.1,2.1,0,0,1,39.56,184.31Z" transform="translate(2.01)"/><path class="f" d="M33.46,188.74A2.11,2.11,0,1,1,35,186.18,2.12,2.12,0,0,1,33.46,188.74Z" transform="translate(2.01)"/><path class="f" d="M27.56,193.44a2.11,2.11,0,1,1,1.54-2.56A2.11,2.11,0,0,1,27.56,193.44Z" transform="translate(2.01)"/><path class="f" d="M21.88,198.4a2.11,2.11,0,1,1,1.54-2.57A2.11,2.11,0,0,1,21.88,198.4Z" transform="translate(2.01)"/><path class="f" d="M16.43,203.61A2.11,2.11,0,1,1,18,201,2.12,2.12,0,0,1,16.43,203.61Z" transform="translate(2.01)"/><path class="f" d="M11.22,209.05a2.11,2.11,0,1,1,1.53-2.56A2.1,2.1,0,0,1,11.22,209.05Z" transform="translate(2.01)"/><path class="f" d="M6.26,214.73a2.11,2.11,0,1,1,1.53-2.57A2.12,2.12,0,0,1,6.26,214.73Z" transform="translate(2.01)"/><path class="f" d="M1.55,220.62A2.11,2.11,0,0,1-1,219.09a2.12,2.12,0,0,1,1.53-2.57,2.13,2.13,0,0,1,2.57,1.54A2.11,2.11,0,0,1,1.55,220.62Z" transform="translate(2.01)"/><path class="f" d="M135.63,148.37a2,2,0,1,1,1.47-2.47A2,2,0,0,1,135.63,148.37Z" transform="translate(2.01)"/><path class="f" d="M128.09,148.51a2,2,0,1,1,1.48-2.46A2,2,0,0,1,128.09,148.51Z" transform="translate(2.01)"/><path class="f" d="M120.57,149a2,2,0,1,1,1.47-2.47A2,2,0,0,1,120.57,149Z" transform="translate(2.01)"/><path class="f" d="M113.07,149.77a2,2,0,1,1,1.48-2.46A2,2,0,0,1,113.07,149.77Z" transform="translate(2.01)"/><path class="f" d="M105.62,150.89a2,2,0,1,1,1.47-2.46A2,2,0,0,1,105.62,150.89Z" transform="translate(2.01)"/><path class="f" d="M98.22,152.35a2,2,0,1,1,1.49-2.48A2,2,0,0,1,98.22,152.35Z" transform="translate(2.01)"/><path class="f" d="M90.89,154.11a2,2,0,1,1,1.48-2.48A2,2,0,0,1,90.89,154.11Z" transform="translate(2.01)"/><path class="f" d="M83.64,156.18a2,2,0,1,1,1.49-2.48A2,2,0,0,1,83.64,156.18Z" transform="translate(2.01)"/><path class="f" d="M76.49,158.56A2,2,0,1,1,78,156.09,2,2,0,0,1,76.49,158.56Z" transform="translate(2.01)"/><path class="f" d="M69.45,161.27a2,2,0,1,1,1.48-2.49A2,2,0,0,1,69.45,161.27Z" transform="translate(2.01)"/><path class="f" d="M62.53,164.27A2,2,0,1,1,64,161.78,2,2,0,0,1,62.53,164.27Z" transform="translate(2.01)"/><path class="f" d="M55.75,167.54a2,2,0,1,1,1.47-2.46A2,2,0,0,1,55.75,167.54Z" transform="translate(2.01)"/><path class="f" d="M49.11,171.13a2,2,0,1,1,1.48-2.46A2,2,0,0,1,49.11,171.13Z" transform="translate(2.01)"/><path class="f" d="M42.65,175a2,2,0,1,1-1-4,2,2,0,0,1,1,4Z" transform="translate(2.01)"/><path class="f" d="M36.35,179.15a2,2,0,1,1,1.47-2.47A2,2,0,0,1,36.35,179.15Z" transform="translate(2.01)"/><path class="f" d="M30.24,183.56a2,2,0,1,1,1.47-2.46A2,2,0,0,1,30.24,183.56Z" transform="translate(2.01)"/><path class="f" d="M24.32,188.24a2,2,0,1,1,1.47-2.47A2,2,0,0,1,24.32,188.24Z" transform="translate(2.01)"/><path class="f" d="M18.62,193.18a2,2,0,1,1,1.48-2.48A2,2,0,0,1,18.62,193.18Z" transform="translate(2.01)"/><path class="f" d="M13.13,198.33a2,2,0,1,1,1.47-2.46A2,2,0,0,1,13.13,198.33Z" transform="translate(2.01)"/><path class="f" d="M7.87,203.74a2,2,0,1,1,1.47-2.47A2,2,0,0,1,7.87,203.74Z" transform="translate(2.01)"/><path class="f" d="M2.85,209.38a2,2,0,1,1,1.49-2.49A2.05,2.05,0,0,1,2.85,209.38Z" transform="translate(2.01)"/><path class="f" d="M139.79,142.36a2,2,0,0,1-1-3.81,2,2,0,1,1,1,3.81Z" transform="translate(2.01)"/><path class="f" d="M132.25,142.32a2,2,0,1,1,1.43-2.38A2,2,0,0,1,132.25,142.32Z" transform="translate(2.01)"/><path class="f" d="M124.72,142.6a2,2,0,1,1,1.42-2.38A2,2,0,0,1,124.72,142.6Z" transform="translate(2.01)"/><path class="f" d="M117.2,143.2a2,2,0,1,1,1.43-2.39A2,2,0,0,1,117.2,143.2Z" transform="translate(2.01)"/><path class="f" d="M109.72,144.11a2,2,0,1,1-1-3.81,2,2,0,0,1,1,3.81Z" transform="translate(2.01)"/><path class="f" d="M102.28,145.33a2,2,0,1,1-1-3.81,2,2,0,0,1,1,3.81Z" transform="translate(2.01)"/><path class="f" d="M94.9,146.86a2,2,0,1,1,1.42-2.38A2,2,0,0,1,94.9,146.86Z" transform="translate(2.01)"/><path class="f" d="M87.58,148.7A2,2,0,1,1,89,146.31,2,2,0,0,1,87.58,148.7Z" transform="translate(2.01)"/><path class="f" d="M80.36,150.84a2,2,0,1,1,1.42-2.38A2,2,0,0,1,80.36,150.84Z" transform="translate(2.01)"/><path class="f" d="M73.23,153.3a2,2,0,0,1-1-3.84,2,2,0,1,1,1,3.84Z" transform="translate(2.01)"/><path class="f" d="M66.21,156a2,2,0,1,1,1.43-2.4A2,2,0,0,1,66.21,156Z" transform="translate(2.01)"/><path class="f" d="M59.3,159.06a2,2,0,1,1,1.42-2.38A2,2,0,0,1,59.3,159.06Z" transform="translate(2.01)"/><path class="f" d="M52.53,162.38A2,2,0,1,1,54,160,2,2,0,0,1,52.53,162.38Z" transform="translate(2.01)"/><path class="f" d="M45.91,166a2,2,0,1,1,1.44-2.41A2,2,0,0,1,45.91,166Z" transform="translate(2.01)"/><path class="f" d="M39.44,169.87a2,2,0,1,1,1.44-2.4A2,2,0,0,1,39.44,169.87Z" transform="translate(2.01)"/><path class="f" d="M33.14,174a2,2,0,1,1,1.44-2.4A2,2,0,0,1,33.14,174Z" transform="translate(2.01)"/><path class="f" d="M27,178.41a2,2,0,0,1-1-3.84,2,2,0,1,1,1,3.84Z" transform="translate(2.01)"/><path class="f" d="M21.09,183.07a2,2,0,1,1,1.44-2.41A2,2,0,0,1,21.09,183.07Z" transform="translate(2.01)"/><path class="f" d="M15.36,188a2,2,0,1,1,1.44-2.41A2,2,0,0,1,15.36,188Z" transform="translate(2.01)"/><path class="f" d="M9.84,193.1a2,2,0,1,1,1.43-2.4A2,2,0,0,1,9.84,193.1Z" transform="translate(2.01)"/><path class="f" d="M4.54,198.46A2,2,0,1,1,6,196.06,2,2,0,0,1,4.54,198.46Z" transform="translate(2.01)"/><path class="f" d="M136.41,136.24a1.9,1.9,0,1,1,1.38-2.3A1.89,1.89,0,0,1,136.41,136.24Z" transform="translate(2.01)"/><path class="f" d="M128.87,136.34a1.9,1.9,0,1,1,1.38-2.3A1.9,1.9,0,0,1,128.87,136.34Z" transform="translate(2.01)"/><path class="f" d="M121.34,136.75a1.9,1.9,0,1,1,1.38-2.3A1.9,1.9,0,0,1,121.34,136.75Z" transform="translate(2.01)"/><path class="f" d="M113.84,137.46a1.9,1.9,0,1,1,1.38-2.3A1.89,1.89,0,0,1,113.84,137.46Z" transform="translate(2.01)"/><path class="f" d="M106.37,138.47a1.9,1.9,0,1,1,1.37-2.3A1.89,1.89,0,0,1,106.37,138.47Z" transform="translate(2.01)"/><path class="f" d="M98.94,139.79a1.9,1.9,0,1,1,1.38-2.3A1.89,1.89,0,0,1,98.94,139.79Z" transform="translate(2.01)"/><path class="f" d="M91.58,141.42A1.91,1.91,0,1,1,93,139.1,1.91,1.91,0,0,1,91.58,141.42Z" transform="translate(2.01)"/><path class="f" d="M84.29,143.34A1.92,1.92,0,1,1,85.68,141,1.92,1.92,0,0,1,84.29,143.34Z" transform="translate(2.01)"/><path class="f" d="M77.08,145.53a1.9,1.9,0,1,1,1.38-2.31A1.89,1.89,0,0,1,77.08,145.53Z" transform="translate(2.01)"/><path class="f" d="M70,148a1.89,1.89,0,1,1,1.37-2.3A1.9,1.9,0,0,1,70,148Z" transform="translate(2.01)"/><path class="f" d="M63,150.81a1.9,1.9,0,1,1,1.38-2.3A1.89,1.89,0,0,1,63,150.81Z" transform="translate(2.01)"/><path class="f" d="M56.07,153.87a1.9,1.9,0,1,1,1.38-2.3A1.89,1.89,0,0,1,56.07,153.87Z" transform="translate(2.01)"/><path class="f" d="M49.31,157.22a1.9,1.9,0,1,1,1.38-2.31A1.91,1.91,0,0,1,49.31,157.22Z" transform="translate(2.01)"/><path class="f" d="M42.7,160.83a1.9,1.9,0,1,1-.93-3.68,1.9,1.9,0,0,1,.93,3.68Z" transform="translate(2.01)"/><path class="f" d="M36.23,164.71a1.9,1.9,0,1,1,1.38-2.3A1.89,1.89,0,0,1,36.23,164.71Z" transform="translate(2.01)"/><path class="f" d="M29.93,168.84a1.89,1.89,0,1,1,1.37-2.3A1.89,1.89,0,0,1,29.93,168.84Z" transform="translate(2.01)"/><path class="f" d="M23.8,173.23a1.89,1.89,0,1,1,1.37-2.3A1.89,1.89,0,0,1,23.8,173.23Z" transform="translate(2.01)"/><path class="f" d="M17.85,177.87a1.9,1.9,0,1,1,1.38-2.3A1.9,1.9,0,0,1,17.85,177.87Z" transform="translate(2.01)"/><path class="f" d="M12.1,182.74a1.9,1.9,0,1,1-.93-3.68,1.9,1.9,0,0,1,.93,3.68Z" transform="translate(2.01)"/><path class="f" d="M6.54,187.84a1.9,1.9,0,1,1,1.38-2.3A1.89,1.89,0,0,1,6.54,187.84Z" transform="translate(2.01)"/><path class="f" d="M1.2,193.16a1.89,1.89,0,0,1-2.3-1.38,1.9,1.9,0,0,1,1.38-2.3,1.9,1.9,0,0,1,2.3,1.38A1.89,1.89,0,0,1,1.2,193.16Z" transform="translate(2.01)"/><path class="f" d="M125.5,130.43a1.85,1.85,0,1,1,1.34-2.24A1.84,1.84,0,0,1,125.5,130.43Z" transform="translate(2.01)"/><path class="f" d="M118,131a1.85,1.85,0,1,1,1.34-2.24A1.84,1.84,0,0,1,118,131Z" transform="translate(2.01)"/><path class="f" d="M110.48,131.76a1.83,1.83,0,1,1,1.33-2.22A1.83,1.83,0,0,1,110.48,131.76Z" transform="translate(2.01)"/><path class="f" d="M103,132.89a1.85,1.85,0,1,1,1.34-2.24A1.84,1.84,0,0,1,103,132.89Z" transform="translate(2.01)"/><path class="f" d="M95.62,134.29A1.85,1.85,0,1,1,97,132.05,1.84,1.84,0,0,1,95.62,134.29Z" transform="translate(2.01)"/><path class="f" d="M88.27,136a1.85,1.85,0,1,1,1.34-2.24A1.85,1.85,0,0,1,88.27,136Z" transform="translate(2.01)"/><path class="f" d="M81,138a1.85,1.85,0,1,1,1.34-2.24A1.84,1.84,0,0,1,81,138Z" transform="translate(2.01)"/><path class="f" d="M73.81,140.24A1.85,1.85,0,1,1,75.15,138,1.84,1.84,0,0,1,73.81,140.24Z" transform="translate(2.01)"/><path class="f" d="M66.71,142.79a1.85,1.85,0,1,1,1.34-2.25A1.86,1.86,0,0,1,66.71,142.79Z" transform="translate(2.01)"/><path class="f" d="M59.72,145.61a1.85,1.85,0,1,1,1.34-2.24A1.84,1.84,0,0,1,59.72,145.61Z" transform="translate(2.01)"/><path class="f" d="M52.85,148.71a1.85,1.85,0,1,1,1.34-2.25A1.86,1.86,0,0,1,52.85,148.71Z" transform="translate(2.01)"/><path class="f" d="M46.1,152.07a1.85,1.85,0,1,1,1.34-2.24A1.84,1.84,0,0,1,46.1,152.07Z" transform="translate(2.01)"/><path class="f" d="M39.49,155.69a1.85,1.85,0,1,1,1.34-2.24A1.84,1.84,0,0,1,39.49,155.69Z" transform="translate(2.01)"/><path class="f" d="M33,159.58a1.85,1.85,0,1,1,1.34-2.24A1.84,1.84,0,0,1,33,159.58Z" transform="translate(2.01)"/><path class="f" d="M26.72,163.71a1.85,1.85,0,1,1,1.34-2.24A1.84,1.84,0,0,1,26.72,163.71Z" transform="translate(2.01)"/><path class="f" d="M20.58,168.09a1.85,1.85,0,1,1,1.35-2.24A1.85,1.85,0,0,1,20.58,168.09Z" transform="translate(2.01)"/><path class="f" d="M14.62,172.7A1.85,1.85,0,1,1,16,170.46,1.84,1.84,0,0,1,14.62,172.7Z" transform="translate(2.01)"/><path class="f" d="M8.85,177.55a1.85,1.85,0,1,1,1.34-2.24A1.84,1.84,0,0,1,8.85,177.55Z" transform="translate(2.01)"/><path class="f" d="M3.27,182.62a1.85,1.85,0,1,1,1.34-2.24A1.85,1.85,0,0,1,3.27,182.62Z" transform="translate(2.01)"/><path class="f" d="M152.25,124.85a1.76,1.76,0,1,1,1.28-2.14A1.76,1.76,0,0,1,152.25,124.85Z" transform="translate(2.01)"/><path class="f" d="M144.73,124.34A1.76,1.76,0,1,1,146,122.2,1.75,1.75,0,0,1,144.73,124.34Z" transform="translate(2.01)"/><path class="f" d="M85,130.57a1.78,1.78,0,1,1,1.29-2.16A1.77,1.77,0,0,1,85,130.57Z" transform="translate(2.01)"/><path class="f" d="M77.71,132.61a1.77,1.77,0,0,1-2.14-1.28,1.76,1.76,0,1,1,2.14,1.28Z" transform="translate(2.01)"/><path class="f" d="M70.54,134.93a1.76,1.76,0,1,1,1.28-2.14A1.76,1.76,0,0,1,70.54,134.93Z" transform="translate(2.01)"/><path class="f" d="M63.46,137.52a1.76,1.76,0,1,1,1.28-2.14A1.77,1.77,0,0,1,63.46,137.52Z" transform="translate(2.01)"/><path class="f" d="M56.48,140.38a1.76,1.76,0,1,1,1.28-2.14A1.76,1.76,0,0,1,56.48,140.38Z" transform="translate(2.01)"/><path class="f" d="M49.62,143.51a1.76,1.76,0,1,1,1.28-2.14A1.77,1.77,0,0,1,49.62,143.51Z" transform="translate(2.01)"/><path class="f" d="M42.88,146.89a1.76,1.76,0,1,1,1.28-2.14A1.76,1.76,0,0,1,42.88,146.89Z" transform="translate(2.01)"/><path class="f" d="M36.28,150.53a1.76,1.76,0,1,1,1.28-2.14A1.76,1.76,0,0,1,36.28,150.53Z" transform="translate(2.01)"/><path class="f" d="M29.82,154.42a1.77,1.77,0,1,1,1.28-2.15A1.77,1.77,0,0,1,29.82,154.42Z" transform="translate(2.01)"/><path class="f" d="M23.51,158.54a1.76,1.76,0,1,1,1.28-2.14A1.76,1.76,0,0,1,23.51,158.54Z" transform="translate(2.01)"/><path class="f" d="M17.36,162.91a1.76,1.76,0,1,1,1.28-2.14A1.76,1.76,0,0,1,17.36,162.91Z" transform="translate(2.01)"/><path class="f" d="M11.39,167.51a1.76,1.76,0,1,1,1.28-2.14A1.76,1.76,0,0,1,11.39,167.51Z" transform="translate(2.01)"/><path class="f" d="M5.59,172.33a1.76,1.76,0,1,1,1.28-2.14A1.76,1.76,0,0,1,5.59,172.33Z" transform="translate(2.01)"/><path class="f" d="M186.05,124.53a1.72,1.72,0,1,1,1.24-2.08A1.72,1.72,0,0,1,186.05,124.53Z" transform="translate(2.01)"/><path class="f" d="M178.72,122.78A1.71,1.71,0,1,1,180,120.7,1.72,1.72,0,0,1,178.72,122.78Z" transform="translate(2.01)"/><path class="f" d="M171.32,121.29a1.7,1.7,0,1,1,1.23-2.06A1.7,1.7,0,0,1,171.32,121.29Z" transform="translate(2.01)"/><path class="f" d="M163.87,120.09a1.7,1.7,0,1,1,1.24-2.06A1.71,1.71,0,0,1,163.87,120.09Z" transform="translate(2.01)"/><path class="f" d="M156.4,119.18a1.72,1.72,0,1,1,1.24-2.08A1.72,1.72,0,0,1,156.4,119.18Z" transform="translate(2.01)"/><path class="f" d="M148.88,118.53a1.72,1.72,0,1,1,1.25-2.08A1.72,1.72,0,0,1,148.88,118.53Z" transform="translate(2.01)"/><path class="f" d="M141.35,118.16a1.72,1.72,0,1,1,1.25-2.08A1.72,1.72,0,0,1,141.35,118.16Z" transform="translate(2.01)"/><path class="f" d="M60.21,132.3a1.72,1.72,0,1,1,1.24-2.08A1.72,1.72,0,0,1,60.21,132.3Z" transform="translate(2.01)"/><path class="f" d="M53.25,135.19a1.71,1.71,0,1,1,1.24-2.08A1.71,1.71,0,0,1,53.25,135.19Z" transform="translate(2.01)"/><path class="f" d="M46.4,138.34a1.71,1.71,0,1,1,1.24-2.08A1.71,1.71,0,0,1,46.4,138.34Z" transform="translate(2.01)"/><path class="f" d="M39.67,141.75a1.72,1.72,0,1,1,1.25-2.08A1.72,1.72,0,0,1,39.67,141.75Z" transform="translate(2.01)"/><path class="f" d="M33.07,145.4a1.72,1.72,0,1,1,1.25-2.08A1.72,1.72,0,0,1,33.07,145.4Z" transform="translate(2.01)"/><path class="f" d="M26.62,149.29a1.72,1.72,0,1,1,1.24-2.08A1.72,1.72,0,0,1,26.62,149.29Z" transform="translate(2.01)"/><path class="f" d="M20.31,153.41a1.71,1.71,0,1,1,1.24-2.08A1.71,1.71,0,0,1,20.31,153.41Z" transform="translate(2.01)"/><path class="f" d="M14.15,157.77a1.72,1.72,0,1,1,1.25-2.08A1.72,1.72,0,0,1,14.15,157.77Z" transform="translate(2.01)"/><path class="f" d="M8.16,162.35a1.72,1.72,0,1,1,1.25-2.08A1.72,1.72,0,0,1,8.16,162.35Z" transform="translate(2.01)"/><path class="f" d="M2.35,167.15a1.72,1.72,0,1,1,1.24-2.08A1.72,1.72,0,0,1,2.35,167.15Z" transform="translate(2.01)"/><path class="f" d="M204.5,123.81a1.65,1.65,0,1,1,1.2-2A1.66,1.66,0,0,1,204.5,123.81Z" transform="translate(2.01)"/><path class="f" d="M197.34,121.44a1.64,1.64,0,1,1,1.2-2A1.65,1.65,0,0,1,197.34,121.44Z" transform="translate(2.01)"/><path class="f" d="M190.1,119.33a1.64,1.64,0,1,1,1.2-2A1.64,1.64,0,0,1,190.1,119.33Z" transform="translate(2.01)"/><path class="f" d="M182.79,117.49a1.64,1.64,0,1,1,1.2-2A1.65,1.65,0,0,1,182.79,117.49Z" transform="translate(2.01)"/><path class="f" d="M175.42,115.91a1.65,1.65,0,1,1,1.2-2A1.65,1.65,0,0,1,175.42,115.91Z" transform="translate(2.01)"/><path class="f" d="M168,114.59a1.65,1.65,0,1,1,1.19-2A1.65,1.65,0,0,1,168,114.59Z" transform="translate(2.01)"/><path class="f" d="M160.53,113.54a1.64,1.64,0,1,1,1.2-2A1.64,1.64,0,0,1,160.53,113.54Z" transform="translate(2.01)"/><path class="f" d="M153,112.76a1.64,1.64,0,1,1,1.2-2A1.64,1.64,0,0,1,153,112.76Z" transform="translate(2.01)"/><path class="f" d="M145.51,112.25a1.64,1.64,0,1,1,1.2-2A1.64,1.64,0,0,1,145.51,112.25Z" transform="translate(2.01)"/><path class="f" d="M43.18,133.17a1.65,1.65,0,1,1,1.19-2A1.65,1.65,0,0,1,43.18,133.17Z" transform="translate(2.01)"/><path class="f" d="M36.46,136.59a1.65,1.65,0,1,1,1.19-2A1.65,1.65,0,0,1,36.46,136.59Z" transform="translate(2.01)"/><path class="f" d="M29.87,140.25a1.65,1.65,0,1,1,1.19-2A1.65,1.65,0,0,1,29.87,140.25Z" transform="translate(2.01)"/><path class="f" d="M23.41,144.14a1.65,1.65,0,1,1,1.19-2A1.65,1.65,0,0,1,23.41,144.14Z" transform="translate(2.01)"/><path class="f" d="M17.1,148.26a1.65,1.65,0,1,1,1.19-2A1.64,1.64,0,0,1,17.1,148.26Z" transform="translate(2.01)"/><path class="f" d="M10.94,152.61a1.65,1.65,0,1,1,1.19-2A1.64,1.64,0,0,1,10.94,152.61Z" transform="translate(2.01)"/><path class="f" d="M4.94,157.17a1.65,1.65,0,1,1,1.19-2A1.64,1.64,0,0,1,4.94,157.17Z" transform="translate(2.01)"/><path class="f" d="M222.49,124.42a1.58,1.58,0,1,1,1.15-1.92A1.58,1.58,0,0,1,222.49,124.42Z" transform="translate(2.01)"/><path class="f" d="M215.54,121.49a1.58,1.58,0,1,1,1.15-1.92A1.57,1.57,0,0,1,215.54,121.49Z" transform="translate(2.01)"/><path class="f" d="M208.5,118.8a1.58,1.58,0,1,1,1.15-1.92A1.58,1.58,0,0,1,208.5,118.8Z" transform="translate(2.01)"/><path class="f" d="M201.37,116.36a1.58,1.58,0,1,1,1.14-1.92A1.58,1.58,0,0,1,201.37,116.36Z" transform="translate(2.01)"/><path class="f" d="M194.15,114.17a1.58,1.58,0,1,1,1.15-1.92A1.58,1.58,0,0,1,194.15,114.17Z" transform="translate(2.01)"/><path class="f" d="M186.86,112.24a1.58,1.58,0,1,1,1.15-1.92A1.57,1.57,0,0,1,186.86,112.24Z" transform="translate(2.01)"/><path class="f" d="M179.51,110.56a1.58,1.58,0,1,1,1.15-1.92A1.57,1.57,0,0,1,179.51,110.56Z" transform="translate(2.01)"/><path class="f" d="M172.11,109.13a1.58,1.58,0,1,1,1.15-1.92A1.58,1.58,0,0,1,172.11,109.13Z" transform="translate(2.01)"/><path class="f" d="M164.66,108a1.58,1.58,0,1,1,1.15-1.92A1.59,1.59,0,0,1,164.66,108Z" transform="translate(2.01)"/><path class="f" d="M157.18,107.07a1.58,1.58,0,1,1,1.14-1.92A1.58,1.58,0,0,1,157.18,107.07Z" transform="translate(2.01)"/><path class="f" d="M149.66,106.42a1.58,1.58,0,1,1,1.15-1.91A1.57,1.57,0,0,1,149.66,106.42Z" transform="translate(2.01)"/><path class="f" d="M142.13,106.05a1.58,1.58,0,1,1,1.15-1.92A1.57,1.57,0,0,1,142.13,106.05Z" transform="translate(2.01)"/><path class="f" d="M33.24,131.43a1.58,1.58,0,1,1,1.15-1.92A1.59,1.59,0,0,1,33.24,131.43Z" transform="translate(2.01)"/><path class="f" d="M26.66,135.1a1.58,1.58,0,1,1,1.14-1.92A1.58,1.58,0,0,1,26.66,135.1Z" transform="translate(2.01)"/><path class="f" d="M20.2,139a1.58,1.58,0,1,1,1.15-1.92A1.58,1.58,0,0,1,20.2,139Z" transform="translate(2.01)"/><path class="f" d="M13.89,143.11A1.58,1.58,0,1,1,15,141.19,1.57,1.57,0,0,1,13.89,143.11Z" transform="translate(2.01)"/><path class="f" d="M7.72,147.45a1.58,1.58,0,1,1,1.15-1.92A1.59,1.59,0,0,1,7.72,147.45Z" transform="translate(2.01)"/><path class="f" d="M1.71,152a1.58,1.58,0,1,1,1.15-1.92A1.58,1.58,0,0,1,1.71,152Z" transform="translate(2.01)"/><path class="f" d="M233.25,122.77a1.51,1.51,0,1,1,1.1-1.83A1.52,1.52,0,0,1,233.25,122.77Z" transform="translate(2.01)"/><path class="f" d="M226.43,119.55a1.51,1.51,0,1,1,1.1-1.83A1.52,1.52,0,0,1,226.43,119.55Z" transform="translate(2.01)"/><path class="f" d="M219.51,116.57a1.52,1.52,0,1,1,1.1-1.84A1.52,1.52,0,0,1,219.51,116.57Z" transform="translate(2.01)"/><path class="f" d="M212.49,113.82a1.52,1.52,0,1,1,1.1-1.84A1.52,1.52,0,0,1,212.49,113.82Z" transform="translate(2.01)"/><path class="f" d="M205.38,111.31a1.52,1.52,0,1,1,1.1-1.84A1.52,1.52,0,0,1,205.38,111.31Z" transform="translate(2.01)"/><path class="f" d="M198.19,109a1.52,1.52,0,1,1,1.1-1.84A1.52,1.52,0,0,1,198.19,109Z" transform="translate(2.01)"/><path class="f" d="M190.93,107a1.52,1.52,0,1,1,1.1-1.84A1.52,1.52,0,0,1,190.93,107Z" transform="translate(2.01)"/><path class="f" d="M183.6,105.24a1.51,1.51,0,1,1,1.1-1.84A1.52,1.52,0,0,1,183.6,105.24Z" transform="translate(2.01)"/><path class="f" d="M176.21,103.72a1.51,1.51,0,1,1,1.1-1.84A1.51,1.51,0,0,1,176.21,103.72Z" transform="translate(2.01)"/><path class="f" d="M168.78,102.45a1.52,1.52,0,1,1,1.1-1.84A1.51,1.51,0,0,1,168.78,102.45Z" transform="translate(2.01)"/><path class="f" d="M161.31,101.43a1.52,1.52,0,1,1,1.1-1.84A1.51,1.51,0,0,1,161.31,101.43Z" transform="translate(2.01)"/><path class="f" d="M153.81,100.66a1.52,1.52,0,1,1,1.1-1.84A1.5,1.5,0,0,1,153.81,100.66Z" transform="translate(2.01)"/><path class="f" d="M146.29,100.15a1.52,1.52,0,1,1,1.1-1.84A1.52,1.52,0,0,1,146.29,100.15Z" transform="translate(2.01)"/><path class="f" d="M23.45,130a1.52,1.52,0,1,1,1.1-1.84A1.52,1.52,0,0,1,23.45,130Z" transform="translate(2.01)"/><path class="f" d="M17,133.85A1.52,1.52,0,1,1,18.1,132,1.52,1.52,0,0,1,17,133.85Z" transform="translate(2.01)"/><path class="f" d="M10.68,138a1.51,1.51,0,1,1,1.1-1.83A1.51,1.51,0,0,1,10.68,138Z" transform="translate(2.01)"/><path class="f" d="M4.51,142.29a1.51,1.51,0,1,1,1.1-1.84A1.51,1.51,0,0,1,4.51,142.29Z" transform="translate(2.01)"/><path class="f" d="M243.85,121.45a1.44,1.44,0,0,1-1.76-1,1.45,1.45,0,1,1,1.76,1Z" transform="translate(2.01)"/><path class="f" d="M237.16,118a1.44,1.44,0,1,1-.7-2.8,1.44,1.44,0,1,1,.7,2.8Z" transform="translate(2.01)"/><path class="f" d="M230.37,114.7a1.45,1.45,0,1,1-.71-2.81,1.45,1.45,0,0,1,.71,2.81Z" transform="translate(2.01)"/><path class="f" d="M223.47,111.66a1.45,1.45,0,1,1,1.05-1.76A1.44,1.44,0,0,1,223.47,111.66Z" transform="translate(2.01)"/><path class="f" d="M216.47,108.85a1.45,1.45,0,1,1,1.05-1.76A1.45,1.45,0,0,1,216.47,108.85Z" transform="translate(2.01)"/><path class="f" d="M209.39,106.27a1.44,1.44,0,0,1-1.76-1,1.45,1.45,0,1,1,1.76,1Z" transform="translate(2.01)"/><path class="f" d="M202.22,103.93a1.45,1.45,0,1,1,1.05-1.76A1.44,1.44,0,0,1,202.22,103.93Z" transform="translate(2.01)"/><path class="f" d="M195,101.83a1.45,1.45,0,0,1-.71-2.81,1.45,1.45,0,1,1,.71,2.81Z" transform="translate(2.01)"/><path class="f" d="M187.67,100a1.44,1.44,0,1,1-.7-2.8,1.44,1.44,0,1,1,.7,2.8Z" transform="translate(2.01)"/><path class="f" d="M180.31,98.35a1.46,1.46,0,0,1-1.76-1.06,1.45,1.45,0,1,1,1.76,1.06Z" transform="translate(2.01)"/><path class="f" d="M172.9,97a1.45,1.45,0,1,1,1-1.76A1.46,1.46,0,0,1,172.9,97Z" transform="translate(2.01)"/><path class="f" d="M165.44,95.84a1.45,1.45,0,1,1,1.05-1.76A1.44,1.44,0,0,1,165.44,95.84Z" transform="translate(2.01)"/><path class="f" d="M158,95a1.45,1.45,0,1,1,1-1.76A1.45,1.45,0,0,1,158,95Z" transform="translate(2.01)"/><path class="f" d="M150.44,94.32a1.44,1.44,0,1,1,1.05-1.75A1.43,1.43,0,0,1,150.44,94.32Z" transform="translate(2.01)"/><path class="f" d="M142.91,93.94A1.45,1.45,0,1,1,144,92.18,1.45,1.45,0,0,1,142.91,93.94Z" transform="translate(2.01)"/><path class="f" d="M7.47,132.81a1.44,1.44,0,1,1-.7-2.8,1.44,1.44,0,0,1,.7,2.8Z" transform="translate(2.01)"/><path class="f" d="M1.29,137.13a1.44,1.44,0,1,1-.7-2.8,1.44,1.44,0,1,1,.7,2.8Z" transform="translate(2.01)"/><path class="f" d="M260.72,124.39a1.4,1.4,0,1,1,1-1.7A1.4,1.4,0,0,1,260.72,124.39Z" transform="translate(2.01)"/><path class="f" d="M254.29,120.44a1.4,1.4,0,0,1-.68-2.71,1.4,1.4,0,1,1,.68,2.71Z" transform="translate(2.01)"/><circle class="f" cx="247.4" cy="115.35" r="1.4" transform="translate(23.44 268.48) rotate(-59.12)"/><path class="f" d="M241.08,113.18a1.41,1.41,0,0,1-1.7-1,1.4,1.4,0,0,1,2.72-.68A1.41,1.41,0,0,1,241.08,113.18Z" transform="translate(2.01)"/><path class="f" d="M234.31,109.87a1.4,1.4,0,1,1,1-1.7A1.4,1.4,0,0,1,234.31,109.87Z" transform="translate(2.01)"/><path class="f" d="M227.43,106.78a1.4,1.4,0,1,1-.68-2.71,1.4,1.4,0,0,1,.68,2.71Z" transform="translate(2.01)"/><path class="f" d="M220.45,103.91a1.4,1.4,0,1,1,1-1.69A1.39,1.39,0,0,1,220.45,103.91Z" transform="translate(2.01)"/><path class="f" d="M213.39,101.27a1.38,1.38,0,0,1-1.69-1,1.4,1.4,0,1,1,1.69,1Z" transform="translate(2.01)"/><path class="f" d="M206.25,98.86a1.4,1.4,0,1,1,1-1.69A1.4,1.4,0,0,1,206.25,98.86Z" transform="translate(2.01)"/><path class="f" d="M199,96.68a1.38,1.38,0,0,1-1.69-1,1.4,1.4,0,1,1,1.69,1Z" transform="translate(2.01)"/><path class="f" d="M191.75,94.74a1.41,1.41,0,0,1-1.7-1,1.4,1.4,0,1,1,1.7,1Z" transform="translate(2.01)"/><path class="f" d="M184.4,93a1.4,1.4,0,0,1-1.69-1,1.38,1.38,0,0,1,1-1.69A1.4,1.4,0,1,1,184.4,93Z" transform="translate(2.01)"/><path class="f" d="M177,91.55a1.4,1.4,0,0,1-1.7-1,1.41,1.41,0,0,1,1-1.7,1.4,1.4,0,0,1,.68,2.71Z" transform="translate(2.01)"/><path class="f" d="M169.57,90.32a1.4,1.4,0,1,1,1-1.7A1.41,1.41,0,0,1,169.57,90.32Z" transform="translate(2.01)"/><path class="f" d="M162.1,89.33a1.41,1.41,0,0,1-1.7-1,1.4,1.4,0,1,1,1.7,1Z" transform="translate(2.01)"/><path class="f" d="M154.6,88.57a1.4,1.4,0,1,1,1-1.69A1.38,1.38,0,0,1,154.6,88.57Z" transform="translate(2.01)"/><path class="f" d="M147.07,88.06a1.4,1.4,0,1,1,1-1.69A1.39,1.39,0,0,1,147.07,88.06Z" transform="translate(2.01)"/><path class="f" d="M270.86,123.85a1.33,1.33,0,1,1,1-1.62A1.33,1.33,0,0,1,270.86,123.85Z" transform="translate(2.01)"/><path class="f" d="M264.57,119.68a1.33,1.33,0,1,1,1-1.62A1.32,1.32,0,0,1,264.57,119.68Z" transform="translate(2.01)"/><path class="f" d="M258.17,115.71a1.34,1.34,0,0,1-1.62-1,1.33,1.33,0,1,1,1.62,1Z" transform="translate(2.01)"/><path class="f" d="M251.63,111.94a1.33,1.33,0,1,1,1-1.61A1.32,1.32,0,0,1,251.63,111.94Z" transform="translate(2.01)"/><path class="f" d="M245,108.38a1.33,1.33,0,1,1-.65-2.58,1.33,1.33,0,0,1,.65,2.58Z" transform="translate(2.01)"/><path class="f" d="M238.23,105a1.33,1.33,0,1,1,1-1.62A1.32,1.32,0,0,1,238.23,105Z" transform="translate(2.01)"/><path class="f" d="M231.38,101.89a1.33,1.33,0,1,1,1-1.61A1.34,1.34,0,0,1,231.38,101.89Z" transform="translate(2.01)"/><path class="f" d="M224.43,99a1.34,1.34,0,0,1-.65-2.59,1.34,1.34,0,0,1,.65,2.59Z" transform="translate(2.01)"/><path class="f" d="M217.39,96.28a1.34,1.34,0,1,1,1-1.62A1.34,1.34,0,0,1,217.39,96.28Z" transform="translate(2.01)"/><path class="f" d="M210.27,93.8a1.33,1.33,0,1,1,1-1.62A1.33,1.33,0,0,1,210.27,93.8Z" transform="translate(2.01)"/><path class="f" d="M203.07,91.55a1.33,1.33,0,1,1,1-1.62A1.34,1.34,0,0,1,203.07,91.55Z" transform="translate(2.01)"/><path class="f" d="M195.81,89.52a1.33,1.33,0,1,1,1-1.61A1.34,1.34,0,0,1,195.81,89.52Z" transform="translate(2.01)"/><path class="f" d="M188.49,87.73a1.34,1.34,0,1,1,1-1.62A1.34,1.34,0,0,1,188.49,87.73Z" transform="translate(2.01)"/><path class="f" d="M181.11,86.16a1.33,1.33,0,1,1,1-1.61A1.34,1.34,0,0,1,181.11,86.16Z" transform="translate(2.01)"/><path class="f" d="M173.69,84.83a1.33,1.33,0,1,1,1-1.62A1.33,1.33,0,0,1,173.69,84.83Z" transform="translate(2.01)"/><path class="f" d="M166.23,83.73a1.33,1.33,0,1,1,1-1.62A1.33,1.33,0,0,1,166.23,83.73Z" transform="translate(2.01)"/><path class="f" d="M158.74,82.87a1.34,1.34,0,1,1,1-1.62A1.34,1.34,0,0,1,158.74,82.87Z" transform="translate(2.01)"/><path class="f" d="M151.23,82.24a1.34,1.34,0,0,1-1.62-1,1.33,1.33,0,1,1,1.62,1Z" transform="translate(2.01)"/><path class="f" d="M143.7,81.85a1.34,1.34,0,1,1,1-1.62A1.34,1.34,0,0,1,143.7,81.85Z" transform="translate(2.01)"/><path class="f" d="M280.85,123.55a1.28,1.28,0,1,1-.63-2.48,1.28,1.28,0,0,1,.63,2.48Z" transform="translate(2.01)"/><path class="f" d="M274.71,119.18a1.28,1.28,0,1,1,.93-1.56A1.29,1.29,0,0,1,274.71,119.18Z" transform="translate(2.01)"/><path class="f" d="M268.44,115a1.28,1.28,0,1,1,.93-1.56A1.29,1.29,0,0,1,268.44,115Z" transform="translate(2.01)"/><path class="f" d="M262,111a1.26,1.26,0,1,1,.91-1.54A1.27,1.27,0,0,1,262,111Z" transform="translate(2.01)"/><path class="f" d="M255.53,107.2a1.28,1.28,0,1,1,.93-1.55A1.28,1.28,0,0,1,255.53,107.2Z" transform="translate(2.01)"/><path class="f" d="M248.9,103.61a1.28,1.28,0,1,1,.93-1.56A1.3,1.3,0,0,1,248.9,103.61Z" transform="translate(2.01)"/><path class="f" d="M242.16,100.22a1.28,1.28,0,1,1,.93-1.56A1.28,1.28,0,0,1,242.16,100.22Z" transform="translate(2.01)"/><path class="f" d="M235.33,97a1.28,1.28,0,1,1,.93-1.56A1.29,1.29,0,0,1,235.33,97Z" transform="translate(2.01)"/><path class="f" d="M228.4,94.07a1.28,1.28,0,1,1,.93-1.56A1.29,1.29,0,0,1,228.4,94.07Z" transform="translate(2.01)"/><path class="f" d="M221.37,91.3a1.27,1.27,0,1,1,.92-1.54A1.26,1.26,0,0,1,221.37,91.3Z" transform="translate(2.01)"/><path class="f" d="M214.28,88.77a1.28,1.28,0,1,1,.93-1.55A1.26,1.26,0,0,1,214.28,88.77Z" transform="translate(2.01)"/><path class="f" d="M207.11,86.45A1.28,1.28,0,1,1,208,84.9,1.28,1.28,0,0,1,207.11,86.45Z" transform="translate(2.01)"/><path class="f" d="M199.87,84.35a1.28,1.28,0,1,1,.93-1.55A1.28,1.28,0,0,1,199.87,84.35Z" transform="translate(2.01)"/><path class="f" d="M192.56,82.47a1.28,1.28,0,1,1,.93-1.55A1.27,1.27,0,0,1,192.56,82.47Z" transform="translate(2.01)"/><path class="f" d="M185.21,80.82a1.28,1.28,0,1,1,.93-1.55A1.28,1.28,0,0,1,185.21,80.82Z" transform="translate(2.01)"/><path class="f" d="M177.8,79.4a1.28,1.28,0,1,1,.93-1.56A1.28,1.28,0,0,1,177.8,79.4Z" transform="translate(2.01)"/><path class="f" d="M170.36,78.2a1.28,1.28,0,1,1,.93-1.56A1.28,1.28,0,0,1,170.36,78.2Z" transform="translate(2.01)"/><path class="f" d="M162.88,77.23a1.28,1.28,0,1,1,.93-1.56A1.28,1.28,0,0,1,162.88,77.23Z" transform="translate(2.01)"/><path class="f" d="M155.38,76.49a1.28,1.28,0,1,1,.93-1.56A1.28,1.28,0,0,1,155.38,76.49Z" transform="translate(2.01)"/><path class="f" d="M147.86,76a1.28,1.28,0,1,1,.93-1.56A1.3,1.3,0,0,1,147.86,76Z" transform="translate(2.01)"/><path class="f" d="M278.55,114.49a1.22,1.22,0,1,1,.88-1.48A1.21,1.21,0,0,1,278.55,114.49Z" transform="translate(2.01)"/><path class="f" d="M272.29,110.28a1.21,1.21,0,1,1,.88-1.47A1.2,1.2,0,0,1,272.29,110.28Z" transform="translate(2.01)"/><path class="f" d="M265.91,106.27a1.22,1.22,0,1,1,.88-1.47A1.21,1.21,0,0,1,265.91,106.27Z" transform="translate(2.01)"/><path class="f" d="M259.41,102.45a1.22,1.22,0,1,1,.88-1.48A1.21,1.21,0,0,1,259.41,102.45Z" transform="translate(2.01)"/><path class="f" d="M252.8,98.82a1.21,1.21,0,1,1,.88-1.47A1.2,1.2,0,0,1,252.8,98.82Z" transform="translate(2.01)"/><path class="f" d="M246.08,95.4a1.21,1.21,0,0,1-1.47-.88,1.23,1.23,0,0,1,.88-1.48,1.22,1.22,0,0,1,.59,2.36Z" transform="translate(2.01)"/><path class="f" d="M239.27,92.18a1.23,1.23,0,0,1-1.48-.89,1.21,1.21,0,0,1,.88-1.47,1.22,1.22,0,0,1,.6,2.36Z" transform="translate(2.01)"/><path class="f" d="M232.36,89.16a1.22,1.22,0,1,1-.59-2.36,1.21,1.21,0,0,1,1.47.88A1.23,1.23,0,0,1,232.36,89.16Z" transform="translate(2.01)"/><path class="f" d="M225.36,86.35a1.22,1.22,0,1,1,.88-1.48A1.21,1.21,0,0,1,225.36,86.35Z" transform="translate(2.01)"/><path class="f" d="M218.28,83.75a1.21,1.21,0,0,1-1.47-.88,1.22,1.22,0,1,1,1.47.88Z" transform="translate(2.01)"/><path class="f" d="M211.13,81.36a1.21,1.21,0,1,1,.88-1.47A1.2,1.2,0,0,1,211.13,81.36Z" transform="translate(2.01)"/><path class="f" d="M203.91,79.19a1.21,1.21,0,1,1,.88-1.47A1.2,1.2,0,0,1,203.91,79.19Z" transform="translate(2.01)"/><path class="f" d="M196.63,77.24a1.22,1.22,0,1,1,.88-1.48A1.21,1.21,0,0,1,196.63,77.24Z" transform="translate(2.01)"/><path class="f" d="M189.29,75.5a1.21,1.21,0,1,1,.88-1.47A1.2,1.2,0,0,1,189.29,75.5Z" transform="translate(2.01)"/><path class="f" d="M181.91,74a1.22,1.22,0,0,1-1.48-.89,1.21,1.21,0,0,1,.88-1.47,1.22,1.22,0,1,1,.6,2.36Z" transform="translate(2.01)"/><path class="f" d="M174.48,72.69a1.21,1.21,0,1,1,.88-1.47A1.2,1.2,0,0,1,174.48,72.69Z" transform="translate(2.01)"/><path class="f" d="M167,71.62a1.21,1.21,0,1,1,.88-1.47A1.22,1.22,0,0,1,167,71.62Z" transform="translate(2.01)"/><path class="f" d="M159.52,70.77a1.21,1.21,0,1,1-.59-2.35,1.21,1.21,0,1,1,.59,2.35Z" transform="translate(2.01)"/><path class="f" d="M152,70.15a1.21,1.21,0,1,1,.88-1.47A1.2,1.2,0,0,1,152,70.15Z" transform="translate(2.01)"/><path class="f" d="M144.48,69.75a1.21,1.21,0,1,1,.88-1.47A1.2,1.2,0,0,1,144.48,69.75Z" transform="translate(2.01)"/><path class="f" d="M282.4,109.8a1.15,1.15,0,1,1,.83-1.4A1.16,1.16,0,0,1,282.4,109.8Z" transform="translate(2.01)"/><path class="f" d="M276.15,105.58a1.15,1.15,0,1,1-.56-2.23,1.15,1.15,0,0,1,.56,2.23Z" transform="translate(2.01)"/><path class="f" d="M269.78,101.56a1.17,1.17,0,0,1-.57-2.26,1.18,1.18,0,0,1,1.42.85A1.16,1.16,0,0,1,269.78,101.56Z" transform="translate(2.01)"/><path class="f" d="M263.29,97.7a1.15,1.15,0,0,1-.56-2.23,1.15,1.15,0,1,1,.56,2.23Z" transform="translate(2.01)"/><path class="f" d="M256.7,94.05a1.15,1.15,0,1,1-.56-2.23,1.15,1.15,0,0,1,.56,2.23Z" transform="translate(2.01)"/><path class="f" d="M250,90.59a1.15,1.15,0,1,1,.83-1.4A1.14,1.14,0,0,1,250,90.59Z" transform="translate(2.01)"/><path class="f" d="M243.2,87.32a1.14,1.14,0,1,1,.84-1.39A1.14,1.14,0,0,1,243.2,87.32Z" transform="translate(2.01)"/><path class="f" d="M236.31,84.26a1.15,1.15,0,1,1,.84-1.39A1.15,1.15,0,0,1,236.31,84.26Z" transform="translate(2.01)"/><path class="f" d="M229.34,81.4a1.15,1.15,0,1,1,.83-1.4A1.16,1.16,0,0,1,229.34,81.4Z" transform="translate(2.01)"/><path class="f" d="M222.29,78.76a1.17,1.17,0,1,1,.84-1.42A1.17,1.17,0,0,1,222.29,78.76Z" transform="translate(2.01)"/><path class="f" d="M215.15,76.29A1.14,1.14,0,1,1,216,74.9,1.13,1.13,0,0,1,215.15,76.29Z" transform="translate(2.01)"/><path class="f" d="M208,74.07a1.17,1.17,0,1,1,.84-1.41A1.17,1.17,0,0,1,208,74.07Z" transform="translate(2.01)"/><path class="f" d="M200.69,72a1.16,1.16,0,1,1-.56-2.26,1.18,1.18,0,0,1,1.41.85A1.16,1.16,0,0,1,200.69,72Z" transform="translate(2.01)"/><path class="f" d="M193.37,70.21a1.14,1.14,0,1,1-.56-2.22,1.14,1.14,0,1,1,.56,2.22Z" transform="translate(2.01)"/><path class="f" d="M186,68.61a1.14,1.14,0,1,1,.84-1.39A1.14,1.14,0,0,1,186,68.61Z" transform="translate(2.01)"/><path class="f" d="M178.59,67.23a1.15,1.15,0,1,1,.84-1.39A1.15,1.15,0,0,1,178.59,67.23Z" transform="translate(2.01)"/><path class="f" d="M171.15,66.08a1.17,1.17,0,1,1,.84-1.41A1.17,1.17,0,0,1,171.15,66.08Z" transform="translate(2.01)"/><path class="f" d="M163.66,65.11a1.14,1.14,0,0,1-.56-2.22,1.14,1.14,0,1,1,.56,2.22Z" transform="translate(2.01)"/><path class="f" d="M156.16,64.4A1.16,1.16,0,1,1,157,63,1.16,1.16,0,0,1,156.16,64.4Z" transform="translate(2.01)"/><path class="f" d="M148.64,63.87a1.14,1.14,0,1,1,.83-1.39A1.14,1.14,0,0,1,148.64,63.87Z" transform="translate(2.01)"/><path class="f" d="M141.1,63.58a1.13,1.13,0,0,1-1.39-.83,1.15,1.15,0,1,1,1.39.83Z" transform="translate(2.01)"/><path class="f" d="M280,100.89a1.1,1.1,0,1,1,.79-1.33A1.1,1.1,0,0,1,280,100.89Z" transform="translate(2.01)"/><path class="f" d="M273.65,96.84a1.1,1.1,0,1,1-.54-2.13,1.1,1.1,0,0,1,.54,2.13Z" transform="translate(2.01)"/><path class="f" d="M267.18,93a1.1,1.1,0,1,1-.54-2.13,1.1,1.1,0,0,1,.54,2.13Z" transform="translate(2.01)"/><path class="f" d="M260.6,89.29a1.1,1.1,0,0,1-.54-2.13,1.1,1.1,0,1,1,.54,2.13Z" transform="translate(2.01)"/><path class="f" d="M253.92,85.8a1.11,1.11,0,0,1-1.34-.8,1.1,1.1,0,0,1,.8-1.33,1.08,1.08,0,0,1,1.33.79A1.1,1.1,0,0,1,253.92,85.8Z" transform="translate(2.01)"/><path class="f" d="M247.14,82.49a1.1,1.1,0,0,1-.54-2.13,1.11,1.11,0,0,1,1.34.8A1.1,1.1,0,0,1,247.14,82.49Z" transform="translate(2.01)"/><path class="f" d="M240.27,79.39a1.1,1.1,0,0,1-.54-2.13,1.1,1.1,0,1,1,.54,2.13Z" transform="translate(2.01)"/><path class="f" d="M233.31,76.48a1.1,1.1,0,1,1,.8-1.33A1.1,1.1,0,0,1,233.31,76.48Z" transform="translate(2.01)"/><path class="f" d="M226.28,73.77a1.1,1.1,0,1,1-.54-2.13,1.1,1.1,0,0,1,.54,2.13Z" transform="translate(2.01)"/><path class="f" d="M219.17,71.26a1.1,1.1,0,1,1-.54-2.13,1.1,1.1,0,0,1,.54,2.13Z" transform="translate(2.01)"/><path class="f" d="M212,69a1.1,1.1,0,0,1-.54-2.13A1.1,1.1,0,1,1,212,69Z" transform="translate(2.01)"/><path class="f" d="M204.75,66.86a1.1,1.1,0,1,1-.54-2.13,1.1,1.1,0,0,1,.54,2.13Z" transform="translate(2.01)"/><path class="f" d="M197.45,65a1.1,1.1,0,1,1-.54-2.13,1.1,1.1,0,0,1,.54,2.13Z" transform="translate(2.01)"/><path class="f" d="M190.1,63.29a1.1,1.1,0,1,1-.54-2.13,1.1,1.1,0,0,1,.54,2.13Z" transform="translate(2.01)"/><path class="f" d="M182.7,61.82a1.1,1.1,0,1,1,.8-1.33A1.09,1.09,0,0,1,182.7,61.82Z" transform="translate(2.01)"/><path class="f" d="M175.27,60.56a1.1,1.1,0,0,1-.54-2.13,1.1,1.1,0,1,1,.54,2.13Z" transform="translate(2.01)"/><path class="f" d="M167.8,59.52a1.1,1.1,0,0,1-1.33-.8,1.1,1.1,0,0,1,2.13-.54A1.1,1.1,0,0,1,167.8,59.52Z" transform="translate(2.01)"/><path class="f" d="M160.31,58.68a1.08,1.08,0,0,1-1.33-.79,1.1,1.1,0,0,1,.79-1.34,1.11,1.11,0,0,1,1.34.8A1.1,1.1,0,0,1,160.31,58.68Z" transform="translate(2.01)"/><path class="f" d="M152.79,58.07a1.11,1.11,0,0,1-1.33-.8,1.1,1.1,0,1,1,1.33.8Z" transform="translate(2.01)"/><path class="f" d="M145.27,57.66a1.1,1.1,0,1,1,.79-1.33A1.1,1.1,0,0,1,145.27,57.66Z" transform="translate(2.01)"/><path class="f" d="M277.52,92.14a1.06,1.06,0,0,1-1.28-.76,1.05,1.05,0,1,1,1.28.76Z" transform="translate(2.01)"/><path class="f" d="M271.06,88.25a1,1,0,0,1-1.27-.76,1.06,1.06,0,0,1,.76-1.28,1.05,1.05,0,0,1,.51,2Z" transform="translate(2.01)"/><path class="f" d="M264.5,84.54a1.05,1.05,0,1,1,.76-1.27A1.05,1.05,0,0,1,264.5,84.54Z" transform="translate(2.01)"/><path class="f" d="M257.83,81a1,1,0,1,1,.76-1.27A1,1,0,0,1,257.83,81Z" transform="translate(2.01)"/><path class="f" d="M251.07,77.67a1,1,0,1,1,.76-1.27A1,1,0,0,1,251.07,77.67Z" transform="translate(2.01)"/><path class="f" d="M244.22,74.53a1.05,1.05,0,1,1,.76-1.28A1.06,1.06,0,0,1,244.22,74.53Z" transform="translate(2.01)"/><path class="f" d="M237.28,71.57A1,1,0,1,1,238,70.3,1,1,0,0,1,237.28,71.57Z" transform="translate(2.01)"/><path class="f" d="M230.27,68.81a1,1,0,1,1,.76-1.27A1,1,0,0,1,230.27,68.81Z" transform="translate(2.01)"/><path class="f" d="M223.18,66.25a1,1,0,0,1-1.27-.77,1,1,0,0,1,.76-1.27,1,1,0,0,1,1.27.76A1.06,1.06,0,0,1,223.18,66.25Z" transform="translate(2.01)"/><path class="f" d="M216,63.88a1,1,0,1,1,.76-1.27A1,1,0,0,1,216,63.88Z" transform="translate(2.01)"/><path class="f" d="M208.8,61.72a1.05,1.05,0,1,1,.76-1.28A1.06,1.06,0,0,1,208.8,61.72Z" transform="translate(2.01)"/><path class="f" d="M201.52,59.76a1.05,1.05,0,1,1,.76-1.28A1.06,1.06,0,0,1,201.52,59.76Z" transform="translate(2.01)"/><path class="f" d="M194.18,58a1,1,0,0,1-1.27-.76,1.05,1.05,0,1,1,2-.51A1,1,0,0,1,194.18,58Z" transform="translate(2.01)"/><path class="f" d="M186.81,56.45a1.05,1.05,0,1,1,.76-1.28A1.06,1.06,0,0,1,186.81,56.45Z" transform="translate(2.01)"/><path class="f" d="M179.39,55.1a1,1,0,0,1-1.27-.76,1,1,0,0,1,.76-1.27,1,1,0,1,1,.51,2Z" transform="translate(2.01)"/><path class="f" d="M171.93,54a1,1,0,0,1-.51-2,1.06,1.06,0,0,1,1.28.76A1,1,0,0,1,171.93,54Z" transform="translate(2.01)"/><path class="f" d="M164.45,53a1,1,0,1,1,.76-1.27A1,1,0,0,1,164.45,53Z" transform="translate(2.01)"/><path class="f" d="M157,52.31a1,1,0,0,1-1.27-.76,1,1,0,0,1,.76-1.27,1,1,0,1,1,.51,2Z" transform="translate(2.01)"/><path class="f" d="M149.42,51.8a1,1,0,0,1-.51-2,1.06,1.06,0,0,1,1.28.76A1,1,0,0,1,149.42,51.8Z" transform="translate(2.01)"/><path class="f" d="M141.89,51.5a1,1,0,1,1,.76-1.27A1,1,0,0,1,141.89,51.5Z" transform="translate(2.01)"/><path class="f" d="M281.38,87.44a1,1,0,1,1,.73-1.21A1,1,0,0,1,281.38,87.44Z" transform="translate(2.01)"/><path class="f" d="M274.94,83.53a1,1,0,1,1,.72-1.22A1,1,0,0,1,274.94,83.53Z" transform="translate(2.01)"/><path class="f" d="M268.39,79.79a1,1,0,1,1,.73-1.21A1,1,0,0,1,268.39,79.79Z" transform="translate(2.01)"/><path class="f" d="M261.74,76.23a1,1,0,1,1,.73-1.21A1,1,0,0,1,261.74,76.23Z" transform="translate(2.01)"/><path class="f" d="M255,72.86a1,1,0,1,1,.72-1.21A1,1,0,0,1,255,72.86Z" transform="translate(2.01)"/><path class="f" d="M248.17,69.67a1,1,0,1,1,.72-1.21A1,1,0,0,1,248.17,69.67Z" transform="translate(2.01)"/><path class="f" d="M241.25,66.67a1,1,0,1,1,.72-1.21A1,1,0,0,1,241.25,66.67Z" transform="translate(2.01)"/><path class="f" d="M234.25,63.86a1,1,0,1,1,.73-1.21A1,1,0,0,1,234.25,63.86Z" transform="translate(2.01)"/><path class="f" d="M227.18,61.25a1,1,0,1,1,.73-1.21A1,1,0,0,1,227.18,61.25Z" transform="translate(2.01)"/><path class="f" d="M220,58.82a1,1,0,1,1,.73-1.21A1,1,0,0,1,220,58.82Z" transform="translate(2.01)"/><path class="f" d="M212.84,56.6a1,1,0,1,1,.72-1.22A1,1,0,0,1,212.84,56.6Z" transform="translate(2.01)"/><path class="f" d="M205.58,54.57a1,1,0,1,1,.72-1.22A1,1,0,0,1,205.58,54.57Z" transform="translate(2.01)"/><path class="f" d="M198.26,52.74a1,1,0,1,1,.73-1.22A1,1,0,0,1,198.26,52.74Z" transform="translate(2.01)"/><path class="f" d="M190.9,51.11a1,1,0,1,1,.73-1.22A1,1,0,0,1,190.9,51.11Z" transform="translate(2.01)"/><path class="f" d="M183.5,49.68a1,1,0,0,1-.49-1.94,1,1,0,1,1,.49,1.94Z" transform="translate(2.01)"/><path class="f" d="M176.06,48.45a1,1,0,0,1-1.21-.72,1,1,0,1,1,1.94-.49A1,1,0,0,1,176.06,48.45Z" transform="translate(2.01)"/><path class="f" d="M168.59,47.43a1,1,0,0,1-.49-1.94,1,1,0,1,1,.49,1.94Z" transform="translate(2.01)"/><path class="f" d="M161.1,46.61a1,1,0,1,1-.49-1.94,1,1,0,0,1,.49,1.94Z" transform="translate(2.01)"/><path class="f" d="M153.58,46a1,1,0,0,1-.49-1.94,1,1,0,1,1,.49,1.94Z" transform="translate(2.01)"/><path class="f" d="M146.05,45.59a1,1,0,1,1,.73-1.21A1,1,0,0,1,146.05,45.59Z" transform="translate(2.01)"/><path class="f" d="M278.81,78.79a.94.94,0,0,1-1.13-.67,1,1,0,0,1,.68-1.14.94.94,0,0,1,1.13.68A.93.93,0,0,1,278.81,78.79Z" transform="translate(2.01)"/><path class="f" d="M272.28,75a.93.93,0,0,1-1.13-.68.94.94,0,0,1,.67-1.13,1,1,0,0,1,1.14.68A.93.93,0,0,1,272.28,75Z" transform="translate(2.01)"/><path class="f" d="M265.65,71.45a.93.93,0,0,1-1.13-.68.93.93,0,1,1,1.13.68Z" transform="translate(2.01)"/><path class="f" d="M258.92,68a.93.93,0,0,1-.45-1.81.93.93,0,0,1,.45,1.81Z" transform="translate(2.01)"/><path class="f" d="M252.11,64.81a.93.93,0,1,1-.46-1.8.93.93,0,0,1,.46,1.8Z" transform="translate(2.01)"/><path class="f" d="M245.21,61.77a.93.93,0,1,1,.67-1.13A.92.92,0,0,1,245.21,61.77Z" transform="translate(2.01)"/><path class="f" d="M238.23,58.92a.93.93,0,1,1,.68-1.13A.94.94,0,0,1,238.23,58.92Z" transform="translate(2.01)"/><path class="f" d="M231.18,56.25a.93.93,0,1,1,.67-1.13A.93.93,0,0,1,231.18,56.25Z" transform="translate(2.01)"/><path class="f" d="M224.06,53.77a.93.93,0,1,1,.67-1.13A.93.93,0,0,1,224.06,53.77Z" transform="translate(2.01)"/><path class="f" d="M216.87,51.48a.93.93,0,1,1,.68-1.13A.93.93,0,0,1,216.87,51.48Z" transform="translate(2.01)"/><path class="f" d="M209.63,49.38a.93.93,0,1,1,.68-1.13A.92.92,0,0,1,209.63,49.38Z" transform="translate(2.01)"/><path class="f" d="M202.33,47.48a.93.93,0,1,1,.68-1.13A.93.93,0,0,1,202.33,47.48Z" transform="translate(2.01)"/><path class="f" d="M195,45.78a.93.93,0,1,1,.68-1.13A.94.94,0,0,1,195,45.78Z" transform="translate(2.01)"/><path class="f" d="M187.6,44.27a.93.93,0,0,1-1.13-.68.93.93,0,0,1,1.81-.45A.93.93,0,0,1,187.6,44.27Z" transform="translate(2.01)"/><path class="f" d="M180.18,43a.93.93,0,1,1,.67-1.13A.93.93,0,0,1,180.18,43Z" transform="translate(2.01)"/><path class="f" d="M172.72,41.85a.93.93,0,1,1,.68-1.13A.93.93,0,0,1,172.72,41.85Z" transform="translate(2.01)"/><path class="f" d="M165.24,40.94a.93.93,0,1,1,.67-1.13A.93.93,0,0,1,165.24,40.94Z" transform="translate(2.01)"/><path class="f" d="M157.73,40.23a.93.93,0,1,1,.68-1.13A.94.94,0,0,1,157.73,40.23Z" transform="translate(2.01)"/><path class="f" d="M150.21,39.72a.93.93,0,1,1,.67-1.13A.93.93,0,0,1,150.21,39.72Z" transform="translate(2.01)"/><path class="f" d="M142.68,39.41a1,1,0,0,1-1.14-.68.93.93,0,1,1,1.14.68Z" transform="translate(2.01)"/><path class="f" d="M282.69,74.08a.88.88,0,0,1-1.07-.64.88.88,0,1,1,1.71-.43A.88.88,0,0,1,282.69,74.08Z" transform="translate(2.01)"/><path class="f" d="M276.17,70.29a.88.88,0,1,1,.64-1.07A.88.88,0,0,1,276.17,70.29Z" transform="translate(2.01)"/><path class="f" d="M269.55,66.68a.88.88,0,1,1,.64-1.07A.88.88,0,0,1,269.55,66.68Z" transform="translate(2.01)"/><path class="f" d="M262.84,63.24a.88.88,0,1,1,.64-1.07A.88.88,0,0,1,262.84,63.24Z" transform="translate(2.01)"/><path class="f" d="M256,60a.88.88,0,0,1-.43-1.71A.88.88,0,0,1,256,60Z" transform="translate(2.01)"/><path class="f" d="M249.16,56.9a.88.88,0,1,1,.64-1.07A.88.88,0,0,1,249.16,56.9Z" transform="translate(2.01)"/><path class="f" d="M242.2,54a.88.88,0,1,1-.43-1.71.87.87,0,0,1,1.07.64A.88.88,0,0,1,242.2,54Z" transform="translate(2.01)"/><path class="f" d="M235.17,51.28a.88.88,0,1,1,.64-1.07A.88.88,0,0,1,235.17,51.28Z" transform="translate(2.01)"/><path class="f" d="M228.07,48.75a.89.89,0,0,1-1.07-.64.88.88,0,1,1,1.71-.43A.88.88,0,0,1,228.07,48.75Z" transform="translate(2.01)"/><path class="f" d="M220.9,46.4a.88.88,0,1,1-.43-1.71.88.88,0,0,1,.43,1.71Z" transform="translate(2.01)"/><path class="f" d="M213.68,44.24a.88.88,0,1,1,.64-1.07A.88.88,0,0,1,213.68,44.24Z" transform="translate(2.01)"/><path class="f" d="M206.4,42.27a.88.88,0,1,1-.43-1.71.89.89,0,0,1,1.07.64A.87.87,0,0,1,206.4,42.27Z" transform="translate(2.01)"/><path class="f" d="M199.08,40.5a.88.88,0,1,1,.64-1.07A.89.89,0,0,1,199.08,40.5Z" transform="translate(2.01)"/><path class="f" d="M191.7,38.91a.88.88,0,1,1,.64-1.07A.88.88,0,0,1,191.7,38.91Z" transform="translate(2.01)"/><path class="f" d="M184.29,37.52a.88.88,0,1,1,.64-1.07A.88.88,0,0,1,184.29,37.52Z" transform="translate(2.01)"/><path class="f" d="M176.85,36.33a.88.88,0,1,1,.64-1.07A.88.88,0,0,1,176.85,36.33Z" transform="translate(2.01)"/><path class="f" d="M169.38,35.33a.89.89,0,0,1-1.07-.64.87.87,0,0,1,.64-1.07.88.88,0,0,1,.43,1.71Z" transform="translate(2.01)"/><path class="f" d="M161.88,34.52a.88.88,0,1,1,.64-1.07A.88.88,0,0,1,161.88,34.52Z" transform="translate(2.01)"/><path class="f" d="M154.37,33.91a.88.88,0,1,1,.64-1.07A.89.89,0,0,1,154.37,33.91Z" transform="translate(2.01)"/><path class="f" d="M146.84,33.5a.88.88,0,1,1,.64-1.07A.88.88,0,0,1,146.84,33.5Z" transform="translate(2.01)"/><path class="f" d="M280.06,65.56a.84.84,0,1,1,.6-1A.84.84,0,0,1,280.06,65.56Z" transform="translate(2.01)"/><path class="f" d="M273.46,61.92a.84.84,0,1,1,.6-1A.83.83,0,0,1,273.46,61.92Z" transform="translate(2.01)"/><path class="f" d="M266.76,58.45a.83.83,0,1,1-.41-1.61.83.83,0,0,1,.41,1.61Z" transform="translate(2.01)"/><path class="f" d="M260,55.15a.83.83,0,1,1,.6-1A.83.83,0,0,1,260,55.15Z" transform="translate(2.01)"/><path class="f" d="M253.12,52a.83.83,0,0,1-1-.6.82.82,0,0,1,.6-1,.83.83,0,0,1,.41,1.61Z" transform="translate(2.01)"/><path class="f" d="M246.18,49.09a.83.83,0,0,1-1-.61.81.81,0,0,1,.6-1,.82.82,0,0,1,1,.6A.84.84,0,0,1,246.18,49.09Z" transform="translate(2.01)"/><path class="f" d="M239.16,46.32a.82.82,0,0,1-1-.6.83.83,0,1,1,1.61-.41A.82.82,0,0,1,239.16,46.32Z" transform="translate(2.01)"/><path class="f" d="M232.08,43.74a.83.83,0,0,1-.41-1.61.82.82,0,0,1,1,.6A.83.83,0,0,1,232.08,43.74Z" transform="translate(2.01)"/><path class="f" d="M224.93,41.34a.84.84,0,1,1,.6-1A.82.82,0,0,1,224.93,41.34Z" transform="translate(2.01)"/><path class="f" d="M217.72,39.12a.84.84,0,0,1-1-.6.84.84,0,1,1,1,.6Z" transform="translate(2.01)"/><path class="f" d="M210.46,37.09a.84.84,0,0,1-1-.6.83.83,0,0,1,.61-1,.82.82,0,0,1,1,.6A.84.84,0,0,1,210.46,37.09Z" transform="translate(2.01)"/><path class="f" d="M203.15,35.24a.83.83,0,1,1-.4-1.61.83.83,0,1,1,.4,1.61Z" transform="translate(2.01)"/><path class="f" d="M195.8,33.59a.83.83,0,0,1-1-.61.84.84,0,0,1,.6-1,.83.83,0,0,1,1,.61A.84.84,0,0,1,195.8,33.59Z" transform="translate(2.01)"/><path class="f" d="M188.4,32.12a.84.84,0,0,1-1-.6.84.84,0,1,1,1,.6Z" transform="translate(2.01)"/><path class="f" d="M181,30.84a.83.83,0,1,1,.61-1A.84.84,0,0,1,181,30.84Z" transform="translate(2.01)"/><path class="f" d="M173.51,29.75a.82.82,0,0,1-1-.6.84.84,0,1,1,1,.6Z" transform="translate(2.01)"/><path class="f" d="M166,28.86a.83.83,0,0,1-1-.6.83.83,0,1,1,1.61-.41A.83.83,0,0,1,166,28.86Z" transform="translate(2.01)"/><path class="f" d="M158.52,28.16a.83.83,0,0,1-1-.61.84.84,0,0,1,.6-1,.83.83,0,0,1,1,.61A.84.84,0,0,1,158.52,28.16Z" transform="translate(2.01)"/><path class="f" d="M151,27.65a.84.84,0,1,1,.6-1A.84.84,0,0,1,151,27.65Z" transform="translate(2.01)"/><path class="f" d="M143.46,27.33a.84.84,0,0,1-1-.6.84.84,0,1,1,1,.6Z" transform="translate(2.01)"/><path class="f" d="M277.36,57.16a.78.78,0,1,1,.56-.95A.78.78,0,0,1,277.36,57.16Z" transform="translate(2.01)"/><path class="f" d="M270.68,53.66a.78.78,0,1,1-.38-1.51.78.78,0,0,1,.38,1.51Z" transform="translate(2.01)"/><path class="f" d="M263.91,50.33a.78.78,0,1,1,.57-.95A.78.78,0,0,1,263.91,50.33Z" transform="translate(2.01)"/><path class="f" d="M257.07,47.18a.78.78,0,0,1-.95-.57.78.78,0,1,1,1.51-.38A.78.78,0,0,1,257.07,47.18Z" transform="translate(2.01)"/><path class="f" d="M250.14,44.19a.78.78,0,1,1,.57-.95A.78.78,0,0,1,250.14,44.19Z" transform="translate(2.01)"/><path class="f" d="M243.14,41.38a.77.77,0,0,1-.94-.57.78.78,0,1,1,.94.57Z" transform="translate(2.01)"/><path class="f" d="M236.08,38.75a.78.78,0,1,1,.57-1A.79.79,0,0,1,236.08,38.75Z" transform="translate(2.01)"/><path class="f" d="M229,36.29a.78.78,0,0,1-.95-.56.78.78,0,1,1,.95.56Z" transform="translate(2.01)"/><path class="f" d="M221.76,34a.78.78,0,1,1,.57-1A.79.79,0,0,1,221.76,34Z" transform="translate(2.01)"/><path class="f" d="M214.52,31.93a.79.79,0,0,1-1-.57.78.78,0,0,1,1.52-.38A.79.79,0,0,1,214.52,31.93Z" transform="translate(2.01)"/><path class="f" d="M207.23,30a.78.78,0,1,1,.56-.95A.78.78,0,0,1,207.23,30Z" transform="translate(2.01)"/><path class="f" d="M199.89,28.29a.78.78,0,1,1,.56-.95A.78.78,0,0,1,199.89,28.29Z" transform="translate(2.01)"/><path class="f" d="M192.51,26.75a.78.78,0,1,1,.56-.95A.78.78,0,0,1,192.51,26.75Z" transform="translate(2.01)"/><path class="f" d="M185.09,25.39a.78.78,0,1,1,.57-.95A.78.78,0,0,1,185.09,25.39Z" transform="translate(2.01)"/><path class="f" d="M177.64,24.22a.78.78,0,1,1,.57-.95A.78.78,0,0,1,177.64,24.22Z" transform="translate(2.01)"/><path class="f" d="M170.17,23.24a.78.78,0,1,1,.56-.95A.78.78,0,0,1,170.17,23.24Z" transform="translate(2.01)"/><path class="f" d="M162.67,22.45a.78.78,0,1,1,.57-.95A.78.78,0,0,1,162.67,22.45Z" transform="translate(2.01)"/><path class="f" d="M155.15,21.84a.78.78,0,1,1,.57-.95A.78.78,0,0,1,155.15,21.84Z" transform="translate(2.01)"/><path class="f" d="M147.62,21.43a.78.78,0,1,1,.57-.95A.78.78,0,0,1,147.62,21.43Z" transform="translate(2.01)"/><path class="f" d="M140.09,21.2a.78.78,0,0,1-.38-1.52.78.78,0,0,1,.38,1.52Z" transform="translate(2.01)"/><path class="f" d="M281.25,52.41A.73.73,0,0,1,280.9,51a.73.73,0,1,1,.35,1.42Z" transform="translate(2.01)"/><path class="f" d="M274.59,48.88a.73.73,0,1,1,.53-.89A.73.73,0,0,1,274.59,48.88Z" transform="translate(2.01)"/><path class="f" d="M267.84,45.52a.73.73,0,1,1,.53-.89A.73.73,0,0,1,267.84,45.52Z" transform="translate(2.01)"/><path class="f" d="M261,42.33a.73.73,0,1,1,.53-.89A.73.73,0,0,1,261,42.33Z" transform="translate(2.01)"/><path class="f" d="M254.1,39.3a.73.73,0,1,1-.35-1.42.73.73,0,0,1,.88.54A.71.71,0,0,1,254.1,39.3Z" transform="translate(2.01)"/><path class="f" d="M247.12,36.45a.72.72,0,0,1-.88-.53.73.73,0,1,1,.88.53Z" transform="translate(2.01)"/><path class="f" d="M240.08,33.77a.73.73,0,1,1,.53-.89A.73.73,0,0,1,240.08,33.77Z" transform="translate(2.01)"/><path class="f" d="M233,31.27a.74.74,0,0,1-.89-.54.72.72,0,0,1,.53-.88.73.73,0,0,1,.36,1.42Z" transform="translate(2.01)"/><path class="f" d="M225.8,28.94a.74.74,0,0,1-.89-.54.72.72,0,0,1,.53-.88.73.73,0,1,1,.36,1.42Z" transform="translate(2.01)"/><path class="f" d="M218.57,26.78a.73.73,0,1,1,.53-.88A.72.72,0,0,1,218.57,26.78Z" transform="translate(2.01)"/><path class="f" d="M211.29,24.81a.73.73,0,1,1-.35-1.42.72.72,0,0,1,.88.53A.73.73,0,0,1,211.29,24.81Z" transform="translate(2.01)"/><path class="f" d="M204,23a.73.73,0,1,1,.53-.89A.73.73,0,0,1,204,23Z" transform="translate(2.01)"/><path class="f" d="M196.6,21.4a.71.71,0,0,1-.88-.53.73.73,0,0,1,.53-.89.74.74,0,0,1,.89.54A.73.73,0,0,1,196.6,21.4Z" transform="translate(2.01)"/><path class="f" d="M189.2,20a.73.73,0,1,1,.53-.88A.72.72,0,0,1,189.2,20Z" transform="translate(2.01)"/><path class="f" d="M181.77,18.73a.74.74,0,0,1-.89-.54.72.72,0,0,1,.53-.88.73.73,0,1,1,.36,1.42Z" transform="translate(2.01)"/><path class="f" d="M174.3,17.66a.73.73,0,1,1,.53-.89A.73.73,0,0,1,174.3,17.66Z" transform="translate(2.01)"/><path class="f" d="M166.81,16.78a.73.73,0,1,1-.35-1.42.73.73,0,0,1,.35,1.42Z" transform="translate(2.01)"/><path class="f" d="M159.31,16.09a.73.73,0,1,1,.53-.89A.73.73,0,0,1,159.31,16.09Z" transform="translate(2.01)"/><path class="f" d="M151.78,15.58a.73.73,0,0,1-.88-.54.73.73,0,0,1,1.41-.35A.73.73,0,0,1,151.78,15.58Z" transform="translate(2.01)"/><path class="f" d="M144.25,15.25a.73.73,0,1,1,.53-.89A.73.73,0,0,1,144.25,15.25Z" transform="translate(2.01)"/><path class="f" d="M278.5,44.11a.69.69,0,1,1-.33-1.33.69.69,0,0,1,.33,1.33Z" transform="translate(2.01)"/><path class="f" d="M271.77,40.71a.68.68,0,0,1-.83-.49.68.68,0,1,1,.83.49Z" transform="translate(2.01)"/><path class="f" d="M265,37.49a.69.69,0,1,1,.5-.83A.69.69,0,0,1,265,37.49Z" transform="translate(2.01)"/><path class="f" d="M258.06,34.43a.69.69,0,1,1,.5-.83A.69.69,0,0,1,258.06,34.43Z" transform="translate(2.01)"/><path class="f" d="M251.1,31.53a.68.68,0,1,1,.49-.83A.68.68,0,0,1,251.1,31.53Z" transform="translate(2.01)"/><path class="f" d="M244.07,28.81a.68.68,0,0,1-.83-.5.69.69,0,0,1,.5-.83.69.69,0,0,1,.33,1.33Z" transform="translate(2.01)"/><path class="f" d="M237,26.25a.68.68,0,1,1,.49-.83A.68.68,0,0,1,237,26.25Z" transform="translate(2.01)"/><path class="f" d="M229.82,23.87a.69.69,0,0,1-.83-.49.69.69,0,1,1,.83.49Z" transform="translate(2.01)"/><path class="f" d="M222.61,21.66a.68.68,0,1,1,.5-.83A.68.68,0,0,1,222.61,21.66Z" transform="translate(2.01)"/><path class="f" d="M215.35,19.63a.68.68,0,0,1-.82-.5.66.66,0,0,1,.49-.82.68.68,0,1,1,.33,1.32Z" transform="translate(2.01)"/><path class="f" d="M208.05,17.77a.68.68,0,1,1,.49-.83A.68.68,0,0,1,208.05,17.77Z" transform="translate(2.01)"/><path class="f" d="M200.7,16.09a.68.68,0,1,1,.49-.83A.68.68,0,0,1,200.7,16.09Z" transform="translate(2.01)"/><path class="f" d="M193.31,14.59a.68.68,0,0,1-.83-.5.69.69,0,0,1,.49-.83.69.69,0,0,1,.34,1.33Z" transform="translate(2.01)"/><path class="f" d="M185.88,13.26a.67.67,0,0,1-.82-.49.68.68,0,1,1,1.32-.33A.68.68,0,0,1,185.88,13.26Z" transform="translate(2.01)"/><path class="f" d="M178.43,12.12a.69.69,0,0,1-.83-.49.69.69,0,1,1,.83.49Z" transform="translate(2.01)"/><path class="f" d="M171,11.16a.68.68,0,0,1-.82-.5.68.68,0,1,1,.82.5Z" transform="translate(2.01)"/><path class="f" d="M163.46,10.37a.68.68,0,0,1-.83-.49.68.68,0,1,1,.83.49Z" transform="translate(2.01)"/><path class="f" d="M155.94,9.77a.68.68,0,1,1-.33-1.32.69.69,0,0,1,.83.5A.68.68,0,0,1,155.94,9.77Z" transform="translate(2.01)"/><path class="f" d="M148.41,9.35a.68.68,0,1,1,.5-.82A.68.68,0,0,1,148.41,9.35Z" transform="translate(2.01)"/><path class="f" d="M140.88,9.12a.68.68,0,0,1-.83-.5.69.69,0,0,1,.49-.83.69.69,0,0,1,.34,1.33Z" transform="translate(2.01)"/><path class="f" d="M282.41,39.33a.63.63,0,1,1,.46-.76A.63.63,0,0,1,282.41,39.33Z" transform="translate(2.01)"/><path class="f" d="M275.69,35.91a.63.63,0,1,1,.46-.76A.63.63,0,0,1,275.69,35.91Z" transform="translate(2.01)"/><path class="f" d="M268.89,32.65a.63.63,0,1,1,.46-.76A.63.63,0,0,1,268.89,32.65Z" transform="translate(2.01)"/><path class="f" d="M262,29.56a.63.63,0,1,1-.31-1.23.63.63,0,0,1,.76.46A.63.63,0,0,1,262,29.56Z" transform="translate(2.01)"/><path class="f" d="M255.07,26.62a.63.63,0,1,1,.46-.76A.63.63,0,0,1,255.07,26.62Z" transform="translate(2.01)"/><path class="f" d="M248.06,23.86a.64.64,0,0,1-.77-.46.63.63,0,1,1,1.23-.31A.64.64,0,0,1,248.06,23.86Z" transform="translate(2.01)"/><path class="f" d="M241,21.25a.63.63,0,1,1,.46-.76A.63.63,0,0,1,241,21.25Z" transform="translate(2.01)"/><path class="f" d="M233.84,18.82a.63.63,0,1,1,.46-.77A.62.62,0,0,1,233.84,18.82Z" transform="translate(2.01)"/><path class="f" d="M226.65,16.56a.63.63,0,1,1,.46-.77A.63.63,0,0,1,226.65,16.56Z" transform="translate(2.01)"/><path class="f" d="M219.41,14.47a.63.63,0,1,1,.46-.77A.64.64,0,0,1,219.41,14.47Z" transform="translate(2.01)"/><path class="f" d="M212.12,12.55a.63.63,0,1,1,.46-.77A.64.64,0,0,1,212.12,12.55Z" transform="translate(2.01)"/><path class="f" d="M204.78,10.8a.63.63,0,1,1,.46-.77A.63.63,0,0,1,204.78,10.8Z" transform="translate(2.01)"/><path class="f" d="M197.41,9.23a.63.63,0,0,1-.77-.46.63.63,0,1,1,.77.46Z" transform="translate(2.01)"/><path class="f" d="M190,7.83a.63.63,0,1,1,.46-.76A.63.63,0,0,1,190,7.83Z" transform="translate(2.01)"/><path class="f" d="M182.56,6.61a.63.63,0,1,1,.46-.76A.63.63,0,0,1,182.56,6.61Z" transform="translate(2.01)"/><path class="f" d="M175.09,5.57a.63.63,0,0,1-.77-.46.63.63,0,1,1,1.23-.31A.63.63,0,0,1,175.09,5.57Z" transform="translate(2.01)"/><path class="f" d="M167.6,4.7a.63.63,0,1,1,.46-.76A.62.62,0,0,1,167.6,4.7Z" transform="translate(2.01)"/><path class="f" d="M160.09,4a.63.63,0,0,1-.76-.46.63.63,0,0,1,.46-.77.62.62,0,0,1,.76.46A.63.63,0,0,1,160.09,4Z" transform="translate(2.01)"/><path class="f" d="M152.57,3.51a.63.63,0,0,1-.31-1.23.63.63,0,0,1,.31,1.23Z" transform="translate(2.01)"/><path class="f" d="M145,3.17a.63.63,0,1,1,.46-.76A.63.63,0,0,1,145,3.17Z" transform="translate(2.01)"/><path class="f" d="M279.61,31.12a.58.58,0,1,1,.42-.71A.59.59,0,0,1,279.61,31.12Z" transform="translate(2.01)"/><path class="f" d="M272.82,27.83a.58.58,0,0,1-.28-1.13.58.58,0,1,1,.28,1.13Z" transform="translate(2.01)"/><path class="f" d="M266,24.7a.59.59,0,0,1-.71-.43.58.58,0,0,1,.42-.7A.58.58,0,0,1,266,24.7Z" transform="translate(2.01)"/><path class="f" d="M259,21.72a.59.59,0,0,1-.71-.42.57.57,0,0,1,.42-.7.59.59,0,0,1,.71.42A.57.57,0,0,1,259,21.72Z" transform="translate(2.01)"/><path class="f" d="M252,18.91a.59.59,0,0,1-.71-.42.58.58,0,0,1,1.13-.28A.57.57,0,0,1,252,18.91Z" transform="translate(2.01)"/><path class="f" d="M245,16.27a.58.58,0,1,1-.28-1.13.58.58,0,0,1,.7.42A.59.59,0,0,1,245,16.27Z" transform="translate(2.01)"/><path class="f" d="M237.86,13.79a.58.58,0,1,1-.28-1.13.58.58,0,0,1,.7.42A.59.59,0,0,1,237.86,13.79Z" transform="translate(2.01)"/><path class="f" d="M230.69,11.47a.58.58,0,0,1-.29-1.13.59.59,0,0,1,.71.43A.58.58,0,0,1,230.69,11.47Z" transform="translate(2.01)"/><path class="f" d="M223.46,9.33a.59.59,0,0,1-.71-.43.57.57,0,0,1,.42-.7.58.58,0,1,1,.29,1.13Z" transform="translate(2.01)"/><path class="f" d="M216.18,7.35a.57.57,0,0,1-.7-.43.58.58,0,0,1,1.12-.28A.59.59,0,0,1,216.18,7.35Z" transform="translate(2.01)"/><path class="f" d="M208.86,5.54a.57.57,0,0,1-.7-.42.58.58,0,1,1,1.13-.29A.6.6,0,0,1,208.86,5.54Z" transform="translate(2.01)"/><path class="f" d="M201.5,3.9a.57.57,0,0,1-.7-.42.58.58,0,1,1,1.13-.29A.6.6,0,0,1,201.5,3.9Z" transform="translate(2.01)"/><path class="f" d="M194.11,2.43A.59.59,0,0,1,193.4,2a.57.57,0,0,1,.42-.7.58.58,0,0,1,.71.42A.57.57,0,0,1,194.11,2.43Z" transform="translate(2.01)"/><path class="f" d="M276.76,23a.53.53,0,0,1-.65-.39.53.53,0,0,1,.39-.64.52.52,0,0,1,.64.38A.53.53,0,0,1,276.76,23Z" transform="translate(2.01)"/><path class="f" d="M269.91,19.84a.52.52,0,0,1-.64-.38.53.53,0,1,1,1-.26A.53.53,0,0,1,269.91,19.84Z" transform="translate(2.01)"/><path class="f" d="M263,16.84a.55.55,0,0,1-.65-.39.54.54,0,0,1,1-.26A.54.54,0,0,1,263,16.84Z" transform="translate(2.01)"/><path class="f" d="M256,14a.54.54,0,0,1-.65-.39.53.53,0,0,1,.39-.65.54.54,0,0,1,.65.39A.55.55,0,0,1,256,14Z" transform="translate(2.01)"/><path class="f" d="M249,11.3a.54.54,0,1,1,.38-.65A.54.54,0,0,1,249,11.3Z" transform="translate(2.01)"/><path class="f" d="M241.87,8.77a.53.53,0,0,1-.64-.39.52.52,0,0,1,.38-.64.53.53,0,0,1,.65.38A.53.53,0,0,1,241.87,8.77Z" transform="translate(2.01)"/><path class="f" d="M234.71,6.4a.52.52,0,0,1-.64-.38.53.53,0,1,1,1-.26A.53.53,0,0,1,234.71,6.4Z" transform="translate(2.01)"/><path class="f" d="M227.5,4.2a.53.53,0,1,1,.39-.64A.53.53,0,0,1,227.5,4.2Z" transform="translate(2.01)"/><path class="f" d="M220.24,2.17a.53.53,0,0,1-.64-.39.52.52,0,0,1,.38-.64.53.53,0,0,1,.65.38A.53.53,0,0,1,220.24,2.17Z" transform="translate(2.01)"/><path class="f" d="M280.69,18.2a.49.49,0,0,1-.59-.35.48.48,0,0,1,.35-.59.49.49,0,0,1,.59.35A.5.5,0,0,1,280.69,18.2Z" transform="translate(2.01)"/><path class="f" d="M273.86,15a.49.49,0,1,1,.35-.59A.49.49,0,0,1,273.86,15Z" transform="translate(2.01)"/><path class="f" d="M267,12a.5.5,0,0,1-.59-.36.49.49,0,0,1,.35-.58.48.48,0,0,1,.59.35A.49.49,0,0,1,267,12Z" transform="translate(2.01)"/><path class="f" d="M260,9.07a.48.48,0,1,1,.35-.59A.48.48,0,0,1,260,9.07Z" transform="translate(2.01)"/><path class="f" d="M253,6.34a.5.5,0,0,1-.59-.35.49.49,0,1,1,.59.35Z" transform="translate(2.01)"/><path class="f" d="M245.88,3.76a.48.48,0,1,1,.35-.58A.48.48,0,0,1,245.88,3.76Z" transform="translate(2.01)"/><path class="f" d="M238.74,1.35a.48.48,0,0,1-.59-.35.49.49,0,0,1,.35-.59.5.5,0,0,1,.59.35A.49.49,0,0,1,238.74,1.35Z" transform="translate(2.01)"/><path class="f" d="M277.8,10.18a.45.45,0,0,1-.54-.33.45.45,0,0,1,.87-.22A.46.46,0,0,1,277.8,10.18Z" transform="translate(2.01)"/><path class="f" d="M270.92,7.1a.46.46,0,0,1-.55-.33.45.45,0,0,1,.33-.54.45.45,0,0,1,.22.87Z" transform="translate(2.01)"/><path class="f" d="M264,4.17a.45.45,0,0,1-.55-.32.46.46,0,0,1,.33-.55.46.46,0,0,1,.55.33A.45.45,0,0,1,264,4.17Z" transform="translate(2.01)"/><path class="f" d="M257,1.4a.45.45,0,0,1-.55-.32.46.46,0,0,1,.33-.55.45.45,0,0,1,.54.33A.44.44,0,0,1,257,1.4Z" transform="translate(2.01)"/><path class="f" d="M274.87,2.24a.4.4,0,0,1-.48-.29.39.39,0,0,1,.29-.49.4.4,0,0,1,.48.29A.42.42,0,0,1,274.87,2.24Z" transform="translate(2.01)"/></g></g></g><polygon class="g" points="141.34 255.45 281.34 126.75 141.34 126.75 141.34 255.45"/><polygon class="h" points="141.34 3.93 280.34 126.63 141.34 126.63 141.34 3.93"/><polygon class="h" points="141.34 255.45 6.34 126.75 141.34 126.75 141.34 255.45"/><polygon class="g" points="141.34 3.69 6.34 127.39 141.34 127.39 141.34 3.69"/><rect class="i" x="61.35" y="56.93" width="157.73" height="165.67" rx="10.18"/><path class="f" d="M206.9,57.73a9.39,9.39,0,0,1,9.38,9.38V212.43a9.39,9.39,0,0,1-9.38,9.38H69.52a9.39,9.39,0,0,1-9.38-9.38V67.11a9.39,9.39,0,0,1,9.38-9.38H206.9m0-1.59H69.52a11,11,0,0,0-11,11V212.43a11,11,0,0,0,11,11H206.9a11,11,0,0,0,11-11V67.11a11,11,0,0,0-11-11Z" transform="translate(2.01)"/><line class="j" x1="79.73" y1="76.3" x2="91.11" y2="76.3"/><line class="j" x1="98.29" y1="76.3" x2="132.6" y2="76.3"/><line class="j" x1="141.7" y1="76.3" x2="152.41" y2="76.3"/><line class="j" x1="159.03" y1="76.3" x2="181.73" y2="76.3"/><line class="j" x1="188.54" y1="76.3" x2="200.71" y2="76.3"/><line class="j" x1="87.96" y1="86.01" x2="103.9" y2="86.01"/><line class="j" x1="110.34" y1="86.01" x2="115.44" y2="86.01"/><line class="j" x1="124.6" y1="86.01" x2="140.22" y2="86.01"/><line class="j" x1="147.05" y1="86.01" x2="154.62" y2="86.01"/><line class="j" x1="162.67" y1="86.01" x2="193.95" y2="86.01"/><line class="j" x1="87.96" y1="95.24" x2="98.29" y2="95.24"/><line class="j" x1="106.11" y1="95.24" x2="134.81" y2="95.24"/><ellipse class="k" cx="139.69" cy="158.13" rx="46.66" ry="16.6" transform="translate(-68.89 145.09) rotate(-45)"/><ellipse class="l" cx="141.7" cy="158.13" rx="46.66" ry="16.6"/><ellipse class="m" cx="139.69" cy="158.13" rx="16.6" ry="46.66" transform="translate(-68.89 145.09) rotate(-45)"/><ellipse class="n" cx="141.7" cy="158.13" rx="16.6" ry="46.66"/><circle class="i" cx="141.7" cy="158.13" r="7.57"/><circle class="o" cx="141.7" cy="158.13" r="1.91"/><line class="p" x1="115.44" y1="228.85" x2="176.54" y2="228.85"/></svg>