<svg xmlns="http://www.w3.org/2000/svg" xmlns:xlink="http://www.w3.org/1999/xlink" viewBox="0 0 283 260.53"><defs><style>.a,.g,.l,.o{fill:none;}.b{fill:#e50e99;}.b,.g{stroke:#1c1131;stroke-width:3px;}.b,.g,.j,.k,.l,.m,.n,.o{stroke-miterlimit:10;}.c{clip-path:url(#a);}.d{opacity:0.29;}.e{clip-path:url(#b);}.f{fill:#1c1131;}.h{fill:#ffd23f;}.i{fill:#47bcee;}.j,.k,.m,.n{fill:#fff;}.j,.k,.l,.m,.n,.o{stroke:#000;}.j{stroke-width:1.49px;}.k,.l,.m{stroke-width:1.51px;}.l,.m,.o{stroke-linecap:round;}.n,.o{stroke-width:1.5px;}</style><clipPath id="a" transform="translate(0 0.82)"><path class="a" d="M1.55,1.45h280a0,0,0,0,1,0,0V237.57a19.75,19.75,0,0,1-19.75,19.75H1.55a0,0,0,0,1,0,0V1.45A0,0,0,0,1,1.55,1.45Z" transform="translate(283.05 258.78) rotate(180)"/></clipPath><clipPath id="b" transform="translate(0 0.82)"><rect class="a" x="1.55" y="1.45" width="280" height="256" rx="20" transform="translate(283.09 258.9) rotate(180)"/></clipPath></defs><rect class="b" x="1.5" y="2.32" width="280" height="256" rx="20"/><g class="c"><g class="d"><g class="e"><path class="f" d="M162.22,258.66a3.28,3.28,0,1,1,2.38-4A3.28,3.28,0,0,1,162.22,258.66Z" transform="translate(0 0.82)"/><path class="f" d="M155.09,256.22a3.28,3.28,0,1,1,2.38-4A3.28,3.28,0,0,1,155.09,256.22Z" transform="translate(0 0.82)"/><circle class="f" cx="146.94" cy="251.36" r="3.28" transform="translate(-138.82 307.99) rotate(-70.74)"/><path class="f" d="M173,257a3.19,3.19,0,1,1,2.32-3.88A3.2,3.2,0,0,1,173,257Z" transform="translate(0 0.82)"/><path class="f" d="M166.17,253.73a3.19,3.19,0,1,1,2.32-3.87A3.18,3.18,0,0,1,166.17,253.73Z" transform="translate(0 0.82)"/><path class="f" d="M159.12,251.1a3.2,3.2,0,1,1,2.31-3.88A3.19,3.19,0,0,1,159.12,251.1Z" transform="translate(0 0.82)"/><path class="f" d="M151.83,249.15a3.2,3.2,0,1,1,2.32-3.88A3.19,3.19,0,0,1,151.83,249.15Z" transform="translate(0 0.82)"/><path class="f" d="M144.4,247.92a3.2,3.2,0,1,1,2.32-3.88A3.2,3.2,0,0,1,144.4,247.92Z" transform="translate(0 0.82)"/><path class="f" d="M183.21,256.28a3.11,3.11,0,1,1,2.26-3.77A3.11,3.11,0,0,1,183.21,256.28Z" transform="translate(0 0.82)"/><circle class="f" cx="176.07" cy="250.07" r="3.13"/><path class="f" d="M170.12,248.84a3.11,3.11,0,1,1,2.25-3.77A3.11,3.11,0,0,1,170.12,248.84Z" transform="translate(0 0.82)"/><path class="f" d="M163.12,246a3.11,3.11,0,1,1,2.26-3.78A3.12,3.12,0,0,1,163.12,246Z" transform="translate(0 0.82)"/><path class="f" d="M155.9,243.87a3.11,3.11,0,1,1,2.26-3.78A3.12,3.12,0,0,1,155.9,243.87Z" transform="translate(0 0.82)"/><path class="f" d="M148.52,242.35a3.11,3.11,0,1,1,2.26-3.78A3.11,3.11,0,0,1,148.52,242.35Z" transform="translate(0 0.82)"/><path class="f" d="M141,241.5a3.11,3.11,0,1,1,2.26-3.77A3.11,3.11,0,0,1,141,241.5Z" transform="translate(0 0.82)"/><path class="f" d="M193,256.18a3,3,0,1,1,2.21-3.69A3.05,3.05,0,0,1,193,256.18Z" transform="translate(0 0.82)"/><path class="f" d="M187.05,251.59a3,3,0,1,1,2.21-3.69A3,3,0,0,1,187.05,251.59Z" transform="translate(0 0.82)"/><path class="f" d="M180.71,247.52a3,3,0,1,1,2.21-3.69A3,3,0,0,1,180.71,247.52Z" transform="translate(0 0.82)"/><path class="f" d="M174.05,244a3,3,0,1,1,2.21-3.7A3.05,3.05,0,0,1,174.05,244Z" transform="translate(0 0.82)"/><path class="f" d="M167.11,241.05a3,3,0,1,1,2.21-3.7A3,3,0,0,1,167.11,241.05Z" transform="translate(0 0.82)"/><path class="f" d="M160,238.68a3,3,0,1,1,2.21-3.69A3.05,3.05,0,0,1,160,238.68Z" transform="translate(0 0.82)"/><path class="f" d="M152.63,236.92a3,3,0,1,1,2.21-3.69A3,3,0,0,1,152.63,236.92Z" transform="translate(0 0.82)"/><path class="f" d="M145.17,235.79a3,3,0,1,1,2.21-3.7A3,3,0,0,1,145.17,235.79Z" transform="translate(0 0.82)"/><path class="f" d="M202.45,256.55A3,3,0,1,1,204.6,253,3,3,0,0,1,202.45,256.55Z" transform="translate(0 0.82)"/><path class="f" d="M196.86,251.5a3,3,0,1,1,2.15-3.6A3,3,0,0,1,196.86,251.5Z" transform="translate(0 0.82)"/><path class="f" d="M190.89,246.89A3,3,0,1,1,193,243.3,3,3,0,0,1,190.89,246.89Z" transform="translate(0 0.82)"/><path class="f" d="M184.58,242.77a3,3,0,1,1,2.15-3.59A3,3,0,0,1,184.58,242.77Z" transform="translate(0 0.82)"/><path class="f" d="M178,239.16a3,3,0,1,1,2.15-3.59A3,3,0,0,1,178,239.16Z" transform="translate(0 0.82)"/><path class="f" d="M171.09,236.08a3,3,0,1,1,2.14-3.59A3,3,0,0,1,171.09,236.08Z" transform="translate(0 0.82)"/><path class="f" d="M164,233.55a3,3,0,1,1,2.14-3.6A3,3,0,0,1,164,233.55Z" transform="translate(0 0.82)"/><path class="f" d="M156.71,231.58a3,3,0,1,1,2.15-3.59A3,3,0,0,1,156.71,231.58Z" transform="translate(0 0.82)"/><path class="f" d="M149.3,230.19a3,3,0,1,1,2.15-3.59A2.95,2.95,0,0,1,149.3,230.19Z" transform="translate(0 0.82)"/><path class="f" d="M141.81,229.39a3,3,0,1,1,2.15-3.6A3,3,0,0,1,141.81,229.39Z" transform="translate(0 0.82)"/><path class="f" d="M211.51,257.31a2.89,2.89,0,1,1,2.1-3.51A2.89,2.89,0,0,1,211.51,257.31Z" transform="translate(0 0.82)"/><path class="f" d="M206.3,251.87a2.89,2.89,0,1,1,2.1-3.51A2.9,2.9,0,0,1,206.3,251.87Z" transform="translate(0 0.82)"/><path class="f" d="M200.69,246.83a2.9,2.9,0,1,1,2.11-3.52A2.89,2.89,0,0,1,200.69,246.83Z" transform="translate(0 0.82)"/><path class="f" d="M194.73,242.21a2.89,2.89,0,1,1,2.11-3.51A2.89,2.89,0,0,1,194.73,242.21Z" transform="translate(0 0.82)"/><path class="f" d="M188.45,238.05a2.9,2.9,0,1,1,2.1-3.52A2.89,2.89,0,0,1,188.45,238.05Z" transform="translate(0 0.82)"/><path class="f" d="M181.88,234.36a2.9,2.9,0,1,1,2.1-3.51A2.9,2.9,0,0,1,181.88,234.36Z" transform="translate(0 0.82)"/><path class="f" d="M175.05,231.17a2.9,2.9,0,1,1,2.1-3.52A2.9,2.9,0,0,1,175.05,231.17Z" transform="translate(0 0.82)"/><path class="f" d="M168,228.49a2.9,2.9,0,1,1,2.1-3.52A2.89,2.89,0,0,1,168,228.49Z" transform="translate(0 0.82)"/><path class="f" d="M160.78,226.34a2.9,2.9,0,1,1,2.1-3.52A2.9,2.9,0,0,1,160.78,226.34Z" transform="translate(0 0.82)"/><path class="f" d="M153.41,224.72a2.89,2.89,0,1,1,2.1-3.51A2.89,2.89,0,0,1,153.41,224.72Z" transform="translate(0 0.82)"/><path class="f" d="M146,223.66a2.9,2.9,0,1,1,2.1-3.51A2.89,2.89,0,0,1,146,223.66Z" transform="translate(0 0.82)"/><path class="f" d="M220.24,258.35a2.81,2.81,0,1,1,2-3.41A2.8,2.8,0,0,1,220.24,258.35Z" transform="translate(0 0.82)"/><path class="f" d="M215.38,252.59a2.81,2.81,0,1,1,2-3.42A2.82,2.82,0,0,1,215.38,252.59Z" transform="translate(0 0.82)"/><path class="f" d="M210.14,247.19a2.83,2.83,0,1,1,2.05-3.43A2.84,2.84,0,0,1,210.14,247.19Z" transform="translate(0 0.82)"/><path class="f" d="M204.52,242.14a2.81,2.81,0,1,1,2-3.41A2.8,2.8,0,0,1,204.52,242.14Z" transform="translate(0 0.82)"/><path class="f" d="M198.57,237.51a2.81,2.81,0,1,1,2-3.41A2.8,2.8,0,0,1,198.57,237.51Z" transform="translate(0 0.82)"/><path class="f" d="M192.31,233.31a2.81,2.81,0,1,1,2-3.41A2.81,2.81,0,0,1,192.31,233.31Z" transform="translate(0 0.82)"/><path class="f" d="M185.78,229.56a2.82,2.82,0,1,1,2-3.42A2.83,2.83,0,0,1,185.78,229.56Z" transform="translate(0 0.82)"/><path class="f" d="M179,226.27a2.81,2.81,0,1,1,2-3.42A2.82,2.82,0,0,1,179,226.27Z" transform="translate(0 0.82)"/><path class="f" d="M172,223.46a2.81,2.81,0,1,1,2-3.42A2.81,2.81,0,0,1,172,223.46Z" transform="translate(0 0.82)"/><path class="f" d="M164.83,221.16a2.83,2.83,0,1,1,2-3.43A2.83,2.83,0,0,1,164.83,221.16Z" transform="translate(0 0.82)"/><path class="f" d="M157.51,219.33a2.81,2.81,0,1,1,2-3.41A2.81,2.81,0,0,1,157.51,219.33Z" transform="translate(0 0.82)"/><path class="f" d="M150.08,218a2.81,2.81,0,1,1,2-3.41A2.8,2.8,0,0,1,150.08,218Z" transform="translate(0 0.82)"/><path class="f" d="M142.58,217.27a2.81,2.81,0,1,1,2-3.41A2.81,2.81,0,0,1,142.58,217.27Z" transform="translate(0 0.82)"/><path class="f" d="M228.68,259.63a2.75,2.75,0,1,1,2-3.33A2.74,2.74,0,0,1,228.68,259.63Z" transform="translate(0 0.82)"/><path class="f" d="M224.16,253.6a2.75,2.75,0,1,1,2-3.33A2.74,2.74,0,0,1,224.16,253.6Z" transform="translate(0 0.82)"/><path class="f" d="M219.25,247.88a2.75,2.75,0,1,1,2-3.33A2.74,2.74,0,0,1,219.25,247.88Z" transform="translate(0 0.82)"/><path class="f" d="M214,242.5a2.75,2.75,0,1,1,2-3.34A2.75,2.75,0,0,1,214,242.5Z" transform="translate(0 0.82)"/><path class="f" d="M208.35,237.47a2.74,2.74,0,1,1,2-3.33A2.74,2.74,0,0,1,208.35,237.47Z" transform="translate(0 0.82)"/><path class="f" d="M202.41,232.83a2.74,2.74,0,1,1,2-3.33A2.74,2.74,0,0,1,202.41,232.83Z" transform="translate(0 0.82)"/><path class="f" d="M196.17,228.6a2.75,2.75,0,1,1,2-3.33A2.75,2.75,0,0,1,196.17,228.6Z" transform="translate(0 0.82)"/><path class="f" d="M189.67,224.78a2.74,2.74,0,1,1,2-3.33A2.74,2.74,0,0,1,189.67,224.78Z" transform="translate(0 0.82)"/><path class="f" d="M182.93,221.4a2.74,2.74,0,1,1,2-3.33A2.74,2.74,0,0,1,182.93,221.4Z" transform="translate(0 0.82)"/><path class="f" d="M176,218.48a2.74,2.74,0,1,1,2-3.33A2.75,2.75,0,0,1,176,218.48Z" transform="translate(0 0.82)"/><path class="f" d="M168.86,216a2.74,2.74,0,1,1,2-3.33A2.74,2.74,0,0,1,168.86,216Z" transform="translate(0 0.82)"/><path class="f" d="M161.59,214a2.75,2.75,0,1,1,2-3.33A2.75,2.75,0,0,1,161.59,214Z" transform="translate(0 0.82)"/><path class="f" d="M154.2,212.54a2.74,2.74,0,1,1,2-3.33A2.74,2.74,0,0,1,154.2,212.54Z" transform="translate(0 0.82)"/><path class="f" d="M146.73,211.53a2.74,2.74,0,1,1,2-3.33A2.75,2.75,0,0,1,146.73,211.53Z" transform="translate(0 0.82)"/><path class="f" d="M232.66,254.82a2.67,2.67,0,1,1,1.93-3.24A2.67,2.67,0,0,1,232.66,254.82Z" transform="translate(0 0.82)"/><path class="f" d="M228.07,248.85a2.68,2.68,0,1,1,2-3.25A2.68,2.68,0,0,1,228.07,248.85Z" transform="translate(0 0.82)"/><path class="f" d="M223.11,243.16a2.67,2.67,0,1,1,1.94-3.23A2.67,2.67,0,0,1,223.11,243.16Z" transform="translate(0 0.82)"/><path class="f" d="M217.81,237.8a2.66,2.66,0,1,1,1.93-3.23A2.66,2.66,0,0,1,217.81,237.8Z" transform="translate(0 0.82)"/><path class="f" d="M212.18,232.79a2.66,2.66,0,1,1,1.93-3.23A2.66,2.66,0,0,1,212.18,232.79Z" transform="translate(0 0.82)"/><path class="f" d="M206.24,228.14a2.66,2.66,0,1,1,1.94-3.23A2.67,2.67,0,0,1,206.24,228.14Z" transform="translate(0 0.82)"/><path class="f" d="M200,223.87a2.66,2.66,0,1,1,1.93-3.23A2.66,2.66,0,0,1,200,223.87Z" transform="translate(0 0.82)"/><path class="f" d="M193.56,220a2.66,2.66,0,1,1,1.93-3.23A2.65,2.65,0,0,1,193.56,220Z" transform="translate(0 0.82)"/><path class="f" d="M186.86,216.55a2.67,2.67,0,1,1,1.93-3.23A2.66,2.66,0,0,1,186.86,216.55Z" transform="translate(0 0.82)"/><path class="f" d="M180,213.52a2.66,2.66,0,1,1,1.93-3.23A2.67,2.67,0,0,1,180,213.52Z" transform="translate(0 0.82)"/><path class="f" d="M172.88,210.93a2.66,2.66,0,1,1,1.93-3.23A2.67,2.67,0,0,1,172.88,210.93Z" transform="translate(0 0.82)"/><path class="f" d="M165.65,208.79a2.66,2.66,0,1,1,1.93-3.23A2.65,2.65,0,0,1,165.65,208.79Z" transform="translate(0 0.82)"/><path class="f" d="M158.3,207.13a2.68,2.68,0,1,1,1.95-3.25A2.68,2.68,0,0,1,158.3,207.13Z" transform="translate(0 0.82)"/><path class="f" d="M150.86,205.9a2.67,2.67,0,1,1,1.93-3.23A2.66,2.66,0,0,1,150.86,205.9Z" transform="translate(0 0.82)"/><path class="f" d="M143.36,205.17a2.68,2.68,0,1,1,1.94-3.25A2.68,2.68,0,0,1,143.36,205.17Z" transform="translate(0 0.82)"/><path class="f" d="M240.92,256.23a2.6,2.6,0,1,1,1.88-3.15A2.6,2.6,0,0,1,240.92,256.23Z" transform="translate(0 0.82)"/><path class="f" d="M236.63,250a2.59,2.59,0,1,1,1.88-3.15A2.59,2.59,0,0,1,236.63,250Z" transform="translate(0 0.82)"/><path class="f" d="M232,244.1a2.6,2.6,0,1,1,1.88-3.15A2.6,2.6,0,0,1,232,244.1Z" transform="translate(0 0.82)"/><path class="f" d="M227,238.46a2.6,2.6,0,1,1,1.88-3.15A2.6,2.6,0,0,1,227,238.46Z" transform="translate(0 0.82)"/><path class="f" d="M221.65,233.12a2.59,2.59,0,1,1,1.88-3.15A2.59,2.59,0,0,1,221.65,233.12Z" transform="translate(0 0.82)"/><path class="f" d="M216,228.12a2.59,2.59,0,1,1,1.88-3.15A2.59,2.59,0,0,1,216,228.12Z" transform="translate(0 0.82)"/><path class="f" d="M210.08,223.46a2.59,2.59,0,1,1,1.89-3.15A2.59,2.59,0,0,1,210.08,223.46Z" transform="translate(0 0.82)"/><path class="f" d="M203.89,219.17a2.6,2.6,0,1,1,1.88-3.15A2.6,2.6,0,0,1,203.89,219.17Z" transform="translate(0 0.82)"/><path class="f" d="M197.45,215.25a2.6,2.6,0,1,1,1.88-3.15A2.6,2.6,0,0,1,197.45,215.25Z" transform="translate(0 0.82)"/><path class="f" d="M190.78,211.72a2.59,2.59,0,1,1,1.89-3.15A2.59,2.59,0,0,1,190.78,211.72Z" transform="translate(0 0.82)"/><path class="f" d="M183.92,208.6a2.59,2.59,0,1,1,1.88-3.15A2.59,2.59,0,0,1,183.92,208.6Z" transform="translate(0 0.82)"/><path class="f" d="M176.88,205.9a2.6,2.6,0,1,1,1.89-3.15A2.6,2.6,0,0,1,176.88,205.9Z" transform="translate(0 0.82)"/><path class="f" d="M169.7,203.62a2.59,2.59,0,1,1,1.88-3.15A2.59,2.59,0,0,1,169.7,203.62Z" transform="translate(0 0.82)"/><path class="f" d="M162.39,201.77a2.59,2.59,0,1,1,1.88-3.15A2.59,2.59,0,0,1,162.39,201.77Z" transform="translate(0 0.82)"/><path class="f" d="M155,200.37a2.59,2.59,0,1,1,1.88-3.15A2.59,2.59,0,0,1,155,200.37Z" transform="translate(0 0.82)"/><path class="f" d="M147.5,199.41a2.59,2.59,0,1,1,1.89-3.15A2.59,2.59,0,0,1,147.5,199.41Z" transform="translate(0 0.82)"/><path class="f" d="M249,257.78a2.53,2.53,0,1,1,1.83-3.07A2.53,2.53,0,0,1,249,257.78Z" transform="translate(0 0.82)"/><path class="f" d="M245,251.4a2.53,2.53,0,1,1,1.84-3.07A2.53,2.53,0,0,1,245,251.4Z" transform="translate(0 0.82)"/><path class="f" d="M240.58,245.25a2.53,2.53,0,1,1,1.84-3.07A2.53,2.53,0,0,1,240.58,245.25Z" transform="translate(0 0.82)"/><path class="f" d="M235.87,239.37a2.53,2.53,0,1,1,1.84-3.07A2.53,2.53,0,0,1,235.87,239.37Z" transform="translate(0 0.82)"/><path class="f" d="M230.84,233.76a2.53,2.53,0,1,1,1.83-3.07A2.53,2.53,0,0,1,230.84,233.76Z" transform="translate(0 0.82)"/><circle class="f" cx="224.87" cy="225.99" r="2.53" transform="translate(-65.57 95.34) rotate(-20.79)"/><path class="f" d="M219.84,223.45a2.53,2.53,0,1,1,1.84-3.07A2.53,2.53,0,0,1,219.84,223.45Z" transform="translate(0 0.82)"/><path class="f" d="M213.92,218.78a2.53,2.53,0,1,1,1.83-3.07A2.53,2.53,0,0,1,213.92,218.78Z" transform="translate(0 0.82)"/><circle class="f" cx="207.12" cy="212.01" r="2.53" transform="translate(-61.76 88.13) rotate(-20.79)"/><circle class="f" cx="200.71" cy="208.05" r="2.53" transform="translate(-67.36 100.66) rotate(-24.05)"/><path class="f" d="M194.7,206.91a2.53,2.53,0,1,1,1.83-3.07A2.53,2.53,0,0,1,194.7,206.91Z" transform="translate(0 0.82)"/><path class="f" d="M187.87,203.71a2.53,2.53,0,1,1,1.84-3.07A2.53,2.53,0,0,1,187.87,203.71Z" transform="translate(0 0.82)"/><path class="f" d="M180.88,200.9a2.53,2.53,0,1,1,1.83-3.07A2.53,2.53,0,0,1,180.88,200.9Z" transform="translate(0 0.82)"/><path class="f" d="M173.73,198.49a2.53,2.53,0,1,1,1.84-3.07A2.52,2.52,0,0,1,173.73,198.49Z" transform="translate(0 0.82)"/><path class="f" d="M166.46,196.5a2.53,2.53,0,1,1,1.84-3.07A2.53,2.53,0,0,1,166.46,196.5Z" transform="translate(0 0.82)"/><path class="f" d="M159.09,194.93a2.53,2.53,0,1,1,1.84-3.07A2.54,2.54,0,0,1,159.09,194.93Z" transform="translate(0 0.82)"/><path class="f" d="M151.64,193.77a2.53,2.53,0,1,1,1.84-3.07A2.53,2.53,0,0,1,151.64,193.77Z" transform="translate(0 0.82)"/><path class="f" d="M144.14,193.05A2.53,2.53,0,1,1,146,190,2.53,2.53,0,0,1,144.14,193.05Z" transform="translate(0 0.82)"/><path class="f" d="M256.8,259.45a2.46,2.46,0,1,1,1.79-3A2.45,2.45,0,0,1,256.8,259.45Z" transform="translate(0 0.82)"/><path class="f" d="M253.06,252.91a2.47,2.47,0,1,1,1.78-3A2.46,2.46,0,0,1,253.06,252.91Z" transform="translate(0 0.82)"/><path class="f" d="M249,246.58a2.46,2.46,0,1,1,1.79-3A2.46,2.46,0,0,1,249,246.58Z" transform="translate(0 0.82)"/><path class="f" d="M244.53,240.48a2.46,2.46,0,1,1,1.78-3A2.45,2.45,0,0,1,244.53,240.48Z" transform="translate(0 0.82)"/><path class="f" d="M239.77,234.64a2.47,2.47,0,1,1,1.78-3A2.46,2.46,0,0,1,239.77,234.64Z" transform="translate(0 0.82)"/><path class="f" d="M234.69,229.06a2.46,2.46,0,1,1,1.79-3A2.47,2.47,0,0,1,234.69,229.06Z" transform="translate(0 0.82)"/><path class="f" d="M229.32,223.77a2.46,2.46,0,1,1,1.79-3A2.46,2.46,0,0,1,229.32,223.77Z" transform="translate(0 0.82)"/><path class="f" d="M223.67,218.78a2.46,2.46,0,1,1,1.79-3A2.46,2.46,0,0,1,223.67,218.78Z" transform="translate(0 0.82)"/><path class="f" d="M217.76,214.11a2.47,2.47,0,1,1,1.78-3A2.46,2.46,0,0,1,217.76,214.11Z" transform="translate(0 0.82)"/><path class="f" d="M211.59,209.76a2.46,2.46,0,1,1,1.79-3A2.44,2.44,0,0,1,211.59,209.76Z" transform="translate(0 0.82)"/><path class="f" d="M205.2,205.76a2.46,2.46,0,1,1,1.79-3A2.46,2.46,0,0,1,205.2,205.76Z" transform="translate(0 0.82)"/><path class="f" d="M198.61,202.12a2.47,2.47,0,1,1,1.78-3A2.46,2.46,0,0,1,198.61,202.12Z" transform="translate(0 0.82)"/><path class="f" d="M191.82,198.84a2.46,2.46,0,1,1,1.79-3A2.46,2.46,0,0,1,191.82,198.84Z" transform="translate(0 0.82)"/><path class="f" d="M184.86,195.93a2.46,2.46,0,1,1,1.79-3A2.46,2.46,0,0,1,184.86,195.93Z" transform="translate(0 0.82)"/><path class="f" d="M177.76,193.41a2.46,2.46,0,1,1,1.78-3A2.46,2.46,0,0,1,177.76,193.41Z" transform="translate(0 0.82)"/><path class="f" d="M170.52,191.28a2.46,2.46,0,1,1,1.79-3A2.46,2.46,0,0,1,170.52,191.28Z" transform="translate(0 0.82)"/><path class="f" d="M163.19,189.55a2.46,2.46,0,1,1,1.78-3A2.46,2.46,0,0,1,163.19,189.55Z" transform="translate(0 0.82)"/><path class="f" d="M155.77,188.22a2.46,2.46,0,1,1,1.78-3A2.45,2.45,0,0,1,155.77,188.22Z" transform="translate(0 0.82)"/><path class="f" d="M148.28,187.3a2.46,2.46,0,1,1,1.79-3A2.46,2.46,0,0,1,148.28,187.3Z" transform="translate(0 0.82)"/><path class="f" d="M140.76,186.79a2.46,2.46,0,1,1,1.79-3A2.45,2.45,0,0,1,140.76,186.79Z" transform="translate(0 0.82)"/><path class="f" d="M261,254.52a2.38,2.38,0,1,1,1.72-2.88A2.38,2.38,0,0,1,261,254.52Z" transform="translate(0 0.82)"/><path class="f" d="M257.13,248a2.38,2.38,0,1,1,1.72-2.89A2.38,2.38,0,0,1,257.13,248Z" transform="translate(0 0.82)"/><path class="f" d="M253,241.76a2.38,2.38,0,1,1,1.73-2.89A2.39,2.39,0,0,1,253,241.76Z" transform="translate(0 0.82)"/><path class="f" d="M248.46,235.71a2.38,2.38,0,1,1,1.72-2.89A2.38,2.38,0,0,1,248.46,235.71Z" transform="translate(0 0.82)"/><path class="f" d="M243.65,229.9a2.38,2.38,0,1,1,1.72-2.89A2.38,2.38,0,0,1,243.65,229.9Z" transform="translate(0 0.82)"/><path class="f" d="M238.54,224.35a2.38,2.38,0,1,1,1.73-2.88A2.39,2.39,0,0,1,238.54,224.35Z" transform="translate(0 0.82)"/><path class="f" d="M233.15,219.08a2.38,2.38,0,1,1,1.73-2.89A2.37,2.37,0,0,1,233.15,219.08Z" transform="translate(0 0.82)"/><path class="f" d="M227.5,214.1a2.38,2.38,0,1,1,1.72-2.89A2.38,2.38,0,0,1,227.5,214.1Z" transform="translate(0 0.82)"/><path class="f" d="M221.59,209.42a2.38,2.38,0,1,1,1.72-2.89A2.38,2.38,0,0,1,221.59,209.42Z" transform="translate(0 0.82)"/><path class="f" d="M215.44,205.05a2.38,2.38,0,1,1,1.73-2.89A2.38,2.38,0,0,1,215.44,205.05Z" transform="translate(0 0.82)"/><path class="f" d="M209.07,201a2.38,2.38,0,1,1,1.73-2.88A2.37,2.37,0,0,1,209.07,201Z" transform="translate(0 0.82)"/><path class="f" d="M202.5,197.31a2.38,2.38,0,1,1,1.73-2.88A2.36,2.36,0,0,1,202.5,197.31Z" transform="translate(0 0.82)"/><path class="f" d="M195.75,194a2.38,2.38,0,1,1,1.73-2.89A2.39,2.39,0,0,1,195.75,194Z" transform="translate(0 0.82)"/><path class="f" d="M188.83,191a2.38,2.38,0,1,1,1.73-2.88A2.38,2.38,0,0,1,188.83,191Z" transform="translate(0 0.82)"/><path class="f" d="M181.76,188.35a2.38,2.38,0,1,1,1.73-2.89A2.37,2.37,0,0,1,181.76,188.35Z" transform="translate(0 0.82)"/><path class="f" d="M174.57,186.1a2.38,2.38,0,1,1,1.73-2.89A2.38,2.38,0,0,1,174.57,186.1Z" transform="translate(0 0.82)"/><path class="f" d="M167.27,184.22a2.38,2.38,0,1,1,1.72-2.88A2.38,2.38,0,0,1,167.27,184.22Z" transform="translate(0 0.82)"/><path class="f" d="M159.88,182.74a2.38,2.38,0,1,1,1.72-2.89A2.38,2.38,0,0,1,159.88,182.74Z" transform="translate(0 0.82)"/><path class="f" d="M152.42,181.64a2.38,2.38,0,1,1,1.72-2.89A2.38,2.38,0,0,1,152.42,181.64Z" transform="translate(0 0.82)"/><path class="f" d="M144.91,180.93a2.38,2.38,0,1,1,1.73-2.89A2.38,2.38,0,0,1,144.91,180.93Z" transform="translate(0 0.82)"/><path class="f" d="M268.71,256.25a2.32,2.32,0,1,1,1.68-2.81A2.32,2.32,0,0,1,268.71,256.25Z" transform="translate(0 0.82)"/><circle class="f" cx="264.54" cy="247.38" r="2.31" transform="matrix(0.51, -0.86, 0.86, 0.51, -83.55, 348.28)"/><circle class="f" cx="260.62" cy="240.95" r="2.31" transform="translate(-79.94 341.78) rotate(-59.12)"/><path class="f" d="M256.93,237a2.31,2.31,0,1,1,1.68-2.81A2.31,2.31,0,0,1,256.93,237Z" transform="translate(0 0.82)"/><circle class="f" cx="251.82" cy="228.71" r="2.31" transform="matrix(0.51, -0.86, 0.86, 0.51, -73.72, 328.27)"/><path class="f" d="M247.53,225.18a2.31,2.31,0,1,1,1.68-2.81A2.32,2.32,0,0,1,247.53,225.18Z" transform="translate(0 0.82)"/><path class="f" d="M242.4,219.66a2.31,2.31,0,1,1,1.67-2.81A2.32,2.32,0,0,1,242.4,219.66Z" transform="translate(0 0.82)"/><path class="f" d="M237,214.41a2.32,2.32,0,1,1,1.68-2.81A2.32,2.32,0,0,1,237,214.41Z" transform="translate(0 0.82)"/><circle class="f" cx="230.76" cy="207.18" r="2.31" transform="translate(-65.49 299.72) rotate(-59.12)"/><circle class="f" cx="224.86" cy="202.5" r="2.31" transform="translate(-64.34 292.37) rotate(-59.12)"/><circle class="f" cx="218.73" cy="198.11" r="2.31" transform="matrix(0.51, -0.86, 0.86, 0.51, -63.56, 284.98)"/><circle class="f" cx="212.38" cy="194.04" r="2.31" transform="translate(-63.16 277.55) rotate(-59.12)"/><path class="f" d="M206.4,192.54a2.32,2.32,0,1,1,1.68-2.81A2.31,2.31,0,0,1,206.4,192.54Z" transform="translate(0 0.82)"/><path class="f" d="M199.68,189.13a2.32,2.32,0,1,1,1.68-2.81A2.32,2.32,0,0,1,199.68,189.13Z" transform="translate(0 0.82)"/><path class="f" d="M192.8,186.05a2.31,2.31,0,1,1,1.67-2.8A2.31,2.31,0,0,1,192.8,186.05Z" transform="translate(0 0.82)"/><circle class="f" cx="185.2" cy="181.09" r="2.31" transform="translate(-65.27 247.92) rotate(-59.12)"/><path class="f" d="M178.61,181a2.32,2.32,0,1,1,1.67-2.81A2.32,2.32,0,0,1,178.61,181Z" transform="translate(0 0.82)"/><path class="f" d="M171.34,179a2.32,2.32,0,1,1,1.68-2.81A2.32,2.32,0,0,1,171.34,179Z" transform="translate(0 0.82)"/><circle class="f" cx="163.41" cy="175.09" r="2.31" transform="translate(-70.73 226.3) rotate(-59.12)"/><circle class="f" cx="155.98" cy="173.83" r="2.31" transform="translate(-73.26 219.3) rotate(-59.12)"/><path class="f" d="M149.06,175.18a2.31,2.31,0,1,1,1.68-2.8A2.32,2.32,0,0,1,149.06,175.18Z" transform="translate(0 0.82)"/><path class="f" d="M141.54,174.67a2.31,2.31,0,1,1,1.68-2.8A2.32,2.32,0,0,1,141.54,174.67Z" transform="translate(0 0.82)"/><path class="f" d="M272.92,251.31a2.24,2.24,0,1,1,1.63-2.72A2.24,2.24,0,0,1,272.92,251.31Z" transform="translate(0 0.82)"/><path class="f" d="M269.22,244.74a2.24,2.24,0,1,1,1.63-2.72A2.23,2.23,0,0,1,269.22,244.74Z" transform="translate(0 0.82)"/><path class="f" d="M265.21,238.36a2.25,2.25,0,1,1,1.63-2.73A2.24,2.24,0,0,1,265.21,238.36Z" transform="translate(0 0.82)"/><path class="f" d="M260.9,232.17a2.24,2.24,0,1,1,1.63-2.72A2.23,2.23,0,0,1,260.9,232.17Z" transform="translate(0 0.82)"/><path class="f" d="M256.3,226.21a2.25,2.25,0,1,1,1.63-2.73A2.25,2.25,0,0,1,256.3,226.21Z" transform="translate(0 0.82)"/><path class="f" d="M251.41,220.47a2.25,2.25,0,1,1,1.63-2.73A2.25,2.25,0,0,1,251.41,220.47Z" transform="translate(0 0.82)"/><path class="f" d="M246.25,215a2.25,2.25,0,1,1,1.63-2.73A2.25,2.25,0,0,1,246.25,215Z" transform="translate(0 0.82)"/><path class="f" d="M240.83,209.73a2.25,2.25,0,1,1,1.63-2.73A2.25,2.25,0,0,1,240.83,209.73Z" transform="translate(0 0.82)"/><path class="f" d="M235.16,204.76a2.25,2.25,0,1,1,1.63-2.73A2.26,2.26,0,0,1,235.16,204.76Z" transform="translate(0 0.82)"/><path class="f" d="M229.26,200.07a2.25,2.25,0,1,1,1.63-2.73A2.25,2.25,0,0,1,229.26,200.07Z" transform="translate(0 0.82)"/><path class="f" d="M223.14,195.66a2.24,2.24,0,1,1,1.63-2.72A2.24,2.24,0,0,1,223.14,195.66Z" transform="translate(0 0.82)"/><path class="f" d="M216.81,191.56a2.24,2.24,0,1,1,1.63-2.72A2.23,2.23,0,0,1,216.81,191.56Z" transform="translate(0 0.82)"/><path class="f" d="M210.3,187.77a2.24,2.24,0,1,1,1.63-2.72A2.25,2.25,0,0,1,210.3,187.77Z" transform="translate(0 0.82)"/><path class="f" d="M203.6,184.3a2.25,2.25,0,1,1,1.63-2.73A2.24,2.24,0,0,1,203.6,184.3Z" transform="translate(0 0.82)"/><path class="f" d="M196.75,181.16a2.25,2.25,0,1,1,1.63-2.73A2.26,2.26,0,0,1,196.75,181.16Z" transform="translate(0 0.82)"/><path class="f" d="M189.75,178.35a2.25,2.25,0,1,1,1.64-2.73A2.24,2.24,0,0,1,189.75,178.35Z" transform="translate(0 0.82)"/><path class="f" d="M182.63,175.88a2.25,2.25,0,1,1,1.63-2.73A2.24,2.24,0,0,1,182.63,175.88Z" transform="translate(0 0.82)"/><path class="f" d="M175.4,173.76A2.25,2.25,0,1,1,177,171,2.25,2.25,0,0,1,175.4,173.76Z" transform="translate(0 0.82)"/><path class="f" d="M168.07,172a2.25,2.25,0,1,1,1.63-2.73A2.25,2.25,0,0,1,168.07,172Z" transform="translate(0 0.82)"/><path class="f" d="M160.66,170.58a2.25,2.25,0,1,1,1.63-2.73A2.24,2.24,0,0,1,160.66,170.58Z" transform="translate(0 0.82)"/><path class="f" d="M153.2,169.52a2.24,2.24,0,1,1,1.63-2.72A2.25,2.25,0,0,1,153.2,169.52Z" transform="translate(0 0.82)"/><path class="f" d="M145.69,168.83a2.25,2.25,0,1,1,1.63-2.73A2.26,2.26,0,0,1,145.69,168.83Z" transform="translate(0 0.82)"/><path class="f" d="M277.1,246.4a2.18,2.18,0,1,1-1.06-4.23,2.18,2.18,0,0,1,1.06,4.23Z" transform="translate(0 0.82)"/><path class="f" d="M273.32,239.87a2.18,2.18,0,1,1,1.58-2.64A2.17,2.17,0,0,1,273.32,239.87Z" transform="translate(0 0.82)"/><path class="f" d="M269.23,233.54a2.18,2.18,0,1,1,1.58-2.65A2.18,2.18,0,0,1,269.23,233.54Z" transform="translate(0 0.82)"/><path class="f" d="M264.86,227.38a2.17,2.17,0,1,1,1.57-2.63A2.17,2.17,0,0,1,264.86,227.38Z" transform="translate(0 0.82)"/><path class="f" d="M260.2,221.45a2.16,2.16,0,1,1,1.57-2.63A2.16,2.16,0,0,1,260.2,221.45Z" transform="translate(0 0.82)"/><path class="f" d="M255.28,215.76a2.18,2.18,0,1,1,1.58-2.65A2.18,2.18,0,0,1,255.28,215.76Z" transform="translate(0 0.82)"/><path class="f" d="M250.09,210.27a2.16,2.16,0,1,1,1.57-2.63A2.16,2.16,0,0,1,250.09,210.27Z" transform="translate(0 0.82)"/><path class="f" d="M244.66,205a2.16,2.16,0,1,1,1.57-2.62A2.17,2.17,0,0,1,244.66,205Z" transform="translate(0 0.82)"/><path class="f" d="M239,200.09a2.18,2.18,0,1,1,1.58-2.65A2.19,2.19,0,0,1,239,200.09Z" transform="translate(0 0.82)"/><path class="f" d="M233.09,195.39a2.18,2.18,0,0,1-1.06-4.23,2.18,2.18,0,1,1,1.06,4.23Z" transform="translate(0 0.82)"/><path class="f" d="M227,191a2.16,2.16,0,1,1,1.57-2.63A2.16,2.16,0,0,1,227,191Z" transform="translate(0 0.82)"/><path class="f" d="M220.68,186.84a2.18,2.18,0,1,1,1.58-2.64A2.18,2.18,0,0,1,220.68,186.84Z" transform="translate(0 0.82)"/><path class="f" d="M214.18,183a2.17,2.17,0,1,1,1.57-2.63A2.16,2.16,0,0,1,214.18,183Z" transform="translate(0 0.82)"/><path class="f" d="M207.52,179.47a2.16,2.16,0,1,1,1.57-2.62A2.17,2.17,0,0,1,207.52,179.47Z" transform="translate(0 0.82)"/><circle class="f" cx="200.17" cy="174.16" r="2.16" transform="translate(-26.77 312.46) rotate(-72.23)"/><path class="f" d="M193.74,173.38a2.18,2.18,0,1,1,1.58-2.64A2.17,2.17,0,0,1,193.74,173.38Z" transform="translate(0 0.82)"/><path class="f" d="M186.64,170.8a2.16,2.16,0,1,1,1.57-2.62A2.15,2.15,0,0,1,186.64,170.8Z" transform="translate(0 0.82)"/><path class="f" d="M179.44,168.57A2.16,2.16,0,1,1,181,166,2.15,2.15,0,0,1,179.44,168.57Z" transform="translate(0 0.82)"/><path class="f" d="M172.14,166.68a2.16,2.16,0,1,1,1.57-2.63A2.16,2.16,0,0,1,172.14,166.68Z" transform="translate(0 0.82)"/><path class="f" d="M164.77,165.14a2.18,2.18,0,1,1,1.58-2.64A2.18,2.18,0,0,1,164.77,165.14Z" transform="translate(0 0.82)"/><path class="f" d="M157.32,163.92a2.16,2.16,0,1,1,1.57-2.62A2.16,2.16,0,0,1,157.32,163.92Z" transform="translate(0 0.82)"/><path class="f" d="M149.83,163.06a2.16,2.16,0,1,1,1.57-2.62A2.16,2.16,0,0,1,149.83,163.06Z" transform="translate(0 0.82)"/><path class="f" d="M142.32,162.57a2.18,2.18,0,1,1,1.58-2.65A2.19,2.19,0,0,1,142.32,162.57Z" transform="translate(0 0.82)"/><path class="f" d="M277.39,235a2.11,2.11,0,1,1-1-4.1,2.11,2.11,0,0,1,1,4.1Z" transform="translate(0 0.82)"/><path class="f" d="M273.24,228.72a2.11,2.11,0,1,1,1.53-2.56A2.12,2.12,0,0,1,273.24,228.72Z" transform="translate(0 0.82)"/><path class="f" d="M268.81,222.62a2.11,2.11,0,1,1,1.53-2.56A2.12,2.12,0,0,1,268.81,222.62Z" transform="translate(0 0.82)"/><path class="f" d="M264.11,216.73a2.11,2.11,0,1,1-1-4.1,2.11,2.11,0,0,1,1,4.1Z" transform="translate(0 0.82)"/><path class="f" d="M259.15,211.05a2.11,2.11,0,1,1,1.54-2.57A2.12,2.12,0,0,1,259.15,211.05Z" transform="translate(0 0.82)"/><path class="f" d="M253.94,205.6a2.11,2.11,0,1,1,1.54-2.57A2.12,2.12,0,0,1,253.94,205.6Z" transform="translate(0 0.82)"/><path class="f" d="M248.5,200.38a2.11,2.11,0,1,1,1.53-2.56A2.11,2.11,0,0,1,248.5,200.38Z" transform="translate(0 0.82)"/><path class="f" d="M242.82,195.42a2.11,2.11,0,1,1,1.53-2.56A2.1,2.1,0,0,1,242.82,195.42Z" transform="translate(0 0.82)"/><path class="f" d="M236.93,190.72a2.11,2.11,0,1,1-1-4.1,2.11,2.11,0,0,1,1,4.1Z" transform="translate(0 0.82)"/><path class="f" d="M230.83,186.28a2.11,2.11,0,1,1,1.53-2.56A2.1,2.1,0,0,1,230.83,186.28Z" transform="translate(0 0.82)"/><path class="f" d="M224.54,182.13a2.11,2.11,0,1,1,1.53-2.57A2.11,2.11,0,0,1,224.54,182.13Z" transform="translate(0 0.82)"/><path class="f" d="M218.07,178.26a2.11,2.11,0,1,1,1.53-2.57A2.12,2.12,0,0,1,218.07,178.26Z" transform="translate(0 0.82)"/><path class="f" d="M211.43,174.68a2.11,2.11,0,1,1,1.54-2.56A2.1,2.1,0,0,1,211.43,174.68Z" transform="translate(0 0.82)"/><path class="f" d="M204.64,171.41a2.11,2.11,0,1,1,1.53-2.56A2.11,2.11,0,0,1,204.64,171.41Z" transform="translate(0 0.82)"/><path class="f" d="M197.71,168.44a2.11,2.11,0,1,1,1.53-2.56A2.12,2.12,0,0,1,197.71,168.44Z" transform="translate(0 0.82)"/><path class="f" d="M190.65,165.79a2.11,2.11,0,0,1-1-4.1,2.11,2.11,0,1,1,1,4.1Z" transform="translate(0 0.82)"/><path class="f" d="M183.48,163.46A2.11,2.11,0,1,1,185,160.9,2.11,2.11,0,0,1,183.48,163.46Z" transform="translate(0 0.82)"/><path class="f" d="M176.22,161.45a2.11,2.11,0,1,1,1.53-2.56A2.11,2.11,0,0,1,176.22,161.45Z" transform="translate(0 0.82)"/><path class="f" d="M168.87,159.77a2.11,2.11,0,1,1,1.53-2.56A2.11,2.11,0,0,1,168.87,159.77Z" transform="translate(0 0.82)"/><path class="f" d="M161.45,158.42a2.11,2.11,0,1,1,1.53-2.56A2.12,2.12,0,0,1,161.45,158.42Z" transform="translate(0 0.82)"/><path class="f" d="M154,157.41a2.11,2.11,0,1,1-1-4.1,2.11,2.11,0,0,1,1,4.1Z" transform="translate(0 0.82)"/><path class="f" d="M146.47,156.73a2.11,2.11,0,1,1,1.53-2.57A2.11,2.11,0,0,1,146.47,156.73Z" transform="translate(0 0.82)"/><path class="f" d="M277.22,223.9a2,2,0,1,1,1.48-2.46A2,2,0,0,1,277.22,223.9Z" transform="translate(0 0.82)"/><path class="f" d="M272.74,217.84a2,2,0,1,1,1.48-2.46A2,2,0,0,1,272.74,217.84Z" transform="translate(0 0.82)"/><path class="f" d="M268,212a2,2,0,1,1,1.48-2.47A2,2,0,0,1,268,212Z" transform="translate(0 0.82)"/><path class="f" d="M263,206.32a2,2,0,1,1,1.47-2.46A2,2,0,0,1,263,206.32Z" transform="translate(0 0.82)"/><path class="f" d="M257.79,200.89a2,2,0,1,1,1.47-2.46A2,2,0,0,1,257.79,200.89Z" transform="translate(0 0.82)"/><path class="f" d="M252.33,195.69a2,2,0,1,1,1.47-2.46A2,2,0,0,1,252.33,195.69Z" transform="translate(0 0.82)"/><path class="f" d="M246.65,190.74a2,2,0,1,1,1.47-2.47A2,2,0,0,1,246.65,190.74Z" transform="translate(0 0.82)"/><path class="f" d="M240.76,186a2,2,0,1,1,1.47-2.47A2,2,0,0,1,240.76,186Z" transform="translate(0 0.82)"/><path class="f" d="M234.67,181.58a2,2,0,1,1,1.47-2.46A2,2,0,0,1,234.67,181.58Z" transform="translate(0 0.82)"/><path class="f" d="M228.4,177.4a2,2,0,1,1,1.47-2.46A2,2,0,0,1,228.4,177.4Z" transform="translate(0 0.82)"/><path class="f" d="M222,173.5a2,2,0,1,1,1.47-2.47A2,2,0,0,1,222,173.5Z" transform="translate(0 0.82)"/><path class="f" d="M215.33,169.87a2,2,0,1,1,1.48-2.46A2,2,0,0,1,215.33,169.87Z" transform="translate(0 0.82)"/><path class="f" d="M208.57,166.54a2,2,0,1,1,1.47-2.46A2,2,0,0,1,208.57,166.54Z" transform="translate(0 0.82)"/><path class="f" d="M201.67,163.51a2,2,0,1,1,1.47-2.47A2,2,0,0,1,201.67,163.51Z" transform="translate(0 0.82)"/><path class="f" d="M194.64,160.77a2,2,0,1,1,1.48-2.46A2,2,0,0,1,194.64,160.77Z" transform="translate(0 0.82)"/><path class="f" d="M187.51,158.35a2,2,0,1,1,1.47-2.47A2,2,0,0,1,187.51,158.35Z" transform="translate(0 0.82)"/><path class="f" d="M180.27,156.23a2,2,0,1,1,1.47-2.46A2,2,0,0,1,180.27,156.23Z" transform="translate(0 0.82)"/><path class="f" d="M173,154.43a2,2,0,1,1,1.47-2.46A2,2,0,0,1,173,154.43Z" transform="translate(0 0.82)"/><path class="f" d="M165.56,153a2,2,0,1,1,1.47-2.46A2,2,0,0,1,165.56,153Z" transform="translate(0 0.82)"/><path class="f" d="M158.11,151.79a2,2,0,1,1,1.47-2.46A2,2,0,0,1,158.11,151.79Z" transform="translate(0 0.82)"/><circle class="f" cx="150.12" cy="148.99" r="2.03" transform="translate(-42.05 61.47) rotate(-20.09)"/><path class="f" d="M143.09,150.45a2,2,0,1,1,1.47-2.47A2,2,0,0,1,143.09,150.45Z" transform="translate(0 0.82)"/><path class="f" d="M281.2,219.11a2,2,0,1,1,1.43-2.38A2,2,0,0,1,281.2,219.11Z" transform="translate(0 0.82)"/><path class="f" d="M276.68,213.08a2,2,0,1,1,1.42-2.38A2,2,0,0,1,276.68,213.08Z" transform="translate(0 0.82)"/><path class="f" d="M271.9,207.25a2,2,0,1,1,1.42-2.38A2,2,0,0,1,271.9,207.25Z" transform="translate(0 0.82)"/><path class="f" d="M266.88,201.62a2,2,0,0,1-1-3.81,2,2,0,1,1,1,3.81Z" transform="translate(0 0.82)"/><path class="f" d="M261.63,196.21a2,2,0,1,1,1.43-2.38A2,2,0,0,1,261.63,196.21Z" transform="translate(0 0.82)"/><path class="f" d="M256.16,191a2,2,0,0,1-1-3.81,2,2,0,1,1,1,3.81Z" transform="translate(0 0.82)"/><path class="f" d="M250.48,186.07a2,2,0,1,1,1.42-2.39A2,2,0,0,1,250.48,186.07Z" transform="translate(0 0.82)"/><path class="f" d="M244.59,181.36A2,2,0,1,1,246,179,2,2,0,0,1,244.59,181.36Z" transform="translate(0 0.82)"/><path class="f" d="M238.51,176.89a2,2,0,1,1,1.43-2.38A2,2,0,0,1,238.51,176.89Z" transform="translate(0 0.82)"/><path class="f" d="M232.26,172.69a2,2,0,1,1,1.42-2.38A2,2,0,0,1,232.26,172.69Z" transform="translate(0 0.82)"/><path class="f" d="M225.83,168.75a2,2,0,1,1,1.42-2.38A2,2,0,0,1,225.83,168.75Z" transform="translate(0 0.82)"/><path class="f" d="M219.24,165.11a2,2,0,1,1,1.44-2.41A2,2,0,0,1,219.24,165.11Z" transform="translate(0 0.82)"/><path class="f" d="M212.5,161.7a2,2,0,1,1,1.43-2.38A2,2,0,0,1,212.5,161.7Z" transform="translate(0 0.82)"/><path class="f" d="M205.63,158.6a2,2,0,1,1,1.42-2.38A2,2,0,0,1,205.63,158.6Z" transform="translate(0 0.82)"/><path class="f" d="M198.63,155.8a2,2,0,1,1,1.43-2.39A2,2,0,0,1,198.63,155.8Z" transform="translate(0 0.82)"/><path class="f" d="M191.52,153.28A2,2,0,1,1,193,150.9,2,2,0,0,1,191.52,153.28Z" transform="translate(0 0.82)"/><path class="f" d="M184.32,151.07a2,2,0,1,1-1-3.81,2,2,0,0,1,1,3.81Z" transform="translate(0 0.82)"/><path class="f" d="M177,149.16a2,2,0,1,1,1.43-2.39A2,2,0,0,1,177,149.16Z" transform="translate(0 0.82)"/><path class="f" d="M169.66,147.55a2,2,0,1,1,1.42-2.38A2,2,0,0,1,169.66,147.55Z" transform="translate(0 0.82)"/><path class="f" d="M162.23,146.26a2,2,0,1,1,1.42-2.38A2,2,0,0,1,162.23,146.26Z" transform="translate(0 0.82)"/><path class="f" d="M154.75,145.28a2,2,0,1,1,1.43-2.38A2,2,0,0,1,154.75,145.28Z" transform="translate(0 0.82)"/><path class="f" d="M147.25,144.61a2,2,0,1,1,1.42-2.38A2,2,0,0,1,147.25,144.61Z" transform="translate(0 0.82)"/><path class="f" d="M139.71,144.26a2,2,0,1,1,1.43-2.38A2,2,0,0,1,139.71,144.26Z" transform="translate(0 0.82)"/><path class="f" d="M280.6,208.33A1.9,1.9,0,1,1,282,206,1.89,1.89,0,0,1,280.6,208.33Z" transform="translate(0 0.82)"/><path class="f" d="M275.79,202.52a1.9,1.9,0,1,1,1.37-2.3A1.89,1.89,0,0,1,275.79,202.52Z" transform="translate(0 0.82)"/><path class="f" d="M270.74,196.92a1.9,1.9,0,1,1,1.38-2.3A1.9,1.9,0,0,1,270.74,196.92Z" transform="translate(0 0.82)"/><path class="f" d="M265.48,191.52a1.89,1.89,0,1,1,1.37-2.3A1.9,1.9,0,0,1,265.48,191.52Z" transform="translate(0 0.82)"/><path class="f" d="M260,186.35a1.9,1.9,0,1,1-.93-3.68,1.9,1.9,0,0,1,.93,3.68Z" transform="translate(0 0.82)"/><path class="f" d="M254.31,181.4a1.9,1.9,0,1,1,1.38-2.3A1.89,1.89,0,0,1,254.31,181.4Z" transform="translate(0 0.82)"/><path class="f" d="M248.43,176.68a1.9,1.9,0,1,1,1.37-2.3A1.9,1.9,0,0,1,248.43,176.68Z" transform="translate(0 0.82)"/><path class="f" d="M242.36,172.21a1.9,1.9,0,1,1,1.37-2.3A1.89,1.89,0,0,1,242.36,172.21Z" transform="translate(0 0.82)"/><path class="f" d="M236.11,168a1.89,1.89,0,1,1,1.38-2.3A1.9,1.9,0,0,1,236.11,168Z" transform="translate(0 0.82)"/><path class="f" d="M229.7,164a1.9,1.9,0,1,1,1.38-2.3A1.9,1.9,0,0,1,229.7,164Z" transform="translate(0 0.82)"/><path class="f" d="M223.14,160.31a1.9,1.9,0,1,1,1.37-2.3A1.9,1.9,0,0,1,223.14,160.31Z" transform="translate(0 0.82)"/><path class="f" d="M216.42,156.88a1.9,1.9,0,1,1,1.38-2.3A1.9,1.9,0,0,1,216.42,156.88Z" transform="translate(0 0.82)"/><path class="f" d="M209.58,153.72a1.9,1.9,0,1,1,1.38-2.3A1.89,1.89,0,0,1,209.58,153.72Z" transform="translate(0 0.82)"/><path class="f" d="M202.61,150.84a1.9,1.9,0,1,1,1.38-2.3A1.9,1.9,0,0,1,202.61,150.84Z" transform="translate(0 0.82)"/><path class="f" d="M195.53,148.24a1.9,1.9,0,1,1,1.38-2.3A1.9,1.9,0,0,1,195.53,148.24Z" transform="translate(0 0.82)"/><path class="f" d="M188.36,145.94a1.92,1.92,0,0,1-2.31-1.38,1.9,1.9,0,1,1,2.31,1.38Z" transform="translate(0 0.82)"/><path class="f" d="M181.09,143.92a1.9,1.9,0,0,1-.93-3.68,1.9,1.9,0,1,1,.93,3.68Z" transform="translate(0 0.82)"/><path class="f" d="M173.75,142.2a1.9,1.9,0,0,1-.93-3.68,1.9,1.9,0,1,1,.93,3.68Z" transform="translate(0 0.82)"/><path class="f" d="M166.34,140.78a1.89,1.89,0,1,1,1.38-2.3A1.9,1.9,0,0,1,166.34,140.78Z" transform="translate(0 0.82)"/><path class="f" d="M158.89,139.67a1.9,1.9,0,1,1,1.38-2.3A1.89,1.89,0,0,1,158.89,139.67Z" transform="translate(0 0.82)"/><path class="f" d="M151.39,138.85a1.9,1.9,0,1,1,1.38-2.3A1.9,1.9,0,0,1,151.39,138.85Z" transform="translate(0 0.82)"/><path class="f" d="M143.87,138.34a1.9,1.9,0,1,1,1.38-2.3A1.89,1.89,0,0,1,143.87,138.34Z" transform="translate(0 0.82)"/><path class="f" d="M279.68,197.82a1.85,1.85,0,1,1,1.34-2.24A1.84,1.84,0,0,1,279.68,197.82Z" transform="translate(0 0.82)"/><path class="f" d="M274.61,192.24A1.85,1.85,0,1,1,276,190,1.86,1.86,0,0,1,274.61,192.24Z" transform="translate(0 0.82)"/><path class="f" d="M269.32,186.86a1.85,1.85,0,1,1,1.34-2.24A1.85,1.85,0,0,1,269.32,186.86Z" transform="translate(0 0.82)"/><path class="f" d="M263.83,181.69a1.85,1.85,0,1,1,1.34-2.24A1.84,1.84,0,0,1,263.83,181.69Z" transform="translate(0 0.82)"/><path class="f" d="M258.14,176.75a1.85,1.85,0,0,1-.9-3.59,1.85,1.85,0,0,1,.9,3.59Z" transform="translate(0 0.82)"/><path class="f" d="M252.26,172a1.85,1.85,0,0,1-.9-3.59,1.85,1.85,0,0,1,.9,3.59Z" transform="translate(0 0.82)"/><path class="f" d="M246.2,167.54a1.85,1.85,0,1,1,1.34-2.24A1.85,1.85,0,0,1,246.2,167.54Z" transform="translate(0 0.82)"/><path class="f" d="M240,163.3a1.85,1.85,0,1,1,1.34-2.24A1.84,1.84,0,0,1,240,163.3Z" transform="translate(0 0.82)"/><path class="f" d="M233.58,159.3a1.85,1.85,0,1,1,1.34-2.24A1.84,1.84,0,0,1,233.58,159.3Z" transform="translate(0 0.82)"/><path class="f" d="M227,155.56a1.85,1.85,0,1,1,1.34-2.24A1.84,1.84,0,0,1,227,155.56Z" transform="translate(0 0.82)"/><path class="f" d="M220.35,152.08a1.85,1.85,0,1,1,1.34-2.24A1.84,1.84,0,0,1,220.35,152.08Z" transform="translate(0 0.82)"/><path class="f" d="M213.53,148.86a1.85,1.85,0,1,1,1.34-2.24A1.84,1.84,0,0,1,213.53,148.86Z" transform="translate(0 0.82)"/><path class="f" d="M206.59,145.91a1.85,1.85,0,1,1,1.34-2.24A1.84,1.84,0,0,1,206.59,145.91Z" transform="translate(0 0.82)"/><path class="f" d="M199.54,143.24a1.85,1.85,0,1,1,1.34-2.24A1.84,1.84,0,0,1,199.54,143.24Z" transform="translate(0 0.82)"/><path class="f" d="M192.39,140.85a1.85,1.85,0,1,1,1.34-2.24A1.84,1.84,0,0,1,192.39,140.85Z" transform="translate(0 0.82)"/><path class="f" d="M185.15,138.74a1.85,1.85,0,1,1,1.34-2.24A1.84,1.84,0,0,1,185.15,138.74Z" transform="translate(0 0.82)"/><path class="f" d="M177.84,136.92a1.85,1.85,0,1,1,1.34-2.25A1.87,1.87,0,0,1,177.84,136.92Z" transform="translate(0 0.82)"/><path class="f" d="M170.45,135.38a1.85,1.85,0,1,1,1.34-2.24A1.84,1.84,0,0,1,170.45,135.38Z" transform="translate(0 0.82)"/><path class="f" d="M163,134.13a1.85,1.85,0,1,1,1.34-2.24A1.84,1.84,0,0,1,163,134.13Z" transform="translate(0 0.82)"/><path class="f" d="M155.54,133.18a1.85,1.85,0,1,1,1.34-2.24A1.84,1.84,0,0,1,155.54,133.18Z" transform="translate(0 0.82)"/><path class="f" d="M140.5,132.16a1.85,1.85,0,1,1,1.34-2.24A1.84,1.84,0,0,1,140.5,132.16Z" transform="translate(0 0.82)"/><path class="f" d="M133,132.1a1.85,1.85,0,1,1,1.34-2.25A1.84,1.84,0,0,1,133,132.1Z" transform="translate(0 0.82)"/><path class="f" d="M125.42,132.33a1.85,1.85,0,1,1,1.34-2.25A1.86,1.86,0,0,1,125.42,132.33Z" transform="translate(0 0.82)"/><path class="f" d="M117.9,132.85a1.85,1.85,0,1,1,1.34-2.24A1.84,1.84,0,0,1,117.9,132.85Z" transform="translate(0 0.82)"/><path class="f" d="M110.4,133.66a1.83,1.83,0,1,1-.89-3.55,1.82,1.82,0,0,1,2.22,1.32A1.84,1.84,0,0,1,110.4,133.66Z" transform="translate(0 0.82)"/><path class="f" d="M278.46,187.52a1.76,1.76,0,1,1,1.28-2.14A1.76,1.76,0,0,1,278.46,187.52Z" transform="translate(0 0.82)"/><path class="f" d="M273.16,182.16a1.76,1.76,0,1,1,1.28-2.14A1.77,1.77,0,0,1,273.16,182.16Z" transform="translate(0 0.82)"/><path class="f" d="M267.66,177a1.76,1.76,0,1,1,1.28-2.14A1.76,1.76,0,0,1,267.66,177Z" transform="translate(0 0.82)"/><path class="f" d="M262,172.06a1.76,1.76,0,1,1,1.28-2.14A1.77,1.77,0,0,1,262,172.06Z" transform="translate(0 0.82)"/><path class="f" d="M256.09,167.34a1.76,1.76,0,1,1-.86-3.42,1.76,1.76,0,1,1,.86,3.42Z" transform="translate(0 0.82)"/><path class="f" d="M250,162.84a1.76,1.76,0,1,1,1.28-2.14A1.76,1.76,0,0,1,250,162.84Z" transform="translate(0 0.82)"/><path class="f" d="M243.82,158.58a1.76,1.76,0,1,1,1.28-2.14A1.77,1.77,0,0,1,243.82,158.58Z" transform="translate(0 0.82)"/><path class="f" d="M237.45,154.56a1.76,1.76,0,1,1,1.28-2.14A1.77,1.77,0,0,1,237.45,154.56Z" transform="translate(0 0.82)"/><path class="f" d="M230.92,150.78a1.76,1.76,0,1,1,1.28-2.14A1.77,1.77,0,0,1,230.92,150.78Z" transform="translate(0 0.82)"/><path class="f" d="M224.26,147.25a1.76,1.76,0,1,1-.86-3.42,1.76,1.76,0,0,1,.86,3.42Z" transform="translate(0 0.82)"/><path class="f" d="M217.46,144a1.77,1.77,0,1,1,1.28-2.15A1.78,1.78,0,0,1,217.46,144Z" transform="translate(0 0.82)"/><path class="f" d="M210.55,141a1.77,1.77,0,0,1-2.14-1.28,1.76,1.76,0,1,1,2.14,1.28Z" transform="translate(0 0.82)"/><path class="f" d="M203.53,138.23a1.76,1.76,0,0,1-.86-3.42,1.76,1.76,0,1,1,.86,3.42Z" transform="translate(0 0.82)"/><path class="f" d="M196.4,135.76a1.76,1.76,0,1,1,1.28-2.14A1.76,1.76,0,0,1,196.4,135.76Z" transform="translate(0 0.82)"/><path class="f" d="M189.19,133.56a1.76,1.76,0,1,1,1.28-2.14A1.77,1.77,0,0,1,189.19,133.56Z" transform="translate(0 0.82)"/><path class="f" d="M137.11,126a1.77,1.77,0,1,1,1.28-2.15A1.78,1.78,0,0,1,137.11,126Z" transform="translate(0 0.82)"/><path class="f" d="M129.58,126.08a1.76,1.76,0,1,1,1.28-2.14A1.76,1.76,0,0,1,129.58,126.08Z" transform="translate(0 0.82)"/><path class="f" d="M122,126.43a1.76,1.76,0,1,1,1.28-2.14A1.77,1.77,0,0,1,122,126.43Z" transform="translate(0 0.82)"/><path class="f" d="M114.53,127.07a1.76,1.76,0,0,1-.86-3.42,1.76,1.76,0,0,1,.86,3.42Z" transform="translate(0 0.82)"/><path class="f" d="M107.05,128a1.76,1.76,0,1,1,1.28-2.14A1.76,1.76,0,0,1,107.05,128Z" transform="translate(0 0.82)"/><path class="f" d="M99.61,129.2a1.76,1.76,0,1,1,1.28-2.14A1.77,1.77,0,0,1,99.61,129.2Z" transform="translate(0 0.82)"/><path class="f" d="M92.22,130.69a1.76,1.76,0,1,1,1.28-2.14A1.77,1.77,0,0,1,92.22,130.69Z" transform="translate(0 0.82)"/><path class="f" d="M84.89,132.47a1.78,1.78,0,1,1,1.29-2.16A1.78,1.78,0,0,1,84.89,132.47Z" transform="translate(0 0.82)"/><path class="f" d="M277,177.49a1.71,1.71,0,1,1,1.24-2.08A1.7,1.7,0,0,1,277,177.49Z" transform="translate(0 0.82)"/><path class="f" d="M271.5,172.33a1.7,1.7,0,1,1,1.23-2.06A1.69,1.69,0,0,1,271.5,172.33Z" transform="translate(0 0.82)"/><path class="f" d="M265.81,167.41a1.72,1.72,0,1,1,1.24-2.08A1.72,1.72,0,0,1,265.81,167.41Z" transform="translate(0 0.82)"/><path class="f" d="M259.93,162.68a1.71,1.71,0,1,1,1.25-2.08A1.71,1.71,0,0,1,259.93,162.68Z" transform="translate(0 0.82)"/><path class="f" d="M253.89,158.17a1.71,1.71,0,1,1,1.24-2.08A1.7,1.7,0,0,1,253.89,158.17Z" transform="translate(0 0.82)"/><path class="f" d="M247.68,153.9a1.72,1.72,0,1,1,1.24-2.08A1.72,1.72,0,0,1,247.68,153.9Z" transform="translate(0 0.82)"/><path class="f" d="M241.31,149.83a1.7,1.7,0,1,1,1.24-2.06A1.7,1.7,0,0,1,241.31,149.83Z" transform="translate(0 0.82)"/><path class="f" d="M234.81,146a1.72,1.72,0,1,1,1.25-2.08A1.72,1.72,0,0,1,234.81,146Z" transform="translate(0 0.82)"/><path class="f" d="M228.17,142.46a1.7,1.7,0,1,1,1.23-2.06A1.7,1.7,0,0,1,228.17,142.46Z" transform="translate(0 0.82)"/><path class="f" d="M221.4,139.15a1.71,1.71,0,1,1,1.24-2.08A1.71,1.71,0,0,1,221.4,139.15Z" transform="translate(0 0.82)"/><path class="f" d="M214.51,136.07a1.7,1.7,0,1,1,1.23-2.06A1.69,1.69,0,0,1,214.51,136.07Z" transform="translate(0 0.82)"/><path class="f" d="M207.51,133.26a1.7,1.7,0,1,1,1.23-2.06A1.69,1.69,0,0,1,207.51,133.26Z" transform="translate(0 0.82)"/><path class="f" d="M141.28,120.05a1.71,1.71,0,1,1,1.24-2.08A1.71,1.71,0,0,1,141.28,120.05Z" transform="translate(0 0.82)"/><path class="f" d="M133.74,120a1.71,1.71,0,1,1,1.24-2.08A1.72,1.72,0,0,1,133.74,120Z" transform="translate(0 0.82)"/><path class="f" d="M126.2,120.13a1.7,1.7,0,1,1,1.23-2.06A1.69,1.69,0,0,1,126.2,120.13Z" transform="translate(0 0.82)"/><path class="f" d="M118.67,120.59a1.7,1.7,0,1,1,1.23-2.06A1.69,1.69,0,0,1,118.67,120.59Z" transform="translate(0 0.82)"/><path class="f" d="M111.17,121.35a1.71,1.71,0,1,1,1.25-2.08A1.71,1.71,0,0,1,111.17,121.35Z" transform="translate(0 0.82)"/><path class="f" d="M103.7,122.36a1.7,1.7,0,1,1,1.23-2.06A1.71,1.71,0,0,1,103.7,122.36Z" transform="translate(0 0.82)"/><path class="f" d="M96.28,123.67a1.72,1.72,0,1,1,1.24-2.08A1.72,1.72,0,0,1,96.28,123.67Z" transform="translate(0 0.82)"/><path class="f" d="M88.9,125.23a1.71,1.71,0,1,1-.83-3.32,1.71,1.71,0,1,1,.83,3.32Z" transform="translate(0 0.82)"/><path class="f" d="M81.59,127.07A1.71,1.71,0,1,1,82.83,125,1.71,1.71,0,0,1,81.59,127.07Z" transform="translate(0 0.82)"/><path class="f" d="M74.35,129.18a1.71,1.71,0,1,1,1.25-2.08A1.71,1.71,0,0,1,74.35,129.18Z" transform="translate(0 0.82)"/><path class="f" d="M67.2,131.56a1.72,1.72,0,1,1,1.24-2.08A1.72,1.72,0,0,1,67.2,131.56Z" transform="translate(0 0.82)"/><path class="f" d="M60.13,134.19a1.71,1.71,0,1,1,1.25-2.08A1.71,1.71,0,0,1,60.13,134.19Z" transform="translate(0 0.82)"/><path class="f" d="M280.85,172.81a1.64,1.64,0,1,1,1.2-2A1.64,1.64,0,0,1,280.85,172.81Z" transform="translate(0 0.82)"/><path class="f" d="M275.33,167.68a1.65,1.65,0,1,1,1.2-2A1.64,1.64,0,0,1,275.33,167.68Z" transform="translate(0 0.82)"/><path class="f" d="M269.64,162.74a1.65,1.65,0,1,1,1.19-2A1.64,1.64,0,0,1,269.64,162.74Z" transform="translate(0 0.82)"/><path class="f" d="M263.76,158a1.65,1.65,0,0,1-.8-3.2,1.65,1.65,0,1,1,.8,3.2Z" transform="translate(0 0.82)"/><path class="f" d="M257.73,153.49a1.65,1.65,0,1,1,1.19-2A1.64,1.64,0,0,1,257.73,153.49Z" transform="translate(0 0.82)"/><path class="f" d="M251.53,149.2a1.65,1.65,0,1,1,1.2-2A1.65,1.65,0,0,1,251.53,149.2Z" transform="translate(0 0.82)"/><path class="f" d="M245.19,145.13a1.65,1.65,0,1,1,1.19-2A1.65,1.65,0,0,1,245.19,145.13Z" transform="translate(0 0.82)"/><path class="f" d="M238.7,141.29a1.65,1.65,0,1,1,1.19-2A1.65,1.65,0,0,1,238.7,141.29Z" transform="translate(0 0.82)"/><path class="f" d="M232.08,137.68a1.65,1.65,0,1,1,1.19-2A1.64,1.64,0,0,1,232.08,137.68Z" transform="translate(0 0.82)"/><path class="f" d="M225.33,134.32a1.65,1.65,0,1,1-.8-3.2,1.65,1.65,0,0,1,.8,3.2Z" transform="translate(0 0.82)"/><path class="f" d="M137.9,113.91a1.64,1.64,0,1,1-.8-3.19,1.64,1.64,0,0,1,.8,3.19Z" transform="translate(0 0.82)"/><path class="f" d="M130.36,113.94a1.64,1.64,0,1,1,1.19-2A1.65,1.65,0,0,1,130.36,113.94Z" transform="translate(0 0.82)"/><path class="f" d="M122.83,114.24a1.65,1.65,0,1,1,1.19-2A1.64,1.64,0,0,1,122.83,114.24Z" transform="translate(0 0.82)"/><path class="f" d="M115.31,114.82a1.65,1.65,0,1,1,1.19-2A1.65,1.65,0,0,1,115.31,114.82Z" transform="translate(0 0.82)"/><path class="f" d="M107.82,115.66a1.65,1.65,0,1,1,1.19-2A1.65,1.65,0,0,1,107.82,115.66Z" transform="translate(0 0.82)"/><path class="f" d="M100.36,116.77a1.65,1.65,0,1,1,1.19-2A1.65,1.65,0,0,1,100.36,116.77Z" transform="translate(0 0.82)"/><path class="f" d="M93,118.14a1.65,1.65,0,1,1,1.19-2A1.64,1.64,0,0,1,93,118.14Z" transform="translate(0 0.82)"/><path class="f" d="M85.59,119.79a1.65,1.65,0,1,1,1.19-2A1.65,1.65,0,0,1,85.59,119.79Z" transform="translate(0 0.82)"/><path class="f" d="M78.29,121.69a1.64,1.64,0,1,1,1.2-2A1.65,1.65,0,0,1,78.29,121.69Z" transform="translate(0 0.82)"/><path class="f" d="M71.07,123.86a1.65,1.65,0,1,1,1.2-2A1.65,1.65,0,0,1,71.07,123.86Z" transform="translate(0 0.82)"/><path class="f" d="M63.93,126.28a1.65,1.65,0,1,1,1.2-2A1.65,1.65,0,0,1,63.93,126.28Z" transform="translate(0 0.82)"/><path class="f" d="M56.88,129a1.65,1.65,0,1,1,1.2-2A1.66,1.66,0,0,1,56.88,129Z" transform="translate(0 0.82)"/><path class="f" d="M49.94,131.89a1.65,1.65,0,1,1,1.19-2A1.65,1.65,0,0,1,49.94,131.89Z" transform="translate(0 0.82)"/><path class="f" d="M279.17,163a1.58,1.58,0,1,1,1.14-1.91A1.57,1.57,0,0,1,279.17,163Z" transform="translate(0 0.82)"/><path class="f" d="M273.47,158.07a1.58,1.58,0,1,1,1.14-1.92A1.58,1.58,0,0,1,273.47,158.07Z" transform="translate(0 0.82)"/><path class="f" d="M267.6,153.34a1.58,1.58,0,1,1,1.15-1.92A1.58,1.58,0,0,1,267.6,153.34Z" transform="translate(0 0.82)"/><path class="f" d="M261.57,148.81a1.58,1.58,0,1,1,1.14-1.92A1.57,1.57,0,0,1,261.57,148.81Z" transform="translate(0 0.82)"/><path class="f" d="M255.38,144.5a1.58,1.58,0,1,1,1.15-1.92A1.59,1.59,0,0,1,255.38,144.5Z" transform="translate(0 0.82)"/><path class="f" d="M249.05,140.41a1.58,1.58,0,1,1,1.15-1.92A1.58,1.58,0,0,1,249.05,140.41Z" transform="translate(0 0.82)"/><path class="f" d="M242.58,136.54a1.58,1.58,0,1,1,1.15-1.92A1.58,1.58,0,0,1,242.58,136.54Z" transform="translate(0 0.82)"/><path class="f" d="M236,132.9a1.58,1.58,0,1,1,1.15-1.92A1.58,1.58,0,0,1,236,132.9Z" transform="translate(0 0.82)"/><path class="f" d="M142.06,107.94A1.58,1.58,0,1,1,143.2,106,1.57,1.57,0,0,1,142.06,107.94Z" transform="translate(0 0.82)"/><path class="f" d="M134.52,107.83a1.58,1.58,0,1,1,1.15-1.92A1.58,1.58,0,0,1,134.52,107.83Z" transform="translate(0 0.82)"/><path class="f" d="M127,108a1.58,1.58,0,1,1,1.15-1.91A1.58,1.58,0,0,1,127,108Z" transform="translate(0 0.82)"/><path class="f" d="M119.45,108.39a1.6,1.6,0,0,1-1.92-1.15,1.58,1.58,0,1,1,1.92,1.15Z" transform="translate(0 0.82)"/><path class="f" d="M111.94,109.06a1.58,1.58,0,1,1,1.15-1.92A1.59,1.59,0,0,1,111.94,109.06Z" transform="translate(0 0.82)"/><path class="f" d="M104.46,110a1.58,1.58,0,1,1,1.15-1.92A1.58,1.58,0,0,1,104.46,110Z" transform="translate(0 0.82)"/><path class="f" d="M97,111.19a1.58,1.58,0,1,1,1.15-1.92A1.58,1.58,0,0,1,97,111.19Z" transform="translate(0 0.82)"/><path class="f" d="M89.62,112.64a1.58,1.58,0,1,1,1.15-1.92A1.57,1.57,0,0,1,89.62,112.64Z" transform="translate(0 0.82)"/><path class="f" d="M82.28,114.35a1.58,1.58,0,1,1,1.14-1.91A1.57,1.57,0,0,1,82.28,114.35Z" transform="translate(0 0.82)"/><path class="f" d="M75,116.32a1.58,1.58,0,1,1-.77-3.07,1.6,1.6,0,0,1,1.92,1.15A1.58,1.58,0,0,1,75,116.32Z" transform="translate(0 0.82)"/><path class="f" d="M67.79,118.54a1.58,1.58,0,1,1,1.15-1.92A1.57,1.57,0,0,1,67.79,118.54Z" transform="translate(0 0.82)"/><path class="f" d="M60.67,121a1.58,1.58,0,1,1,1.15-1.92A1.58,1.58,0,0,1,60.67,121Z" transform="translate(0 0.82)"/><path class="f" d="M53.64,123.73a1.58,1.58,0,1,1,1.14-1.92A1.58,1.58,0,0,1,53.64,123.73Z" transform="translate(0 0.82)"/><path class="f" d="M46.7,126.69a1.58,1.58,0,1,1,1.15-1.92A1.59,1.59,0,0,1,46.7,126.69Z" transform="translate(0 0.82)"/><path class="f" d="M39.88,129.89A1.58,1.58,0,1,1,41,128,1.58,1.58,0,0,1,39.88,129.89Z" transform="translate(0 0.82)"/><path class="f" d="M33.17,133.32a1.58,1.58,0,1,1,1.14-1.91A1.57,1.57,0,0,1,33.17,133.32Z" transform="translate(0 0.82)"/><path class="f" d="M277.3,153.4a1.52,1.52,0,1,1,1.1-1.84A1.52,1.52,0,0,1,277.3,153.4Z" transform="translate(0 0.82)"/><path class="f" d="M271.43,148.67a1.52,1.52,0,1,1,1.1-1.84A1.52,1.52,0,0,1,271.43,148.67Z" transform="translate(0 0.82)"/><path class="f" d="M265.41,144.13a1.51,1.51,0,1,1,1.1-1.84A1.51,1.51,0,0,1,265.41,144.13Z" transform="translate(0 0.82)"/><path class="f" d="M259.23,139.81a1.52,1.52,0,1,1,1.1-1.84A1.52,1.52,0,0,1,259.23,139.81Z" transform="translate(0 0.82)"/><path class="f" d="M252.91,135.69a1.51,1.51,0,1,1,1.1-1.84A1.5,1.5,0,0,1,252.91,135.69Z" transform="translate(0 0.82)"/><path class="f" d="M138.68,101.79a1.51,1.51,0,1,1,1.1-1.83A1.51,1.51,0,0,1,138.68,101.79Z" transform="translate(0 0.82)"/><path class="f" d="M131.14,101.8a1.52,1.52,0,1,1,1.1-1.84A1.52,1.52,0,0,1,131.14,101.8Z" transform="translate(0 0.82)"/><path class="f" d="M123.6,102.05a1.51,1.51,0,1,1,1.1-1.83A1.5,1.5,0,0,1,123.6,102.05Z" transform="translate(0 0.82)"/><path class="f" d="M116.08,102.57a1.52,1.52,0,1,1,1.1-1.84A1.52,1.52,0,0,1,116.08,102.57Z" transform="translate(0 0.82)"/><path class="f" d="M108.58,103.33a1.51,1.51,0,1,1,1.1-1.83A1.51,1.51,0,0,1,108.58,103.33Z" transform="translate(0 0.82)"/><path class="f" d="M101.11,104.36a1.52,1.52,0,1,1,1.1-1.84A1.52,1.52,0,0,1,101.11,104.36Z" transform="translate(0 0.82)"/><path class="f" d="M93.68,105.63a1.51,1.51,0,1,1,1.1-1.83A1.51,1.51,0,0,1,93.68,105.63Z" transform="translate(0 0.82)"/><path class="f" d="M86.3,107.16a1.52,1.52,0,1,1,1.1-1.84A1.52,1.52,0,0,1,86.3,107.16Z" transform="translate(0 0.82)"/><path class="f" d="M79,108.94a1.52,1.52,0,1,1,1.1-1.84A1.52,1.52,0,0,1,79,108.94Z" transform="translate(0 0.82)"/><path class="f" d="M71.71,111a1.51,1.51,0,1,1,1.1-1.83A1.52,1.52,0,0,1,71.71,111Z" transform="translate(0 0.82)"/><path class="f" d="M64.52,113.23a1.51,1.51,0,1,1,1.1-1.83A1.51,1.51,0,0,1,64.52,113.23Z" transform="translate(0 0.82)"/><path class="f" d="M57.41,115.75a1.52,1.52,0,1,1,1.1-1.84A1.52,1.52,0,0,1,57.41,115.75Z" transform="translate(0 0.82)"/><path class="f" d="M50.39,118.5a1.52,1.52,0,1,1,1.1-1.84A1.52,1.52,0,0,1,50.39,118.5Z" transform="translate(0 0.82)"/><path class="f" d="M43.47,121.49a1.52,1.52,0,1,1,1.1-1.84A1.52,1.52,0,0,1,43.47,121.49Z" transform="translate(0 0.82)"/><path class="f" d="M36.66,124.71a1.51,1.51,0,1,1,1.09-1.83A1.51,1.51,0,0,1,36.66,124.71Z" transform="translate(0 0.82)"/><path class="f" d="M30,128.17a1.52,1.52,0,1,1,1.1-1.84A1.51,1.51,0,0,1,30,128.17Z" transform="translate(0 0.82)"/><path class="f" d="M23.37,131.84a1.51,1.51,0,1,1,1.1-1.83A1.51,1.51,0,0,1,23.37,131.84Z" transform="translate(0 0.82)"/><path class="f" d="M281.13,148.73a1.44,1.44,0,0,1-1.76-1,1.45,1.45,0,1,1,1.76,1Z" transform="translate(0 0.82)"/><path class="f" d="M275.26,144a1.44,1.44,0,1,1,1.05-1.75A1.43,1.43,0,0,1,275.26,144Z" transform="translate(0 0.82)"/><path class="f" d="M269.25,139.45a1.44,1.44,0,1,1,1.05-1.75A1.44,1.44,0,0,1,269.25,139.45Z" transform="translate(0 0.82)"/><circle class="f" cx="262.73" cy="133.71" r="1.45" transform="translate(-16.98 41.44) rotate(-8.56)"/><path class="f" d="M142.84,95.83a1.44,1.44,0,1,1,1-1.75A1.44,1.44,0,0,1,142.84,95.83Z" transform="translate(0 0.82)"/><path class="f" d="M135.3,95.7a1.45,1.45,0,1,1,1-1.76A1.46,1.46,0,0,1,135.3,95.7Z" transform="translate(0 0.82)"/><path class="f" d="M127.76,95.81a1.45,1.45,0,0,1-1.76-1,1.45,1.45,0,0,1,2.81-.71A1.44,1.44,0,0,1,127.76,95.81Z" transform="translate(0 0.82)"/><path class="f" d="M120.23,96.17a1.44,1.44,0,1,1,1-1.75A1.44,1.44,0,0,1,120.23,96.17Z" transform="translate(0 0.82)"/><path class="f" d="M112.71,96.78A1.44,1.44,0,1,1,112,94a1.44,1.44,0,1,1,.7,2.8Z" transform="translate(0 0.82)"/><path class="f" d="M105.22,97.64a1.44,1.44,0,1,1-.7-2.8,1.44,1.44,0,1,1,.7,2.8Z" transform="translate(0 0.82)"/><path class="f" d="M97.77,98.75a1.45,1.45,0,1,1,1-1.76A1.45,1.45,0,0,1,97.77,98.75Z" transform="translate(0 0.82)"/><path class="f" d="M90.35,100.1a1.44,1.44,0,0,1-1.76-1,1.45,1.45,0,1,1,1.76,1Z" transform="translate(0 0.82)"/><path class="f" d="M83,101.71a1.45,1.45,0,0,1-1.77-1.06A1.46,1.46,0,1,1,83,101.71Z" transform="translate(0 0.82)"/><path class="f" d="M75.67,103.55a1.46,1.46,0,0,1-.71-2.84,1.48,1.48,0,0,1,1.78,1.07A1.46,1.46,0,0,1,75.67,103.55Z" transform="translate(0 0.82)"/><path class="f" d="M68.42,105.62a1.45,1.45,0,0,1-.7-2.81,1.45,1.45,0,0,1,.7,2.81Z" transform="translate(0 0.82)"/><path class="f" d="M61.25,107.94a1.45,1.45,0,1,1,1-1.76A1.46,1.46,0,0,1,61.25,107.94Z" transform="translate(0 0.82)"/><path class="f" d="M54.16,110.51a1.47,1.47,0,0,1-1.78-1.07,1.46,1.46,0,0,1,2.84-.71A1.47,1.47,0,0,1,54.16,110.51Z" transform="translate(0 0.82)"/><path class="f" d="M47.15,113.28a1.45,1.45,0,1,1,1.05-1.76A1.46,1.46,0,0,1,47.15,113.28Z" transform="translate(0 0.82)"/><path class="f" d="M40.24,116.3a1.45,1.45,0,0,1-.71-2.81,1.45,1.45,0,0,1,.71,2.81Z" transform="translate(0 0.82)"/><path class="f" d="M33.43,119.54a1.45,1.45,0,0,1-.7-2.81,1.45,1.45,0,1,1,.7,2.81Z" transform="translate(0 0.82)"/><path class="f" d="M26.74,123a1.45,1.45,0,1,1,1.05-1.76A1.44,1.44,0,0,1,26.74,123Z" transform="translate(0 0.82)"/><path class="f" d="M20.16,126.7a1.45,1.45,0,1,1,1.05-1.76A1.45,1.45,0,0,1,20.16,126.7Z" transform="translate(0 0.82)"/><path class="f" d="M13.71,130.6a1.45,1.45,0,1,1,1-1.76A1.45,1.45,0,0,1,13.71,130.6Z" transform="translate(0 0.82)"/><path class="f" d="M279.1,139.34a1.4,1.4,0,1,1,1-1.7A1.4,1.4,0,0,1,279.1,139.34Z" transform="translate(0 0.82)"/><path class="f" d="M273.09,134.79a1.4,1.4,0,1,1,1-1.7A1.4,1.4,0,0,1,273.09,134.79Z" transform="translate(0 0.82)"/><path class="f" d="M139.46,89.69a1.38,1.38,0,0,1-1.69-1,1.4,1.4,0,1,1,1.69,1Z" transform="translate(0 0.82)"/><path class="f" d="M131.92,89.67a1.4,1.4,0,1,1,1-1.7A1.39,1.39,0,0,1,131.92,89.67Z" transform="translate(0 0.82)"/><path class="f" d="M124.39,89.89a1.4,1.4,0,1,1,1-1.7A1.4,1.4,0,0,1,124.39,89.89Z" transform="translate(0 0.82)"/><path class="f" d="M116.86,90.35a1.4,1.4,0,1,1,1-1.7A1.41,1.41,0,0,1,116.86,90.35Z" transform="translate(0 0.82)"/><path class="f" d="M109.35,91.05a1.4,1.4,0,1,1,1-1.7A1.39,1.39,0,0,1,109.35,91.05Z" transform="translate(0 0.82)"/><path class="f" d="M101.87,92a1.4,1.4,0,0,1-1.69-1,1.38,1.38,0,0,1,1-1.69,1.4,1.4,0,1,1,.68,2.71Z" transform="translate(0 0.82)"/><path class="f" d="M94.43,93.18a1.4,1.4,0,1,1,1-1.7A1.4,1.4,0,0,1,94.43,93.18Z" transform="translate(0 0.82)"/><circle class="f" cx="86.68" cy="93.25" r="1.4" transform="translate(-37.84 120.61) rotate(-59.12)"/><path class="f" d="M79.67,96.27a1.4,1.4,0,1,1,1-1.7A1.4,1.4,0,0,1,79.67,96.27Z" transform="translate(0 0.82)"/><path class="f" d="M72.37,98.17a1.4,1.4,0,1,1,1-1.7A1.4,1.4,0,0,1,72.37,98.17Z" transform="translate(0 0.82)"/><path class="f" d="M65.14,100.3a1.4,1.4,0,1,1,1-1.7A1.4,1.4,0,0,1,65.14,100.3Z" transform="translate(0 0.82)"/><path class="f" d="M58,102.66A1.4,1.4,0,1,1,59,101,1.39,1.39,0,0,1,58,102.66Z" transform="translate(0 0.82)"/><path class="f" d="M50.9,105.26a1.4,1.4,0,1,1,1-1.7A1.4,1.4,0,0,1,50.9,105.26Z" transform="translate(0 0.82)"/><path class="f" d="M43.91,108.08a1.4,1.4,0,1,1,1-1.7A1.41,1.41,0,0,1,43.91,108.08Z" transform="translate(0 0.82)"/><path class="f" d="M37,111.12a1.4,1.4,0,1,1,1-1.7A1.4,1.4,0,0,1,37,111.12Z" transform="translate(0 0.82)"/><path class="f" d="M30.22,114.38a1.4,1.4,0,1,1,1-1.69A1.38,1.38,0,0,1,30.22,114.38Z" transform="translate(0 0.82)"/><path class="f" d="M23.53,117.87a1.41,1.41,0,0,1-1.7-1,1.4,1.4,0,0,1,2.72-.68A1.41,1.41,0,0,1,23.53,117.87Z" transform="translate(0 0.82)"/><path class="f" d="M17,121.56a1.4,1.4,0,1,1,1-1.69A1.4,1.4,0,0,1,17,121.56Z" transform="translate(0 0.82)"/><path class="f" d="M10.51,125.47a1.4,1.4,0,1,1-.68-2.71,1.38,1.38,0,0,1,1.69,1A1.4,1.4,0,0,1,10.51,125.47Z" transform="translate(0 0.82)"/><path class="f" d="M4.19,129.58a1.4,1.4,0,1,1-.68-2.71,1.38,1.38,0,0,1,1.69,1A1.4,1.4,0,0,1,4.19,129.58Z" transform="translate(0 0.82)"/><path class="f" d="M143.62,83.74a1.33,1.33,0,0,1-.65-2.58,1.33,1.33,0,1,1,.65,2.58Z" transform="translate(0 0.82)"/><path class="f" d="M136.08,83.59a1.33,1.33,0,1,1,1-1.62A1.33,1.33,0,0,1,136.08,83.59Z" transform="translate(0 0.82)"/><path class="f" d="M128.54,83.67a1.33,1.33,0,1,1,1-1.62A1.32,1.32,0,0,1,128.54,83.67Z" transform="translate(0 0.82)"/><path class="f" d="M121,84a1.33,1.33,0,1,1,1-1.62A1.33,1.33,0,0,1,121,84Z" transform="translate(0 0.82)"/><path class="f" d="M113.49,84.54a1.33,1.33,0,1,1,1-1.61A1.32,1.32,0,0,1,113.49,84.54Z" transform="translate(0 0.82)"/><path class="f" d="M106,85.33a1.33,1.33,0,1,1,1-1.61A1.32,1.32,0,0,1,106,85.33Z" transform="translate(0 0.82)"/><path class="f" d="M98.52,86.36a1.33,1.33,0,1,1,1-1.62A1.32,1.32,0,0,1,98.52,86.36Z" transform="translate(0 0.82)"/><path class="f" d="M91.09,87.62a1.33,1.33,0,1,1,1-1.62A1.34,1.34,0,0,1,91.09,87.62Z" transform="translate(0 0.82)"/><path class="f" d="M83.7,89.11a1.33,1.33,0,0,1-.65-2.58,1.33,1.33,0,1,1,.65,2.58Z" transform="translate(0 0.82)"/><path class="f" d="M76.36,90.84a1.33,1.33,0,1,1,1-1.62A1.33,1.33,0,0,1,76.36,90.84Z" transform="translate(0 0.82)"/><path class="f" d="M69.08,92.79a1.33,1.33,0,1,1,1-1.61A1.33,1.33,0,0,1,69.08,92.79Z" transform="translate(0 0.82)"/><path class="f" d="M61.86,95a1.33,1.33,0,1,1,1-1.61A1.32,1.32,0,0,1,61.86,95Z" transform="translate(0 0.82)"/><path class="f" d="M54.72,97.38a1.33,1.33,0,1,1,1-1.62A1.33,1.33,0,0,1,54.72,97.38Z" transform="translate(0 0.82)"/><path class="f" d="M47.65,100a1.33,1.33,0,1,1,1-1.62A1.34,1.34,0,0,1,47.65,100Z" transform="translate(0 0.82)"/><path class="f" d="M40.67,102.86a1.33,1.33,0,1,1,1-1.61A1.32,1.32,0,0,1,40.67,102.86Z" transform="translate(0 0.82)"/><path class="f" d="M33.79,105.93a1.33,1.33,0,1,1,1-1.61A1.33,1.33,0,0,1,33.79,105.93Z" transform="translate(0 0.82)"/><path class="f" d="M27,109.21a1.33,1.33,0,1,1,1-1.61A1.34,1.34,0,0,1,27,109.21Z" transform="translate(0 0.82)"/><path class="f" d="M20.32,112.71a1.33,1.33,0,1,1-.65-2.58,1.33,1.33,0,0,1,.65,2.58Z" transform="translate(0 0.82)"/><path class="f" d="M13.75,116.41a1.33,1.33,0,1,1,1-1.61A1.32,1.32,0,0,1,13.75,116.41Z" transform="translate(0 0.82)"/><path class="f" d="M7.3,120.32a1.33,1.33,0,1,1,1-1.61A1.32,1.32,0,0,1,7.3,120.32Z" transform="translate(0 0.82)"/><path class="f" d="M140.25,77.59a1.28,1.28,0,1,1,.93-1.55A1.27,1.27,0,0,1,140.25,77.59Z" transform="translate(0 0.82)"/><path class="f" d="M132.71,77.55a1.28,1.28,0,1,1,.93-1.56A1.29,1.29,0,0,1,132.71,77.55Z" transform="translate(0 0.82)"/><path class="f" d="M125.17,77.73a1.28,1.28,0,1,1,.93-1.56A1.29,1.29,0,0,1,125.17,77.73Z" transform="translate(0 0.82)"/><path class="f" d="M117.64,78.14a1.28,1.28,0,1,1,.93-1.55A1.27,1.27,0,0,1,117.64,78.14Z" transform="translate(0 0.82)"/><path class="f" d="M110.13,78.79a1.28,1.28,0,1,1,.93-1.56A1.3,1.3,0,0,1,110.13,78.79Z" transform="translate(0 0.82)"/><path class="f" d="M102.64,79.66a1.28,1.28,0,1,1,.93-1.55A1.27,1.27,0,0,1,102.64,79.66Z" transform="translate(0 0.82)"/><path class="f" d="M95.18,80.76a1.28,1.28,0,1,1,.93-1.55A1.27,1.27,0,0,1,95.18,80.76Z" transform="translate(0 0.82)"/><path class="f" d="M87.76,82.1a1.28,1.28,0,1,1,.93-1.56A1.28,1.28,0,0,1,87.76,82.1Z" transform="translate(0 0.82)"/><path class="f" d="M80.38,83.65a1.28,1.28,0,1,1,.93-1.55A1.27,1.27,0,0,1,80.38,83.65Z" transform="translate(0 0.82)"/><path class="f" d="M73.06,85.44A1.28,1.28,0,1,1,74,83.88,1.3,1.3,0,0,1,73.06,85.44Z" transform="translate(0 0.82)"/><path class="f" d="M65.79,87.44a1.28,1.28,0,1,1,.93-1.55A1.27,1.27,0,0,1,65.79,87.44Z" transform="translate(0 0.82)"/><path class="f" d="M58.59,89.67a1.28,1.28,0,1,1,.93-1.55A1.29,1.29,0,0,1,58.59,89.67Z" transform="translate(0 0.82)"/><path class="f" d="M51.45,92.1a1.26,1.26,0,1,1,.92-1.53A1.26,1.26,0,0,1,51.45,92.1Z" transform="translate(0 0.82)"/><path class="f" d="M44.41,94.79a1.28,1.28,0,1,1,.93-1.56A1.29,1.29,0,0,1,44.41,94.79Z" transform="translate(0 0.82)"/><path class="f" d="M37.44,97.67a1.28,1.28,0,1,1,.93-1.56A1.3,1.3,0,0,1,37.44,97.67Z" transform="translate(0 0.82)"/><path class="f" d="M30.56,100.76a1.28,1.28,0,1,1,.93-1.56A1.28,1.28,0,0,1,30.56,100.76Z" transform="translate(0 0.82)"/><path class="f" d="M23.78,104.06a1.28,1.28,0,1,1,.93-1.55A1.28,1.28,0,0,1,23.78,104.06Z" transform="translate(0 0.82)"/><path class="f" d="M17.11,107.57A1.28,1.28,0,1,1,18,106,1.27,1.27,0,0,1,17.11,107.57Z" transform="translate(0 0.82)"/><path class="f" d="M10.55,111.28a1.28,1.28,0,1,1,.93-1.55A1.29,1.29,0,0,1,10.55,111.28Z" transform="translate(0 0.82)"/><path class="f" d="M4.1,115.19A1.28,1.28,0,1,1,5,113.64,1.28,1.28,0,0,1,4.1,115.19Z" transform="translate(0 0.82)"/><path class="f" d="M136.87,71.48a1.22,1.22,0,1,1,.88-1.47A1.21,1.21,0,0,1,136.87,71.48Z" transform="translate(0 0.82)"/><path class="f" d="M129.33,71.53a1.21,1.21,0,1,1-.59-2.35,1.21,1.21,0,0,1,.59,2.35Z" transform="translate(0 0.82)"/><path class="f" d="M121.79,71.81a1.21,1.21,0,1,1,.88-1.47A1.2,1.2,0,0,1,121.79,71.81Z" transform="translate(0 0.82)"/><path class="f" d="M114.27,72.32a1.22,1.22,0,1,1,.88-1.48A1.21,1.21,0,0,1,114.27,72.32Z" transform="translate(0 0.82)"/><path class="f" d="M106.77,73.05a1.23,1.23,0,0,1-1.48-.89,1.21,1.21,0,0,1,.88-1.47,1.22,1.22,0,1,1,.6,2.36Z" transform="translate(0 0.82)"/><path class="f" d="M99.29,74a1.22,1.22,0,1,1,.88-1.48A1.23,1.23,0,0,1,99.29,74Z" transform="translate(0 0.82)"/><path class="f" d="M91.84,75.18a1.22,1.22,0,0,1-1.47-.89,1.21,1.21,0,1,1,2.35-.59A1.22,1.22,0,0,1,91.84,75.18Z" transform="translate(0 0.82)"/><path class="f" d="M84.43,76.57a1.21,1.21,0,1,1,.88-1.47A1.2,1.2,0,0,1,84.43,76.57Z" transform="translate(0 0.82)"/><path class="f" d="M77.07,78.19a1.21,1.21,0,1,1-.59-2.35,1.21,1.21,0,0,1,.59,2.35Z" transform="translate(0 0.82)"/><path class="f" d="M69.76,80a1.21,1.21,0,1,1,.88-1.47A1.22,1.22,0,0,1,69.76,80Z" transform="translate(0 0.82)"/><path class="f" d="M62.5,82.09A1.21,1.21,0,0,1,61,81.21a1.21,1.21,0,1,1,2.35-.59A1.2,1.2,0,0,1,62.5,82.09Z" transform="translate(0 0.82)"/><path class="f" d="M55.31,84.36A1.21,1.21,0,1,1,54.72,82a1.21,1.21,0,1,1,.59,2.35Z" transform="translate(0 0.82)"/><path class="f" d="M48.2,86.85a1.21,1.21,0,1,1,.88-1.47A1.22,1.22,0,0,1,48.2,86.85Z" transform="translate(0 0.82)"/><path class="f" d="M41.16,89.55A1.22,1.22,0,1,1,42,88.08,1.21,1.21,0,0,1,41.16,89.55Z" transform="translate(0 0.82)"/><path class="f" d="M34.2,92.46A1.22,1.22,0,1,1,35.08,91,1.21,1.21,0,0,1,34.2,92.46Z" transform="translate(0 0.82)"/><path class="f" d="M27.34,95.57a1.21,1.21,0,1,1-.6-2.35,1.23,1.23,0,0,1,1.48.88A1.21,1.21,0,0,1,27.34,95.57Z" transform="translate(0 0.82)"/><path class="f" d="M20.57,98.89a1.21,1.21,0,1,1,.88-1.47A1.22,1.22,0,0,1,20.57,98.89Z" transform="translate(0 0.82)"/><path class="f" d="M13.9,102.41a1.21,1.21,0,1,1-.59-2.35,1.21,1.21,0,0,1,.59,2.35Z" transform="translate(0 0.82)"/><path class="f" d="M7.34,106.13a1.21,1.21,0,1,1,.88-1.47A1.2,1.2,0,0,1,7.34,106.13Z" transform="translate(0 0.82)"/><path class="f" d="M141,65.48a1.15,1.15,0,1,1,.83-1.39A1.15,1.15,0,0,1,141,65.48Z" transform="translate(0 0.82)"/><path class="f" d="M133.49,65.41a1.15,1.15,0,1,1,.83-1.39A1.15,1.15,0,0,1,133.49,65.41Z" transform="translate(0 0.82)"/><path class="f" d="M126,65.56a1.14,1.14,0,1,1,.83-1.39A1.14,1.14,0,0,1,126,65.56Z" transform="translate(0 0.82)"/><path class="f" d="M118.42,65.93a1.14,1.14,0,1,1,.83-1.39A1.14,1.14,0,0,1,118.42,65.93Z" transform="translate(0 0.82)"/><path class="f" d="M110.91,66.54a1.17,1.17,0,1,1,.84-1.41A1.17,1.17,0,0,1,110.91,66.54Z" transform="translate(0 0.82)"/><path class="f" d="M103.41,67.35a1.17,1.17,0,1,1,.85-1.41A1.18,1.18,0,0,1,103.41,67.35Z" transform="translate(0 0.82)"/><path class="f" d="M95.94,68.36A1.15,1.15,0,1,1,96.77,67,1.15,1.15,0,0,1,95.94,68.36Z" transform="translate(0 0.82)"/><path class="f" d="M88.51,69.62a1.16,1.16,0,1,1,.84-1.41A1.17,1.17,0,0,1,88.51,69.62Z" transform="translate(0 0.82)"/><path class="f" d="M81.11,71.09A1.17,1.17,0,1,1,82,69.67,1.16,1.16,0,0,1,81.11,71.09Z" transform="translate(0 0.82)"/><path class="f" d="M73.76,72.77a1.17,1.17,0,0,1-1.41-.85,1.16,1.16,0,1,1,1.41.85Z" transform="translate(0 0.82)"/><path class="f" d="M66.46,74.66a1.17,1.17,0,1,1,.85-1.41A1.18,1.18,0,0,1,66.46,74.66Z" transform="translate(0 0.82)"/><path class="f" d="M59.22,76.76a1.16,1.16,0,1,1,.85-1.41A1.16,1.16,0,0,1,59.22,76.76Z" transform="translate(0 0.82)"/><path class="f" d="M52,79.06a1.14,1.14,0,0,1-.56-2.22A1.14,1.14,0,1,1,52,79.06Z" transform="translate(0 0.82)"/><path class="f" d="M44.94,81.6a1.16,1.16,0,1,1,.85-1.41A1.16,1.16,0,0,1,44.94,81.6Z" transform="translate(0 0.82)"/><path class="f" d="M37.91,84.32a1.15,1.15,0,1,1,.83-1.39A1.15,1.15,0,0,1,37.91,84.32Z" transform="translate(0 0.82)"/><path class="f" d="M31,87.27a1.17,1.17,0,1,1,.84-1.41A1.16,1.16,0,0,1,31,87.27Z" transform="translate(0 0.82)"/><path class="f" d="M24.11,90.41A1.16,1.16,0,1,1,25,89,1.17,1.17,0,0,1,24.11,90.41Z" transform="translate(0 0.82)"/><path class="f" d="M17.35,93.74a1.17,1.17,0,0,1-.57-2.26,1.18,1.18,0,0,1,1.42.85A1.16,1.16,0,0,1,17.35,93.74Z" transform="translate(0 0.82)"/><path class="f" d="M10.69,97.28a1.17,1.17,0,0,1-1.41-.85,1.17,1.17,0,0,1,2.26-.57A1.18,1.18,0,0,1,10.69,97.28Z" transform="translate(0 0.82)"/><path class="f" d="M4.14,101A1.17,1.17,0,1,1,5,99.59,1.17,1.17,0,0,1,4.14,101Z" transform="translate(0 0.82)"/><path class="f" d="M137.65,59.37a1.1,1.1,0,1,1,.8-1.33A1.1,1.1,0,0,1,137.65,59.37Z" transform="translate(0 0.82)"/><circle class="f" cx="129.84" cy="59.16" r="1.1"/><path class="f" d="M122.58,59.64a1.1,1.1,0,0,1-1.34-.79,1.11,1.11,0,0,1,.8-1.34,1.1,1.1,0,0,1,.54,2.13Z" transform="translate(0 0.82)"/><path class="f" d="M115.05,60.1a1.1,1.1,0,0,1-.54-2.13,1.11,1.11,0,0,1,1.34.8A1.09,1.09,0,0,1,115.05,60.1Z" transform="translate(0 0.82)"/><path class="f" d="M107.54,60.78a1.1,1.1,0,0,1-1.33-.8,1.1,1.1,0,0,1,2.13-.54A1.1,1.1,0,0,1,107.54,60.78Z" transform="translate(0 0.82)"/><path class="f" d="M100.05,61.66a1.1,1.1,0,1,1,.8-1.33A1.1,1.1,0,0,1,100.05,61.66Z" transform="translate(0 0.82)"/><path class="f" d="M92.59,62.76a1.1,1.1,0,1,1,.8-1.33A1.1,1.1,0,0,1,92.59,62.76Z" transform="translate(0 0.82)"/><path class="f" d="M85.17,64.08a1.1,1.1,0,1,1,.8-1.34A1.1,1.1,0,0,1,85.17,64.08Z" transform="translate(0 0.82)"/><path class="f" d="M77.79,65.6a1.1,1.1,0,1,1-.54-2.13,1.1,1.1,0,0,1,.54,2.13Z" transform="translate(0 0.82)"/><circle class="f" cx="70.18" cy="67.09" r="1.1"/><path class="f" d="M63.16,69.28A1.1,1.1,0,1,1,64,68,1.1,1.1,0,0,1,63.16,69.28Z" transform="translate(0 0.82)"/><path class="f" d="M55.94,71.43a1.1,1.1,0,0,1-.54-2.13,1.1,1.1,0,1,1,.54,2.13Z" transform="translate(0 0.82)"/><path class="f" d="M48.78,73.79a1.11,1.11,0,0,1-1.34-.8,1.1,1.1,0,1,1,1.34.8Z" transform="translate(0 0.82)"/><circle class="f" cx="41.42" cy="76.1" r="1.1"/><path class="f" d="M34.67,79.11A1.1,1.1,0,0,1,34.13,77a1.1,1.1,0,1,1,.54,2.13Z" transform="translate(0 0.82)"/><path class="f" d="M27.74,82.07a1.1,1.1,0,1,1,.79-1.33A1.1,1.1,0,0,1,27.74,82.07Z" transform="translate(0 0.82)"/><path class="f" d="M20.89,85.23a1.1,1.1,0,0,1-1.33-.8,1.08,1.08,0,0,1,.79-1.33,1.1,1.1,0,0,1,1.34.79A1.11,1.11,0,0,1,20.89,85.23Z" transform="translate(0 0.82)"/><path class="f" d="M14.13,88.58a1.1,1.1,0,1,1,.8-1.34A1.1,1.1,0,0,1,14.13,88.58Z" transform="translate(0 0.82)"/><path class="f" d="M7.48,92.12A1.1,1.1,0,0,1,6.94,90a1.1,1.1,0,1,1,.54,2.13Z" transform="translate(0 0.82)"/><path class="f" d="M141.81,53.4a1,1,0,0,1-.51-2,1.06,1.06,0,0,1,1.28.76A1,1,0,0,1,141.81,53.4Z" transform="translate(0 0.82)"/><path class="f" d="M134.28,53.31A1,1,0,1,1,135,52,1.05,1.05,0,0,1,134.28,53.31Z" transform="translate(0 0.82)"/><path class="f" d="M126.74,53.43a1.06,1.06,0,0,1-1.28-.76,1.05,1.05,0,1,1,1.28.76Z" transform="translate(0 0.82)"/><path class="f" d="M119.2,53.76a1,1,0,1,1-.51-2,1.06,1.06,0,0,1,1.28.76A1,1,0,0,1,119.2,53.76Z" transform="translate(0 0.82)"/><path class="f" d="M111.68,54.31a1.05,1.05,0,0,1-.51-2,1.05,1.05,0,1,1,.51,2Z" transform="translate(0 0.82)"/><path class="f" d="M104.18,55.06a1,1,0,0,1-1.27-.76,1.06,1.06,0,0,1,.76-1.28,1.05,1.05,0,0,1,.51,2Z" transform="translate(0 0.82)"/><path class="f" d="M96.7,56a1,1,0,0,1-1.27-.76,1.05,1.05,0,1,1,2-.51A1,1,0,0,1,96.7,56Z" transform="translate(0 0.82)"/><path class="f" d="M89.26,57.19A1.05,1.05,0,1,1,90,55.91,1.05,1.05,0,0,1,89.26,57.19Z" transform="translate(0 0.82)"/><path class="f" d="M81.84,58.56a1,1,0,1,1,.76-1.27A1,1,0,0,1,81.84,58.56Z" transform="translate(0 0.82)"/><path class="f" d="M74.47,60.15a1.05,1.05,0,1,1,.76-1.28A1,1,0,0,1,74.47,60.15Z" transform="translate(0 0.82)"/><path class="f" d="M67.15,61.94a1.06,1.06,0,0,1-1.28-.77,1.05,1.05,0,0,1,2-.51A1.06,1.06,0,0,1,67.15,61.94Z" transform="translate(0 0.82)"/><path class="f" d="M59.88,63.93a1.05,1.05,0,1,1,.76-1.28A1.05,1.05,0,0,1,59.88,63.93Z" transform="translate(0 0.82)"/><path class="f" d="M52.66,66.12a1,1,0,1,1,.76-1.27A1,1,0,0,1,52.66,66.12Z" transform="translate(0 0.82)"/><path class="f" d="M45.51,68.52a1.05,1.05,0,1,1,.76-1.28A1,1,0,0,1,45.51,68.52Z" transform="translate(0 0.82)"/><path class="f" d="M38.43,71.11a1,1,0,1,1,.76-1.27A1,1,0,0,1,38.43,71.11Z" transform="translate(0 0.82)"/><path class="f" d="M31.43,73.9a1,1,0,1,1,.76-1.27A1,1,0,0,1,31.43,73.9Z" transform="translate(0 0.82)"/><path class="f" d="M24.51,76.89a1.05,1.05,0,1,1,.76-1.28A1.06,1.06,0,0,1,24.51,76.89Z" transform="translate(0 0.82)"/><path class="f" d="M17.67,80.06a1,1,0,1,1,.76-1.27A1,1,0,0,1,17.67,80.06Z" transform="translate(0 0.82)"/><path class="f" d="M10.92,83.43a1,1,0,0,1-.51-2,1,1,0,0,1,1.27.76A1,1,0,0,1,10.92,83.43Z" transform="translate(0 0.82)"/><path class="f" d="M4.27,87A1,1,0,1,1,5,85.71,1,1,0,0,1,4.27,87Z" transform="translate(0 0.82)"/><path class="f" d="M138.44,47.29a1,1,0,1,1,.72-1.22A1,1,0,0,1,138.44,47.29Z" transform="translate(0 0.82)"/><path class="f" d="M130.9,47.29a1,1,0,1,1,.72-1.21A1,1,0,0,1,130.9,47.29Z" transform="translate(0 0.82)"/><path class="f" d="M123.36,47.5a1,1,0,0,1-1.21-.72,1,1,0,1,1,1.94-.49A1,1,0,0,1,123.36,47.5Z" transform="translate(0 0.82)"/><path class="f" d="M115.83,47.92a1,1,0,1,1,.73-1.21A1,1,0,0,1,115.83,47.92Z" transform="translate(0 0.82)"/><path class="f" d="M108.32,48.54a1,1,0,0,1-.49-1.94,1,1,0,1,1,.49,1.94Z" transform="translate(0 0.82)"/><path class="f" d="M100.83,49.37a1,1,0,1,1,.72-1.22A1,1,0,0,1,100.83,49.37Z" transform="translate(0 0.82)"/><path class="f" d="M93.36,50.4a1,1,0,1,1,.72-1.22A1,1,0,0,1,93.36,50.4Z" transform="translate(0 0.82)"/><path class="f" d="M85.92,51.63a1,1,0,0,1-1.21-.72,1,1,0,1,1,1.93-.49A1,1,0,0,1,85.92,51.63Z" transform="translate(0 0.82)"/><path class="f" d="M78.52,53.07a1,1,0,1,1,.72-1.21A1,1,0,0,1,78.52,53.07Z" transform="translate(0 0.82)"/><path class="f" d="M71.16,54.71a1,1,0,1,1,.72-1.21A1,1,0,0,1,71.16,54.71Z" transform="translate(0 0.82)"/><path class="f" d="M63.85,56.55a1,1,0,1,1,.72-1.22A1,1,0,0,1,63.85,56.55Z" transform="translate(0 0.82)"/><path class="f" d="M56.59,58.58a1,1,0,1,1,.72-1.21A1,1,0,0,1,56.59,58.58Z" transform="translate(0 0.82)"/><path class="f" d="M49.39,60.82a1,1,0,0,1-1.21-.72,1,1,0,1,1,1.93-.49A1,1,0,0,1,49.39,60.82Z" transform="translate(0 0.82)"/><path class="f" d="M42.25,63.25a1,1,0,1,1-.49-1.93,1,1,0,1,1,.49,1.93Z" transform="translate(0 0.82)"/><path class="f" d="M35.18,65.88a1,1,0,1,1,.73-1.21A1,1,0,0,1,35.18,65.88Z" transform="translate(0 0.82)"/><path class="f" d="M28.19,68.7a1,1,0,0,1-.49-1.94,1,1,0,1,1,.49,1.94Z" transform="translate(0 0.82)"/><path class="f" d="M21.28,71.7A1,1,0,1,1,22,70.49,1,1,0,0,1,21.28,71.7Z" transform="translate(0 0.82)"/><path class="f" d="M14.45,74.9a1,1,0,1,1,.72-1.21A1,1,0,0,1,14.45,74.9Z" transform="translate(0 0.82)"/><path class="f" d="M7.71,78.28a1,1,0,0,1-1.21-.72,1,1,0,1,1,1.93-.49A1,1,0,0,1,7.71,78.28Z" transform="translate(0 0.82)"/><path class="f" d="M142.6,41.31a.93.93,0,0,1-1.13-.68.93.93,0,0,1,1.8-.46A.93.93,0,0,1,142.6,41.31Z" transform="translate(0 0.82)"/><path class="f" d="M135.06,41.2a.93.93,0,0,1-.46-1.81,1,1,0,0,1,1.14.68A.94.94,0,0,1,135.06,41.2Z" transform="translate(0 0.82)"/><path class="f" d="M127.52,41.29a.93.93,0,1,1-.45-1.81.94.94,0,0,1,1.13.68A.93.93,0,0,1,127.52,41.29Z" transform="translate(0 0.82)"/><path class="f" d="M120,41.59a.93.93,0,1,1,.67-1.13A.93.93,0,0,1,120,41.59Z" transform="translate(0 0.82)"/><path class="f" d="M112.46,42.08a.93.93,0,1,1,.68-1.13A.92.92,0,0,1,112.46,42.08Z" transform="translate(0 0.82)"/><path class="f" d="M105,42.78a.93.93,0,1,1,.67-1.13A.92.92,0,0,1,105,42.78Z" transform="translate(0 0.82)"/><path class="f" d="M97.47,43.68A.93.93,0,1,1,97,41.87a.94.94,0,0,1,1.13.68A.93.93,0,0,1,97.47,43.68Z" transform="translate(0 0.82)"/><path class="f" d="M90,44.78a.93.93,0,1,1,.68-1.13A.93.93,0,0,1,90,44.78Z" transform="translate(0 0.82)"/><path class="f" d="M82.58,46.08a.93.93,0,1,1-.45-1.81.93.93,0,0,1,.45,1.81Z" transform="translate(0 0.82)"/><path class="f" d="M75.19,47.57a.93.93,0,1,1,.68-1.13A.93.93,0,0,1,75.19,47.57Z" transform="translate(0 0.82)"/><path class="f" d="M67.85,49.28a.95.95,0,1,1,.69-1.15A.95.95,0,0,1,67.85,49.28Z" transform="translate(0 0.82)"/><path class="f" d="M60.55,51.15A.93.93,0,1,1,61.22,50,.92.92,0,0,1,60.55,51.15Z" transform="translate(0 0.82)"/><path class="f" d="M53.3,53.24A.93.93,0,1,1,54,52.1,1,1,0,0,1,53.3,53.24Z" transform="translate(0 0.82)"/><path class="f" d="M46.11,55.51A.93.93,0,0,1,45,54.84a1,1,0,0,1,.68-1.14.94.94,0,0,1,1.13.68A.93.93,0,0,1,46.11,55.51Z" transform="translate(0 0.82)"/><path class="f" d="M39,58a.93.93,0,0,1-.46-1.81,1,1,0,0,1,1.14.68A.94.94,0,0,1,39,58Z" transform="translate(0 0.82)"/><path class="f" d="M31.93,60.63a.93.93,0,1,1,.68-1.13A.92.92,0,0,1,31.93,60.63Z" transform="translate(0 0.82)"/><path class="f" d="M25,63.48a.93.93,0,1,1,.68-1.13A.94.94,0,0,1,25,63.48Z" transform="translate(0 0.82)"/><path class="f" d="M18.05,66.51a.93.93,0,1,1,.67-1.13A.93.93,0,0,1,18.05,66.51Z" transform="translate(0 0.82)"/><path class="f" d="M11.23,69.72a.93.93,0,1,1-.46-1.8.93.93,0,1,1,.46,1.8Z" transform="translate(0 0.82)"/><path class="f" d="M4.49,73.12A.93.93,0,1,1,5.17,72,.94.94,0,0,1,4.49,73.12Z" transform="translate(0 0.82)"/><path class="f" d="M139.22,35.18a.88.88,0,1,1,.64-1.07A.88.88,0,0,1,139.22,35.18Z" transform="translate(0 0.82)"/><path class="f" d="M131.68,35.17a.89.89,0,0,1-1.07-.64.88.88,0,1,1,1.07.64Z" transform="translate(0 0.82)"/><path class="f" d="M124.15,35.35a.88.88,0,1,1,.64-1.07A.88.88,0,0,1,124.15,35.35Z" transform="translate(0 0.82)"/><path class="f" d="M116.62,35.72a.87.87,0,0,1-1.07-.64.88.88,0,1,1,1.07.64Z" transform="translate(0 0.82)"/><path class="f" d="M109.1,36.3a.88.88,0,1,1,.64-1.07A.88.88,0,0,1,109.1,36.3Z" transform="translate(0 0.82)"/><path class="f" d="M101.6,37.07a.88.88,0,1,1,.64-1.07A.88.88,0,0,1,101.6,37.07Z" transform="translate(0 0.82)"/><path class="f" d="M94.12,38A.88.88,0,1,1,94.76,37,.88.88,0,0,1,94.12,38Z" transform="translate(0 0.82)"/><path class="f" d="M86.67,39.2a.88.88,0,1,1,.64-1.07A.88.88,0,0,1,86.67,39.2Z" transform="translate(0 0.82)"/><path class="f" d="M79.26,40.56a.88.88,0,1,1,.64-1.07A.89.89,0,0,1,79.26,40.56Z" transform="translate(0 0.82)"/><path class="f" d="M71.88,42.11A.88.88,0,1,1,72.52,41,.88.88,0,0,1,71.88,42.11Z" transform="translate(0 0.82)"/><path class="f" d="M64.54,43.85a.88.88,0,1,1,.64-1.07A.88.88,0,0,1,64.54,43.85Z" transform="translate(0 0.82)"/><path class="f" d="M57.25,45.79a.88.88,0,1,1-.43-1.71.87.87,0,0,1,1.07.64A.88.88,0,0,1,57.25,45.79Z" transform="translate(0 0.82)"/><path class="f" d="M50,47.91a.88.88,0,1,1,.64-1.07A.88.88,0,0,1,50,47.91Z" transform="translate(0 0.82)"/><path class="f" d="M42.84,50.23a.89.89,0,1,1,.64-1.08A.89.89,0,0,1,42.84,50.23Z" transform="translate(0 0.82)"/><path class="f" d="M35.73,52.73a.89.89,0,0,1-1.07-.64.88.88,0,0,1,1.71-.43A.88.88,0,0,1,35.73,52.73Z" transform="translate(0 0.82)"/><path class="f" d="M28.69,55.41a.88.88,0,1,1,.64-1.07A.88.88,0,0,1,28.69,55.41Z" transform="translate(0 0.82)"/><path class="f" d="M21.71,58.28a.88.88,0,1,1-.43-1.71.88.88,0,0,1,.43,1.71Z" transform="translate(0 0.82)"/><path class="f" d="M14.82,61.33a.88.88,0,1,1,.64-1.07A.88.88,0,0,1,14.82,61.33Z" transform="translate(0 0.82)"/><path class="f" d="M8,64.56a.88.88,0,1,1,.64-1.07A.88.88,0,0,1,8,64.56Z" transform="translate(0 0.82)"/><path class="f" d="M1.28,68a.88.88,0,1,1,.64-1.07A.88.88,0,0,1,1.28,68Z" transform="translate(0 0.82)"/><path class="f" d="M135.85,29.1a.83.83,0,1,1,.6-1A.83.83,0,0,1,135.85,29.1Z" transform="translate(0 0.82)"/><path class="f" d="M128.31,29.17a.83.83,0,1,1,.6-1A.83.83,0,0,1,128.31,29.17Z" transform="translate(0 0.82)"/><path class="f" d="M120.77,29.44a.83.83,0,1,1,.61-1A.84.84,0,0,1,120.77,29.44Z" transform="translate(0 0.82)"/><path class="f" d="M113.25,29.89a.83.83,0,1,1,.6-1A.83.83,0,0,1,113.25,29.89Z" transform="translate(0 0.82)"/><path class="f" d="M105.74,30.54a.83.83,0,0,1-1-.6.83.83,0,0,1,1.61-.41A.83.83,0,0,1,105.74,30.54Z" transform="translate(0 0.82)"/><path class="f" d="M98.24,31.38a.84.84,0,0,1-1-.6.84.84,0,1,1,1,.6Z" transform="translate(0 0.82)"/><path class="f" d="M90.77,32.41a.81.81,0,0,1-1-.6.82.82,0,0,1,.6-1,.83.83,0,1,1,.4,1.61Z" transform="translate(0 0.82)"/><path class="f" d="M83.34,33.64a.83.83,0,0,1-1-.61.81.81,0,0,1,.6-1,.82.82,0,0,1,1,.6A.84.84,0,0,1,83.34,33.64Z" transform="translate(0 0.82)"/><path class="f" d="M75.93,35.05a.82.82,0,0,1-1-.6A.83.83,0,0,1,76.53,34,.82.82,0,0,1,75.93,35.05Z" transform="translate(0 0.82)"/><path class="f" d="M68.56,36.66a.83.83,0,1,1,.61-1A.84.84,0,0,1,68.56,36.66Z" transform="translate(0 0.82)"/><path class="f" d="M61.24,38.45a.83.83,0,0,1-.41-1.61.82.82,0,0,1,1,.6A.83.83,0,0,1,61.24,38.45Z" transform="translate(0 0.82)"/><path class="f" d="M54,40.43a.84.84,0,0,1-1-.6.83.83,0,0,1,.61-1,.82.82,0,0,1,1,.6A.83.83,0,0,1,54,40.43Z" transform="translate(0 0.82)"/><path class="f" d="M46.74,42.6a.83.83,0,1,1,.61-1A.84.84,0,0,1,46.74,42.6Z" transform="translate(0 0.82)"/><path class="f" d="M39.58,45a.84.84,0,1,1,.6-1A.84.84,0,0,1,39.58,45Z" transform="translate(0 0.82)"/><path class="f" d="M32.48,47.48a.84.84,0,1,1,.6-1A.83.83,0,0,1,32.48,47.48Z" transform="translate(0 0.82)"/><path class="f" d="M25.44,50.19a.83.83,0,1,1,.61-1A.84.84,0,0,1,25.44,50.19Z" transform="translate(0 0.82)"/><path class="f" d="M18.48,53.09a.84.84,0,1,1,.6-1A.83.83,0,0,1,18.48,53.09Z" transform="translate(0 0.82)"/><path class="f" d="M11.59,56.16a.83.83,0,0,1-.4-1.62.83.83,0,0,1,.4,1.62Z" transform="translate(0 0.82)"/><path class="f" d="M4.79,59.4a.82.82,0,0,1-1-.6.83.83,0,0,1,1.61-.41A.82.82,0,0,1,4.79,59.4Z" transform="translate(0 0.82)"/><path class="f" d="M140,23.1a.78.78,0,1,1,.57-1A.79.79,0,0,1,140,23.1Z" transform="translate(0 0.82)"/><path class="f" d="M132.47,23.06a.78.78,0,1,1,.57-.95A.78.78,0,0,1,132.47,23.06Z" transform="translate(0 0.82)"/><path class="f" d="M124.93,23.21a.78.78,0,0,1-1-.56.78.78,0,1,1,1,.56Z" transform="translate(0 0.82)"/><path class="f" d="M117.4,23.56a.78.78,0,1,1,.57-.95A.79.79,0,0,1,117.4,23.56Z" transform="translate(0 0.82)"/><path class="f" d="M109.88,24.09a.78.78,0,1,1,.57-.95A.79.79,0,0,1,109.88,24.09Z" transform="translate(0 0.82)"/><path class="f" d="M102.38,24.81a.78.78,0,1,1,.56-.95A.78.78,0,0,1,102.38,24.81Z" transform="translate(0 0.82)"/><path class="f" d="M94.89,25.72a.78.78,0,1,1,.57-.95A.79.79,0,0,1,94.89,25.72Z" transform="translate(0 0.82)"/><path class="f" d="M87.43,26.81a.78.78,0,1,1,.57-.95A.78.78,0,0,1,87.43,26.81Z" transform="translate(0 0.82)"/><path class="f" d="M80,28.1a.78.78,0,1,1,.57-1A.79.79,0,0,1,80,28.1Z" transform="translate(0 0.82)"/><path class="f" d="M72.61,29.57a.78.78,0,0,1-.38-1.52.78.78,0,0,1,.38,1.52Z" transform="translate(0 0.82)"/><path class="f" d="M65.25,31.22a.78.78,0,1,1,.57-.95A.78.78,0,0,1,65.25,31.22Z" transform="translate(0 0.82)"/><path class="f" d="M57.94,33.06a.78.78,0,1,1,.57-1A.78.78,0,0,1,57.94,33.06Z" transform="translate(0 0.82)"/><path class="f" d="M50.68,35.08a.78.78,0,1,1,.56-.95A.78.78,0,0,1,50.68,35.08Z" transform="translate(0 0.82)"/><path class="f" d="M43.47,37.29a.78.78,0,1,1,.56-.95A.78.78,0,0,1,43.47,37.29Z" transform="translate(0 0.82)"/><path class="f" d="M36.31,39.67a.78.78,0,1,1-.38-1.51.78.78,0,1,1,.38,1.51Z" transform="translate(0 0.82)"/><path class="f" d="M29.22,42.24a.78.78,0,1,1-.38-1.52.78.78,0,0,1,.38,1.52Z" transform="translate(0 0.82)"/><path class="f" d="M22.2,45a.78.78,0,1,1,.57-.95A.79.79,0,0,1,22.2,45Z" transform="translate(0 0.82)"/><path class="f" d="M15.25,47.89a.78.78,0,1,1,.56-1A.77.77,0,0,1,15.25,47.89Z" transform="translate(0 0.82)"/><path class="f" d="M8.37,51a.78.78,0,0,1-.95-.56.78.78,0,1,1,.95.56Z" transform="translate(0 0.82)"/><path class="f" d="M1.57,54.25a.78.78,0,1,1,.57-1A.79.79,0,0,1,1.57,54.25Z" transform="translate(0 0.82)"/><path class="f" d="M136.64,17a.73.73,0,1,1,.53-.89A.73.73,0,0,1,136.64,17Z" transform="translate(0 0.82)"/><path class="f" d="M129.1,17.06a.73.73,0,1,1,.53-.89A.73.73,0,0,1,129.1,17.06Z" transform="translate(0 0.82)"/><path class="f" d="M121.56,17.29a.73.73,0,1,1,.53-.89A.73.73,0,0,1,121.56,17.29Z" transform="translate(0 0.82)"/><path class="f" d="M114,17.71a.73.73,0,1,1,.53-.89A.73.73,0,0,1,114,17.71Z" transform="translate(0 0.82)"/><path class="f" d="M106.52,18.31a.73.73,0,1,1,.53-.89A.73.73,0,0,1,106.52,18.31Z" transform="translate(0 0.82)"/><path class="f" d="M99,19.1a.73.73,0,1,1,.53-.89A.73.73,0,0,1,99,19.1Z" transform="translate(0 0.82)"/><path class="f" d="M91.54,20.07a.73.73,0,1,1,.53-.89A.73.73,0,0,1,91.54,20.07Z" transform="translate(0 0.82)"/><path class="f" d="M84.09,21.23a.73.73,0,1,1,.53-.89A.73.73,0,0,1,84.09,21.23Z" transform="translate(0 0.82)"/><path class="f" d="M76.67,22.57a.73.73,0,1,1,.53-.89A.73.73,0,0,1,76.67,22.57Z" transform="translate(0 0.82)"/><path class="f" d="M69.29,24.09a.73.73,0,1,1,.53-.89A.73.73,0,0,1,69.29,24.09Z" transform="translate(0 0.82)"/><path class="f" d="M61.94,25.8a.74.74,0,0,1-.89-.54.73.73,0,1,1,.89.54Z" transform="translate(0 0.82)"/><path class="f" d="M54.64,27.68a.73.73,0,1,1-.35-1.42.72.72,0,0,1,.88.53A.73.73,0,0,1,54.64,27.68Z" transform="translate(0 0.82)"/><path class="f" d="M47.39,29.74a.73.73,0,1,1,.53-.88A.72.72,0,0,1,47.39,29.74Z" transform="translate(0 0.82)"/><path class="f" d="M40.19,32a.74.74,0,0,1-.89-.54.73.73,0,0,1,1.42-.35A.73.73,0,0,1,40.19,32Z" transform="translate(0 0.82)"/><path class="f" d="M33.05,34.4a.73.73,0,1,1,.53-.88A.72.72,0,0,1,33.05,34.4Z" transform="translate(0 0.82)"/><path class="f" d="M26,37a.73.73,0,1,1,.53-.89A.73.73,0,0,1,26,37Z" transform="translate(0 0.82)"/><path class="f" d="M19,39.76a.73.73,0,1,1,.53-.88A.73.73,0,0,1,19,39.76Z" transform="translate(0 0.82)"/><path class="f" d="M12,42.7a.73.73,0,1,1-.36-1.42.74.74,0,0,1,.89.54A.72.72,0,0,1,12,42.7Z" transform="translate(0 0.82)"/><path class="f" d="M5.15,45.81a.73.73,0,1,1,.53-.89A.73.73,0,0,1,5.15,45.81Z" transform="translate(0 0.82)"/><path class="f" d="M140.8,11a.68.68,0,1,1,.49-.82A.68.68,0,0,1,140.8,11Z" transform="translate(0 0.82)"/><path class="f" d="M133.26,11a.68.68,0,1,1,.5-.83A.68.68,0,0,1,133.26,11Z" transform="translate(0 0.82)"/><path class="f" d="M125.72,11.09a.69.69,0,1,1,.5-.83A.69.69,0,0,1,125.72,11.09Z" transform="translate(0 0.82)"/><path class="f" d="M118.19,11.4a.69.69,0,1,1,.49-.83A.68.68,0,0,1,118.19,11.4Z" transform="translate(0 0.82)"/><path class="f" d="M110.66,11.89a.68.68,0,0,1-.82-.5.68.68,0,1,1,.82.5Z" transform="translate(0 0.82)"/><path class="f" d="M103.15,12.56a.68.68,0,0,1-.33-1.32.68.68,0,1,1,.33,1.32Z" transform="translate(0 0.82)"/><path class="f" d="M95.66,13.41a.68.68,0,0,1-.33-1.32.68.68,0,1,1,.33,1.32Z" transform="translate(0 0.82)"/><path class="f" d="M88.2,14.45a.68.68,0,1,1,.49-.83A.68.68,0,0,1,88.2,14.45Z" transform="translate(0 0.82)"/><path class="f" d="M80.75,15.66a.68.68,0,0,1-.33-1.32.68.68,0,1,1,.33,1.32Z" transform="translate(0 0.82)"/><path class="f" d="M73.34,17.06a.68.68,0,1,1,.5-.83A.68.68,0,0,1,73.34,17.06Z" transform="translate(0 0.82)"/><path class="f" d="M66,18.63a.69.69,0,0,1-.83-.49.68.68,0,0,1,.5-.83.69.69,0,0,1,.83.49A.68.68,0,0,1,66,18.63Z" transform="translate(0 0.82)"/><path class="f" d="M58.64,20.38a.68.68,0,1,1,.49-.83A.68.68,0,0,1,58.64,20.38Z" transform="translate(0 0.82)"/><path class="f" d="M51.35,22.31a.68.68,0,1,1,.49-.83A.68.68,0,0,1,51.35,22.31Z" transform="translate(0 0.82)"/><path class="f" d="M44.11,24.41a.68.68,0,1,1,.49-.82A.68.68,0,0,1,44.11,24.41Z" transform="translate(0 0.82)"/><path class="f" d="M36.92,26.69a.68.68,0,1,1,.5-.83A.69.69,0,0,1,36.92,26.69Z" transform="translate(0 0.82)"/><path class="f" d="M29.79,29.14a.68.68,0,1,1,.5-.83A.69.69,0,0,1,29.79,29.14Z" transform="translate(0 0.82)"/><path class="f" d="M22.72,31.76a.68.68,0,1,1,.5-.82A.68.68,0,0,1,22.72,31.76Z" transform="translate(0 0.82)"/><path class="f" d="M15.72,34.56a.69.69,0,1,1,.49-.83A.68.68,0,0,1,15.72,34.56Z" transform="translate(0 0.82)"/><path class="f" d="M8.78,37.52A.68.68,0,0,1,8,37a.68.68,0,1,1,.82.5Z" transform="translate(0 0.82)"/><path class="f" d="M1.92,40.64a.68.68,0,0,1-.33-1.32.68.68,0,1,1,.33,1.32Z" transform="translate(0 0.82)"/><path class="f" d="M137.42,4.92a.63.63,0,1,1,.46-.77A.63.63,0,0,1,137.42,4.92Z" transform="translate(0 0.82)"/><path class="f" d="M129.88,4.94a.63.63,0,1,1,.46-.76A.62.62,0,0,1,129.88,4.94Z" transform="translate(0 0.82)"/><path class="f" d="M122.35,5.15a.64.64,0,0,1-.77-.46.63.63,0,0,1,.46-.77.63.63,0,1,1,.31,1.23Z" transform="translate(0 0.82)"/><path class="f" d="M114.82,5.53a.63.63,0,0,1-.77-.46.62.62,0,0,1,.46-.76.63.63,0,1,1,.31,1.22Z" transform="translate(0 0.82)"/><path class="f" d="M107.3,6.09a.63.63,0,1,1,.46-.76A.63.63,0,0,1,107.3,6.09Z" transform="translate(0 0.82)"/><path class="f" d="M99.8,6.83a.63.63,0,1,1-.31-1.22.63.63,0,0,1,.31,1.22Z" transform="translate(0 0.82)"/><path class="f" d="M92.31,7.75a.63.63,0,0,1-.77-.46A.63.63,0,0,1,92.77,7,.63.63,0,0,1,92.31,7.75Z" transform="translate(0 0.82)"/><path class="f" d="M84.85,8.85a.63.63,0,0,1-.31-1.23.63.63,0,1,1,.31,1.23Z" transform="translate(0 0.82)"/><path class="f" d="M77.42,10.12a.63.63,0,0,1-.31-1.23.63.63,0,0,1,.77.46A.64.64,0,0,1,77.42,10.12Z" transform="translate(0 0.82)"/><path class="f" d="M70,11.56a.63.63,0,1,1,.46-.76A.63.63,0,0,1,70,11.56Z" transform="translate(0 0.82)"/><path class="f" d="M62.66,13.19a.65.65,0,0,1-.77-.46.63.63,0,1,1,.77.46Z" transform="translate(0 0.82)"/><path class="f" d="M55.34,15a.63.63,0,1,1,.45-.77A.63.63,0,0,1,55.34,15Z" transform="translate(0 0.82)"/><path class="f" d="M48.06,17a.63.63,0,1,1-.31-1.23A.63.63,0,1,1,48.06,17Z" transform="translate(0 0.82)"/><path class="f" d="M40.83,19.09a.63.63,0,0,1-.77-.46.63.63,0,0,1,.46-.76.63.63,0,1,1,.31,1.22Z" transform="translate(0 0.82)"/><path class="f" d="M33.65,21.4a.63.63,0,1,1,.46-.76A.62.62,0,0,1,33.65,21.4Z" transform="translate(0 0.82)"/><path class="f" d="M26.53,23.88a.63.63,0,1,1,.46-.76A.62.62,0,0,1,26.53,23.88Z" transform="translate(0 0.82)"/><path class="f" d="M19.47,26.53a.62.62,0,0,1-.76-.45.63.63,0,1,1,1.22-.31A.62.62,0,0,1,19.47,26.53Z" transform="translate(0 0.82)"/><path class="f" d="M12.48,29.35a.63.63,0,0,1-.77-.46.63.63,0,1,1,.77.46Z" transform="translate(0 0.82)"/><path class="f" d="M5.55,32.33A.63.63,0,1,1,6,31.56.62.62,0,0,1,5.55,32.33Z" transform="translate(0 0.82)"/><path class="f" d="M103.94.33a.6.6,0,0,1-.71-.43.57.57,0,0,1,.42-.7.59.59,0,0,1,.71.42A.59.59,0,0,1,103.94.33Z" transform="translate(0 0.82)"/><path class="f" d="M96.44,1.13a.58.58,0,1,1,.42-.71A.59.59,0,0,1,96.44,1.13Z" transform="translate(0 0.82)"/><path class="f" d="M89,2.11a.57.57,0,0,1-.7-.43.58.58,0,0,1,.42-.7.59.59,0,0,1,.71.42A.6.6,0,0,1,89,2.11Z" transform="translate(0 0.82)"/><path class="f" d="M81.51,3.26a.59.59,0,0,1-.71-.42.6.6,0,0,1,.43-.71.57.57,0,0,1,.7.42A.59.59,0,0,1,81.51,3.26Z" transform="translate(0 0.82)"/><path class="f" d="M74.09,4.58a.58.58,0,1,1,.42-.7A.57.57,0,0,1,74.09,4.58Z" transform="translate(0 0.82)"/><path class="f" d="M66.7,6.08A.58.58,0,1,1,66.42,5a.58.58,0,0,1,.28,1.13Z" transform="translate(0 0.82)"/><path class="f" d="M59.35,7.75A.58.58,0,1,1,59.77,7,.59.59,0,0,1,59.35,7.75Z" transform="translate(0 0.82)"/><path class="f" d="M52,9.59a.58.58,0,1,1,.42-.71A.58.58,0,0,1,52,9.59Z" transform="translate(0 0.82)"/><path class="f" d="M44.77,11.6a.58.58,0,1,1,.42-.71A.59.59,0,0,1,44.77,11.6Z" transform="translate(0 0.82)"/><path class="f" d="M37.55,13.78a.59.59,0,0,1-.71-.43A.58.58,0,0,1,38,13.07.59.59,0,0,1,37.55,13.78Z" transform="translate(0 0.82)"/><path class="f" d="M30.38,16.12a.58.58,0,0,1-.7-.42.58.58,0,1,1,1.13-.29A.58.58,0,0,1,30.38,16.12Z" transform="translate(0 0.82)"/><path class="f" d="M23.27,18.63a.58.58,0,0,1-.7-.42.58.58,0,1,1,1.13-.28A.57.57,0,0,1,23.27,18.63Z" transform="translate(0 0.82)"/><path class="f" d="M16.23,21.31a.58.58,0,1,1,.42-.71A.58.58,0,0,1,16.23,21.31Z" transform="translate(0 0.82)"/><path class="f" d="M9.24,24.15A.58.58,0,1,1,9,23a.57.57,0,0,1,.7.42A.59.59,0,0,1,9.24,24.15Z" transform="translate(0 0.82)"/><path class="f" d="M2.32,27.15A.58.58,0,0,1,2,26a.58.58,0,1,1,.28,1.13Z" transform="translate(0 0.82)"/><path class="f" d="M63.38.61a.53.53,0,0,1-.64-.38.53.53,0,0,1,.38-.65.53.53,0,0,1,.65.39A.53.53,0,0,1,63.38.61Z" transform="translate(0 0.82)"/><path class="f" d="M56,2.33a.53.53,0,0,1-.65-.39.54.54,0,0,1,.39-.65.55.55,0,0,1,.65.39A.54.54,0,0,1,56,2.33Z" transform="translate(0 0.82)"/><path class="f" d="M48.74,4.21a.53.53,0,0,1-.65-.39.53.53,0,0,1,.39-.64.52.52,0,0,1,.64.38A.53.53,0,0,1,48.74,4.21Z" transform="translate(0 0.82)"/><path class="f" d="M41.48,6.26a.54.54,0,0,1-.64-.39.53.53,0,0,1,.38-.65.53.53,0,0,1,.65.39A.54.54,0,0,1,41.48,6.26Z" transform="translate(0 0.82)"/><path class="f" d="M34.27,8.47a.53.53,0,1,1,.39-.65A.53.53,0,0,1,34.27,8.47Z" transform="translate(0 0.82)"/><path class="f" d="M27.12,10.85a.54.54,0,0,1-.65-.39.53.53,0,0,1,.39-.65.54.54,0,0,1,.65.39A.55.55,0,0,1,27.12,10.85Z" transform="translate(0 0.82)"/><path class="f" d="M20,13.38a.53.53,0,1,1-.26-1,.53.53,0,1,1,.26,1Z" transform="translate(0 0.82)"/><path class="f" d="M13,16.09a.55.55,0,0,1-.65-.39.54.54,0,0,1,.39-.65.53.53,0,0,1,.65.39A.54.54,0,0,1,13,16.09Z" transform="translate(0 0.82)"/><path class="f" d="M6,19a.53.53,0,0,1-.64-.39.54.54,0,0,1,.39-.65A.53.53,0,0,1,6,19Z" transform="translate(0 0.82)"/><path class="f" d="M38.2.92a.48.48,0,0,1-.59-.35A.49.49,0,0,1,38,0a.5.5,0,0,1,.59.35A.49.49,0,0,1,38.2.92Z" transform="translate(0 0.82)"/><path class="f" d="M31,3.17a.5.5,0,0,1-.59-.35.5.5,0,0,1,.35-.59.49.49,0,1,1,.24.94Z" transform="translate(0 0.82)"/><path class="f" d="M23.86,5.59a.5.5,0,0,1-.61-.36.51.51,0,0,1,.37-.61.5.5,0,0,1,.24,1Z" transform="translate(0 0.82)"/><path class="f" d="M16.77,8.14a.48.48,0,0,1-.59-.35.48.48,0,0,1,.35-.58.48.48,0,0,1,.59.35A.49.49,0,0,1,16.77,8.14Z" transform="translate(0 0.82)"/><path class="f" d="M9.74,10.87a.49.49,0,1,1,.35-.59A.5.5,0,0,1,9.74,10.87Z" transform="translate(0 0.82)"/><path class="f" d="M2.77,13.77a.5.5,0,0,1-.6-.37.49.49,0,0,1,.36-.6.5.5,0,0,1,.61.36A.51.51,0,0,1,2.77,13.77Z" transform="translate(0 0.82)"/><path class="f" d="M20.6.32A.44.44,0,0,1,20.05,0a.46.46,0,0,1,.33-.55.45.45,0,0,1,.54.33A.44.44,0,0,1,20.6.32Z" transform="translate(0 0.82)"/><path class="f" d="M13.52,2.92A.46.46,0,0,1,13,2.59a.45.45,0,0,1,.33-.54.44.44,0,0,1,.54.32A.45.45,0,0,1,13.52,2.92Z" transform="translate(0 0.82)"/><path class="f" d="M6.5,5.67A.46.46,0,0,1,6,5.34a.45.45,0,0,1,.33-.54.44.44,0,0,1,.54.32A.45.45,0,0,1,6.5,5.67Z" transform="translate(0 0.82)"/><path class="f" d="M3.26.45A.39.39,0,0,1,2.77.16a.4.4,0,0,1,.29-.48A.42.42,0,0,1,3.55,0,.4.4,0,0,1,3.26.45Z" transform="translate(0 0.82)"/></g></g></g><line class="g" x1="141.5" y1="2.32" x2="141.5" y2="258.32"/><line class="g" x1="1.5" y1="130.32" x2="281.5" y2="130.32"/><polygon class="h" points="140.74 130.3 276.38 130.3 140.74 255.89 140.74 130.3"/><path class="f" d="M272.52,131,142.25,251.61V131H272.52m7.71-3h-141V258.53L280.23,128Z" transform="translate(0 0.82)"/><polygon class="i" points="5.11 130.3 140.75 130.3 140.75 255.89 5.11 130.3"/><path class="f" d="M139.23,131V251.61L9,131H139.23m3-3H1.26l141,130.57V128Z" transform="translate(0 0.82)"/><path class="j" d="M249.83,223.63l6.25-4.7a.65.65,0,0,1,1,.52v11.66a.65.65,0,0,1-1,.52l-6.25-4.7" transform="translate(0 0.82)"/><rect class="j" x="225.09" y="217.03" width="24.75" height="18.14" rx="1.47"/><rect class="k" x="61.18" y="28.76" width="13.17" height="23.39" rx="6.59"/><path class="l" d="M77.37,45.75a9.6,9.6,0,0,1-19.2,0" transform="translate(0 0.82)"/><line class="m" x1="67.77" y1="56.17" x2="67.77" y2="62.59"/><line class="m" x1="61.18" y1="62.59" x2="74.35" y2="62.59"/><path class="n" d="M71.66,77.24H212.37a10.09,10.09,0,0,1,10.09,10.09V187a0,0,0,0,1,0,0H61.57a0,0,0,0,1,0,0V87.33A10.09,10.09,0,0,1,71.66,77.24Z"/><path class="n" d="M120.16,181.78v2.3h0a2.41,2.41,0,0,0,2.42,2.41h38.87a2.42,2.42,0,0,0,2.42-2.41h0v-2.3h71.77v7.86a8.42,8.42,0,0,1-8.43,8.43H56.81a8.42,8.42,0,0,1-8.42-8.43v-7.86h71.77Z" transform="translate(0 0.82)"/><circle cx="140.74" cy="120.08" r="5.64"/><path class="o" d="M119.89,102.19a20,20,0,0,0-9.07,19.53c1.36,8.49,8.29,12.82,9.35,13.46" transform="translate(0 0.82)"/><path class="o" d="M129.8,110.9a9,9,0,0,0,.14,15.57" transform="translate(0 0.82)"/><path class="o" d="M164.14,102.19a19.93,19.93,0,0,1,9.06,19.53c-1.35,8.49-8.29,12.82-9.34,13.46" transform="translate(0 0.82)"/><path class="o" d="M154.22,110.9a9.41,9.41,0,0,1,4.28,9.22,9.52,9.52,0,0,1-4.41,6.35" transform="translate(0 0.82)"/></svg>