<svg xmlns="http://www.w3.org/2000/svg" xmlns:xlink="http://www.w3.org/1999/xlink" viewBox="0 0 334.43 583.51"><defs><style>.a,.l,.m,.n,.p{fill:none;}.b{fill:#875ae2;}.b,.c,.d,.j,.n,.p{stroke:#1c1131;}.b,.c,.d,.j,.k,.l,.m,.n,.p{stroke-miterlimit:10;}.b,.c{stroke-width:3px;}.c,.d{fill:#ffd23f;}.d{stroke-width:2.81px;}.e{clip-path:url(#a);}.f{clip-path:url(#b);}.g{opacity:0.29;}.h{clip-path:url(#c);}.i{fill:#1c1131;}.j,.k{fill:#fff;}.j,.n,.p{stroke-width:1.5px;}.k,.l,.m{stroke:#000;}.k,.l{stroke-width:1.08px;}.m{stroke-width:0.27px;}.n{stroke-linecap:round;}.o{fill:#e83c6e;}</style><clipPath id="a" transform="translate(0 324.5)"><path class="a" d="M150.37,114.81l82.15-78.24c13.66-13,4.45-36-14.41-36H53.8c-18.87,0-28.07,23-14.41,36l82.15,78.24A20.9,20.9,0,0,0,150.37,114.81Z"/></clipPath><clipPath id="b" transform="translate(0 324.5)"><path class="a" d="M77.15-64.21h151.6a0,0,0,0,1,0,0V76.41a26.19,26.19,0,0,1-26.19,26.19H45.75a0,0,0,0,1,0,0V-32.82A31.39,31.39,0,0,1,77.15-64.21Z" transform="translate(249.87 -61.56) rotate(136.4)"/></clipPath><clipPath id="c" transform="translate(0 324.5)"><rect class="a" x="78.18" y="-149.95" width="364.9" height="333.62" rx="26.06" transform="translate(461 -150.67) rotate(136.4)"/></clipPath></defs><rect class="b" x="1.5" y="326.01" width="280" height="256" rx="20"/><rect class="c" x="166.69" y="109.33" width="72.11" height="127.88" transform="translate(-62.55 525.09) rotate(-46.4)"/><path class="d" d="M98.72,219a63.71,63.71,0,0,1-12.9,38.54H21.5a20,20,0,0,1-20-20V164.24A64,64,0,0,1,98.72,219Z" transform="translate(0 324.5)"/><path class="c" d="M152.11,115.77l82.15-78.24c13.66-13,4.46-36-14.41-36H55.54c-18.86,0-28.07,23-14.41,36l82.15,78.24A20.9,20.9,0,0,0,152.11,115.77Z" transform="translate(0 324.5)"/><g class="e"><g class="f"><g class="g"><g class="h"><path class="i" d="M239.52,31.54a2.3,2.3,0,1,1-.72-3.17A2.3,2.3,0,0,1,239.52,31.54Z" transform="translate(0 324.5)"/><path class="i" d="M233,38.9a2.3,2.3,0,1,1-.72-3.17A2.3,2.3,0,0,1,233,38.9Z" transform="translate(0 324.5)"/><path class="i" d="M226.77,46.49a2.3,2.3,0,1,1-.72-3.17A2.29,2.29,0,0,1,226.77,46.49Z" transform="translate(0 324.5)"/><path class="i" d="M220.83,54.32a2.3,2.3,0,1,1-.72-3.17A2.31,2.31,0,0,1,220.83,54.32Z" transform="translate(0 324.5)"/><path class="i" d="M215.19,62.37a2.3,2.3,0,1,1-.71-3.17A2.31,2.31,0,0,1,215.19,62.37Z" transform="translate(0 324.5)"/><path class="i" d="M237.77,21.87a2.21,2.21,0,1,1-.69-3.05A2.22,2.22,0,0,1,237.77,21.87Z" transform="translate(0 324.5)"/><path class="i" d="M231.09,29.07A2.21,2.21,0,1,1,230.4,26,2.22,2.22,0,0,1,231.09,29.07Z" transform="translate(0 324.5)"/><path class="i" d="M224.69,36.52a2.23,2.23,0,1,1-.69-3.08A2.22,2.22,0,0,1,224.69,36.52Z" transform="translate(0 324.5)"/><path class="i" d="M218.54,44.19a2.21,2.21,0,1,1-.69-3A2.22,2.22,0,0,1,218.54,44.19Z" transform="translate(0 324.5)"/><path class="i" d="M212.71,52.1A2.23,2.23,0,1,1,212,49,2.23,2.23,0,0,1,212.71,52.1Z" transform="translate(0 324.5)"/><path class="i" d="M207.16,60.2a2.23,2.23,0,1,1-.69-3.08A2.22,2.22,0,0,1,207.16,60.2Z" transform="translate(0 324.5)"/><path class="i" d="M201.92,68.51a2.23,2.23,0,1,1-.7-3.08A2.24,2.24,0,0,1,201.92,68.51Z" transform="translate(0 324.5)"/><path class="i" d="M236.14,12.29a2.15,2.15,0,1,1-.67-3A2.15,2.15,0,0,1,236.14,12.29Z" transform="translate(0 324.5)"/><path class="i" d="M229.3,19.34a2.15,2.15,0,1,1-.67-3A2.15,2.15,0,0,1,229.3,19.34Z" transform="translate(0 324.5)"/><path class="i" d="M222.72,26.64a2.15,2.15,0,1,1-.67-3A2.15,2.15,0,0,1,222.72,26.64Z" transform="translate(0 324.5)"/><path class="i" d="M216.41,34.17a2.15,2.15,0,1,1-.67-3A2.15,2.15,0,0,1,216.41,34.17Z" transform="translate(0 324.5)"/><path class="i" d="M210.37,41.92a2.15,2.15,0,1,1-.67-3A2.15,2.15,0,0,1,210.37,41.92Z" transform="translate(0 324.5)"/><path class="i" d="M204.61,49.88a2.15,2.15,0,1,1-.67-3A2.15,2.15,0,0,1,204.61,49.88Z" transform="translate(0 324.5)"/><path class="i" d="M199.14,58a2.15,2.15,0,1,1-.67-3A2.15,2.15,0,0,1,199.14,58Z" transform="translate(0 324.5)"/><path class="i" d="M194,66.39a2.15,2.15,0,1,1-.67-3A2.14,2.14,0,0,1,194,66.39Z" transform="translate(0 324.5)"/><path class="i" d="M227.59,9.69A2.06,2.06,0,1,1,227,6.85,2.06,2.06,0,0,1,227.59,9.69Z" transform="translate(0 324.5)"/><path class="i" d="M220.85,16.85a2.06,2.06,0,1,1-.64-2.85A2.07,2.07,0,0,1,220.85,16.85Z" transform="translate(0 324.5)"/><path class="i" d="M214.37,24.23a2.06,2.06,0,1,1-.64-2.84A2.06,2.06,0,0,1,214.37,24.23Z" transform="translate(0 324.5)"/><path class="i" d="M208.15,31.83a2.06,2.06,0,1,1-.64-2.84A2.06,2.06,0,0,1,208.15,31.83Z" transform="translate(0 324.5)"/><path class="i" d="M202.2,39.65a2.06,2.06,0,1,1-.64-2.84A2,2,0,0,1,202.2,39.65Z" transform="translate(0 324.5)"/><path class="i" d="M196.52,47.67a2.06,2.06,0,1,1-.64-2.84A2.06,2.06,0,0,1,196.52,47.67Z" transform="translate(0 324.5)"/><path class="i" d="M191.13,55.89a2.06,2.06,0,1,1-.64-2.84A2.06,2.06,0,0,1,191.13,55.89Z" transform="translate(0 324.5)"/><path class="i" d="M186,64.29a2.06,2.06,0,1,1-.64-2.85A2.06,2.06,0,0,1,186,64.29Z" transform="translate(0 324.5)"/><path class="i" d="M219.08,7.14a2,2,0,1,1-.62-2.72A2,2,0,0,1,219.08,7.14Z" transform="translate(0 324.5)"/><path class="i" d="M212.44,14.38a2,2,0,1,1-.61-2.72A2,2,0,0,1,212.44,14.38Z" transform="translate(0 324.5)"/><path class="i" d="M206.05,21.85a2,2,0,1,1-.61-2.72A2,2,0,0,1,206.05,21.85Z" transform="translate(0 324.5)"/><path class="i" d="M199.92,29.53a2,2,0,1,1-.61-2.72A2,2,0,0,1,199.92,29.53Z" transform="translate(0 324.5)"/><path class="i" d="M194.06,37.41a2,2,0,1,1-.62-2.72A2,2,0,0,1,194.06,37.41Z" transform="translate(0 324.5)"/><path class="i" d="M188.46,45.49a2,2,0,1,1-.61-2.73A2,2,0,0,1,188.46,45.49Z" transform="translate(0 324.5)"/><path class="i" d="M183.15,53.75a2,2,0,1,1-.62-2.72A2,2,0,0,1,183.15,53.75Z" transform="translate(0 324.5)"/><path class="i" d="M178.11,62.19a2,2,0,1,1-.61-2.72A2,2,0,0,1,178.11,62.19Z" transform="translate(0 324.5)"/><path class="i" d="M173.37,70.79a2,2,0,1,1-.62-2.72A2,2,0,0,1,173.37,70.79Z" transform="translate(0 324.5)"/><path class="i" d="M210.61,4.62A1.89,1.89,0,1,1,210,2,1.88,1.88,0,0,1,210.61,4.62Z" transform="translate(0 324.5)"/><path class="i" d="M204.07,12a1.89,1.89,0,1,1-.59-2.6A1.89,1.89,0,0,1,204.07,12Z" transform="translate(0 324.5)"/><path class="i" d="M197.77,19.49a1.89,1.89,0,1,1-.59-2.6A1.87,1.87,0,0,1,197.77,19.49Z" transform="translate(0 324.5)"/><path class="i" d="M191.73,27.24a1.89,1.89,0,1,1-.59-2.6A1.89,1.89,0,0,1,191.73,27.24Z" transform="translate(0 324.5)"/><path class="i" d="M185.94,35.18a1.89,1.89,0,1,1-.59-2.6A1.88,1.88,0,0,1,185.94,35.18Z" transform="translate(0 324.5)"/><path class="i" d="M180.44,43.32a1.91,1.91,0,1,1-3.23-2,1.91,1.91,0,1,1,3.23,2Z" transform="translate(0 324.5)"/><path class="i" d="M175.19,51.63A1.91,1.91,0,1,1,174.6,49,1.91,1.91,0,0,1,175.19,51.63Z" transform="translate(0 324.5)"/><path class="i" d="M170.21,60.1a1.89,1.89,0,1,1-.59-2.61A1.89,1.89,0,0,1,170.21,60.1Z" transform="translate(0 324.5)"/><path class="i" d="M165.52,68.73a1.89,1.89,0,1,1-.59-2.6A1.88,1.88,0,0,1,165.52,68.73Z" transform="translate(0 324.5)"/><path class="i" d="M195.74,9.56a1.82,1.82,0,1,1-.56-2.51A1.82,1.82,0,0,1,195.74,9.56Z" transform="translate(0 324.5)"/><path class="i" d="M189.53,17.18a1.82,1.82,0,0,1-3.08-1.95,1.82,1.82,0,1,1,3.08,1.95Z" transform="translate(0 324.5)"/><path class="i" d="M183.57,25a1.82,1.82,0,1,1-.57-2.52A1.82,1.82,0,0,1,183.57,25Z" transform="translate(0 324.5)"/><circle class="i" cx="176.32" cy="32.01" r="1.82" transform="translate(-2.72 364.12) rotate(-12.72)"/><path class="i" d="M172.42,41.16a1.82,1.82,0,1,1-.57-2.51A1.82,1.82,0,0,1,172.42,41.16Z" transform="translate(0 324.5)"/><path class="i" d="M167.24,49.51a1.82,1.82,0,1,1-.57-2.51A1.82,1.82,0,0,1,167.24,49.51Z" transform="translate(0 324.5)"/><path class="i" d="M162.33,58a1.82,1.82,0,1,1-.57-2.51A1.82,1.82,0,0,1,162.33,58Z" transform="translate(0 324.5)"/><path class="i" d="M157.7,66.69a1.82,1.82,0,1,1-.57-2.51A1.83,1.83,0,0,1,157.7,66.69Z" transform="translate(0 324.5)"/><path class="i" d="M187.43,7.19a1.74,1.74,0,1,1-.54-2.4A1.73,1.73,0,0,1,187.43,7.19Z" transform="translate(0 324.5)"/><path class="i" d="M181.31,14.87a1.74,1.74,0,1,1-.54-2.39A1.75,1.75,0,0,1,181.31,14.87Z" transform="translate(0 324.5)"/><path class="i" d="M175.42,22.74a1.73,1.73,0,1,1-.54-2.4A1.73,1.73,0,0,1,175.42,22.74Z" transform="translate(0 324.5)"/><path class="i" d="M169.79,30.79a1.73,1.73,0,1,1-.54-2.39A1.73,1.73,0,0,1,169.79,30.79Z" transform="translate(0 324.5)"/><path class="i" d="M164.41,39a1.73,1.73,0,1,1-.54-2.39A1.73,1.73,0,0,1,164.41,39Z" transform="translate(0 324.5)"/><path class="i" d="M159.3,47.4a1.74,1.74,0,1,1-.54-2.39A1.73,1.73,0,0,1,159.3,47.4Z" transform="translate(0 324.5)"/><path class="i" d="M154.45,56a1.74,1.74,0,1,1-.54-2.4A1.73,1.73,0,0,1,154.45,56Z" transform="translate(0 324.5)"/><path class="i" d="M149.87,64.64a1.73,1.73,0,1,1-.54-2.39A1.73,1.73,0,0,1,149.87,64.64Z" transform="translate(0 324.5)"/><path class="i" d="M179.17,4.85a1.67,1.67,0,1,1-.52-2.31A1.67,1.67,0,0,1,179.17,4.85Z" transform="translate(0 324.5)"/><path class="i" d="M173.12,12.59a1.67,1.67,0,1,1-.52-2.3A1.67,1.67,0,0,1,173.12,12.59Z" transform="translate(0 324.5)"/><path class="i" d="M167.32,20.52a1.67,1.67,0,1,1-.52-2.31A1.68,1.68,0,0,1,167.32,20.52Z" transform="translate(0 324.5)"/><path class="i" d="M161.75,28.62a1.67,1.67,0,1,1-.52-2.31A1.67,1.67,0,0,1,161.75,28.62Z" transform="translate(0 324.5)"/><path class="i" d="M156.44,36.88a1.67,1.67,0,1,1-.52-2.3A1.66,1.66,0,0,1,156.44,36.88Z" transform="translate(0 324.5)"/><path class="i" d="M151.39,45.31a1.67,1.67,0,1,1-.52-2.3A1.67,1.67,0,0,1,151.39,45.31Z" transform="translate(0 324.5)"/><path class="i" d="M146.6,53.89a1.67,1.67,0,1,1-.52-2.31A1.68,1.68,0,0,1,146.6,53.89Z" transform="translate(0 324.5)"/><path class="i" d="M142.05,62.59a1.65,1.65,0,1,1-.52-2.27A1.66,1.66,0,0,1,142.05,62.59Z" transform="translate(0 324.5)"/><path class="i" d="M137.81,71.46a1.67,1.67,0,1,1-.52-2.3A1.68,1.68,0,0,1,137.81,71.46Z" transform="translate(0 324.5)"/><path class="i" d="M165,10.32a1.58,1.58,0,1,1-.5-2.18A1.59,1.59,0,0,1,165,10.32Z" transform="translate(0 324.5)"/><path class="i" d="M159.21,18.3a1.58,1.58,0,1,1-.49-2.18A1.57,1.57,0,0,1,159.21,18.3Z" transform="translate(0 324.5)"/><path class="i" d="M153.72,26.45a1.58,1.58,0,1,1-.49-2.19A1.59,1.59,0,0,1,153.72,26.45Z" transform="translate(0 324.5)"/><path class="i" d="M148.47,34.75a1.58,1.58,0,1,1-.49-2.18A1.59,1.59,0,0,1,148.47,34.75Z" transform="translate(0 324.5)"/><path class="i" d="M143.48,43.21a1.58,1.58,0,1,1-2.68-1.69,1.58,1.58,0,0,1,2.68,1.69Z" transform="translate(0 324.5)"/><path class="i" d="M138.73,51.82a1.58,1.58,0,1,1-.49-2.18A1.57,1.57,0,0,1,138.73,51.82Z" transform="translate(0 324.5)"/><path class="i" d="M134.25,60.56a1.58,1.58,0,1,1-.49-2.18A1.58,1.58,0,0,1,134.25,60.56Z" transform="translate(0 324.5)"/><path class="i" d="M130,69.44a1.58,1.58,0,1,1-.5-2.18A1.59,1.59,0,0,1,130,69.44Z" transform="translate(0 324.5)"/><path class="i" d="M156.81,8.08A1.52,1.52,0,1,1,156.34,6,1.51,1.51,0,0,1,156.81,8.08Z" transform="translate(0 324.5)"/><path class="i" d="M151.14,16.11a1.51,1.51,0,1,1-.47-2.1A1.51,1.51,0,0,1,151.14,16.11Z" transform="translate(0 324.5)"/><path class="i" d="M145.72,24.3a1.52,1.52,0,1,1-.48-2.1A1.52,1.52,0,0,1,145.72,24.3Z" transform="translate(0 324.5)"/><path class="i" d="M140.53,32.64a1.52,1.52,0,1,1-.47-2.09A1.52,1.52,0,0,1,140.53,32.64Z" transform="translate(0 324.5)"/><path class="i" d="M135.59,41.14A1.52,1.52,0,0,1,133,39.52a1.52,1.52,0,1,1,2.57,1.62Z" transform="translate(0 324.5)"/><path class="i" d="M130.88,49.76a1.5,1.5,0,1,1-.46-2.06A1.49,1.49,0,0,1,130.88,49.76Z" transform="translate(0 324.5)"/><path class="i" d="M126.47,58.54a1.52,1.52,0,1,1-.48-2.1A1.52,1.52,0,0,1,126.47,58.54Z" transform="translate(0 324.5)"/><path class="i" d="M122.27,67.42a1.5,1.5,0,1,1-.47-2.06A1.49,1.49,0,0,1,122.27,67.42Z" transform="translate(0 324.5)"/><path class="i" d="M148.68,5.84a1.43,1.43,0,1,1-2.42-1.53,1.43,1.43,0,0,1,2.42,1.53Z" transform="translate(0 324.5)"/><path class="i" d="M143.08,13.92a1.43,1.43,0,0,1-2.42-1.53,1.43,1.43,0,1,1,2.42,1.53Z" transform="translate(0 324.5)"/><circle class="i" cx="136.5" cy="345.88" r="1.43"/><path class="i" d="M132.59,30.53A1.43,1.43,0,1,1,130.17,29a1.43,1.43,0,0,1,2.42,1.53Z" transform="translate(0 324.5)"/><path class="i" d="M127.7,39.05a1.43,1.43,0,1,1-.45-2A1.44,1.44,0,0,1,127.7,39.05Z" transform="translate(0 324.5)"/><path class="i" d="M123.06,47.71a1.43,1.43,0,1,1-.45-2A1.44,1.44,0,0,1,123.06,47.71Z" transform="translate(0 324.5)"/><circle class="i" cx="117.46" cy="380.24" r="1.43"/><path class="i" d="M114.53,65.42a1.45,1.45,0,0,1-2,.44,1.43,1.43,0,0,1,1.53-2.42A1.44,1.44,0,0,1,114.53,65.42Z" transform="translate(0 324.5)"/><path class="i" d="M140.58,3.63a1.37,1.37,0,1,1-.42-1.88A1.37,1.37,0,0,1,140.58,3.63Z" transform="translate(0 324.5)"/><path class="i" d="M135.05,11.75a1.37,1.37,0,1,1-.43-1.89A1.36,1.36,0,0,1,135.05,11.75Z" transform="translate(0 324.5)"/><path class="i" d="M129.74,20a1.37,1.37,0,0,1-2.31-1.46A1.37,1.37,0,1,1,129.74,20Z" transform="translate(0 324.5)"/><path class="i" d="M124.67,28.43a1.36,1.36,0,1,1-.42-1.88A1.36,1.36,0,0,1,124.67,28.43Z" transform="translate(0 324.5)"/><path class="i" d="M119.84,37a1.36,1.36,0,0,1-1.89.42,1.37,1.37,0,0,1,1.46-2.31A1.38,1.38,0,0,1,119.84,37Z" transform="translate(0 324.5)"/><path class="i" d="M115.24,45.67a1.37,1.37,0,1,1-2.31-1.46,1.37,1.37,0,0,1,2.31,1.46Z" transform="translate(0 324.5)"/><path class="i" d="M110.89,54.48a1.36,1.36,0,1,1-.42-1.88A1.36,1.36,0,0,1,110.89,54.48Z" transform="translate(0 324.5)"/><path class="i" d="M106.79,63.41a1.37,1.37,0,1,1-.43-1.88A1.36,1.36,0,0,1,106.79,63.41Z" transform="translate(0 324.5)"/><path class="i" d="M127,9.59a1.3,1.3,0,0,1-1.79.41,1.3,1.3,0,1,1,1.39-2.2A1.29,1.29,0,0,1,127,9.59Z" transform="translate(0 324.5)"/><path class="i" d="M121.79,17.9a1.3,1.3,0,0,1-1.8.4,1.3,1.3,0,0,1,1.39-2.2A1.31,1.31,0,0,1,121.79,17.9Z" transform="translate(0 324.5)"/><path class="i" d="M116.77,26.35a1.3,1.3,0,1,1-.41-1.8A1.31,1.31,0,0,1,116.77,26.35Z" transform="translate(0 324.5)"/><path class="i" d="M112,34.93a1.3,1.3,0,0,1-2.2-1.39,1.3,1.3,0,1,1,2.2,1.39Z" transform="translate(0 324.5)"/><path class="i" d="M107.43,43.64a1.3,1.3,0,0,1-2.2-1.39,1.3,1.3,0,1,1,2.2,1.39Z" transform="translate(0 324.5)"/><path class="i" d="M103.12,52.47a1.3,1.3,0,0,1-2.2-1.39,1.3,1.3,0,1,1,2.2,1.39Z" transform="translate(0 324.5)"/><path class="i" d="M99.06,61.41A1.3,1.3,0,1,1,96.86,60a1.3,1.3,0,0,1,2.2,1.39Z" transform="translate(0 324.5)"/><path class="i" d="M95.24,70.46a1.31,1.31,0,0,1-1.8.41,1.3,1.3,0,1,1,1.8-.41Z" transform="translate(0 324.5)"/><path class="i" d="M119,7.44a1.23,1.23,0,0,1-1.7.39,1.24,1.24,0,1,1,1.32-2.09A1.22,1.22,0,0,1,119,7.44Z" transform="translate(0 324.5)"/><path class="i" d="M113.82,15.78a1.21,1.21,0,1,1-.37-1.68A1.22,1.22,0,0,1,113.82,15.78Z" transform="translate(0 324.5)"/><path class="i" d="M108.86,24.25a1.22,1.22,0,1,1-.38-1.67A1.22,1.22,0,0,1,108.86,24.25Z" transform="translate(0 324.5)"/><path class="i" d="M104.12,32.86a1.21,1.21,0,1,1-.38-1.67A1.2,1.2,0,0,1,104.12,32.86Z" transform="translate(0 324.5)"/><path class="i" d="M99.61,41.59a1.21,1.21,0,0,1-2-1.29,1.21,1.21,0,1,1,2,1.29Z" transform="translate(0 324.5)"/><path class="i" d="M95.34,50.44A1.21,1.21,0,1,1,95,48.77,1.21,1.21,0,0,1,95.34,50.44Z" transform="translate(0 324.5)"/><path class="i" d="M91.31,59.4a1.21,1.21,0,1,1-.38-1.67A1.2,1.2,0,0,1,91.31,59.4Z" transform="translate(0 324.5)"/><path class="i" d="M87.52,68.47a1.22,1.22,0,1,1-.38-1.68A1.22,1.22,0,0,1,87.52,68.47Z" transform="translate(0 324.5)"/><path class="i" d="M111,5.3a1.15,1.15,0,1,1-.36-1.59A1.15,1.15,0,0,1,111,5.3Z" transform="translate(0 324.5)"/><path class="i" d="M105.89,13.67A1.15,1.15,0,1,1,104,12.44a1.16,1.16,0,0,1,1.59-.35A1.14,1.14,0,0,1,105.89,13.67Z" transform="translate(0 324.5)"/><path class="i" d="M101,22.18a1.17,1.17,0,0,1-1.59.36,1.15,1.15,0,1,1,1.59-.36Z" transform="translate(0 324.5)"/><path class="i" d="M96.28,30.81a1.14,1.14,0,0,1-1.58.36,1.15,1.15,0,0,1-.36-1.59,1.17,1.17,0,0,1,1.59-.36A1.16,1.16,0,0,1,96.28,30.81Z" transform="translate(0 324.5)"/><path class="i" d="M91.82,39.56a1.15,1.15,0,1,1-1.94-1.22,1.15,1.15,0,0,1,1.94,1.22Z" transform="translate(0 324.5)"/><path class="i" d="M87.58,48.43a1.14,1.14,0,0,1-1.58.36,1.15,1.15,0,0,1-.36-1.59,1.17,1.17,0,0,1,1.59-.36A1.16,1.16,0,0,1,87.58,48.43Z" transform="translate(0 324.5)"/><path class="i" d="M83.58,57.4a1.15,1.15,0,1,1-1.94-1.22,1.15,1.15,0,1,1,1.94,1.22Z" transform="translate(0 324.5)"/><path class="i" d="M79.82,66.48a1.15,1.15,0,1,1-.36-1.59A1.15,1.15,0,0,1,79.82,66.48Z" transform="translate(0 324.5)"/><path class="i" d="M103.06,3.17A1.08,1.08,0,0,1,101.23,2a1.08,1.08,0,1,1,1.83,1.16Z" transform="translate(0 324.5)"/><path class="i" d="M98,11.57a1.08,1.08,0,1,1-1.83-1.16A1.08,1.08,0,0,1,98,11.57Z" transform="translate(0 324.5)"/><path class="i" d="M93.1,20.11a1.08,1.08,0,1,1-.33-1.5A1.09,1.09,0,0,1,93.1,20.11Z" transform="translate(0 324.5)"/><path class="i" d="M88.46,28.76a1.08,1.08,0,1,1-.34-1.49A1.09,1.09,0,0,1,88.46,28.76Z" transform="translate(0 324.5)"/><path class="i" d="M84,37.54a1.08,1.08,0,1,1-.34-1.5A1.08,1.08,0,0,1,84,37.54Z" transform="translate(0 324.5)"/><path class="i" d="M79.83,46.42a1.08,1.08,0,1,1-.34-1.5A1.08,1.08,0,0,1,79.83,46.42Z" transform="translate(0 324.5)"/><path class="i" d="M75.86,55.41a1.08,1.08,0,1,1-.34-1.5A1.08,1.08,0,0,1,75.86,55.41Z" transform="translate(0 324.5)"/><path class="i" d="M72.12,64.49a1.08,1.08,0,1,1-1.83-1.15,1.08,1.08,0,1,1,1.83,1.15Z" transform="translate(0 324.5)"/><path class="i" d="M90.06,9.48a1,1,0,1,1-.31-1.4A1,1,0,0,1,90.06,9.48Z" transform="translate(0 324.5)"/><path class="i" d="M85.24,18a1,1,0,1,1-.32-1.4A1,1,0,0,1,85.24,18Z" transform="translate(0 324.5)"/><path class="i" d="M80.64,26.72a1,1,0,1,1-.32-1.41A1,1,0,0,1,80.64,26.72Z" transform="translate(0 324.5)"/><path class="i" d="M76.25,35.51a1,1,0,1,1-.32-1.4A1,1,0,0,1,76.25,35.51Z" transform="translate(0 324.5)"/><path class="i" d="M72.08,44.41a1,1,0,1,1-1.72-1.09,1,1,0,0,1,1.72,1.09Z" transform="translate(0 324.5)"/><path class="i" d="M68.14,53.41a1,1,0,1,1-.31-1.4A1,1,0,0,1,68.14,53.41Z" transform="translate(0 324.5)"/><path class="i" d="M64.43,62.51a1,1,0,1,1-.32-1.4A1,1,0,0,1,64.43,62.51Z" transform="translate(0 324.5)"/><path class="i" d="M82.17,7.4a1,1,0,1,1-.3-1.32A1,1,0,0,1,82.17,7.4Z" transform="translate(0 324.5)"/><path class="i" d="M77.39,16a1,1,0,1,1-.3-1.31A1,1,0,0,1,77.39,16Z" transform="translate(0 324.5)"/><path class="i" d="M72.82,24.68a1,1,0,0,1-1.31.3,1,1,0,1,1,1.31-.3Z" transform="translate(0 324.5)"/><path class="i" d="M68.47,33.49a1,1,0,0,1-1.31.3,1,1,0,1,1,1.31-.3Z" transform="translate(0 324.5)"/><path class="i" d="M64.34,42.41a1,1,0,1,1-.3-1.32A1,1,0,0,1,64.34,42.41Z" transform="translate(0 324.5)"/><path class="i" d="M60.43,51.42a1,1,0,1,1-.3-1.32A1,1,0,0,1,60.43,51.42Z" transform="translate(0 324.5)"/><path class="i" d="M74.28,5.32A.89.89,0,1,1,74,4.09.89.89,0,0,1,74.28,5.32Z" transform="translate(0 324.5)"/><path class="i" d="M69.54,13.93a.89.89,0,1,1-.27-1.23A.9.9,0,0,1,69.54,13.93Z" transform="translate(0 324.5)"/><path class="i" d="M65,22.65a.89.89,0,0,1-1.23.27.88.88,0,0,1-.28-1.22.89.89,0,0,1,1.51.95Z" transform="translate(0 324.5)"/><path class="i" d="M60.7,31.47a.89.89,0,1,1-.28-1.22A.88.88,0,0,1,60.7,31.47Z" transform="translate(0 324.5)"/><path class="i" d="M56.6,40.4a.89.89,0,1,1-1.5-.95.89.89,0,0,1,1.5.95Z" transform="translate(0 324.5)"/><path class="i" d="M52.72,49.43a.9.9,0,0,1-1.23.28.89.89,0,0,1-.27-1.23.88.88,0,0,1,1.22-.28A.89.89,0,0,1,52.72,49.43Z" transform="translate(0 324.5)"/><path class="i" d="M66.4,3.24a.82.82,0,1,1-.26-1.14A.83.83,0,0,1,66.4,3.24Z" transform="translate(0 324.5)"/><path class="i" d="M61.7,11.87a.82.82,0,0,1-1.13.26.82.82,0,1,1,.88-1.39A.81.81,0,0,1,61.7,11.87Z" transform="translate(0 324.5)"/><path class="i" d="M57.22,20.61A.83.83,0,1,1,57,19.48.83.83,0,0,1,57.22,20.61Z" transform="translate(0 324.5)"/><path class="i" d="M52.94,29.46a.83.83,0,0,1-1.14.25.82.82,0,0,1-.26-1.13.83.83,0,1,1,1.4.88Z" transform="translate(0 324.5)"/><path class="i" d="M48.87,38.4a.83.83,0,1,1-.26-1.13A.83.83,0,0,1,48.87,38.4Z" transform="translate(0 324.5)"/><path class="i" d="M53.87,9.82a.74.74,0,0,1-1,.24.76.76,0,1,1,.81-1.28A.75.75,0,0,1,53.87,9.82Z" transform="translate(0 324.5)"/><path class="i" d="M49.42,18.58a.76.76,0,1,1-1.28-.81.76.76,0,0,1,1.28.81Z" transform="translate(0 324.5)"/><path class="i" d="M45.17,27.44a.75.75,0,0,1-1,.24.76.76,0,1,1,.81-1.28A.75.75,0,0,1,45.17,27.44Z" transform="translate(0 324.5)"/><path class="i" d="M41.13,36.4a.75.75,0,0,1-1,.24.76.76,0,1,1,1-.24Z" transform="translate(0 324.5)"/><path class="i" d="M46.05,7.78a.7.7,0,0,1-1,.22.7.7,0,1,1,1-.22Z" transform="translate(0 324.5)"/><path class="i" d="M41.63,16.56a.69.69,0,0,1-1.17-.74.69.69,0,1,1,1.17.74Z" transform="translate(0 324.5)"/><path class="i" d="M37.42,25.43a.7.7,0,0,1-1,.22.71.71,0,0,1-.22-1,.7.7,0,0,1,1-.21A.69.69,0,0,1,37.42,25.43Z" transform="translate(0 324.5)"/><path class="i" d="M334.42-318.36a.08.08,0,0,1-.09,0,.07.07,0,0,1,0-.09.07.07,0,0,1,.09,0A.06.06,0,0,1,334.42-318.36Z" transform="translate(0 324.5)"/><path class="i" d="M324.23-324.43a0,0,0,0,1-.06,0,0,0,0,0,1,0-.06s0,0,.06,0A0,0,0,0,1,324.23-324.43Z" transform="translate(0 324.5)"/></g></g></g></g><rect class="j" x="119.36" y="509.68" width="44.29" height="26.76"/><rect class="j" x="100.82" y="533.79" width="81.38" height="9.67" rx="4.83"/><rect class="k" x="135.67" y="385.9" width="11.67" height="13.7"/><rect class="k" x="120.59" y="375.9" width="41.83" height="13.7" rx="2.46"/><circle class="l" cx="141.96" cy="382.76" r="3.3"/><circle class="m" cx="149" cy="382.76" r="0.81"/><rect class="j" x="43.04" y="395.36" width="196.93" height="123.32" rx="6.77"/><line class="n" x1="184.89" y1="407.91" x2="228.22" y2="407.91"/><line class="n" x1="221.31" y1="414.97" x2="191.8" y2="414.97"/><path d="M200.68,165.06c.4-.22.74-.54,1.14-.77a8.83,8.83,0,0,1,10,.37,9.06,9.06,0,1,1-10.51,14.77,2.55,2.55,0,0,0-.61-.42l-1.1-1.11a2.53,2.53,0,0,0-.43-.6,9.11,9.11,0,0,1,0-10.53,2.81,2.81,0,0,0,.42-.6Zm-.07,12.9a8.39,8.39,0,1,0,0-11.86A8.39,8.39,0,0,0,200.61,178Z" transform="translate(0 324.5)"/><path class="o" d="M200.57,170.18a5,5,0,0,1,2.28-1.24,14.77,14.77,0,0,1,4.82-.4,10.64,10.64,0,0,1,3,.52,4.46,4.46,0,0,1,2,1.18,3,3,0,0,1,.71,2.57,1.35,1.35,0,0,1-1.48,1.11,10.61,10.61,0,0,1-1.67-.29,1.23,1.23,0,0,1-.93-1.09,5.43,5.43,0,0,1,0-.57.85.85,0,0,0-.85-.86c-1.2,0-2.39,0-3.58,0a.84.84,0,0,0-.84.84c0,.17,0,.35,0,.53a1.25,1.25,0,0,1-1,1.16,14,14,0,0,1-1.57.28,1.37,1.37,0,0,1-1.55-1.19A3,3,0,0,1,200.57,170.18Z" transform="translate(0 324.5)"/><rect class="j" x="57.3" y="407.91" width="115.06" height="98.22" rx="3.51"/><polyline class="p" points="114.83 506.13 114.83 457.01 114.83 407.91"/><polyline class="p" points="172.36 457.01 114.83 457.01 57.29 457.01"/><circle cx="82.7" cy="425.97" r="3.81"/><path d="M82.7,430.74h0a7.61,7.61,0,0,1,7.61,7.61v1.77a0,0,0,0,1,0,0H75.09a0,0,0,0,1,0,0v-1.77A7.61,7.61,0,0,1,82.7,430.74Z"/><circle cx="141.5" cy="425.97" r="3.81"/><path d="M141.5,430.74h0a7.61,7.61,0,0,1,7.61,7.61v1.77a0,0,0,0,1,0,0H133.89a0,0,0,0,1,0,0v-1.77A7.61,7.61,0,0,1,141.5,430.74Z"/><circle cx="82.7" cy="474.23" r="3.81"/><path d="M82.7,479h0a7.61,7.61,0,0,1,7.61,7.61v1.77a0,0,0,0,1,0,0H75.09a0,0,0,0,1,0,0v-1.77A7.61,7.61,0,0,1,82.7,479Z"/><circle cx="141.5" cy="474.23" r="3.81"/><path d="M141.5,479h0a7.61,7.61,0,0,1,7.61,7.61v1.77a0,0,0,0,1,0,0H133.89a0,0,0,0,1,0,0v-1.77A7.61,7.61,0,0,1,141.5,479Z"/><rect class="n" x="184.89" y="431.97" width="43.32" height="39.72" rx="5.69"/><circle cx="206.55" cy="446.66" r="3.81"/><path d="M206.55,451.43h0a7.61,7.61,0,0,1,7.61,7.61v1.77a0,0,0,0,1,0,0H198.94a0,0,0,0,1,0,0V459A7.61,7.61,0,0,1,206.55,451.43Z"/></svg>