<svg xmlns="http://www.w3.org/2000/svg" xmlns:xlink="http://www.w3.org/1999/xlink" viewBox="0 0 283.59 262.04"><defs><style>.a,.c,.j,.o,.p{fill:none;}.b{fill:#875ae2;}.b,.c,.k,.n{stroke:#1c1131;}.b,.c,.j,.k,.l,.m,.n{stroke-miterlimit:10;}.b,.c,.j,.n{stroke-width:3px;}.d{clip-path:url(#a);}.e{opacity:0.29;}.f{clip-path:url(#b);}.g{fill:#1c1131;}.h{clip-path:url(#c);}.i{clip-path:url(#d);}.j{stroke:#ffd23f;}.j,.m,.o,.p{stroke-linecap:round;}.k,.n{fill:#ffd23f;}.k{stroke-width:3.06px;}.l,.m{fill:#fff;stroke-width:1.5px;}.l,.m,.o,.p{stroke:#000;}.o,.p{stroke-miterlimit:18.65;}.o{stroke-width:1.6px;}.p{stroke-width:1.2px;}</style><clipPath id="a" transform="translate(0.59)"><path class="a" d="M2,129.63H122A19.95,19.95,0,0,1,142,149.58V257a.46.46,0,0,1-.46.46H2a.46.46,0,0,1-.46-.46v-127A.46.46,0,0,1,2,129.63Z" transform="translate(143.5 387.13) rotate(180)"/></clipPath><clipPath id="b" transform="translate(0.59)"><rect class="a" x="1.54" y="1.5" width="280" height="256" rx="20" transform="translate(283.08 259) rotate(180)"/></clipPath><clipPath id="c" transform="translate(0.59)"><path class="a" d="M141.29,1.5H261.61a20.1,20.1,0,0,1,20.1,20.1V129.5a0,0,0,0,1,0,0H141.29a0,0,0,0,1,0,0V1.5A0,0,0,0,1,141.29,1.5Z"/></clipPath><clipPath id="d" transform="translate(0.59)"><rect class="a" x="1.71" y="1.5" width="280" height="256" rx="20"/></clipPath></defs><rect class="b" x="2.09" y="1.5" width="280" height="256" rx="20"/><line class="c" x1="142.09" y1="1.5" x2="142.09" y2="257.5"/><line class="c" x1="2.09" y1="129.5" x2="282.09" y2="129.5"/><g class="d"><g class="e"><g class="f"><path class="g" d="M136.1,259.61a3.36,3.36,0,1,1,2.44-4.08A3.36,3.36,0,0,1,136.1,259.61Z" transform="translate(0.59)"/><path class="g" d="M128.57,260a3.36,3.36,0,1,1,2.44-4.08A3.37,3.37,0,0,1,128.57,260Z" transform="translate(0.59)"/><path class="g" d="M121.13,261.15a3.35,3.35,0,1,1,2.43-4.06A3.35,3.35,0,0,1,121.13,261.15Z" transform="translate(0.59)"/><circle class="g" cx="139.45" cy="250.51" r="3.28" transform="translate(-142.44 299.53) rotate(-70.74)"/><path class="g" d="M132.72,253.57a3.27,3.27,0,1,1,2.38-4A3.27,3.27,0,0,1,132.72,253.57Z" transform="translate(0.59)"/><path class="g" d="M125.21,254.25a3.28,3.28,0,1,1,2.38-4A3.29,3.29,0,0,1,125.21,254.25Z" transform="translate(0.59)"/><path class="g" d="M117.82,255.7a3.28,3.28,0,1,1,2.37-4A3.28,3.28,0,0,1,117.82,255.7Z" transform="translate(0.59)"/><path class="g" d="M110.61,257.92a3.28,3.28,0,1,1,2.38-4A3.28,3.28,0,0,1,110.61,257.92Z" transform="translate(0.59)"/><path class="g" d="M103.68,260.88a3.28,3.28,0,1,1,2.38-4A3.29,3.29,0,0,1,103.68,260.88Z" transform="translate(0.59)"/><path class="g" d="M136.87,247.46a3.2,3.2,0,1,1,2.32-3.88A3.2,3.2,0,0,1,136.87,247.46Z" transform="translate(0.59)"/><path class="g" d="M129.34,247.68a3.2,3.2,0,1,1,2.32-3.88A3.2,3.2,0,0,1,129.34,247.68Z" transform="translate(0.59)"/><path class="g" d="M121.86,248.62a3.2,3.2,0,1,1,2.32-3.88A3.2,3.2,0,0,1,121.86,248.62Z" transform="translate(0.59)"/><path class="g" d="M114.51,250.28a3.19,3.19,0,1,1,2.32-3.87A3.2,3.2,0,0,1,114.51,250.28Z" transform="translate(0.59)"/><path class="g" d="M107.35,252.65a3.2,3.2,0,1,1,2.32-3.88A3.19,3.19,0,0,1,107.35,252.65Z" transform="translate(0.59)"/><path class="g" d="M100.46,255.69a3.2,3.2,0,1,1,2.32-3.88A3.2,3.2,0,0,1,100.46,255.69Z" transform="translate(0.59)"/><path class="g" d="M93.89,259.38a3.19,3.19,0,1,1,2.32-3.87A3.19,3.19,0,0,1,93.89,259.38Z" transform="translate(0.59)"/><path class="g" d="M141,241.56a3.11,3.11,0,1,1,2.26-3.78A3.12,3.12,0,0,1,141,241.56Z" transform="translate(0.59)"/><path class="g" d="M133.49,241.38a3.11,3.11,0,1,1,2.26-3.77A3.11,3.11,0,0,1,133.49,241.38Z" transform="translate(0.59)"/><path class="g" d="M126,241.9a3.12,3.12,0,1,1,2.27-3.79A3.11,3.11,0,0,1,126,241.9Z" transform="translate(0.59)"/><path class="g" d="M118.52,243.06a3.11,3.11,0,1,1,2.26-3.77A3.11,3.11,0,0,1,118.52,243.06Z" transform="translate(0.59)"/><circle class="g" cx="111.05" cy="241.89" r="3.13"/><circle class="g" cx="103.93" cy="244.37" r="3.13"/><path class="g" d="M97.24,250.52a3.13,3.13,0,1,1,2.27-3.8A3.13,3.13,0,0,1,97.24,250.52Z" transform="translate(0.59)"/><circle class="g" cx="90.51" cy="251.2" r="3.13"/><path class="g" d="M84.48,258.53a3.13,3.13,0,1,1,2.27-3.8A3.13,3.13,0,0,1,84.48,258.53Z" transform="translate(0.59)"/><path class="g" d="M137.65,235.33a3,3,0,1,1,2.21-3.7A3.05,3.05,0,0,1,137.65,235.33Z" transform="translate(0.59)"/><path class="g" d="M130.11,235.45a3,3,0,1,1,2.21-3.7A3,3,0,0,1,130.11,235.45Z" transform="translate(0.59)"/><path class="g" d="M122.61,236.2a3,3,0,1,1,2.21-3.69A3,3,0,0,1,122.61,236.2Z" transform="translate(0.59)"/><path class="g" d="M115.2,237.58a3,3,0,1,1,2.21-3.7A3.06,3.06,0,0,1,115.2,237.58Z" transform="translate(0.59)"/><path class="g" d="M107.93,239.57a3,3,0,1,1,2.21-3.7A3,3,0,0,1,107.93,239.57Z" transform="translate(0.59)"/><path class="g" d="M100.85,242.16a3,3,0,1,1,2.21-3.69A3,3,0,0,1,100.85,242.16Z" transform="translate(0.59)"/><path class="g" d="M94,245.34a3,3,0,1,1,2.21-3.7A3.05,3.05,0,0,1,94,245.34Z" transform="translate(0.59)"/><path class="g" d="M87.47,249.07a3,3,0,1,1,2.21-3.69A3,3,0,0,1,87.47,249.07Z" transform="translate(0.59)"/><path class="g" d="M81.26,253.35a3,3,0,1,1,2.21-3.7A3,3,0,0,1,81.26,253.35Z" transform="translate(0.59)"/><path class="g" d="M75.43,258.12a3,3,0,1,1,2.21-3.69A3.05,3.05,0,0,1,75.43,258.12Z" transform="translate(0.59)"/><path class="g" d="M141.8,229.44a3,3,0,1,1,2.15-3.6A3,3,0,0,1,141.8,229.44Z" transform="translate(0.59)"/><path class="g" d="M134.26,229.22a3,3,0,1,1,2.15-3.59A3,3,0,0,1,134.26,229.22Z" transform="translate(0.59)"/><path class="g" d="M126.74,229.6a3,3,0,1,1,2.15-3.59A3,3,0,0,1,126.74,229.6Z" transform="translate(0.59)"/><path class="g" d="M119.26,230.57a3,3,0,1,1,2.15-3.6A3,3,0,0,1,119.26,230.57Z" transform="translate(0.59)"/><path class="g" d="M111.88,232.12a3,3,0,1,1,2.15-3.6A3,3,0,0,1,111.88,232.12Z" transform="translate(0.59)"/><path class="g" d="M104.65,234.24a3,3,0,1,1,2.15-3.59A3,3,0,0,1,104.65,234.24Z" transform="translate(0.59)"/><path class="g" d="M97.61,236.93a3,3,0,1,1,2.15-3.6A3,3,0,0,1,97.61,236.93Z" transform="translate(0.59)"/><path class="g" d="M90.8,240.16a3,3,0,1,1,2.15-3.6A3,3,0,0,1,90.8,240.16Z" transform="translate(0.59)"/><path class="g" d="M84.26,243.91a3,3,0,1,1,2.15-3.59A3,3,0,0,1,84.26,243.91Z" transform="translate(0.59)"/><path class="g" d="M78,248.17a3,3,0,1,1,2.15-3.6A3,3,0,0,1,78,248.17Z" transform="translate(0.59)"/><path class="g" d="M72.17,252.91a3,3,0,1,1,2.17-3.61A3,3,0,0,1,72.17,252.91Z" transform="translate(0.59)"/><path class="g" d="M66.69,258.09a3,3,0,1,1,2.17-3.61A3,3,0,0,1,66.69,258.09Z" transform="translate(0.59)"/><path class="g" d="M138.42,223.2a2.89,2.89,0,1,1,2.11-3.51A2.89,2.89,0,0,1,138.42,223.2Z" transform="translate(0.59)"/><path class="g" d="M130.89,223.25a2.9,2.9,0,1,1,2.1-3.52A2.9,2.9,0,0,1,130.89,223.25Z" transform="translate(0.59)"/><path class="g" d="M123.37,223.85a2.89,2.89,0,1,1,2.1-3.51A2.89,2.89,0,0,1,123.37,223.85Z" transform="translate(0.59)"/><path class="g" d="M115.92,225a2.9,2.9,0,1,1,2.1-3.52A2.89,2.89,0,0,1,115.92,225Z" transform="translate(0.59)"/><path class="g" d="M108.58,226.71a2.89,2.89,0,1,1,2.1-3.51A2.89,2.89,0,0,1,108.58,226.71Z" transform="translate(0.59)"/><path class="g" d="M101.38,229a2.89,2.89,0,1,1,2.1-3.51A2.89,2.89,0,0,1,101.38,229Z" transform="translate(0.59)"/><circle class="g" cx="94.26" cy="228.91" r="2.9"/><path class="g" d="M87.58,235a2.9,2.9,0,1,1,2.1-3.52A2.89,2.89,0,0,1,87.58,235Z" transform="translate(0.59)"/><path class="g" d="M81.05,238.77a2.9,2.9,0,1,1,2.11-3.52A2.89,2.89,0,0,1,81.05,238.77Z" transform="translate(0.59)"/><path class="g" d="M74.82,243a2.9,2.9,0,1,1,2.1-3.52A2.89,2.89,0,0,1,74.82,243Z" transform="translate(0.59)"/><path class="g" d="M68.92,247.7a2.9,2.9,0,1,1,2.1-3.52A2.89,2.89,0,0,1,68.92,247.7Z" transform="translate(0.59)"/><path class="g" d="M63.38,252.81a2.89,2.89,0,1,1,2.1-3.51A2.89,2.89,0,0,1,63.38,252.81Z" transform="translate(0.59)"/><path class="g" d="M58.24,258.32a2.9,2.9,0,1,1,2.1-3.52A2.9,2.9,0,0,1,58.24,258.32Z" transform="translate(0.59)"/><path class="g" d="M142.57,217.32a2.81,2.81,0,1,1,2.05-3.41A2.81,2.81,0,0,1,142.57,217.32Z" transform="translate(0.59)"/><path class="g" d="M135,217.09a2.83,2.83,0,1,1,2.06-3.43A2.83,2.83,0,0,1,135,217.09Z" transform="translate(0.59)"/><path class="g" d="M127.51,217.35a2.81,2.81,0,1,1,2-3.41A2.81,2.81,0,0,1,127.51,217.35Z" transform="translate(0.59)"/><path class="g" d="M120,218.17a2.83,2.83,0,1,1,2-3.43A2.84,2.84,0,0,1,120,218.17Z" transform="translate(0.59)"/><path class="g" d="M112.59,219.5a2.83,2.83,0,1,1,2.06-3.44A2.83,2.83,0,0,1,112.59,219.5Z" transform="translate(0.59)"/><path class="g" d="M105.28,221.34a2.83,2.83,0,1,1,2.06-3.44A2.83,2.83,0,0,1,105.28,221.34Z" transform="translate(0.59)"/><path class="g" d="M98.12,223.68a2.83,2.83,0,1,1,2-3.43A2.83,2.83,0,0,1,98.12,223.68Z" transform="translate(0.59)"/><path class="g" d="M91.14,226.52a2.83,2.83,0,1,1,2-3.43A2.84,2.84,0,0,1,91.14,226.52Z" transform="translate(0.59)"/><path class="g" d="M84.37,229.84a2.83,2.83,0,1,1,2-3.44A2.82,2.82,0,0,1,84.37,229.84Z" transform="translate(0.59)"/><path class="g" d="M77.85,233.62a2.83,2.83,0,1,1,2.05-3.43A2.84,2.84,0,0,1,77.85,233.62Z" transform="translate(0.59)"/><path class="g" d="M71.61,237.85a2.83,2.83,0,1,1,2-3.43A2.84,2.84,0,0,1,71.61,237.85Z" transform="translate(0.59)"/><path class="g" d="M65.68,242.5a2.83,2.83,0,1,1,2-3.43A2.84,2.84,0,0,1,65.68,242.5Z" transform="translate(0.59)"/><path class="g" d="M60.09,247.56a2.83,2.83,0,1,1,2-3.43A2.84,2.84,0,0,1,60.09,247.56Z" transform="translate(0.59)"/><path class="g" d="M54.86,253a2.83,2.83,0,1,1,2-3.43A2.83,2.83,0,0,1,54.86,253Z" transform="translate(0.59)"/><path class="g" d="M50,258.78a2.83,2.83,0,1,1,2-3.44A2.83,2.83,0,0,1,50,258.78Z" transform="translate(0.59)"/><path class="g" d="M139.2,211.08a2.75,2.75,0,1,1,2-3.34A2.75,2.75,0,0,1,139.2,211.08Z" transform="translate(0.59)"/><path class="g" d="M131.66,211.06a2.74,2.74,0,1,1,2-3.33A2.74,2.74,0,0,1,131.66,211.06Z" transform="translate(0.59)"/><path class="g" d="M124.14,211.55a2.74,2.74,0,1,1,2-3.33A2.74,2.74,0,0,1,124.14,211.55Z" transform="translate(0.59)"/><path class="g" d="M116.66,212.53a2.74,2.74,0,1,1,2-3.33A2.74,2.74,0,0,1,116.66,212.53Z" transform="translate(0.59)"/><path class="g" d="M109.27,214a2.75,2.75,0,1,1,2-3.33A2.74,2.74,0,0,1,109.27,214Z" transform="translate(0.59)"/><path class="g" d="M102,216a2.75,2.75,0,1,1,2-3.33A2.74,2.74,0,0,1,102,216Z" transform="translate(0.59)"/><path class="g" d="M94.86,218.4a2.74,2.74,0,1,1,2-3.33A2.74,2.74,0,0,1,94.86,218.4Z" transform="translate(0.59)"/><path class="g" d="M87.9,221.31a2.75,2.75,0,1,1,2-3.34A2.75,2.75,0,0,1,87.9,221.31Z" transform="translate(0.59)"/><path class="g" d="M81.15,224.66a2.74,2.74,0,1,1,2-3.33A2.74,2.74,0,0,1,81.15,224.66Z" transform="translate(0.59)"/><path class="g" d="M74.64,228.46a2.75,2.75,0,1,1,2-3.33A2.74,2.74,0,0,1,74.64,228.46Z" transform="translate(0.59)"/><path class="g" d="M68.39,232.68a2.75,2.75,0,1,1,2-3.34A2.76,2.76,0,0,1,68.39,232.68Z" transform="translate(0.59)"/><path class="g" d="M62.43,237.3a2.75,2.75,0,1,1,2-3.34A2.75,2.75,0,0,1,62.43,237.3Z" transform="translate(0.59)"/><path class="g" d="M56.79,242.3a2.74,2.74,0,1,1,2-3.33A2.74,2.74,0,0,1,56.79,242.3Z" transform="translate(0.59)"/><path class="g" d="M51.5,247.67a2.75,2.75,0,1,1,2-3.34A2.75,2.75,0,0,1,51.5,247.67Z" transform="translate(0.59)"/><path class="g" d="M46.57,253.37a2.74,2.74,0,1,1,2-3.33A2.74,2.74,0,0,1,46.57,253.37Z" transform="translate(0.59)"/><path class="g" d="M42,259.39a2.75,2.75,0,1,1,2-3.33A2.74,2.74,0,0,1,42,259.39Z" transform="translate(0.59)"/><path class="g" d="M135.82,204.93a2.66,2.66,0,1,1,1.93-3.23A2.66,2.66,0,0,1,135.82,204.93Z" transform="translate(0.59)"/><path class="g" d="M128.28,205.13a2.66,2.66,0,1,1,1.93-3.23A2.66,2.66,0,0,1,128.28,205.13Z" transform="translate(0.59)"/><path class="g" d="M120.77,205.8a2.66,2.66,0,1,1,1.93-3.23A2.66,2.66,0,0,1,120.77,205.8Z" transform="translate(0.59)"/><path class="g" d="M113.32,207a2.68,2.68,0,1,1,2-3.25A2.68,2.68,0,0,1,113.32,207Z" transform="translate(0.59)"/><path class="g" d="M106,208.57a2.68,2.68,0,1,1,1.94-3.25A2.68,2.68,0,0,1,106,208.57Z" transform="translate(0.59)"/><path class="g" d="M98.71,210.64a2.68,2.68,0,1,1,1.94-3.25A2.68,2.68,0,0,1,98.71,210.64Z" transform="translate(0.59)"/><path class="g" d="M91.6,213.14a2.66,2.66,0,1,1,1.93-3.23A2.66,2.66,0,0,1,91.6,213.14Z" transform="translate(0.59)"/><path class="g" d="M84.67,216.12a2.68,2.68,0,1,1,2-3.25A2.68,2.68,0,0,1,84.67,216.12Z" transform="translate(0.59)"/><path class="g" d="M77.94,219.51a2.68,2.68,0,1,1,1.94-3.26A2.67,2.67,0,0,1,77.94,219.51Z" transform="translate(0.59)"/><path class="g" d="M71.43,223.31a2.68,2.68,0,1,1,1.95-3.25A2.68,2.68,0,0,1,71.43,223.31Z" transform="translate(0.59)"/><path class="g" d="M65.18,227.52a2.68,2.68,0,1,1,1.94-3.25A2.69,2.69,0,0,1,65.18,227.52Z" transform="translate(0.59)"/><path class="g" d="M59.2,232.11a2.68,2.68,0,1,1,1.94-3.25A2.69,2.69,0,0,1,59.2,232.11Z" transform="translate(0.59)"/><path class="g" d="M53.52,237.07a2.68,2.68,0,1,1,1.94-3.25A2.67,2.67,0,0,1,53.52,237.07Z" transform="translate(0.59)"/><path class="g" d="M48.16,242.37a2.68,2.68,0,1,1,1.94-3.25A2.68,2.68,0,0,1,48.16,242.37Z" transform="translate(0.59)"/><path class="g" d="M43.15,248a2.68,2.68,0,1,1,1.94-3.25A2.68,2.68,0,0,1,43.15,248Z" transform="translate(0.59)"/><path class="g" d="M38.5,253.94a2.68,2.68,0,1,1,1.94-3.25A2.67,2.67,0,0,1,38.5,253.94Z" transform="translate(0.59)"/><path class="g" d="M34.23,260.15a2.68,2.68,0,1,1,1.94-3.25A2.68,2.68,0,0,1,34.23,260.15Z" transform="translate(0.59)"/><path class="g" d="M140,199a2.59,2.59,0,1,1,1.88-3.15A2.6,2.6,0,0,1,140,199Z" transform="translate(0.59)"/><path class="g" d="M132.44,198.89a2.59,2.59,0,1,1,1.88-3.15A2.59,2.59,0,0,1,132.44,198.89Z" transform="translate(0.59)"/><path class="g" d="M124.91,199.29a2.6,2.6,0,1,1,1.88-3.16A2.61,2.61,0,0,1,124.91,199.29Z" transform="translate(0.59)"/><path class="g" d="M117.42,200.13A2.6,2.6,0,1,1,119.3,197,2.6,2.6,0,0,1,117.42,200.13Z" transform="translate(0.59)"/><path class="g" d="M110,201.41a2.59,2.59,0,1,1,1.88-3.15A2.59,2.59,0,0,1,110,201.41Z" transform="translate(0.59)"/><path class="g" d="M102.65,203.14a2.59,2.59,0,1,1,1.88-3.15A2.59,2.59,0,0,1,102.65,203.14Z" transform="translate(0.59)"/><path class="g" d="M95.43,205.31a2.6,2.6,0,1,1,1.88-3.15A2.59,2.59,0,0,1,95.43,205.31Z" transform="translate(0.59)"/><path class="g" d="M88.35,207.9a2.59,2.59,0,1,1,1.89-3.15A2.59,2.59,0,0,1,88.35,207.9Z" transform="translate(0.59)"/><path class="g" d="M81.44,210.91a2.59,2.59,0,1,1,1.88-3.15A2.59,2.59,0,0,1,81.44,210.91Z" transform="translate(0.59)"/><path class="g" d="M74.72,214.33a2.59,2.59,0,1,1,1.89-3.15A2.59,2.59,0,0,1,74.72,214.33Z" transform="translate(0.59)"/><path class="g" d="M68.22,218.15A2.59,2.59,0,1,1,70.1,215,2.59,2.59,0,0,1,68.22,218.15Z" transform="translate(0.59)"/><path class="g" d="M62,222.35a2.6,2.6,0,1,1,1.88-3.15A2.6,2.6,0,0,1,62,222.35Z" transform="translate(0.59)"/><path class="g" d="M56,226.91a2.59,2.59,0,1,1,1.88-3.15A2.59,2.59,0,0,1,56,226.91Z" transform="translate(0.59)"/><path class="g" d="M50.24,231.83a2.6,2.6,0,1,1,1.89-3.15A2.6,2.6,0,0,1,50.24,231.83Z" transform="translate(0.59)"/><path class="g" d="M44.83,237.08a2.6,2.6,0,1,1,1.88-3.16A2.61,2.61,0,0,1,44.83,237.08Z" transform="translate(0.59)"/><path class="g" d="M39.74,242.64a2.6,2.6,0,1,1,1.89-3.15A2.6,2.6,0,0,1,39.74,242.64Z" transform="translate(0.59)"/><path class="g" d="M35,248.49a2.59,2.59,0,1,1,1.88-3.15A2.59,2.59,0,0,1,35,248.49Z" transform="translate(0.59)"/><path class="g" d="M30.61,254.62a2.59,2.59,0,1,1,1.88-3.15A2.59,2.59,0,0,1,30.61,254.62Z" transform="translate(0.59)"/><path class="g" d="M26.59,261a2.6,2.6,0,1,1,1.89-3.15A2.6,2.6,0,0,1,26.59,261Z" transform="translate(0.59)"/><path class="g" d="M136.6,192.81a2.53,2.53,0,1,1,1.83-3.07A2.53,2.53,0,0,1,136.6,192.81Z" transform="translate(0.59)"/><circle class="g" cx="128.44" cy="190.49" r="2.53" transform="translate(-58.65 57.98) rotate(-20.79)"/><path class="g" d="M121.54,193.51a2.53,2.53,0,1,1,1.84-3.07A2.53,2.53,0,0,1,121.54,193.51Z" transform="translate(0.59)"/><path class="g" d="M114.07,194.5a2.53,2.53,0,1,1,1.83-3.07A2.53,2.53,0,0,1,114.07,194.5Z" transform="translate(0.59)"/><path class="g" d="M106.66,195.92a2.53,2.53,0,1,1,1.84-3.07A2.53,2.53,0,0,1,106.66,195.92Z" transform="translate(0.59)"/><path class="g" d="M99.35,197.76a2.53,2.53,0,1,1,1.84-3.07A2.53,2.53,0,0,1,99.35,197.76Z" transform="translate(0.59)"/><circle class="g" cx="91.54" cy="197.56" r="2.53" transform="translate(-71.96 54.44) rotate(-24.05)"/><circle class="g" cx="84.49" cy="200.22" r="2.53" transform="translate(-73.66 51.8) rotate(-24.05)"/><path class="g" d="M78.21,205.73a2.53,2.53,0,1,1,1.84-3.07A2.52,2.52,0,0,1,78.21,205.73Z" transform="translate(0.59)"/><path class="g" d="M71.51,209.18a2.53,2.53,0,1,1,1.84-3.07A2.53,2.53,0,0,1,71.51,209.18Z" transform="translate(0.59)"/><path class="g" d="M65,213a2.53,2.53,0,1,1,1.84-3.07A2.54,2.54,0,0,1,65,213Z" transform="translate(0.59)"/><path class="g" d="M58.75,217.19a2.53,2.53,0,1,1,1.83-3.07A2.53,2.53,0,0,1,58.75,217.19Z" transform="translate(0.59)"/><path class="g" d="M52.73,221.73a2.53,2.53,0,1,1,1.83-3.07A2.53,2.53,0,0,1,52.73,221.73Z" transform="translate(0.59)"/><path class="g" d="M47,226.61a2.53,2.53,0,1,1,1.83-3.07A2.53,2.53,0,0,1,47,226.61Z" transform="translate(0.59)"/><path class="g" d="M41.52,231.81a2.53,2.53,0,1,1,1.83-3.07A2.53,2.53,0,0,1,41.52,231.81Z" transform="translate(0.59)"/><path class="g" d="M36.36,237.31a2.53,2.53,0,1,1,1.84-3.07A2.54,2.54,0,0,1,36.36,237.31Z" transform="translate(0.59)"/><path class="g" d="M31.53,243.09A2.53,2.53,0,1,1,33.36,240,2.53,2.53,0,0,1,31.53,243.09Z" transform="translate(0.59)"/><path class="g" d="M27,249.14a2.53,2.53,0,1,1,1.84-3.07A2.53,2.53,0,0,1,27,249.14Z" transform="translate(0.59)"/><path class="g" d="M22.89,255.44a2.53,2.53,0,1,1,1.83-3.07A2.53,2.53,0,0,1,22.89,255.44Z" transform="translate(0.59)"/><circle class="g" cx="18.5" cy="259.51" r="2.53" transform="translate(-103.55 30.06) rotate(-24.05)"/><path class="g" d="M140.75,186.85a2.46,2.46,0,1,1,1.79-3A2.46,2.46,0,0,1,140.75,186.85Z" transform="translate(0.59)"/><path class="g" d="M133.22,186.75a2.46,2.46,0,1,1,1.78-3A2.46,2.46,0,0,1,133.22,186.75Z" transform="translate(0.59)"/><path class="g" d="M125.68,187.06a2.46,2.46,0,1,1,1.79-3A2.46,2.46,0,0,1,125.68,187.06Z" transform="translate(0.59)"/><path class="g" d="M118.18,187.79a2.46,2.46,0,1,1,1.79-3A2.46,2.46,0,0,1,118.18,187.79Z" transform="translate(0.59)"/><path class="g" d="M110.73,188.92a2.46,2.46,0,1,1,1.78-3A2.46,2.46,0,0,1,110.73,188.92Z" transform="translate(0.59)"/><path class="g" d="M103.35,190.46a2.46,2.46,0,1,1,1.78-3A2.46,2.46,0,0,1,103.35,190.46Z" transform="translate(0.59)"/><path class="g" d="M96.06,192.4a2.46,2.46,0,1,1,1.79-3A2.46,2.46,0,0,1,96.06,192.4Z" transform="translate(0.59)"/><path class="g" d="M88.89,194.73a2.46,2.46,0,1,1,1.79-3A2.47,2.47,0,0,1,88.89,194.73Z" transform="translate(0.59)"/><path class="g" d="M81.86,197.45a2.46,2.46,0,1,1,1.79-3A2.47,2.47,0,0,1,81.86,197.45Z" transform="translate(0.59)"/><path class="g" d="M75,200.55a2.46,2.46,0,1,1,1.79-3A2.47,2.47,0,0,1,75,200.55Z" transform="translate(0.59)"/><path class="g" d="M68.3,204a2.46,2.46,0,1,1,1.79-3A2.45,2.45,0,0,1,68.3,204Z" transform="translate(0.59)"/><path class="g" d="M61.81,207.86a2.46,2.46,0,1,1,1.78-3A2.46,2.46,0,0,1,61.81,207.86Z" transform="translate(0.59)"/><path class="g" d="M55.53,212a2.46,2.46,0,1,1,1.79-3A2.46,2.46,0,0,1,55.53,212Z" transform="translate(0.59)"/><circle class="g" cx="48.9" cy="214.17" r="2.46" transform="translate(-13.83 3.81) rotate(-3.89)"/><path class="g" d="M43.72,221.4a2.46,2.46,0,1,1,1.79-3A2.46,2.46,0,0,1,43.72,221.4Z" transform="translate(0.59)"/><path class="g" d="M38.21,226.55a2.46,2.46,0,1,1,1.79-3A2.47,2.47,0,0,1,38.21,226.55Z" transform="translate(0.59)"/><path class="g" d="M33,232a2.47,2.47,0,1,1,1.78-3A2.46,2.46,0,0,1,33,232Z" transform="translate(0.59)"/><circle class="g" cx="27.48" cy="235.32" r="2.46" transform="translate(-5.15 0.74) rotate(-1.4)"/><path class="g" d="M23.49,243.68a2.46,2.46,0,1,1,1.79-3A2.45,2.45,0,0,1,23.49,243.68Z" transform="translate(0.59)"/><path class="g" d="M19.23,249.91a2.46,2.46,0,1,1,1.79-3A2.46,2.46,0,0,1,19.23,249.91Z" transform="translate(0.59)"/><path class="g" d="M15.32,256.35a2.46,2.46,0,1,1,1.79-3A2.46,2.46,0,0,1,15.32,256.35Z" transform="translate(0.59)"/><path class="g" d="M137.37,180.67a2.38,2.38,0,1,1,1.73-2.89A2.39,2.39,0,0,1,137.37,180.67Z" transform="translate(0.59)"/><path class="g" d="M129.83,180.75a2.38,2.38,0,1,1,1.73-2.89A2.37,2.37,0,0,1,129.83,180.75Z" transform="translate(0.59)"/><path class="g" d="M122.31,181.23a2.38,2.38,0,1,1,1.73-2.89A2.38,2.38,0,0,1,122.31,181.23Z" transform="translate(0.59)"/><path class="g" d="M114.82,182.1a2.38,2.38,0,1,1,1.73-2.89A2.39,2.39,0,0,1,114.82,182.1Z" transform="translate(0.59)"/><path class="g" d="M107.39,183.36a2.38,2.38,0,1,1,1.73-2.89A2.38,2.38,0,0,1,107.39,183.36Z" transform="translate(0.59)"/><path class="g" d="M100,185a2.4,2.4,0,1,1,1.73-2.91A2.4,2.4,0,0,1,100,185Z" transform="translate(0.59)"/><path class="g" d="M92.77,187a2.38,2.38,0,1,1,1.73-2.88A2.38,2.38,0,0,1,92.77,187Z" transform="translate(0.59)"/><path class="g" d="M85.63,189.44a2.38,2.38,0,1,1,1.72-2.89A2.38,2.38,0,0,1,85.63,189.44Z" transform="translate(0.59)"/><path class="g" d="M78.62,192.22a2.38,2.38,0,1,1,1.72-2.89A2.38,2.38,0,0,1,78.62,192.22Z" transform="translate(0.59)"/><path class="g" d="M71.76,195.36a2.38,2.38,0,1,1,1.73-2.89A2.37,2.37,0,0,1,71.76,195.36Z" transform="translate(0.59)"/><path class="g" d="M65.08,198.86A2.38,2.38,0,1,1,66.81,196,2.38,2.38,0,0,1,65.08,198.86Z" transform="translate(0.59)"/><path class="g" d="M58.6,202.7a2.38,2.38,0,1,1,1.72-2.89A2.38,2.38,0,0,1,58.6,202.7Z" transform="translate(0.59)"/><path class="g" d="M52.32,206.87A2.38,2.38,0,1,1,54.05,204,2.38,2.38,0,0,1,52.32,206.87Z" transform="translate(0.59)"/><path class="g" d="M46.27,211.37A2.38,2.38,0,1,1,48,208.48,2.38,2.38,0,0,1,46.27,211.37Z" transform="translate(0.59)"/><path class="g" d="M40.46,216.17a2.38,2.38,0,1,1,1.73-2.88A2.38,2.38,0,0,1,40.46,216.17Z" transform="translate(0.59)"/><path class="g" d="M34.91,221.28a2.38,2.38,0,1,1,1.73-2.89A2.37,2.37,0,0,1,34.91,221.28Z" transform="translate(0.59)"/><path class="g" d="M29.64,226.67a2.38,2.38,0,1,1,1.73-2.89A2.39,2.39,0,0,1,29.64,226.67Z" transform="translate(0.59)"/><path class="g" d="M24.66,232.32a2.38,2.38,0,1,1,1.72-2.88A2.38,2.38,0,0,1,24.66,232.32Z" transform="translate(0.59)"/><path class="g" d="M20,238.23a2.38,2.38,0,1,1,1.72-2.88A2.38,2.38,0,0,1,20,238.23Z" transform="translate(0.59)"/><path class="g" d="M15.61,244.38a2.38,2.38,0,1,1,1.73-2.89A2.38,2.38,0,0,1,15.61,244.38Z" transform="translate(0.59)"/><path class="g" d="M11.58,250.76a2.39,2.39,0,1,1,1.74-2.9A2.39,2.39,0,0,1,11.58,250.76Z" transform="translate(0.59)"/><path class="g" d="M7.88,257.32a2.38,2.38,0,1,1,1.72-2.89A2.38,2.38,0,0,1,7.88,257.32Z" transform="translate(0.59)"/><path class="g" d="M141.53,174.72a2.31,2.31,0,1,1,1.68-2.8A2.31,2.31,0,0,1,141.53,174.72Z" transform="translate(0.59)"/><path class="g" d="M134,174.59a2.31,2.31,0,1,1,1.68-2.8A2.31,2.31,0,0,1,134,174.59Z" transform="translate(0.59)"/><circle class="g" cx="125.89" cy="172.6" r="2.31" transform="translate(-86.26 192.06) rotate(-59.12)"/><path class="g" d="M118.94,175.47a2.31,2.31,0,1,1,1.68-2.81A2.31,2.31,0,0,1,118.94,175.47Z" transform="translate(0.59)"/><path class="g" d="M111.47,176.47a2.32,2.32,0,1,1,1.68-2.81A2.31,2.31,0,0,1,111.47,176.47Z" transform="translate(0.59)"/><path class="g" d="M104.06,177.84a2.31,2.31,0,1,1,1.68-2.8A2.3,2.3,0,0,1,104.06,177.84Z" transform="translate(0.59)"/><path class="g" d="M96.73,179.59a2.31,2.31,0,1,1,1.67-2.8A2.32,2.32,0,0,1,96.73,179.59Z" transform="translate(0.59)"/><path class="g" d="M89.49,181.71a2.32,2.32,0,1,1,1.68-2.81A2.32,2.32,0,0,1,89.49,181.71Z" transform="translate(0.59)"/><path class="g" d="M82.37,184.18a2.32,2.32,0,1,1,1.68-2.81A2.32,2.32,0,0,1,82.37,184.18Z" transform="translate(0.59)"/><path class="g" d="M75.38,187a2.32,2.32,0,1,1,1.68-2.81A2.32,2.32,0,0,1,75.38,187Z" transform="translate(0.59)"/><path class="g" d="M68.54,190.19a2.32,2.32,0,1,1,1.68-2.81A2.31,2.31,0,0,1,68.54,190.19Z" transform="translate(0.59)"/><path class="g" d="M61.87,193.7a2.31,2.31,0,1,1,1.68-2.8A2.31,2.31,0,0,1,61.87,193.7Z" transform="translate(0.59)"/><path class="g" d="M55.39,197.55a2.32,2.32,0,1,1,1.68-2.81A2.32,2.32,0,0,1,55.39,197.55Z" transform="translate(0.59)"/><path class="g" d="M49.11,201.72a2.32,2.32,0,1,1,1.68-2.81A2.32,2.32,0,0,1,49.11,201.72Z" transform="translate(0.59)"/><path class="g" d="M43,206.19a2.31,2.31,0,1,1,1.68-2.8A2.3,2.3,0,0,1,43,206.19Z" transform="translate(0.59)"/><path class="g" d="M37.21,211a2.31,2.31,0,1,1,1.68-2.81A2.32,2.32,0,0,1,37.21,211Z" transform="translate(0.59)"/><path class="g" d="M31.63,216a2.32,2.32,0,1,1,1.67-2.81A2.32,2.32,0,0,1,31.63,216Z" transform="translate(0.59)"/><path class="g" d="M26.3,221.37a2.31,2.31,0,1,1,1.68-2.8A2.3,2.3,0,0,1,26.3,221.37Z" transform="translate(0.59)"/><path class="g" d="M21.25,227a2.31,2.31,0,1,1,1.68-2.8A2.3,2.3,0,0,1,21.25,227Z" transform="translate(0.59)"/><path class="g" d="M16.49,232.82A2.31,2.31,0,1,1,18.17,230,2.31,2.31,0,0,1,16.49,232.82Z" transform="translate(0.59)"/><path class="g" d="M12,238.9a2.32,2.32,0,1,1,1.68-2.81A2.31,2.31,0,0,1,12,238.9Z" transform="translate(0.59)"/><path class="g" d="M7.88,245.19a2.31,2.31,0,1,1,1.68-2.81A2.31,2.31,0,0,1,7.88,245.19Z" transform="translate(0.59)"/><path class="g" d="M4.05,251.69a2.31,2.31,0,1,1,1.68-2.81A2.31,2.31,0,0,1,4.05,251.69Z" transform="translate(0.59)"/><path class="g" d="M138.15,168.55a2.24,2.24,0,1,1,1.63-2.72A2.23,2.23,0,0,1,138.15,168.55Z" transform="translate(0.59)"/><path class="g" d="M130.61,168.59a2.25,2.25,0,1,1,1.63-2.73A2.24,2.24,0,0,1,130.61,168.59Z" transform="translate(0.59)"/><path class="g" d="M123.08,169a2.25,2.25,0,1,1,1.63-2.73A2.24,2.24,0,0,1,123.08,169Z" transform="translate(0.59)"/><path class="g" d="M115.58,169.75a2.24,2.24,0,1,1,1.63-2.72A2.23,2.23,0,0,1,115.58,169.75Z" transform="translate(0.59)"/><path class="g" d="M108.13,170.88a2.25,2.25,0,1,1,1.63-2.73A2.26,2.26,0,0,1,108.13,170.88Z" transform="translate(0.59)"/><path class="g" d="M100.74,172.36a2.24,2.24,0,1,1,1.63-2.72A2.25,2.25,0,0,1,100.74,172.36Z" transform="translate(0.59)"/><path class="g" d="M93.43,174.2a2.25,2.25,0,1,1,1.63-2.72A2.25,2.25,0,0,1,93.43,174.2Z" transform="translate(0.59)"/><path class="g" d="M86.21,176.39a2.24,2.24,0,1,1,1.63-2.72A2.24,2.24,0,0,1,86.21,176.39Z" transform="translate(0.59)"/><path class="g" d="M79.11,178.93a2.25,2.25,0,1,1,1.63-2.73A2.24,2.24,0,0,1,79.11,178.93Z" transform="translate(0.59)"/><path class="g" d="M72.14,181.8a2.24,2.24,0,1,1,1.63-2.72A2.23,2.23,0,0,1,72.14,181.8Z" transform="translate(0.59)"/><path class="g" d="M65.32,185A2.24,2.24,0,1,1,67,182.29,2.23,2.23,0,0,1,65.32,185Z" transform="translate(0.59)"/><path class="g" d="M58.66,188.55a2.25,2.25,0,1,1,1.63-2.73A2.24,2.24,0,0,1,58.66,188.55Z" transform="translate(0.59)"/><path class="g" d="M52.18,192.4a2.24,2.24,0,1,1,1.63-2.72A2.23,2.23,0,0,1,52.18,192.4Z" transform="translate(0.59)"/><path class="g" d="M45.9,196.56a2.24,2.24,0,1,1,1.63-2.72A2.23,2.23,0,0,1,45.9,196.56Z" transform="translate(0.59)"/><path class="g" d="M39.82,201a2.24,2.24,0,1,1,1.63-2.72A2.24,2.24,0,0,1,39.82,201Z" transform="translate(0.59)"/><path class="g" d="M34,205.77a2.24,2.24,0,1,1,1.63-2.72A2.23,2.23,0,0,1,34,205.77Z" transform="translate(0.59)"/><path class="g" d="M28.35,210.8A2.25,2.25,0,1,1,30,208.07,2.25,2.25,0,0,1,28.35,210.8Z" transform="translate(0.59)"/><path class="g" d="M23,216.09a2.24,2.24,0,1,1,1.63-2.72A2.25,2.25,0,0,1,23,216.09Z" transform="translate(0.59)"/><path class="g" d="M17.87,221.64a2.25,2.25,0,1,1,1.63-2.73A2.25,2.25,0,0,1,17.87,221.64Z" transform="translate(0.59)"/><path class="g" d="M13,227.42a2.24,2.24,0,1,1,1.63-2.72A2.23,2.23,0,0,1,13,227.42Z" transform="translate(0.59)"/><path class="g" d="M8.49,233.44a2.25,2.25,0,1,1,1.63-2.73A2.25,2.25,0,0,1,8.49,233.44Z" transform="translate(0.59)"/><path class="g" d="M4.23,239.66a2.25,2.25,0,1,1,1.63-2.73A2.24,2.24,0,0,1,4.23,239.66Z" transform="translate(0.59)"/><path class="g" d="M142.31,162.62a2.18,2.18,0,1,1,1.58-2.65A2.19,2.19,0,0,1,142.31,162.62Z" transform="translate(0.59)"/><path class="g" d="M134.77,162.46a2.18,2.18,0,1,1,1.58-2.65A2.18,2.18,0,0,1,134.77,162.46Z" transform="translate(0.59)"/><path class="g" d="M127.24,162.65a2.18,2.18,0,1,1,1.58-2.64A2.18,2.18,0,0,1,127.24,162.65Z" transform="translate(0.59)"/><path class="g" d="M119.72,163.19a2.18,2.18,0,1,1,1.58-2.64A2.17,2.17,0,0,1,119.72,163.19Z" transform="translate(0.59)"/><path class="g" d="M112.23,164.07a2.17,2.17,0,1,1,1.57-2.63A2.17,2.17,0,0,1,112.23,164.07Z" transform="translate(0.59)"/><path class="g" d="M104.79,165.32a2.18,2.18,0,1,1,1.58-2.64A2.17,2.17,0,0,1,104.79,165.32Z" transform="translate(0.59)"/><path class="g" d="M97.42,166.91A2.18,2.18,0,1,1,99,164.26,2.18,2.18,0,0,1,97.42,166.91Z" transform="translate(0.59)"/><path class="g" d="M90.13,168.83a2.18,2.18,0,1,1,1.58-2.65A2.18,2.18,0,0,1,90.13,168.83Z" transform="translate(0.59)"/><path class="g" d="M82.94,171.09a2.18,2.18,0,1,1,1.58-2.64A2.17,2.17,0,0,1,82.94,171.09Z" transform="translate(0.59)"/><path class="g" d="M75.86,173.67A2.17,2.17,0,1,1,77.43,171,2.17,2.17,0,0,1,75.86,173.67Z" transform="translate(0.59)"/><path class="g" d="M68.91,176.59A2.17,2.17,0,1,1,70.48,174,2.17,2.17,0,0,1,68.91,176.59Z" transform="translate(0.59)"/><path class="g" d="M62.1,179.84a2.18,2.18,0,1,1,1.59-2.64A2.17,2.17,0,0,1,62.1,179.84Z" transform="translate(0.59)"/><path class="g" d="M55.45,183.4A2.18,2.18,0,1,1,57,180.75,2.18,2.18,0,0,1,55.45,183.4Z" transform="translate(0.59)"/><path class="g" d="M49,187.26a2.18,2.18,0,1,1,1.58-2.65A2.19,2.19,0,0,1,49,187.26Z" transform="translate(0.59)"/><path class="g" d="M42.69,191.41a2.18,2.18,0,1,1,1.58-2.64A2.18,2.18,0,0,1,42.69,191.41Z" transform="translate(0.59)"/><path class="g" d="M36.6,195.86a2.18,2.18,0,1,1,1.58-2.65A2.19,2.19,0,0,1,36.6,195.86Z" transform="translate(0.59)"/><path class="g" d="M30.72,200.58a2.18,2.18,0,1,1,1.58-2.65A2.17,2.17,0,0,1,30.72,200.58Z" transform="translate(0.59)"/><path class="g" d="M25.07,205.57a2.18,2.18,0,1,1,1.58-2.64A2.19,2.19,0,0,1,25.07,205.57Z" transform="translate(0.59)"/><path class="g" d="M19.66,210.82a2.18,2.18,0,1,1,1.58-2.65A2.19,2.19,0,0,1,19.66,210.82Z" transform="translate(0.59)"/><path class="g" d="M14.5,216.31a2.18,2.18,0,1,1,1.58-2.64A2.17,2.17,0,0,1,14.5,216.31Z" transform="translate(0.59)"/><path class="g" d="M9.6,222a2.18,2.18,0,1,1,1.58-2.64A2.17,2.17,0,0,1,9.6,222Z" transform="translate(0.59)"/><path class="g" d="M5,228a2.18,2.18,0,1,1,1.58-2.64A2.17,2.17,0,0,1,5,228Z" transform="translate(0.59)"/><path class="g" d="M138.93,156.44a2.11,2.11,0,1,1,1.54-2.57A2.11,2.11,0,0,1,138.93,156.44Z" transform="translate(0.59)"/><path class="g" d="M131.39,156.44a2.11,2.11,0,1,1,1.54-2.57A2.12,2.12,0,0,1,131.39,156.44Z" transform="translate(0.59)"/><path class="g" d="M123.86,156.77a2.11,2.11,0,1,1,1.53-2.56A2.1,2.1,0,0,1,123.86,156.77Z" transform="translate(0.59)"/><path class="g" d="M116.35,157.44a2.11,2.11,0,1,1,1.54-2.56A2.1,2.1,0,0,1,116.35,157.44Z" transform="translate(0.59)"/><path class="g" d="M108.88,158.45a2.11,2.11,0,1,1,1.53-2.56A2.1,2.1,0,0,1,108.88,158.45Z" transform="translate(0.59)"/><path class="g" d="M101.46,159.8a2.11,2.11,0,1,1,1.54-2.57A2.12,2.12,0,0,1,101.46,159.8Z" transform="translate(0.59)"/><path class="g" d="M94.11,161.47a2.11,2.11,0,1,1,1.53-2.56A2.1,2.1,0,0,1,94.11,161.47Z" transform="translate(0.59)"/><path class="g" d="M86.84,163.47a2.11,2.11,0,1,1,1.54-2.56A2.1,2.1,0,0,1,86.84,163.47Z" transform="translate(0.59)"/><path class="g" d="M79.67,165.8a2.11,2.11,0,0,1-1-4.1,2.11,2.11,0,1,1,1,4.1Z" transform="translate(0.59)"/><path class="g" d="M72.61,168.45a2.11,2.11,0,1,1,1.54-2.57A2.13,2.13,0,0,1,72.61,168.45Z" transform="translate(0.59)"/><path class="g" d="M65.68,171.41a2.11,2.11,0,1,1-1-4.1,2.11,2.11,0,0,1,1,4.1Z" transform="translate(0.59)"/><path class="g" d="M58.88,174.68a2.11,2.11,0,1,1,1.54-2.57A2.12,2.12,0,0,1,58.88,174.68Z" transform="translate(0.59)"/><path class="g" d="M52.24,178.25a2.11,2.11,0,1,1,1.54-2.57A2.12,2.12,0,0,1,52.24,178.25Z" transform="translate(0.59)"/><path class="g" d="M45.77,182.11a2.11,2.11,0,1,1,1.53-2.56A2.1,2.1,0,0,1,45.77,182.11Z" transform="translate(0.59)"/><path class="g" d="M39.48,186.26A2.11,2.11,0,1,1,41,183.7,2.12,2.12,0,0,1,39.48,186.26Z" transform="translate(0.59)"/><path class="g" d="M33.38,190.69a2.11,2.11,0,1,1,1.53-2.56A2.11,2.11,0,0,1,33.38,190.69Z" transform="translate(0.59)"/><path class="g" d="M27.48,195.39A2.11,2.11,0,1,1,29,192.82,2.11,2.11,0,0,1,27.48,195.39Z" transform="translate(0.59)"/><path class="g" d="M21.8,200.35a2.11,2.11,0,1,1,1.53-2.57A2.12,2.12,0,0,1,21.8,200.35Z" transform="translate(0.59)"/><path class="g" d="M16.35,205.55A2.11,2.11,0,1,1,17.88,203,2.12,2.12,0,0,1,16.35,205.55Z" transform="translate(0.59)"/><path class="g" d="M11.14,211a2.11,2.11,0,1,1,1.53-2.56A2.12,2.12,0,0,1,11.14,211Z" transform="translate(0.59)"/><path class="g" d="M6.17,216.68a2.11,2.11,0,1,1,1.54-2.57A2.11,2.11,0,0,1,6.17,216.68Z" transform="translate(0.59)"/><path class="g" d="M143.09,150.5a2,2,0,1,1,1.47-2.47A2,2,0,0,1,143.09,150.5Z" transform="translate(0.59)"/><path class="g" d="M135.55,150.31a2,2,0,1,1,1.47-2.46A2,2,0,0,1,135.55,150.31Z" transform="translate(0.59)"/><path class="g" d="M128,150.46a2,2,0,1,1,1.47-2.47A2,2,0,0,1,128,150.46Z" transform="translate(0.59)"/><path class="g" d="M120.49,150.93a2,2,0,1,1,1.47-2.47A2,2,0,0,1,120.49,150.93Z" transform="translate(0.59)"/><path class="g" d="M113,151.72a2,2,0,1,1,1.47-2.46A2,2,0,0,1,113,151.72Z" transform="translate(0.59)"/><path class="g" d="M105.53,152.84a2,2,0,1,1,1.48-2.46A2,2,0,0,1,105.53,152.84Z" transform="translate(0.59)"/><path class="g" d="M98.14,154.3a2,2,0,1,1,1.48-2.49A2.06,2.06,0,0,1,98.14,154.3Z" transform="translate(0.59)"/><path class="g" d="M90.81,156.06a2,2,0,1,1,1.48-2.49A2.06,2.06,0,0,1,90.81,156.06Z" transform="translate(0.59)"/><path class="g" d="M83.56,158.13A2,2,0,1,1,85,155.65,2.05,2.05,0,0,1,83.56,158.13Z" transform="translate(0.59)"/><path class="g" d="M76.4,160.51A2,2,0,1,1,77.88,158,2,2,0,0,1,76.4,160.51Z" transform="translate(0.59)"/><path class="g" d="M69.37,163.22a2,2,0,1,1,1.48-2.49A2.06,2.06,0,0,1,69.37,163.22Z" transform="translate(0.59)"/><path class="g" d="M62.45,166.21a2,2,0,1,1,1.48-2.48A2,2,0,0,1,62.45,166.21Z" transform="translate(0.59)"/><path class="g" d="M55.66,169.49A2,2,0,1,1,57.14,167,2,2,0,0,1,55.66,169.49Z" transform="translate(0.59)"/><path class="g" d="M49,173.08a2,2,0,1,1,1.47-2.46A2,2,0,0,1,49,173.08Z" transform="translate(0.59)"/><path class="g" d="M42.56,177a2,2,0,1,1,1.49-2.48A2,2,0,0,1,42.56,177Z" transform="translate(0.59)"/><path class="g" d="M36.26,181.09a2,2,0,1,1,1.48-2.46A2,2,0,0,1,36.26,181.09Z" transform="translate(0.59)"/><path class="g" d="M30.15,185.51a2,2,0,1,1,1.48-2.46A2,2,0,0,1,30.15,185.51Z" transform="translate(0.59)"/><path class="g" d="M24.24,190.18a2,2,0,1,1,1.47-2.46A2,2,0,0,1,24.24,190.18Z" transform="translate(0.59)"/><path class="g" d="M18.54,195.13A2,2,0,1,1,20,192.64,2.06,2.06,0,0,1,18.54,195.13Z" transform="translate(0.59)"/><path class="g" d="M13,200.28a2,2,0,0,1-2.46-1.47A2,2,0,1,1,13,200.28Z" transform="translate(0.59)"/><path class="g" d="M7.79,205.68a2,2,0,1,1,1.47-2.46A2,2,0,0,1,7.79,205.68Z" transform="translate(0.59)"/><path class="g" d="M2.77,211.33a2,2,0,1,1,1.49-2.49A2,2,0,0,1,2.77,211.33Z" transform="translate(0.59)"/><path class="g" d="M139.71,144.31a2,2,0,1,1,1.42-2.38A2,2,0,0,1,139.71,144.31Z" transform="translate(0.59)"/><path class="g" d="M132.17,144.27a2,2,0,1,1,1.42-2.38A2,2,0,0,1,132.17,144.27Z" transform="translate(0.59)"/><path class="g" d="M124.63,144.55a2,2,0,0,1-2.38-1.42,2,2,0,1,1,3.81-1A2,2,0,0,1,124.63,144.55Z" transform="translate(0.59)"/><path class="g" d="M117.12,145.15a2,2,0,1,1,1.42-2.39A2,2,0,0,1,117.12,145.15Z" transform="translate(0.59)"/><path class="g" d="M109.63,146.05a2,2,0,1,1,1.43-2.38A2,2,0,0,1,109.63,146.05Z" transform="translate(0.59)"/><path class="g" d="M102.19,147.28a2,2,0,1,1,1.43-2.39A2,2,0,0,1,102.19,147.28Z" transform="translate(0.59)"/><path class="g" d="M94.81,148.81a2,2,0,1,1,1.43-2.39A2,2,0,0,1,94.81,148.81Z" transform="translate(0.59)"/><path class="g" d="M87.5,150.65a2,2,0,1,1,1.43-2.39A2,2,0,0,1,87.5,150.65Z" transform="translate(0.59)"/><path class="g" d="M80.27,152.79a2,2,0,1,1,1.43-2.38A2,2,0,0,1,80.27,152.79Z" transform="translate(0.59)"/><path class="g" d="M73.15,155.25a2,2,0,1,1,1.43-2.4A2,2,0,0,1,73.15,155.25Z" transform="translate(0.59)"/><path class="g" d="M66.12,158a2,2,0,1,1,1.44-2.4A2,2,0,0,1,66.12,158Z" transform="translate(0.59)"/><path class="g" d="M59.22,161a2,2,0,1,1,1.42-2.38A2,2,0,0,1,59.22,161Z" transform="translate(0.59)"/><path class="g" d="M52.45,164.33A2,2,0,1,1,53.87,162,2,2,0,0,1,52.45,164.33Z" transform="translate(0.59)"/><path class="g" d="M45.83,167.94a2,2,0,1,1,1.43-2.4A2,2,0,0,1,45.83,167.94Z" transform="translate(0.59)"/><path class="g" d="M39.36,171.82a2,2,0,1,1,1.44-2.4A2,2,0,0,1,39.36,171.82Z" transform="translate(0.59)"/><path class="g" d="M33.06,176a2,2,0,1,1,1.44-2.4A2,2,0,0,1,33.06,176Z" transform="translate(0.59)"/><path class="g" d="M26.94,180.36a2,2,0,1,1,1.43-2.4A2,2,0,0,1,26.94,180.36Z" transform="translate(0.59)"/><path class="g" d="M21,185a2,2,0,1,1-1-3.84A2,2,0,0,1,21,185Z" transform="translate(0.59)"/><path class="g" d="M15.27,189.91a2,2,0,0,1-2.4-1.43,2,2,0,1,1,3.84-1A2,2,0,0,1,15.27,189.91Z" transform="translate(0.59)"/><path class="g" d="M9.75,195.05a2,2,0,1,1,1.44-2.4A2,2,0,0,1,9.75,195.05Z" transform="translate(0.59)"/><path class="g" d="M4.45,200.41A2,2,0,1,1,5.89,198,2,2,0,0,1,4.45,200.41Z" transform="translate(0.59)"/><path class="g" d="M136.33,138.19a1.9,1.9,0,0,1-.93-3.68,1.9,1.9,0,1,1,.93,3.68Z" transform="translate(0.59)"/><path class="g" d="M128.79,138.29a1.9,1.9,0,0,1-.93-3.68,1.9,1.9,0,1,1,.93,3.68Z" transform="translate(0.59)"/><path class="g" d="M121.26,138.7a1.9,1.9,0,1,1,1.38-2.31A1.9,1.9,0,0,1,121.26,138.7Z" transform="translate(0.59)"/><path class="g" d="M113.76,139.41a1.9,1.9,0,1,1-.93-3.68,1.9,1.9,0,0,1,.93,3.68Z" transform="translate(0.59)"/><path class="g" d="M106.28,140.42a1.9,1.9,0,1,1,1.38-2.3A1.9,1.9,0,0,1,106.28,140.42Z" transform="translate(0.59)"/><path class="g" d="M98.86,141.74a1.9,1.9,0,1,1,1.38-2.3A1.9,1.9,0,0,1,98.86,141.74Z" transform="translate(0.59)"/><path class="g" d="M91.5,143.37a1.91,1.91,0,1,1,1.39-2.32A1.91,1.91,0,0,1,91.5,143.37Z" transform="translate(0.59)"/><path class="g" d="M84.21,145.28a1.91,1.91,0,1,1-.93-3.71,1.91,1.91,0,0,1,.93,3.71Z" transform="translate(0.59)"/><path class="g" d="M77,147.48a1.92,1.92,0,0,1-2.31-1.38A1.9,1.9,0,1,1,77,147.48Z" transform="translate(0.59)"/><path class="g" d="M69.88,150a1.9,1.9,0,1,1,1.38-2.3A1.9,1.9,0,0,1,69.88,150Z" transform="translate(0.59)"/><path class="g" d="M62.88,152.76a1.9,1.9,0,1,1-.93-3.68,1.9,1.9,0,0,1,.93,3.68Z" transform="translate(0.59)"/><path class="g" d="M56,155.82a1.9,1.9,0,1,1,1.37-2.3A1.89,1.89,0,0,1,56,155.82Z" transform="translate(0.59)"/><path class="g" d="M49.23,159.16a1.89,1.89,0,1,1,1.38-2.3A1.89,1.89,0,0,1,49.23,159.16Z" transform="translate(0.59)"/><path class="g" d="M42.61,162.78a1.9,1.9,0,1,1,1.38-2.3A1.9,1.9,0,0,1,42.61,162.78Z" transform="translate(0.59)"/><path class="g" d="M36.15,166.66a1.9,1.9,0,1,1,1.37-2.31A1.89,1.89,0,0,1,36.15,166.66Z" transform="translate(0.59)"/><path class="g" d="M29.84,170.79a1.9,1.9,0,1,1,1.38-2.3A1.9,1.9,0,0,1,29.84,170.79Z" transform="translate(0.59)"/><path class="g" d="M23.72,175.18a1.9,1.9,0,1,1,1.37-2.3A1.9,1.9,0,0,1,23.72,175.18Z" transform="translate(0.59)"/><path class="g" d="M17.77,179.82a1.9,1.9,0,1,1,1.37-2.31A1.89,1.89,0,0,1,17.77,179.82Z" transform="translate(0.59)"/><path class="g" d="M12,184.69a1.9,1.9,0,1,1,1.38-2.3A1.9,1.9,0,0,1,12,184.69Z" transform="translate(0.59)"/><path class="g" d="M6.46,189.79a1.9,1.9,0,1,1,1.38-2.3A1.9,1.9,0,0,1,6.46,189.79Z" transform="translate(0.59)"/><path class="g" d="M140.49,132.21a1.85,1.85,0,1,1,1.34-2.24A1.84,1.84,0,0,1,140.49,132.21Z" transform="translate(0.59)"/><path class="g" d="M133,132.15a1.85,1.85,0,1,1,1.34-2.24A1.84,1.84,0,0,1,133,132.15Z" transform="translate(0.59)"/><path class="g" d="M125.42,132.38a1.85,1.85,0,1,1,1.34-2.24A1.84,1.84,0,0,1,125.42,132.38Z" transform="translate(0.59)"/><path class="g" d="M117.9,132.9a1.85,1.85,0,1,1,1.34-2.24A1.85,1.85,0,0,1,117.9,132.9Z" transform="translate(0.59)"/><path class="g" d="M110.4,133.71a1.83,1.83,0,1,1,1.33-2.22A1.83,1.83,0,0,1,110.4,133.71Z" transform="translate(0.59)"/><path class="g" d="M102.94,134.84a1.85,1.85,0,1,1,1.35-2.24A1.85,1.85,0,0,1,102.94,134.84Z" transform="translate(0.59)"/><path class="g" d="M95.54,136.24A1.85,1.85,0,1,1,96.88,134,1.84,1.84,0,0,1,95.54,136.24Z" transform="translate(0.59)"/><path class="g" d="M88.19,137.94a1.85,1.85,0,1,1,1.34-2.24A1.84,1.84,0,0,1,88.19,137.94Z" transform="translate(0.59)"/><path class="g" d="M80.92,139.92a1.85,1.85,0,1,1,1.34-2.24A1.84,1.84,0,0,1,80.92,139.92Z" transform="translate(0.59)"/><path class="g" d="M73.73,142.19A1.85,1.85,0,1,1,75.07,140,1.84,1.84,0,0,1,73.73,142.19Z" transform="translate(0.59)"/><path class="g" d="M66.63,144.73A1.85,1.85,0,1,1,68,142.49,1.84,1.84,0,0,1,66.63,144.73Z" transform="translate(0.59)"/><path class="g" d="M59.64,147.56A1.85,1.85,0,1,1,61,145.32,1.84,1.84,0,0,1,59.64,147.56Z" transform="translate(0.59)"/><path class="g" d="M52.77,150.65a1.85,1.85,0,1,1,1.34-2.24A1.85,1.85,0,0,1,52.77,150.65Z" transform="translate(0.59)"/><path class="g" d="M46,154a1.85,1.85,0,1,1,1.34-2.24A1.84,1.84,0,0,1,46,154Z" transform="translate(0.59)"/><path class="g" d="M39.41,157.64a1.85,1.85,0,1,1,1.34-2.24A1.84,1.84,0,0,1,39.41,157.64Z" transform="translate(0.59)"/><path class="g" d="M33,161.53a1.85,1.85,0,1,1,1.34-2.25A1.87,1.87,0,0,1,33,161.53Z" transform="translate(0.59)"/><path class="g" d="M26.64,165.66A1.85,1.85,0,1,1,28,163.42,1.84,1.84,0,0,1,26.64,165.66Z" transform="translate(0.59)"/><path class="g" d="M20.5,170a1.85,1.85,0,1,1,1.34-2.24A1.84,1.84,0,0,1,20.5,170Z" transform="translate(0.59)"/><path class="g" d="M14.54,174.65a1.85,1.85,0,1,1,1.34-2.24A1.84,1.84,0,0,1,14.54,174.65Z" transform="translate(0.59)"/><path class="g" d="M8.76,179.5a1.85,1.85,0,1,1,1.34-2.24A1.85,1.85,0,0,1,8.76,179.5Z" transform="translate(0.59)"/><path class="g" d="M3.18,184.57a1.85,1.85,0,1,1,1.34-2.24A1.84,1.84,0,0,1,3.18,184.57Z" transform="translate(0.59)"/><path class="g" d="M99.6,129.25a1.76,1.76,0,1,1,1.28-2.14A1.77,1.77,0,0,1,99.6,129.25Z" transform="translate(0.59)"/><path class="g" d="M92.21,130.74a1.76,1.76,0,1,1,1.28-2.14A1.77,1.77,0,0,1,92.21,130.74Z" transform="translate(0.59)"/><path class="g" d="M84.89,132.52a1.78,1.78,0,1,1,1.29-2.16A1.79,1.79,0,0,1,84.89,132.52Z" transform="translate(0.59)"/><path class="g" d="M77.63,134.55a1.76,1.76,0,1,1,1.28-2.14A1.77,1.77,0,0,1,77.63,134.55Z" transform="translate(0.59)"/><path class="g" d="M70.45,136.88a1.76,1.76,0,1,1-.86-3.42,1.76,1.76,0,0,1,.86,3.42Z" transform="translate(0.59)"/><path class="g" d="M63.37,139.47a1.76,1.76,0,1,1,1.28-2.14A1.77,1.77,0,0,1,63.37,139.47Z" transform="translate(0.59)"/><path class="g" d="M56.4,142.33a1.76,1.76,0,1,1,1.28-2.14A1.75,1.75,0,0,1,56.4,142.33Z" transform="translate(0.59)"/><path class="g" d="M49.54,145.46a1.76,1.76,0,1,1,1.28-2.14A1.77,1.77,0,0,1,49.54,145.46Z" transform="translate(0.59)"/><path class="g" d="M42.8,148.84a1.76,1.76,0,1,1,1.28-2.14A1.76,1.76,0,0,1,42.8,148.84Z" transform="translate(0.59)"/><path class="g" d="M36.2,152.48a1.76,1.76,0,1,1,1.28-2.14A1.78,1.78,0,0,1,36.2,152.48Z" transform="translate(0.59)"/><path class="g" d="M29.73,156.36A1.76,1.76,0,1,1,31,154.22,1.76,1.76,0,0,1,29.73,156.36Z" transform="translate(0.59)"/><path class="g" d="M23.43,160.49a1.76,1.76,0,1,1-.86-3.42,1.76,1.76,0,0,1,.86,3.42Z" transform="translate(0.59)"/><path class="g" d="M17.28,164.86a1.76,1.76,0,1,1,1.28-2.14A1.77,1.77,0,0,1,17.28,164.86Z" transform="translate(0.59)"/><path class="g" d="M11.31,169.46a1.76,1.76,0,1,1,1.28-2.14A1.77,1.77,0,0,1,11.31,169.46Z" transform="translate(0.59)"/><path class="g" d="M5.51,174.28a1.76,1.76,0,1,1,1.28-2.14A1.76,1.76,0,0,1,5.51,174.28Z" transform="translate(0.59)"/><path class="g" d="M74.35,129.23a1.71,1.71,0,1,1,1.24-2.08A1.71,1.71,0,0,1,74.35,129.23Z" transform="translate(0.59)"/><path class="g" d="M67.19,131.61a1.72,1.72,0,1,1,1.24-2.08A1.72,1.72,0,0,1,67.19,131.61Z" transform="translate(0.59)"/><path class="g" d="M60.13,134.24a1.71,1.71,0,1,1,1.24-2.08A1.7,1.7,0,0,1,60.13,134.24Z" transform="translate(0.59)"/><path class="g" d="M53.17,137.14a1.71,1.71,0,1,1,1.24-2.08A1.71,1.71,0,0,1,53.17,137.14Z" transform="translate(0.59)"/><path class="g" d="M46.32,140.29a1.71,1.71,0,1,1,1.24-2.08A1.71,1.71,0,0,1,46.32,140.29Z" transform="translate(0.59)"/><path class="g" d="M39.59,143.69a1.71,1.71,0,1,1,1.24-2.08A1.7,1.7,0,0,1,39.59,143.69Z" transform="translate(0.59)"/><path class="g" d="M33,147.34a1.71,1.71,0,1,1,1.24-2.08A1.71,1.71,0,0,1,33,147.34Z" transform="translate(0.59)"/><path class="g" d="M26.53,151.23a1.71,1.71,0,1,1,1.25-2.08A1.71,1.71,0,0,1,26.53,151.23Z" transform="translate(0.59)"/><path class="g" d="M20.22,155.36a1.71,1.71,0,1,1,1.25-2.08A1.72,1.72,0,0,1,20.22,155.36Z" transform="translate(0.59)"/><path class="g" d="M14.07,159.72a1.72,1.72,0,1,1,1.24-2.08A1.72,1.72,0,0,1,14.07,159.72Z" transform="translate(0.59)"/><path class="g" d="M8.08,164.3a1.72,1.72,0,1,1,1.24-2.08A1.72,1.72,0,0,1,8.08,164.3Z" transform="translate(0.59)"/><path class="g" d="M2.27,169.1A1.72,1.72,0,1,1,3.51,167,1.73,1.73,0,0,1,2.27,169.1Z" transform="translate(0.59)"/><path class="g" d="M56.88,129a1.65,1.65,0,1,1,1.19-2A1.65,1.65,0,0,1,56.88,129Z" transform="translate(0.59)"/><path class="g" d="M49.93,131.94a1.65,1.65,0,1,1,1.2-2A1.65,1.65,0,0,1,49.93,131.94Z" transform="translate(0.59)"/><path class="g" d="M43.09,135.11a1.64,1.64,0,1,1,1.2-2A1.64,1.64,0,0,1,43.09,135.11Z" transform="translate(0.59)"/><path class="g" d="M36.37,138.53a1.64,1.64,0,1,1,1.2-2A1.64,1.64,0,0,1,36.37,138.53Z" transform="translate(0.59)"/><path class="g" d="M29.78,142.19a1.64,1.64,0,1,1,1.2-2A1.64,1.64,0,0,1,29.78,142.19Z" transform="translate(0.59)"/><path class="g" d="M23.33,146.09a1.65,1.65,0,1,1,1.19-2A1.65,1.65,0,0,1,23.33,146.09Z" transform="translate(0.59)"/><path class="g" d="M17,150.21a1.64,1.64,0,1,1,1.2-2A1.65,1.65,0,0,1,17,150.21Z" transform="translate(0.59)"/><path class="g" d="M10.85,154.56a1.65,1.65,0,1,1,1.2-2A1.66,1.66,0,0,1,10.85,154.56Z" transform="translate(0.59)"/><path class="g" d="M4.85,159.12a1.64,1.64,0,1,1,1.2-2A1.65,1.65,0,0,1,4.85,159.12Z" transform="translate(0.59)"/><path class="g" d="M39.87,129.94A1.58,1.58,0,1,1,41,128,1.59,1.59,0,0,1,39.87,129.94Z" transform="translate(0.59)"/><path class="g" d="M33.16,133.38a1.58,1.58,0,1,1,1.15-1.92A1.58,1.58,0,0,1,33.16,133.38Z" transform="translate(0.59)"/><path class="g" d="M26.57,137a1.58,1.58,0,1,1,1.15-1.91A1.57,1.57,0,0,1,26.57,137Z" transform="translate(0.59)"/><path class="g" d="M20.12,140.94A1.58,1.58,0,1,1,21.27,139,1.58,1.58,0,0,1,20.12,140.94Z" transform="translate(0.59)"/><path class="g" d="M13.8,145.06A1.58,1.58,0,1,1,15,143.14,1.57,1.57,0,0,1,13.8,145.06Z" transform="translate(0.59)"/><path class="g" d="M7.64,149.4a1.58,1.58,0,1,1,1.15-1.92A1.58,1.58,0,0,1,7.64,149.4Z" transform="translate(0.59)"/><path class="g" d="M1.63,154A1.58,1.58,0,1,1,2.77,152,1.58,1.58,0,0,1,1.63,154Z" transform="translate(0.59)"/><path class="g" d="M30,128.22a1.52,1.52,0,1,1,1.1-1.84A1.52,1.52,0,0,1,30,128.22Z" transform="translate(0.59)"/><path class="g" d="M23.37,131.9a1.52,1.52,0,1,1,1.09-1.84A1.51,1.51,0,0,1,23.37,131.9Z" transform="translate(0.59)"/><path class="g" d="M16.91,135.8A1.52,1.52,0,1,1,18,134,1.51,1.51,0,0,1,16.91,135.8Z" transform="translate(0.59)"/><path class="g" d="M10.6,139.91a1.51,1.51,0,1,1,1.1-1.84A1.51,1.51,0,0,1,10.6,139.91Z" transform="translate(0.59)"/><path class="g" d="M4.42,144.24a1.52,1.52,0,1,1,1.1-1.84A1.51,1.51,0,0,1,4.42,144.24Z" transform="translate(0.59)"/><path class="g" d="M13.71,130.65a1.45,1.45,0,1,1,1-1.76A1.45,1.45,0,0,1,13.71,130.65Z" transform="translate(0.59)"/><path class="g" d="M7.39,134.76a1.44,1.44,0,1,1,1-1.75A1.44,1.44,0,0,1,7.39,134.76Z" transform="translate(0.59)"/><path class="g" d="M1.21,139.08a1.44,1.44,0,1,1-.71-2.8,1.44,1.44,0,1,1,.71,2.8Z" transform="translate(0.59)"/><path class="g" d="M4.18,129.63a1.4,1.4,0,1,1,1-1.7A1.4,1.4,0,0,1,4.18,129.63Z" transform="translate(0.59)"/></g></g></g><g class="h"><g class="e"><g class="i"><path class="g" d="M146.14,126.07a1.77,1.77,0,0,0,2.14-1.28,1.76,1.76,0,1,0-2.14,1.28Z" transform="translate(0.59)"/><path class="g" d="M153.68,126.13A1.76,1.76,0,1,0,152.4,124,1.76,1.76,0,0,0,153.68,126.13Z" transform="translate(0.59)"/><path class="g" d="M161.21,126.48a1.76,1.76,0,1,0-1.28-2.14A1.76,1.76,0,0,0,161.21,126.48Z" transform="translate(0.59)"/><path class="g" d="M168.72,127.12a1.76,1.76,0,1,0-1.28-2.14A1.76,1.76,0,0,0,168.72,127.12Z" transform="translate(0.59)"/><path class="g" d="M142,120.1a1.71,1.71,0,1,0-1.25-2.08A1.71,1.71,0,0,0,142,120.1Z" transform="translate(0.59)"/><path class="g" d="M149.52,120a1.71,1.71,0,1,0-1.25-2.08A1.71,1.71,0,0,0,149.52,120Z" transform="translate(0.59)"/><path class="g" d="M157.06,120.18a1.7,1.7,0,1,0-1.23-2.06A1.69,1.69,0,0,0,157.06,120.18Z" transform="translate(0.59)"/><path class="g" d="M164.58,120.65a1.7,1.7,0,1,0-1.23-2.06A1.71,1.71,0,0,0,164.58,120.65Z" transform="translate(0.59)"/><path class="g" d="M172.08,121.4a1.71,1.71,0,1,0-1.24-2.08A1.7,1.7,0,0,0,172.08,121.4Z" transform="translate(0.59)"/><path class="g" d="M179.56,122.41a1.7,1.7,0,1,0-1.24-2.06A1.71,1.71,0,0,0,179.56,122.41Z" transform="translate(0.59)"/><path class="g" d="M187,123.72a1.72,1.72,0,1,0-1.24-2.08A1.72,1.72,0,0,0,187,123.72Z" transform="translate(0.59)"/><path class="g" d="M194.35,125.29a1.72,1.72,0,1,0-1.24-2.08A1.72,1.72,0,0,0,194.35,125.29Z" transform="translate(0.59)"/><path class="g" d="M201.67,127.13a1.72,1.72,0,1,0-1.25-2.08A1.72,1.72,0,0,0,201.67,127.13Z" transform="translate(0.59)"/><path class="g" d="M145.36,114a1.64,1.64,0,1,0-1.2-2A1.64,1.64,0,0,0,145.36,114Z" transform="translate(0.59)"/><path class="g" d="M152.9,114a1.64,1.64,0,1,0-1.2-2A1.64,1.64,0,0,0,152.9,114Z" transform="translate(0.59)"/><path class="g" d="M160.43,114.3a1.65,1.65,0,1,0-1.2-2A1.65,1.65,0,0,0,160.43,114.3Z" transform="translate(0.59)"/><path class="g" d="M168,114.87a1.65,1.65,0,1,0-1.2-2A1.66,1.66,0,0,0,168,114.87Z" transform="translate(0.59)"/><path class="g" d="M175.44,115.71a1.65,1.65,0,1,0-1.2-2A1.65,1.65,0,0,0,175.44,115.71Z" transform="translate(0.59)"/><path class="g" d="M182.9,116.82a1.65,1.65,0,1,0-1.2-2A1.66,1.66,0,0,0,182.9,116.82Z" transform="translate(0.59)"/><path class="g" d="M190.31,118.19a1.64,1.64,0,1,0-1.2-2A1.64,1.64,0,0,0,190.31,118.19Z" transform="translate(0.59)"/><path class="g" d="M197.67,119.84a1.65,1.65,0,1,0-1.2-2A1.65,1.65,0,0,0,197.67,119.84Z" transform="translate(0.59)"/><path class="g" d="M205,121.74a1.65,1.65,0,1,0-1.19-2A1.64,1.64,0,0,0,205,121.74Z" transform="translate(0.59)"/><path class="g" d="M212.18,123.91a1.65,1.65,0,1,0-1.19-2A1.65,1.65,0,0,0,212.18,123.91Z" transform="translate(0.59)"/><path class="g" d="M219.32,126.33a1.65,1.65,0,1,0-1.19-2A1.64,1.64,0,0,0,219.32,126.33Z" transform="translate(0.59)"/><path class="g" d="M141.2,108a1.58,1.58,0,1,0-1.15-1.91A1.58,1.58,0,0,0,141.2,108Z" transform="translate(0.59)"/><path class="g" d="M148.74,107.88a1.58,1.58,0,1,0-1.15-1.92A1.59,1.59,0,0,0,148.74,107.88Z" transform="translate(0.59)"/><path class="g" d="M156.27,108a1.58,1.58,0,1,0-1.14-1.92A1.58,1.58,0,0,0,156.27,108Z" transform="translate(0.59)"/><path class="g" d="M163.8,108.44a1.58,1.58,0,1,0-1.14-1.92A1.58,1.58,0,0,0,163.8,108.44Z" transform="translate(0.59)"/><path class="g" d="M171.31,109.11a1.58,1.58,0,1,0-1.15-1.92A1.58,1.58,0,0,0,171.31,109.11Z" transform="translate(0.59)"/><path class="g" d="M178.79,110a1.58,1.58,0,1,0-1.14-1.91A1.57,1.57,0,0,0,178.79,110Z" transform="translate(0.59)"/><path class="g" d="M186.24,111.24a1.58,1.58,0,1,0-1.15-1.92A1.59,1.59,0,0,0,186.24,111.24Z" transform="translate(0.59)"/><path class="g" d="M193.64,112.69a1.58,1.58,0,1,0-1.15-1.91A1.57,1.57,0,0,0,193.64,112.69Z" transform="translate(0.59)"/><path class="g" d="M201,114.41a1.6,1.6,0,0,0,1.92-1.15,1.58,1.58,0,1,0-1.92,1.15Z" transform="translate(0.59)"/><path class="g" d="M208.26,116.37a1.58,1.58,0,1,0-1.15-1.92A1.57,1.57,0,0,0,208.26,116.37Z" transform="translate(0.59)"/><path class="g" d="M215.46,118.59a1.58,1.58,0,1,0-1.15-1.92A1.58,1.58,0,0,0,215.46,118.59Z" transform="translate(0.59)"/><path class="g" d="M222.59,121.06a1.58,1.58,0,1,0-1.15-1.92A1.57,1.57,0,0,0,222.59,121.06Z" transform="translate(0.59)"/><path class="g" d="M229.62,123.78a1.58,1.58,0,1,0-1.15-1.92A1.59,1.59,0,0,0,229.62,123.78Z" transform="translate(0.59)"/><path class="g" d="M236.55,126.74a1.58,1.58,0,1,0-1.15-1.92A1.58,1.58,0,0,0,236.55,126.74Z" transform="translate(0.59)"/><path class="g" d="M144.58,101.85a1.52,1.52,0,1,0-1.1-1.84A1.51,1.51,0,0,0,144.58,101.85Z" transform="translate(0.59)"/><path class="g" d="M152.12,101.85A1.52,1.52,0,1,0,151,100,1.51,1.51,0,0,0,152.12,101.85Z" transform="translate(0.59)"/><path class="g" d="M159.65,102.1a1.51,1.51,0,1,0-1.1-1.83A1.51,1.51,0,0,0,159.65,102.1Z" transform="translate(0.59)"/><path class="g" d="M167.17,102.62a1.52,1.52,0,1,0-1.1-1.84A1.52,1.52,0,0,0,167.17,102.62Z" transform="translate(0.59)"/><path class="g" d="M174.67,103.39a1.52,1.52,0,1,0-1.1-1.84A1.52,1.52,0,0,0,174.67,103.39Z" transform="translate(0.59)"/><path class="g" d="M182.14,104.41a1.52,1.52,0,1,0-1.1-1.84A1.52,1.52,0,0,0,182.14,104.41Z" transform="translate(0.59)"/><path class="g" d="M189.57,105.68a1.51,1.51,0,1,0-1.09-1.83A1.51,1.51,0,0,0,189.57,105.68Z" transform="translate(0.59)"/><path class="g" d="M197,107.21a1.51,1.51,0,1,0-1.1-1.84A1.5,1.5,0,0,0,197,107.21Z" transform="translate(0.59)"/><path class="g" d="M204.28,109a1.52,1.52,0,1,0-1.09-1.84A1.51,1.51,0,0,0,204.28,109Z" transform="translate(0.59)"/><path class="g" d="M211.55,111a1.51,1.51,0,1,0-1.1-1.83A1.5,1.5,0,0,0,211.55,111Z" transform="translate(0.59)"/><path class="g" d="M218.74,113.28a1.51,1.51,0,1,0-1.1-1.83A1.5,1.5,0,0,0,218.74,113.28Z" transform="translate(0.59)"/><path class="g" d="M225.84,115.8a1.52,1.52,0,1,0-1.09-1.84A1.51,1.51,0,0,0,225.84,115.8Z" transform="translate(0.59)"/><path class="g" d="M232.86,118.55a1.52,1.52,0,1,0-1.1-1.84A1.51,1.51,0,0,0,232.86,118.55Z" transform="translate(0.59)"/><path class="g" d="M239.78,121.54a1.52,1.52,0,1,0-1.09-1.84A1.51,1.51,0,0,0,239.78,121.54Z" transform="translate(0.59)"/><path class="g" d="M246.6,124.76a1.51,1.51,0,1,0-1.1-1.83A1.51,1.51,0,0,0,246.6,124.76Z" transform="translate(0.59)"/><path class="g" d="M140.42,95.89a1.45,1.45,0,1,0,.7-2.81,1.43,1.43,0,0,0-1.75,1A1.45,1.45,0,0,0,140.42,95.89Z" transform="translate(0.59)"/><path class="g" d="M148,95.75A1.45,1.45,0,1,0,146.91,94,1.45,1.45,0,0,0,148,95.75Z" transform="translate(0.59)"/><path class="g" d="M155.5,95.86a1.44,1.44,0,1,0,.7-2.8,1.44,1.44,0,1,0-.7,2.8Z" transform="translate(0.59)"/><path class="g" d="M163,96.22A1.44,1.44,0,1,0,162,94.47,1.43,1.43,0,0,0,163,96.22Z" transform="translate(0.59)"/><path class="g" d="M170.54,96.84a1.45,1.45,0,1,0-1-1.76A1.46,1.46,0,0,0,170.54,96.84Z" transform="translate(0.59)"/><path class="g" d="M178,97.69A1.44,1.44,0,1,0,177,95.94,1.44,1.44,0,0,0,178,97.69Z" transform="translate(0.59)"/><path class="g" d="M185.49,98.8A1.45,1.45,0,1,0,184.44,97,1.45,1.45,0,0,0,185.49,98.8Z" transform="translate(0.59)"/><path class="g" d="M192.91,100.15a1.44,1.44,0,1,0-1-1.75A1.43,1.43,0,0,0,192.91,100.15Z" transform="translate(0.59)"/><path class="g" d="M200.27,101.77a1.46,1.46,0,0,0,.72-2.84,1.46,1.46,0,1,0-.72,2.84Z" transform="translate(0.59)"/><path class="g" d="M207.58,103.6a1.46,1.46,0,1,0-1.06-1.77A1.46,1.46,0,0,0,207.58,103.6Z" transform="translate(0.59)"/><path class="g" d="M214.83,105.67a1.45,1.45,0,1,0-1.05-1.76A1.45,1.45,0,0,0,214.83,105.67Z" transform="translate(0.59)"/><path class="g" d="M222,108a1.45,1.45,0,1,0-1-1.76A1.45,1.45,0,0,0,222,108Z" transform="translate(0.59)"/><path class="g" d="M229.1,110.56a1.46,1.46,0,0,0,.71-2.84,1.46,1.46,0,1,0-.71,2.84Z" transform="translate(0.59)"/><path class="g" d="M236.11,113.33a1.45,1.45,0,1,0-1.05-1.76A1.45,1.45,0,0,0,236.11,113.33Z" transform="translate(0.59)"/><path class="g" d="M243,116.35a1.45,1.45,0,1,0-1.06-1.76A1.45,1.45,0,0,0,243,116.35Z" transform="translate(0.59)"/><path class="g" d="M249.82,119.59a1.44,1.44,0,0,0,1.76-1,1.45,1.45,0,1,0-1.76,1Z" transform="translate(0.59)"/><path class="g" d="M256.52,123.06a1.45,1.45,0,0,0,.7-2.81,1.45,1.45,0,1,0-.7,2.81Z" transform="translate(0.59)"/><path class="g" d="M263.09,126.75a1.45,1.45,0,0,0,.71-2.81,1.44,1.44,0,0,0-1.76,1A1.46,1.46,0,0,0,263.09,126.75Z" transform="translate(0.59)"/><path class="g" d="M143.79,89.74a1.4,1.4,0,1,0-1-1.69A1.38,1.38,0,0,0,143.79,89.74Z" transform="translate(0.59)"/><path class="g" d="M151.33,89.72a1.4,1.4,0,1,0-1-1.7A1.4,1.4,0,0,0,151.33,89.72Z" transform="translate(0.59)"/><path class="g" d="M158.87,89.94a1.4,1.4,0,1,0-1-1.7A1.41,1.41,0,0,0,158.87,89.94Z" transform="translate(0.59)"/><path class="g" d="M166.39,90.4a1.4,1.4,0,1,0-1-1.7A1.4,1.4,0,0,0,166.39,90.4Z" transform="translate(0.59)"/><path class="g" d="M173.9,91.1a1.4,1.4,0,1,0-1-1.69A1.4,1.4,0,0,0,173.9,91.1Z" transform="translate(0.59)"/><path class="g" d="M181.38,92.05a1.4,1.4,0,1,0,.68-2.71,1.38,1.38,0,0,0-1.69,1A1.4,1.4,0,0,0,181.38,92.05Z" transform="translate(0.59)"/><path class="g" d="M188.83,93.23a1.4,1.4,0,0,0,.68-2.71,1.4,1.4,0,1,0-.68,2.71Z" transform="translate(0.59)"/><circle class="g" cx="196.57" cy="93.3" r="1.4" transform="matrix(0.86, -0.51, 0.51, 0.86, -19.43, 114.11)"/><path class="g" d="M203.58,96.32a1.4,1.4,0,1,0-1-1.7A1.4,1.4,0,0,0,203.58,96.32Z" transform="translate(0.59)"/><path class="g" d="M210.88,98.22a1.4,1.4,0,0,0,1.7-1,1.4,1.4,0,1,0-1.7,1Z" transform="translate(0.59)"/><path class="g" d="M218.11,100.35a1.4,1.4,0,1,0-1-1.7A1.4,1.4,0,0,0,218.11,100.35Z" transform="translate(0.59)"/><path class="g" d="M225.27,102.71a1.4,1.4,0,1,0-1-1.69A1.38,1.38,0,0,0,225.27,102.71Z" transform="translate(0.59)"/><path class="g" d="M232.35,105.31a1.4,1.4,0,0,0,1.7-1,1.4,1.4,0,1,0-1.7,1Z" transform="translate(0.59)"/><path class="g" d="M239.34,108.13a1.4,1.4,0,1,0-1-1.7A1.4,1.4,0,0,0,239.34,108.13Z" transform="translate(0.59)"/><path class="g" d="M246.24,111.17a1.4,1.4,0,1,0-1-1.69A1.4,1.4,0,0,0,246.24,111.17Z" transform="translate(0.59)"/><path class="g" d="M253,114.44a1.4,1.4,0,0,0,1.69-1,1.38,1.38,0,0,0-1-1.69,1.4,1.4,0,1,0-.68,2.71Z" transform="translate(0.59)"/><path class="g" d="M259.72,117.92a1.4,1.4,0,1,0-1-1.7A1.4,1.4,0,0,0,259.72,117.92Z" transform="translate(0.59)"/><path class="g" d="M266.3,121.61a1.4,1.4,0,1,0-1-1.69A1.39,1.39,0,0,0,266.3,121.61Z" transform="translate(0.59)"/><path class="g" d="M272.75,125.52a1.4,1.4,0,1,0-1-1.7A1.4,1.4,0,0,0,272.75,125.52Z" transform="translate(0.59)"/><path class="g" d="M139.63,83.79a1.33,1.33,0,1,0-1-1.61A1.33,1.33,0,0,0,139.63,83.79Z" transform="translate(0.59)"/><path class="g" d="M147.17,83.64a1.33,1.33,0,1,0-1-1.62A1.33,1.33,0,0,0,147.17,83.64Z" transform="translate(0.59)"/><path class="g" d="M154.71,83.72a1.33,1.33,0,1,0,.65-2.58,1.33,1.33,0,0,0-.65,2.58Z" transform="translate(0.59)"/><path class="g" d="M162.24,84a1.33,1.33,0,1,0-1-1.62A1.33,1.33,0,0,0,162.24,84Z" transform="translate(0.59)"/><path class="g" d="M169.76,84.59a1.33,1.33,0,1,0-1-1.61A1.33,1.33,0,0,0,169.76,84.59Z" transform="translate(0.59)"/><path class="g" d="M177.26,85.39a1.34,1.34,0,1,0,.65-2.59,1.34,1.34,0,0,0-.65,2.59Z" transform="translate(0.59)"/><path class="g" d="M184.73,86.41a1.33,1.33,0,1,0-1-1.61A1.33,1.33,0,0,0,184.73,86.41Z" transform="translate(0.59)"/><path class="g" d="M192.16,87.67a1.33,1.33,0,1,0-1-1.61A1.33,1.33,0,0,0,192.16,87.67Z" transform="translate(0.59)"/><path class="g" d="M199.55,89.16a1.33,1.33,0,1,0-1-1.61A1.33,1.33,0,0,0,199.55,89.16Z" transform="translate(0.59)"/><path class="g" d="M206.89,90.89a1.33,1.33,0,1,0-1-1.62A1.33,1.33,0,0,0,206.89,90.89Z" transform="translate(0.59)"/><path class="g" d="M214.18,92.84a1.33,1.33,0,1,0-1-1.61A1.32,1.32,0,0,0,214.18,92.84Z" transform="translate(0.59)"/><path class="g" d="M221.39,95a1.33,1.33,0,1,0-1-1.61A1.33,1.33,0,0,0,221.39,95Z" transform="translate(0.59)"/><path class="g" d="M228.54,97.43a1.33,1.33,0,1,0-1-1.61A1.32,1.32,0,0,0,228.54,97.43Z" transform="translate(0.59)"/><path class="g" d="M235.6,100.06a1.33,1.33,0,1,0-1-1.61A1.33,1.33,0,0,0,235.6,100.06Z" transform="translate(0.59)"/><path class="g" d="M242.58,102.91a1.33,1.33,0,1,0-1-1.61A1.33,1.33,0,0,0,242.58,102.91Z" transform="translate(0.59)"/><path class="g" d="M249.47,106a1.33,1.33,0,1,0-1-1.61A1.34,1.34,0,0,0,249.47,106Z" transform="translate(0.59)"/><path class="g" d="M256.26,109.27a1.34,1.34,0,0,0,.65-2.59,1.34,1.34,0,1,0-.65,2.59Z" transform="translate(0.59)"/><path class="g" d="M262.94,112.76a1.33,1.33,0,1,0-1-1.61A1.32,1.32,0,0,0,262.94,112.76Z" transform="translate(0.59)"/><path class="g" d="M269.5,116.47a1.34,1.34,0,0,0,.65-2.59,1.34,1.34,0,0,0-.65,2.59Z" transform="translate(0.59)"/><path class="g" d="M276,120.37a1.33,1.33,0,1,0,.65-2.58,1.33,1.33,0,0,0-.65,2.58Z" transform="translate(0.59)"/><path class="g" d="M143,77.65a1.28,1.28,0,1,0-.93-1.56A1.28,1.28,0,0,0,143,77.65Z" transform="translate(0.59)"/><path class="g" d="M150.55,77.6a1.28,1.28,0,1,0-.93-1.56A1.28,1.28,0,0,0,150.55,77.6Z" transform="translate(0.59)"/><path class="g" d="M158.09,77.78a1.28,1.28,0,1,0-.93-1.55A1.28,1.28,0,0,0,158.09,77.78Z" transform="translate(0.59)"/><path class="g" d="M165.61,78.19a1.28,1.28,0,1,0-.93-1.55A1.27,1.27,0,0,0,165.61,78.19Z" transform="translate(0.59)"/><path class="g" d="M173.13,78.84a1.28,1.28,0,1,0-.93-1.56A1.28,1.28,0,0,0,173.13,78.84Z" transform="translate(0.59)"/><path class="g" d="M180.61,79.71a1.28,1.28,0,1,0-.93-1.55A1.27,1.27,0,0,0,180.61,79.71Z" transform="translate(0.59)"/><path class="g" d="M188.07,80.82a1.28,1.28,0,1,0-.93-1.56A1.29,1.29,0,0,0,188.07,80.82Z" transform="translate(0.59)"/><path class="g" d="M195.49,82.15a1.28,1.28,0,1,0-.93-1.56A1.29,1.29,0,0,0,195.49,82.15Z" transform="translate(0.59)"/><path class="g" d="M202.87,83.7a1.28,1.28,0,1,0-.93-1.55A1.28,1.28,0,0,0,202.87,83.7Z" transform="translate(0.59)"/><path class="g" d="M210.2,85.49a1.28,1.28,0,1,0-.93-1.56A1.28,1.28,0,0,0,210.2,85.49Z" transform="translate(0.59)"/><path class="g" d="M217.46,87.49a1.28,1.28,0,1,0-.93-1.55A1.28,1.28,0,0,0,217.46,87.49Z" transform="translate(0.59)"/><path class="g" d="M224.67,89.72a1.28,1.28,0,1,0-.93-1.55A1.27,1.27,0,0,0,224.67,89.72Z" transform="translate(0.59)"/><path class="g" d="M231.8,92.16a1.27,1.27,0,1,0-.92-1.54A1.27,1.27,0,0,0,231.8,92.16Z" transform="translate(0.59)"/><path class="g" d="M238.85,94.84a1.28,1.28,0,1,0-.93-1.56A1.28,1.28,0,0,0,238.85,94.84Z" transform="translate(0.59)"/><path class="g" d="M245.82,97.72a1.28,1.28,0,1,0-.93-1.56A1.28,1.28,0,0,0,245.82,97.72Z" transform="translate(0.59)"/><path class="g" d="M252.69,100.81a1.28,1.28,0,1,0-.93-1.55A1.28,1.28,0,0,0,252.69,100.81Z" transform="translate(0.59)"/><path class="g" d="M259.47,104.11a1.28,1.28,0,1,0-.93-1.55A1.28,1.28,0,0,0,259.47,104.11Z" transform="translate(0.59)"/><path class="g" d="M266.14,107.62a1.28,1.28,0,1,0,.63-2.48,1.28,1.28,0,0,0-.63,2.48Z" transform="translate(0.59)"/><path class="g" d="M272.71,111.33a1.28,1.28,0,1,0-.93-1.55A1.27,1.27,0,0,0,272.71,111.33Z" transform="translate(0.59)"/><path class="g" d="M279.15,115.24a1.28,1.28,0,1,0-.93-1.55A1.27,1.27,0,0,0,279.15,115.24Z" transform="translate(0.59)"/><path class="g" d="M138.85,71.7a1.21,1.21,0,1,0-.88-1.47A1.2,1.2,0,0,0,138.85,71.7Z" transform="translate(0.59)"/><path class="g" d="M146.39,71.53a1.21,1.21,0,1,0-.88-1.47A1.2,1.2,0,0,0,146.39,71.53Z" transform="translate(0.59)"/><path class="g" d="M153.93,71.58a1.21,1.21,0,1,0-.88-1.47A1.2,1.2,0,0,0,153.93,71.58Z" transform="translate(0.59)"/><path class="g" d="M161.46,71.86a1.21,1.21,0,1,0,.59-2.35,1.21,1.21,0,1,0-.59,2.35Z" transform="translate(0.59)"/><path class="g" d="M169,72.37a1.22,1.22,0,1,0-.88-1.48A1.22,1.22,0,0,0,169,72.37Z" transform="translate(0.59)"/><path class="g" d="M176.49,73.1a1.22,1.22,0,1,0-.88-1.48A1.21,1.21,0,0,0,176.49,73.1Z" transform="translate(0.59)"/><path class="g" d="M184,74.05a1.22,1.22,0,1,0-.88-1.47A1.21,1.21,0,0,0,184,74.05Z" transform="translate(0.59)"/><path class="g" d="M191.42,75.23a1.22,1.22,0,0,0,.59-2.36,1.22,1.22,0,1,0-.59,2.36Z" transform="translate(0.59)"/><path class="g" d="M198.82,76.63a1.23,1.23,0,0,0,1.48-.89,1.21,1.21,0,0,0-.88-1.47,1.22,1.22,0,0,0-.6,2.36Z" transform="translate(0.59)"/><path class="g" d="M206.19,78.25a1.22,1.22,0,0,0,1.47-.89,1.21,1.21,0,1,0-2.35-.59A1.22,1.22,0,0,0,206.19,78.25Z" transform="translate(0.59)"/><path class="g" d="M213.5,80.08a1.21,1.21,0,1,0-.88-1.47A1.2,1.2,0,0,0,213.5,80.08Z" transform="translate(0.59)"/><path class="g" d="M220.75,82.14a1.21,1.21,0,1,0-.88-1.47A1.22,1.22,0,0,0,220.75,82.14Z" transform="translate(0.59)"/><path class="g" d="M227.94,84.42a1.23,1.23,0,0,0,1.48-.89,1.22,1.22,0,1,0-1.48.89Z" transform="translate(0.59)"/><path class="g" d="M235.06,86.9a1.21,1.21,0,1,0-.88-1.47A1.2,1.2,0,0,0,235.06,86.9Z" transform="translate(0.59)"/><path class="g" d="M242.1,89.6a1.21,1.21,0,1,0-.88-1.47A1.2,1.2,0,0,0,242.1,89.6Z" transform="translate(0.59)"/><path class="g" d="M249.05,92.51a1.23,1.23,0,0,0,1.48-.88,1.22,1.22,0,1,0-1.48.88Z" transform="translate(0.59)"/><path class="g" d="M255.92,95.63a1.22,1.22,0,1,0-.88-1.48A1.21,1.21,0,0,0,255.92,95.63Z" transform="translate(0.59)"/><path class="g" d="M262.69,99a1.22,1.22,0,0,0,1.47-.89,1.21,1.21,0,1,0-2.35-.59A1.22,1.22,0,0,0,262.69,99Z" transform="translate(0.59)"/><path class="g" d="M269.36,102.47a1.22,1.22,0,1,0-.88-1.48A1.22,1.22,0,0,0,269.36,102.47Z" transform="translate(0.59)"/><path class="g" d="M275.92,106.18a1.21,1.21,0,1,0,.59-2.35,1.21,1.21,0,1,0-.59,2.35Z" transform="translate(0.59)"/><path class="g" d="M142.23,65.53a1.14,1.14,0,0,0,.56-2.22,1.14,1.14,0,0,0-.56,2.22Z" transform="translate(0.59)"/><path class="g" d="M149.77,65.46a1.14,1.14,0,1,0,.56-2.22,1.14,1.14,0,0,0-.56,2.22Z" transform="translate(0.59)"/><path class="g" d="M157.31,65.61a1.14,1.14,0,1,0-.84-1.39A1.14,1.14,0,0,0,157.31,65.61Z" transform="translate(0.59)"/><path class="g" d="M164.84,66a1.13,1.13,0,0,0,1.39-.83,1.15,1.15,0,1,0-1.39.83Z" transform="translate(0.59)"/><path class="g" d="M172.35,66.59a1.17,1.17,0,1,0-.85-1.41A1.18,1.18,0,0,0,172.35,66.59Z" transform="translate(0.59)"/><path class="g" d="M179.84,67.4A1.17,1.17,0,1,0,179,66,1.17,1.17,0,0,0,179.84,67.4Z" transform="translate(0.59)"/><path class="g" d="M187.32,68.41a1.14,1.14,0,1,0-.84-1.39A1.14,1.14,0,0,0,187.32,68.41Z" transform="translate(0.59)"/><path class="g" d="M194.75,69.68a1.17,1.17,0,0,0,1.41-.85,1.17,1.17,0,0,0-2.26-.57A1.18,1.18,0,0,0,194.75,69.68Z" transform="translate(0.59)"/><path class="g" d="M202.15,71.14a1.16,1.16,0,1,0-.85-1.41A1.16,1.16,0,0,0,202.15,71.14Z" transform="translate(0.59)"/><path class="g" d="M209.5,72.82a1.16,1.16,0,1,0-.85-1.42A1.17,1.17,0,0,0,209.5,72.82Z" transform="translate(0.59)"/><path class="g" d="M216.79,74.71A1.17,1.17,0,1,0,216,73.3,1.17,1.17,0,0,0,216.79,74.71Z" transform="translate(0.59)"/><path class="g" d="M224,76.82a1.18,1.18,0,0,0,1.42-.85,1.17,1.17,0,1,0-1.42.85Z" transform="translate(0.59)"/><path class="g" d="M231.21,79.12a1.15,1.15,0,1,0,.56-2.23,1.14,1.14,0,0,0-1.39.83A1.16,1.16,0,0,0,231.21,79.12Z" transform="translate(0.59)"/><path class="g" d="M238.31,81.66a1.18,1.18,0,0,0,1.42-.85,1.17,1.17,0,1,0-1.42.85Z" transform="translate(0.59)"/><path class="g" d="M245.35,84.37a1.15,1.15,0,0,0,1.39-.83,1.15,1.15,0,1,0-2.23-.56A1.15,1.15,0,0,0,245.35,84.37Z" transform="translate(0.59)"/><path class="g" d="M252.29,87.32a1.16,1.16,0,1,0-.85-1.41A1.16,1.16,0,0,0,252.29,87.32Z" transform="translate(0.59)"/><path class="g" d="M259.14,90.46a1.17,1.17,0,1,0-.84-1.41A1.17,1.17,0,0,0,259.14,90.46Z" transform="translate(0.59)"/><path class="g" d="M265.9,93.79a1.16,1.16,0,1,0-.84-1.41A1.15,1.15,0,0,0,265.9,93.79Z" transform="translate(0.59)"/><path class="g" d="M272.56,97.33a1.17,1.17,0,1,0,.57-2.26,1.17,1.17,0,0,0-.57,2.26Z" transform="translate(0.59)"/><path class="g" d="M279.12,101.05a1.17,1.17,0,0,0,.57-2.26,1.17,1.17,0,1,0-.57,2.26Z" transform="translate(0.59)"/><path class="g" d="M145.6,59.43a1.11,1.11,0,0,0,1.34-.8,1.1,1.1,0,0,0-2.13-.54A1.11,1.11,0,0,0,145.6,59.43Z" transform="translate(0.59)"/><circle class="g" cx="154" cy="58.39" r="1.1"/><path class="g" d="M160.68,59.7a1.1,1.1,0,1,0-.8-1.34A1.1,1.1,0,0,0,160.68,59.7Z" transform="translate(0.59)"/><path class="g" d="M168.21,60.15a1.09,1.09,0,0,0,1.33-.79,1.1,1.1,0,1,0-2.13-.54A1.09,1.09,0,0,0,168.21,60.15Z" transform="translate(0.59)"/><path class="g" d="M175.71,60.83a1.1,1.1,0,1,0-.79-1.34A1.1,1.1,0,0,0,175.71,60.83Z" transform="translate(0.59)"/><path class="g" d="M183.2,61.71a1.08,1.08,0,0,0,1.33-.79,1.1,1.1,0,0,0-.79-1.34,1.11,1.11,0,0,0-1.34.8A1.1,1.1,0,0,0,183.2,61.71Z" transform="translate(0.59)"/><path class="g" d="M190.66,62.82a1.1,1.1,0,1,0-.8-1.34A1.11,1.11,0,0,0,190.66,62.82Z" transform="translate(0.59)"/><path class="g" d="M198.08,64.13a1.1,1.1,0,1,0-.79-1.33A1.1,1.1,0,0,0,198.08,64.13Z" transform="translate(0.59)"/><path class="g" d="M205.47,65.65a1.1,1.1,0,1,0-.8-1.33A1.1,1.1,0,0,0,205.47,65.65Z" transform="translate(0.59)"/><circle class="g" cx="213.67" cy="66.32" r="1.1"/><path class="g" d="M220.09,69.33a1.1,1.1,0,0,0,.54-2.13,1.1,1.1,0,1,0-.54,2.13Z" transform="translate(0.59)"/><path class="g" d="M227.32,71.48a1.1,1.1,0,1,0-.8-1.33A1.09,1.09,0,0,0,227.32,71.48Z" transform="translate(0.59)"/><path class="g" d="M234.48,73.84a1.1,1.1,0,1,0-.8-1.33A1.09,1.09,0,0,0,234.48,73.84Z" transform="translate(0.59)"/><circle class="g" cx="242.43" cy="75.33" r="1.1"/><path class="g" d="M248.59,79.16a1.1,1.1,0,1,0-.8-1.33A1.1,1.1,0,0,0,248.59,79.16Z" transform="translate(0.59)"/><path class="g" d="M255.52,82.12a1.1,1.1,0,0,0,.54-2.13,1.1,1.1,0,1,0-.54,2.13Z" transform="translate(0.59)"/><path class="g" d="M262.37,85.28a1.1,1.1,0,1,0-.8-1.34A1.09,1.09,0,0,0,262.37,85.28Z" transform="translate(0.59)"/><path class="g" d="M269.12,88.63a1.1,1.1,0,0,0,.54-2.13,1.1,1.1,0,1,0-.54,2.13Z" transform="translate(0.59)"/><path class="g" d="M275.78,92.17a1.1,1.1,0,1,0-.8-1.33A1.1,1.1,0,0,0,275.78,92.17Z" transform="translate(0.59)"/><path class="g" d="M141.44,53.45a1,1,0,1,0-.76-1.27A1,1,0,0,0,141.44,53.45Z" transform="translate(0.59)"/><path class="g" d="M149,53.36a1,1,0,1,0-.76-1.27A1,1,0,0,0,149,53.36Z" transform="translate(0.59)"/><path class="g" d="M156.52,53.48a1,1,0,1,0-.76-1.27A1,1,0,0,0,156.52,53.48Z" transform="translate(0.59)"/><path class="g" d="M164.05,53.82a1.05,1.05,0,1,0-.76-1.28A1.06,1.06,0,0,0,164.05,53.82Z" transform="translate(0.59)"/><path class="g" d="M171.57,54.36a1,1,0,0,0,1.27-.76,1.06,1.06,0,0,0-.76-1.28,1.05,1.05,0,0,0-.51,2Z" transform="translate(0.59)"/><path class="g" d="M179.07,55.11a1.06,1.06,0,0,0,1.28-.76,1.05,1.05,0,1,0-1.28.76Z" transform="translate(0.59)"/><path class="g" d="M186.55,56.07a1,1,0,1,0-.76-1.27A1,1,0,0,0,186.55,56.07Z" transform="translate(0.59)"/><path class="g" d="M194,57.24a1,1,0,1,0-.76-1.27A1,1,0,0,0,194,57.24Z" transform="translate(0.59)"/><path class="g" d="M201.41,58.62a1,1,0,0,0,1.27-.77,1,1,0,0,0-.76-1.27,1,1,0,0,0-1.27.76A1.06,1.06,0,0,0,201.41,58.62Z" transform="translate(0.59)"/><path class="g" d="M208.78,60.2a1,1,0,1,0,.52-2,1,1,0,1,0-.52,2Z" transform="translate(0.59)"/><path class="g" d="M216.11,62a1.05,1.05,0,1,0-.76-1.28A1,1,0,0,0,216.11,62Z" transform="translate(0.59)"/><path class="g" d="M223.38,64a1,1,0,1,0-.76-1.27A1,1,0,0,0,223.38,64Z" transform="translate(0.59)"/><path class="g" d="M230.59,66.17a1.06,1.06,0,0,0,1.28-.76,1.05,1.05,0,1,0-1.28.76Z" transform="translate(0.59)"/><path class="g" d="M237.74,68.57a1,1,0,0,0,1.27-.76,1,1,0,1,0-2-.51A1,1,0,0,0,237.74,68.57Z" transform="translate(0.59)"/><path class="g" d="M244.82,71.16a1,1,0,1,0-.76-1.27A1,1,0,0,0,244.82,71.16Z" transform="translate(0.59)"/><path class="g" d="M251.83,74a1,1,0,1,0-.76-1.27A1,1,0,0,0,251.83,74Z" transform="translate(0.59)"/><path class="g" d="M258.75,76.94a1.05,1.05,0,1,0-.76-1.28A1,1,0,0,0,258.75,76.94Z" transform="translate(0.59)"/><path class="g" d="M265.59,80.11a1,1,0,1,0-.76-1.27A1,1,0,0,0,265.59,80.11Z" transform="translate(0.59)"/><path class="g" d="M272.33,83.48a1.06,1.06,0,0,0,1.28-.76,1.05,1.05,0,1,0-1.28.76Z" transform="translate(0.59)"/><path class="g" d="M279,87a1.06,1.06,0,0,0,1.28-.76A1.05,1.05,0,1,0,279,87Z" transform="translate(0.59)"/><path class="g" d="M144.82,47.34a1,1,0,1,0-.73-1.21A1,1,0,0,0,144.82,47.34Z" transform="translate(0.59)"/><path class="g" d="M152.36,47.34a1,1,0,1,0-.73-1.21A1,1,0,0,0,152.36,47.34Z" transform="translate(0.59)"/><path class="g" d="M159.89,47.55a1,1,0,1,0-.72-1.21A1,1,0,0,0,159.89,47.55Z" transform="translate(0.59)"/><path class="g" d="M167.42,48a1,1,0,1,0-.72-1.21A1,1,0,0,0,167.42,48Z" transform="translate(0.59)"/><path class="g" d="M174.93,48.59a1,1,0,1,0,.49-1.94,1,1,0,0,0-.49,1.94Z" transform="translate(0.59)"/><path class="g" d="M182.43,49.42a1,1,0,0,0,.49-1.94,1,1,0,1,0-.49,1.94Z" transform="translate(0.59)"/><path class="g" d="M189.9,50.45a1,1,0,1,0-.73-1.21A1,1,0,0,0,189.9,50.45Z" transform="translate(0.59)"/><path class="g" d="M197.34,51.68a1,1,0,1,0-.73-1.21A1,1,0,0,0,197.34,51.68Z" transform="translate(0.59)"/><path class="g" d="M204.74,53.12a1,1,0,1,0-.73-1.21A1,1,0,0,0,204.74,53.12Z" transform="translate(0.59)"/><path class="g" d="M212.1,54.76a1,1,0,1,0-.73-1.21A1,1,0,0,0,212.1,54.76Z" transform="translate(0.59)"/><path class="g" d="M219.41,56.6a1,1,0,1,0-.73-1.21A1,1,0,0,0,219.41,56.6Z" transform="translate(0.59)"/><path class="g" d="M226.67,58.64a1,1,0,1,0-.73-1.22A1,1,0,0,0,226.67,58.64Z" transform="translate(0.59)"/><path class="g" d="M233.87,60.87a1,1,0,1,0-.73-1.21A1,1,0,0,0,233.87,60.87Z" transform="translate(0.59)"/><path class="g" d="M241,63.3a1,1,0,1,0,.49-1.93A1,1,0,0,0,241,63.3Z" transform="translate(0.59)"/><path class="g" d="M248.07,65.93a1,1,0,1,0-.72-1.21A1,1,0,0,0,248.07,65.93Z" transform="translate(0.59)"/><path class="g" d="M255.06,68.75a1,1,0,1,0,.49-1.94,1,1,0,0,0-.49,1.94Z" transform="translate(0.59)"/><path class="g" d="M262,71.76a1,1,0,1,0-.73-1.22A1,1,0,0,0,262,71.76Z" transform="translate(0.59)"/><path class="g" d="M268.81,75a1,1,0,0,0,1.21-.72,1,1,0,1,0-1.94-.49A1,1,0,0,0,268.81,75Z" transform="translate(0.59)"/><path class="g" d="M275.55,78.33a1,1,0,1,0-.73-1.21A1,1,0,0,0,275.55,78.33Z" transform="translate(0.59)"/><path class="g" d="M140.66,41.36a.93.93,0,1,0-.68-1.13A.94.94,0,0,0,140.66,41.36Z" transform="translate(0.59)"/><path class="g" d="M148.2,41.25a.93.93,0,1,0-.68-1.13A.94.94,0,0,0,148.2,41.25Z" transform="translate(0.59)"/><path class="g" d="M155.74,41.34a.93.93,0,1,0-.68-1.13A.93.93,0,0,0,155.74,41.34Z" transform="translate(0.59)"/><path class="g" d="M163.27,41.64a.93.93,0,1,0-.68-1.13A.94.94,0,0,0,163.27,41.64Z" transform="translate(0.59)"/><path class="g" d="M170.79,42.14a.93.93,0,0,0,1.13-.68.93.93,0,1,0-1.13.68Z" transform="translate(0.59)"/><path class="g" d="M178.3,42.83a.93.93,0,1,0-.68-1.13A.92.92,0,0,0,178.3,42.83Z" transform="translate(0.59)"/><path class="g" d="M185.79,43.73a.93.93,0,1,0-.68-1.13A.93.93,0,0,0,185.79,43.73Z" transform="translate(0.59)"/><path class="g" d="M193.24,44.83a.93.93,0,1,0-.67-1.13A.93.93,0,0,0,193.24,44.83Z" transform="translate(0.59)"/><path class="g" d="M200.67,46.13A.93.93,0,1,0,200,45,.93.93,0,0,0,200.67,46.13Z" transform="translate(0.59)"/><path class="g" d="M208.06,47.62a.93.93,0,1,0-.67-1.13A.92.92,0,0,0,208.06,47.62Z" transform="translate(0.59)"/><path class="g" d="M215.4,49.33a.95.95,0,1,0-.68-1.15A1,1,0,0,0,215.4,49.33Z" transform="translate(0.59)"/><path class="g" d="M222.71,51.2a.93.93,0,1,0-.68-1.13A.92.92,0,0,0,222.71,51.2Z" transform="translate(0.59)"/><path class="g" d="M230,53.29a.93.93,0,1,0-.67-1.13A.93.93,0,0,0,230,53.29Z" transform="translate(0.59)"/><path class="g" d="M237.14,55.56a.93.93,0,1,0-.67-1.13A.92.92,0,0,0,237.14,55.56Z" transform="translate(0.59)"/><path class="g" d="M244.27,58a.93.93,0,1,0-.68-1.13A.93.93,0,0,0,244.27,58Z" transform="translate(0.59)"/><path class="g" d="M251.32,60.69a.93.93,0,0,0,1.13-.68.93.93,0,1,0-1.13.68Z" transform="translate(0.59)"/><path class="g" d="M258.31,63.53a.93.93,0,1,0-.68-1.13A.94.94,0,0,0,258.31,63.53Z" transform="translate(0.59)"/><path class="g" d="M265.21,66.56a.93.93,0,1,0-.68-1.13A.93.93,0,0,0,265.21,66.56Z" transform="translate(0.59)"/><path class="g" d="M272,69.77a.93.93,0,1,0-.68-1.13A.92.92,0,0,0,272,69.77Z" transform="translate(0.59)"/><path class="g" d="M278.76,73.17a.93.93,0,1,0-.67-1.13A.93.93,0,0,0,278.76,73.17Z" transform="translate(0.59)"/><path class="g" d="M144,35.23a.88.88,0,0,0,.43-1.71.89.89,0,0,0-1.07.64A.87.87,0,0,0,144,35.23Z" transform="translate(0.59)"/><path class="g" d="M151.57,35.22a.88.88,0,1,0-.64-1.07A.88.88,0,0,0,151.57,35.22Z" transform="translate(0.59)"/><path class="g" d="M159.11,35.4a.88.88,0,1,0-.64-1.07A.88.88,0,0,0,159.11,35.4Z" transform="translate(0.59)"/><path class="g" d="M166.64,35.78a.89.89,0,0,0,1.07-.64.88.88,0,0,0-1.71-.43A.88.88,0,0,0,166.64,35.78Z" transform="translate(0.59)"/><path class="g" d="M174.16,36.35a.88.88,0,1,0-.64-1.07A.88.88,0,0,0,174.16,36.35Z" transform="translate(0.59)"/><path class="g" d="M181.66,37.12a.88.88,0,1,0-.64-1.07A.88.88,0,0,0,181.66,37.12Z" transform="translate(0.59)"/><path class="g" d="M189.13,38.09a.88.88,0,1,0,.43-1.71.88.88,0,0,0-.43,1.71Z" transform="translate(0.59)"/><path class="g" d="M196.58,39.25a.88.88,0,0,0,.43-1.71.88.88,0,1,0-.43,1.71Z" transform="translate(0.59)"/><path class="g" d="M204,40.61a.88.88,0,1,0-.64-1.07A.88.88,0,0,0,204,40.61Z" transform="translate(0.59)"/><path class="g" d="M211.38,42.16a.88.88,0,1,0-.64-1.07A.88.88,0,0,0,211.38,42.16Z" transform="translate(0.59)"/><path class="g" d="M218.71,43.9a.87.87,0,0,0,1.07-.64.88.88,0,0,0-1.71-.43A.89.89,0,0,0,218.71,43.9Z" transform="translate(0.59)"/><path class="g" d="M226,45.84a.88.88,0,1,0-.64-1.07A.88.88,0,0,0,226,45.84Z" transform="translate(0.59)"/><path class="g" d="M233.23,48a.88.88,0,0,0,1.08-.64.89.89,0,1,0-1.08.64Z" transform="translate(0.59)"/><path class="g" d="M240.41,50.28a.88.88,0,1,0-.64-1.07A.88.88,0,0,0,240.41,50.28Z" transform="translate(0.59)"/><path class="g" d="M247.52,52.78a.88.88,0,1,0-.64-1.07A.88.88,0,0,0,247.52,52.78Z" transform="translate(0.59)"/><path class="g" d="M254.57,55.46a.88.88,0,1,0-.64-1.07A.88.88,0,0,0,254.57,55.46Z" transform="translate(0.59)"/><path class="g" d="M261.54,58.33a.88.88,0,1,0-.64-1.07A.88.88,0,0,0,261.54,58.33Z" transform="translate(0.59)"/><path class="g" d="M268.44,61.38a.88.88,0,0,0,1.07-.64.89.89,0,0,0-.64-1.07.88.88,0,0,0-.43,1.71Z" transform="translate(0.59)"/><path class="g" d="M275.25,64.61a.88.88,0,1,0,.43-1.71.89.89,0,0,0-1.07.64A.87.87,0,0,0,275.25,64.61Z" transform="translate(0.59)"/><path class="g" d="M139.87,29.28a.84.84,0,1,0-.6-1A.82.82,0,0,0,139.87,29.28Z" transform="translate(0.59)"/><path class="g" d="M147.41,29.15a.82.82,0,0,0,1-.6.84.84,0,1,0-1,.6Z" transform="translate(0.59)"/><path class="g" d="M155,29.22a.83.83,0,1,0,.4-1.61.84.84,0,0,0-1,.6A.83.83,0,0,0,155,29.22Z" transform="translate(0.59)"/><path class="g" d="M162.48,29.49a.83.83,0,0,0,1-.61.84.84,0,0,0-.6-1,.83.83,0,0,0-1,.61A.84.84,0,0,0,162.48,29.49Z" transform="translate(0.59)"/><path class="g" d="M170,29.94a.83.83,0,1,0-.61-1A.84.84,0,0,0,170,29.94Z" transform="translate(0.59)"/><path class="g" d="M177.52,30.59a.83.83,0,1,0-.6-1A.82.82,0,0,0,177.52,30.59Z" transform="translate(0.59)"/><path class="g" d="M185,31.43a.83.83,0,1,0-.6-1A.83.83,0,0,0,185,31.43Z" transform="translate(0.59)"/><path class="g" d="M192.48,32.47a.84.84,0,1,0-.6-1A.83.83,0,0,0,192.48,32.47Z" transform="translate(0.59)"/><path class="g" d="M199.92,33.69a.83.83,0,1,0-.6-1A.82.82,0,0,0,199.92,33.69Z" transform="translate(0.59)"/><path class="g" d="M207.33,35.11a.83.83,0,1,0-.61-1A.84.84,0,0,0,207.33,35.11Z" transform="translate(0.59)"/><path class="g" d="M214.69,36.71a.83.83,0,0,0,.41-1.61.82.82,0,0,0-1,.6A.84.84,0,0,0,214.69,36.71Z" transform="translate(0.59)"/><path class="g" d="M222,38.5a.84.84,0,0,0,1-.6.84.84,0,1,0-1,.6Z" transform="translate(0.59)"/><path class="g" d="M229.29,40.48a.83.83,0,1,0-.6-1A.83.83,0,0,0,229.29,40.48Z" transform="translate(0.59)"/><path class="g" d="M236.51,42.65a.84.84,0,1,0-.6-1A.84.84,0,0,0,236.51,42.65Z" transform="translate(0.59)"/><path class="g" d="M243.68,45a.83.83,0,1,0-.61-1A.84.84,0,0,0,243.68,45Z" transform="translate(0.59)"/><path class="g" d="M250.78,47.53a.83.83,0,1,0,.4-1.61.83.83,0,1,0-.4,1.61Z" transform="translate(0.59)"/><path class="g" d="M257.81,50.24a.82.82,0,0,0,1-.6.83.83,0,1,0-1,.6Z" transform="translate(0.59)"/><path class="g" d="M264.78,53.14a.83.83,0,0,0,.4-1.62.83.83,0,0,0-.4,1.62Z" transform="translate(0.59)"/><path class="g" d="M271.66,56.21a.83.83,0,0,0,.41-1.61.83.83,0,1,0-.41,1.61Z" transform="translate(0.59)"/><path class="g" d="M278.47,59.46a.83.83,0,1,0-.61-1A.84.84,0,0,0,278.47,59.46Z" transform="translate(0.59)"/><path class="g" d="M143.24,23.15a.78.78,0,1,0-.56-.95A.78.78,0,0,0,143.24,23.15Z" transform="translate(0.59)"/><path class="g" d="M150.78,23.11a.78.78,0,1,0-.56-.95A.78.78,0,0,0,150.78,23.11Z" transform="translate(0.59)"/><path class="g" d="M158.32,23.27a.78.78,0,1,0-.57-.95A.78.78,0,0,0,158.32,23.27Z" transform="translate(0.59)"/><path class="g" d="M165.85,23.61a.78.78,0,1,0-.56-.95A.78.78,0,0,0,165.85,23.61Z" transform="translate(0.59)"/><path class="g" d="M173.37,24.14a.78.78,0,1,0-.56-.95A.78.78,0,0,0,173.37,24.14Z" transform="translate(0.59)"/><path class="g" d="M180.88,24.86a.78.78,0,1,0-.57-.95A.79.79,0,0,0,180.88,24.86Z" transform="translate(0.59)"/><path class="g" d="M188.36,25.77a.78.78,0,1,0-.56-.95A.78.78,0,0,0,188.36,25.77Z" transform="translate(0.59)"/><path class="g" d="M195.82,26.86a.78.78,0,1,0-.56-.95A.77.77,0,0,0,195.82,26.86Z" transform="translate(0.59)"/><path class="g" d="M203.25,28.15a.78.78,0,1,0-.56-.95A.78.78,0,0,0,203.25,28.15Z" transform="translate(0.59)"/><path class="g" d="M210.65,29.62a.78.78,0,1,0-.57-.95A.79.79,0,0,0,210.65,29.62Z" transform="translate(0.59)"/><path class="g" d="M218,31.27a.78.78,0,1,0-.56-.95A.78.78,0,0,0,218,31.27Z" transform="translate(0.59)"/><path class="g" d="M225.32,33.11a.79.79,0,0,0,1-.57.79.79,0,0,0-.57-.95.78.78,0,0,0-.38,1.52Z" transform="translate(0.59)"/><path class="g" d="M232.58,35.13a.78.78,0,0,0,.95-.56.78.78,0,1,0-.95.56Z" transform="translate(0.59)"/><path class="g" d="M239.79,37.34a.78.78,0,1,0-.57-1A.79.79,0,0,0,239.79,37.34Z" transform="translate(0.59)"/><path class="g" d="M246.94,39.72a.78.78,0,1,0-.57-.95A.78.78,0,0,0,246.94,39.72Z" transform="translate(0.59)"/><path class="g" d="M254,42.29a.78.78,0,1,0-.57-.95A.78.78,0,0,0,254,42.29Z" transform="translate(0.59)"/><path class="g" d="M261.06,45a.78.78,0,1,0-.57-1A.78.78,0,0,0,261.06,45Z" transform="translate(0.59)"/><path class="g" d="M268,48a.78.78,0,1,0-.57-1A.79.79,0,0,0,268,48Z" transform="translate(0.59)"/><path class="g" d="M274.89,51a.78.78,0,0,0,.94-.57.78.78,0,1,0-1.51-.38A.78.78,0,0,0,274.89,51Z" transform="translate(0.59)"/><path class="g" d="M139.08,17.2a.73.73,0,1,0-.53-.89A.73.73,0,0,0,139.08,17.2Z" transform="translate(0.59)"/><path class="g" d="M146.62,17.06a.73.73,0,1,0-.53-.89A.73.73,0,0,0,146.62,17.06Z" transform="translate(0.59)"/><path class="g" d="M154.16,17.11a.73.73,0,1,0-.53-.89A.73.73,0,0,0,154.16,17.11Z" transform="translate(0.59)"/><path class="g" d="M161.7,17.34a.72.72,0,0,0,.88-.53.73.73,0,1,0-.88.53Z" transform="translate(0.59)"/><path class="g" d="M169.22,17.76a.73.73,0,1,0-.53-.89A.73.73,0,0,0,169.22,17.76Z" transform="translate(0.59)"/><path class="g" d="M176.74,18.36a.73.73,0,1,0-.53-.89A.73.73,0,0,0,176.74,18.36Z" transform="translate(0.59)"/><path class="g" d="M184.24,19.15a.73.73,0,1,0,.35-1.42.73.73,0,0,0-.35,1.42Z" transform="translate(0.59)"/><path class="g" d="M191.71,20.12a.73.73,0,1,0,.36-1.42.74.74,0,0,0-.89.54A.72.72,0,0,0,191.71,20.12Z" transform="translate(0.59)"/><path class="g" d="M199.16,21.28a.73.73,0,1,0-.53-.89A.73.73,0,0,0,199.16,21.28Z" transform="translate(0.59)"/><path class="g" d="M206.58,22.62a.73.73,0,1,0-.53-.89A.73.73,0,0,0,206.58,22.62Z" transform="translate(0.59)"/><path class="g" d="M214,24.14a.73.73,0,1,0-.53-.89A.73.73,0,0,0,214,24.14Z" transform="translate(0.59)"/><path class="g" d="M221.31,25.85a.73.73,0,1,0-.53-.89A.73.73,0,0,0,221.31,25.85Z" transform="translate(0.59)"/><path class="g" d="M228.61,27.73a.73.73,0,1,0-.53-.89A.73.73,0,0,0,228.61,27.73Z" transform="translate(0.59)"/><path class="g" d="M235.86,29.8a.74.74,0,0,0,.89-.54.73.73,0,0,0-1.42-.35A.73.73,0,0,0,235.86,29.8Z" transform="translate(0.59)"/><path class="g" d="M243.06,32a.73.73,0,1,0-.53-.89A.73.73,0,0,0,243.06,32Z" transform="translate(0.59)"/><path class="g" d="M250.2,34.46a.74.74,0,0,0,.89-.54.72.72,0,0,0-.53-.88.73.73,0,0,0-.36,1.42Z" transform="translate(0.59)"/><path class="g" d="M257.28,37.05a.73.73,0,1,0-.53-.89A.73.73,0,0,0,257.28,37.05Z" transform="translate(0.59)"/><path class="g" d="M264.3,39.82a.73.73,0,1,0,.35-1.42.72.72,0,0,0-.88.53A.73.73,0,0,0,264.3,39.82Z" transform="translate(0.59)"/><path class="g" d="M271.24,42.76a.74.74,0,0,0,.89-.54.72.72,0,0,0-.53-.88.73.73,0,1,0-.36,1.42Z" transform="translate(0.59)"/><path class="g" d="M278.11,45.87a.74.74,0,0,0,.89-.54.73.73,0,0,0-1.42-.35A.73.73,0,0,0,278.11,45.87Z" transform="translate(0.59)"/><path class="g" d="M142.46,11.07a.69.69,0,1,0-.5-.83A.69.69,0,0,0,142.46,11.07Z" transform="translate(0.59)"/><path class="g" d="M150,11a.68.68,0,1,0-.5-.83A.68.68,0,0,0,150,11Z" transform="translate(0.59)"/><path class="g" d="M157.53,11.14a.68.68,0,0,0,.83-.5.69.69,0,0,0-.49-.83.69.69,0,0,0-.34,1.33Z" transform="translate(0.59)"/><path class="g" d="M165.07,11.45a.69.69,0,0,0,.33-1.33.69.69,0,1,0-.33,1.33Z" transform="translate(0.59)"/><path class="g" d="M172.59,11.94a.68.68,0,1,0,.33-1.32.68.68,0,0,0-.33,1.32Z" transform="translate(0.59)"/><path class="g" d="M180.1,12.61a.68.68,0,1,0-.49-.83A.68.68,0,0,0,180.1,12.61Z" transform="translate(0.59)"/><path class="g" d="M187.59,13.47a.69.69,0,1,0-.49-.83A.68.68,0,0,0,187.59,13.47Z" transform="translate(0.59)"/><path class="g" d="M195.06,14.5a.68.68,0,1,0,.33-1.32.69.69,0,0,0-.83.49A.68.68,0,0,0,195.06,14.5Z" transform="translate(0.59)"/><path class="g" d="M202.5,15.72a.69.69,0,1,0-.49-.83A.68.68,0,0,0,202.5,15.72Z" transform="translate(0.59)"/><path class="g" d="M209.91,17.11a.68.68,0,1,0-.49-.83A.68.68,0,0,0,209.91,17.11Z" transform="translate(0.59)"/><path class="g" d="M217.28,18.68a.68.68,0,0,0,.83-.49.68.68,0,1,0-.83.49Z" transform="translate(0.59)"/><path class="g" d="M224.62,20.43a.68.68,0,1,0-.5-.82A.68.68,0,0,0,224.62,20.43Z" transform="translate(0.59)"/><path class="g" d="M231.91,22.36a.68.68,0,0,0,.82-.49.67.67,0,0,0-.49-.83.68.68,0,1,0-.33,1.32Z" transform="translate(0.59)"/><path class="g" d="M239.15,24.47A.69.69,0,0,0,240,24a.69.69,0,0,0-1.33-.33A.69.69,0,0,0,239.15,24.47Z" transform="translate(0.59)"/><path class="g" d="M246.33,26.74a.68.68,0,1,0-.49-.83A.68.68,0,0,0,246.33,26.74Z" transform="translate(0.59)"/><path class="g" d="M253.46,29.19a.68.68,0,0,0,.83-.49.68.68,0,1,0-.83.49Z" transform="translate(0.59)"/><path class="g" d="M260.53,31.82A.69.69,0,1,0,260,31,.69.69,0,0,0,260.53,31.82Z" transform="translate(0.59)"/><path class="g" d="M267.54,34.61a.69.69,0,1,0,.33-1.33.69.69,0,0,0-.33,1.33Z" transform="translate(0.59)"/><path class="g" d="M274.47,37.57a.68.68,0,1,0,.33-1.32.66.66,0,0,0-.82.49A.68.68,0,0,0,274.47,37.57Z" transform="translate(0.59)"/><path class="g" d="M138.29,5.12a.63.63,0,1,0-.46-.76A.63.63,0,0,0,138.29,5.12Z" transform="translate(0.59)"/><path class="g" d="M145.83,5a.63.63,0,0,0,.77-.46.63.63,0,1,0-.77.46Z" transform="translate(0.59)"/><path class="g" d="M153.37,5a.63.63,0,0,0,.31-1.23.63.63,0,0,0-.77.46A.64.64,0,0,0,153.37,5Z" transform="translate(0.59)"/><path class="g" d="M160.91,5.2a.63.63,0,0,0,.77-.46.63.63,0,0,0-1.23-.31A.63.63,0,0,0,160.91,5.2Z" transform="translate(0.59)"/><path class="g" d="M168.44,5.58a.63.63,0,1,0-.46-.76A.62.62,0,0,0,168.44,5.58Z" transform="translate(0.59)"/><path class="g" d="M176,6.15a.63.63,0,1,0-.46-.77A.63.63,0,0,0,176,6.15Z" transform="translate(0.59)"/><path class="g" d="M183.46,6.88a.63.63,0,1,0-.46-.76A.63.63,0,0,0,183.46,6.88Z" transform="translate(0.59)"/><path class="g" d="M190.94,7.8a.63.63,0,0,0,.77-.46.62.62,0,0,0-.46-.76.63.63,0,1,0-.31,1.22Z" transform="translate(0.59)"/><path class="g" d="M198.4,8.9a.63.63,0,1,0-.46-.77A.64.64,0,0,0,198.4,8.9Z" transform="translate(0.59)"/><path class="g" d="M205.84,10.17a.63.63,0,1,0-.46-.77A.63.63,0,0,0,205.84,10.17Z" transform="translate(0.59)"/><path class="g" d="M213.23,11.61a.63.63,0,1,0,.31-1.22.63.63,0,0,0-.31,1.22Z" transform="translate(0.59)"/><path class="g" d="M220.6,13.24a.64.64,0,0,0,.77-.46.65.65,0,0,0-.46-.77.63.63,0,1,0-.31,1.23Z" transform="translate(0.59)"/><path class="g" d="M227.92,15a.63.63,0,1,0-.46-.76A.63.63,0,0,0,227.92,15Z" transform="translate(0.59)"/><path class="g" d="M235.2,17a.63.63,0,0,0,.77-.46.63.63,0,1,0-.77.46Z" transform="translate(0.59)"/><path class="g" d="M242.43,19.14a.63.63,0,0,0,.31-1.22.63.63,0,1,0-.31,1.22Z" transform="translate(0.59)"/><path class="g" d="M249.6,21.45a.63.63,0,1,0,.31-1.22.63.63,0,0,0-.31,1.22Z" transform="translate(0.59)"/><path class="g" d="M256.72,23.94a.63.63,0,1,0-.46-.77A.65.65,0,0,0,256.72,23.94Z" transform="translate(0.59)"/><path class="g" d="M263.78,26.59a.63.63,0,0,0,.31-1.23.63.63,0,0,0-.77.46A.64.64,0,0,0,263.78,26.59Z" transform="translate(0.59)"/><path class="g" d="M270.78,29.4a.63.63,0,1,0-.46-.77A.63.63,0,0,0,270.78,29.4Z" transform="translate(0.59)"/><path class="g" d="M277.7,32.38a.63.63,0,1,0-.46-.76A.63.63,0,0,0,277.7,32.38Z" transform="translate(0.59)"/><path class="g" d="M201.74,3.31a.58.58,0,1,0-.42-.71A.58.58,0,0,0,201.74,3.31Z" transform="translate(0.59)"/><path class="g" d="M209.17,4.64a.58.58,0,0,0,.7-.43.57.57,0,0,0-.42-.7.59.59,0,0,0-.71.42A.59.59,0,0,0,209.17,4.64Z" transform="translate(0.59)"/><path class="g" d="M216.56,6.13a.58.58,0,0,0,.7-.42.59.59,0,0,0-.42-.71.59.59,0,0,0-.71.43A.57.57,0,0,0,216.56,6.13Z" transform="translate(0.59)"/><path class="g" d="M223.91,7.8a.59.59,0,0,0,.71-.42.6.6,0,0,0-.43-.71.57.57,0,0,0-.7.43A.58.58,0,0,0,223.91,7.8Z" transform="translate(0.59)"/><path class="g" d="M231.22,9.64a.58.58,0,1,0,.28-1.13.58.58,0,0,0-.28,1.13Z" transform="translate(0.59)"/><path class="g" d="M238.49,11.65a.57.57,0,0,0,.7-.42.58.58,0,1,0-1.13-.29A.6.6,0,0,0,238.49,11.65Z" transform="translate(0.59)"/><path class="g" d="M245.71,13.83A.58.58,0,0,0,246,12.7a.58.58,0,1,0-.28,1.13Z" transform="translate(0.59)"/><path class="g" d="M252.87,16.17a.58.58,0,0,0,.29-1.13.58.58,0,0,0-.29,1.13Z" transform="translate(0.59)"/><path class="g" d="M260,18.68a.58.58,0,1,0-.42-.7A.57.57,0,0,0,260,18.68Z" transform="translate(0.59)"/><path class="g" d="M267,21.36a.59.59,0,0,0,.71-.42.59.59,0,0,0-.43-.71.58.58,0,0,0-.7.42A.59.59,0,0,0,267,21.36Z" transform="translate(0.59)"/><path class="g" d="M274,24.2a.58.58,0,1,0-.42-.71A.58.58,0,0,0,274,24.2Z" transform="translate(0.59)"/><path class="g" d="M280.93,27.2a.58.58,0,1,0,.28-1.13.58.58,0,0,0-.7.42A.59.59,0,0,0,280.93,27.2Z" transform="translate(0.59)"/><path class="g" d="M234.52,4.26a.53.53,0,0,0,.64-.39.52.52,0,0,0-.38-.64.53.53,0,1,0-.26,1Z" transform="translate(0.59)"/><path class="g" d="M241.77,6.31a.53.53,0,0,0,.65-.39.54.54,0,0,0-.39-.65.54.54,0,0,0-.26,1Z" transform="translate(0.59)"/><path class="g" d="M249,8.52a.53.53,0,0,0,.65-.39.53.53,0,1,0-.65.39Z" transform="translate(0.59)"/><path class="g" d="M256.14,10.9a.53.53,0,0,0,.64-.39.53.53,0,1,0-1-.26A.54.54,0,0,0,256.14,10.9Z" transform="translate(0.59)"/><path class="g" d="M263.24,13.44a.54.54,0,1,0-.39-.65A.54.54,0,0,0,263.24,13.44Z" transform="translate(0.59)"/><path class="g" d="M270.28,16.14a.53.53,0,0,0,.64-.39.54.54,0,0,0-.39-.65.53.53,0,0,0-.25,1Z" transform="translate(0.59)"/><path class="g" d="M277.25,19a.53.53,0,0,0,.65-.39.53.53,0,0,0-.39-.64.53.53,0,1,0-.26,1Z" transform="translate(0.59)"/><path class="g" d="M252.26,3.22a.48.48,0,1,0-.35-.59A.48.48,0,0,0,252.26,3.22Z" transform="translate(0.59)"/><path class="g" d="M259.4,5.64a.49.49,0,0,0,.6-.36.5.5,0,0,0-.36-.61A.51.51,0,0,0,259,5,.51.51,0,0,0,259.4,5.64Z" transform="translate(0.59)"/><path class="g" d="M266.49,8.19a.48.48,0,1,0,.23-.93.48.48,0,1,0-.23.93Z" transform="translate(0.59)"/><path class="g" d="M273.52,10.92a.48.48,0,0,0,.58-.35.48.48,0,1,0-.58.35Z" transform="translate(0.59)"/><path class="g" d="M280.48,13.82a.51.51,0,0,0,.61-.37.5.5,0,1,0-.61.37Z" transform="translate(0.59)"/><path class="g" d="M269.74,3a.45.45,0,0,0,.54-.33A.44.44,0,0,0,270,2.1a.45.45,0,1,0-.22.87Z" transform="translate(0.59)"/><path class="g" d="M276.76,5.72a.45.45,0,0,0,.54-.33.44.44,0,0,0-.32-.54.45.45,0,0,0-.55.32A.46.46,0,0,0,276.76,5.72Z" transform="translate(0.59)"/></g></g></g><line class="j" x1="176.87" y1="64.33" x2="176.4" y2="38.37"/><line class="j" x1="186.3" y1="73.59" x2="212.26" y2="73.59"/><line class="j" x1="181.59" y1="68.96" x2="196.3" y2="53.97"/><rect class="k" x="56.88" y="16.37" width="72.11" height="127.88" transform="translate(-28.97 89.23) rotate(-45)"/><path class="l" d="M85.41,140l26.25,25.78a2.33,2.33,0,0,1,0,3.25l-22.56,23a2.29,2.29,0,0,1-3.25,0L59.62,166.29a2.28,2.28,0,0,1,0-3.25l22.55-23a2.29,2.29,0,0,1,3.12-.14Z" transform="translate(0.59)"/><path class="l" d="M71.74,163.77h2a0,0,0,0,1,0,0v34.5a0,0,0,0,1,0,0h-2a2,2,0,0,1-2-2v-30.5A2,2,0,0,1,71.74,163.77Z" transform="translate(-107.09 105.38) rotate(-45.52)"/><rect class="l" x="86.7" y="179.39" width="32.05" height="5.55" rx="2.41" transform="translate(-98.63 127.81) rotate(-45.52)"/><rect class="l" x="121.01" y="213.09" width="32.05" height="5.55" rx="2.41" transform="translate(-112.4 162.38) rotate(-45.52)"/><rect class="l" x="106.98" y="178.28" width="24.75" height="42.54" transform="translate(-106.06 144.88) rotate(-45.52)"/><path class="l" d="M209.81,124.94a150.82,150.82,0,0,0-97.62,41.71,2.3,2.3,0,0,0-.53-.83L85.41,140l-.14-.11a152.57,152.57,0,0,0,30.09-48.87,152.75,152.75,0,0,0,9.81-49.23l84.46,83C209.69,124.83,209.74,124.89,209.81,124.94Z" transform="translate(0.59)"/><path class="l" d="M130.77,35.84l84.6,83.09a2.28,2.28,0,0,1,0,3.25l-2.52,2.57a2.32,2.32,0,0,1-3.07.19c-.07,0-.12-.11-.18-.16L125,41.69a2.31,2.31,0,0,1,0-3.25l2.53-2.57A2.29,2.29,0,0,1,130.77,35.84Z" transform="translate(0.59)"/><path class="l" d="M172.42,56.76h3a2,2,0,0,1,2,2V92.62a2,2,0,0,1-2,2h-3a0,0,0,0,1,0,0V56.76A0,0,0,0,1,172.42,56.76Z" transform="translate(-1.05 147.46) rotate(-45.52)"/><path class="m" d="M96.52,138A249.42,249.42,0,0,0,116.14,114a250.6,250.6,0,0,0,26.44-46.9" transform="translate(0.59)"/><circle class="l" cx="86.45" cy="166.66" r="11.9"/><circle class="l" cx="86.45" cy="166.66" r="7.07"/><circle class="n" cx="210.4" cy="191.65" r="43.7"/><path class="o" d="M224.73,210.77a17.25,17.25,0,0,1-15.84,10.52" transform="translate(0.59)"/><path class="o" d="M208.89,165a17.25,17.25,0,0,1,16.74,13.26,19.78,19.78,0,0,0,4.66,8.6l6.27,7h0a1.83,1.83,0,0,1-1.36,3.05h-6a3.09,3.09,0,0,0-3.09,3.09v3.82" transform="translate(0.59)"/><path class="o" d="M201.46,199.9a6.61,6.61,0,0,1-2.93-12.54,6.47,6.47,0,0,1,2.93-.69" transform="translate(0.59)"/><path class="o" d="M199.25,191.7a1.69,1.69,0,0,1,.75,3.2,1.63,1.63,0,0,1-.75.18" transform="translate(0.59)"/><path class="o" d="M186,167.81l2.16-2.16h0a2.44,2.44,0,0,1,3.45,0l.69.7h0a2.44,2.44,0,0,0,3.45,0l.75-.75a2.44,2.44,0,0,1,3.45,0l2.61,2.61" transform="translate(0.59)"/><path class="o" d="M186,174.21l2.16-2.16h0a2.44,2.44,0,0,1,3.45,0l.69.7h0a2.44,2.44,0,0,0,3.45,0l.75-.75a2.44,2.44,0,0,1,3.45,0l2.61,2.61" transform="translate(0.59)"/><path class="o" d="M186,180.61l2.16-2.16h0a2.44,2.44,0,0,1,3.45,0l.69.7a2.44,2.44,0,0,0,3.45,0l.75-.75h0a2.44,2.44,0,0,1,3.45,0l2.61,2.61" transform="translate(0.59)"/><path class="o" d="M226.08,203.85h-7.36a.4.4,0,0,0-.36.25.4.4,0,0,0,.08.43l6.24,6.24" transform="translate(0.59)"/><path d="M220.72,184.91a3,3,0,1,1-3-2.95,3,3,0,0,1,3,2.95" transform="translate(0.59)"/><path class="p" d="M233.41,204.73a6.14,6.14,0,0,1-2.89,9" transform="translate(0.59)"/><path class="p" d="M230.75,206.42a3,3,0,0,1-1.4,4.35" transform="translate(0.59)"/></svg>