<svg xmlns="http://www.w3.org/2000/svg" viewBox="0 0 283 259"><defs><style>.a{fill:#47bcee;stroke-width:3px;}.a,.b,.c,.d,.e,.f,.g,.i,.j,.k,.l{stroke:#1c1131;}.a,.b,.c,.d,.e,.g,.i,.j,.k,.l{stroke-miterlimit:10;}.b,.f,.i,.j{fill:none;}.b,.c,.d{stroke-width:2.53px;}.c,.k{fill:#e50e99;}.d{fill:#ffd23f;}.e,.g,.h,.l{fill:#fff;}.e{stroke-width:1.55px;}.f{stroke-linecap:round;stroke-linejoin:round;stroke-width:0.77px;}.g{stroke-width:0.97px;}.i{stroke-width:0.49px;}.j,.k{stroke-width:1.41px;}.l{stroke-width:0.36px;}</style></defs><path class="a" d="M261.5,1.5H21.5a20,20,0,0,0-20,20v216a20,20,0,0,0,20,20h240a20,20,0,0,0,20-20V21.5A20,20,0,0,0,261.5,1.5Zm-7.71,211.18a19.09,19.09,0,0,1-19.07,19.06H46.6a19.08,19.08,0,0,1-19.07-19.06V44.8A19.09,19.09,0,0,1,46.6,25.74H234.72A19.08,19.08,0,0,1,253.79,44.8Z"/><line class="b" x1="34.28" y1="227.22" x2="7.46" y2="251.64"/><line class="b" x1="275.64" y1="7.46" x2="248.77" y2="31.92"/><line class="b" x1="275.64" y1="251.64" x2="247.93" y2="226.41"/><line class="b" x1="33.39" y1="31.07" x2="7.46" y2="7.46"/><path class="c" d="M247.93,226.41a18.91,18.91,0,0,1-13.21,5.33H46.6a19,19,0,0,1-12.32-4.52l107.27-97.67Z"/><path class="d" d="M253.79,44.8V212.68a19,19,0,0,1-5.86,13.73L141.55,129.55,248.77,31.92A19,19,0,0,1,253.79,44.8Z"/><path class="c" d="M248.77,31.92,141.55,129.55,33.39,31.07A18.91,18.91,0,0,1,46.6,25.74H234.72A19,19,0,0,1,248.77,31.92Z"/><path class="d" d="M141.55,129.55,34.28,227.22a19,19,0,0,1-6.75-14.54V44.8a19,19,0,0,1,5.86-13.73Z"/><rect class="e" x="63.99" y="59.54" width="155.11" height="141.04"/><rect class="e" x="63.99" y="172.94" width="155.11" height="27.64"/><line class="f" x1="73.56" y1="186.76" x2="207.15" y2="186.76"/><rect class="g" x="145.89" y="182.26" width="5.97" height="10.09" rx="2.9"/><rect class="h" x="71.48" y="68.92" width="140.15" height="91.52"/><polyline class="i" points="211.63 151.92 211.63 160.44 203.12 160.44"/><polyline class="i" points="80 160.44 71.48 160.44 71.48 151.92"/><polyline class="i" points="71.48 77.43 71.48 68.92 80 68.92"/><polyline class="i" points="203.12 68.92 211.63 68.92 211.63 77.43"/><rect class="j" x="101.89" y="94.2" width="76.93" height="50.89" rx="14.73"/><path class="k" d="M149.7,116.2l-14.63-8.53a4,4,0,0,0-6,3.45v17a4,4,0,0,0,6,3.45l14.63-8.53A4,4,0,0,0,149.7,116.2Z"/><polygon class="l" points="182.05 85.91 183.41 91.56 189.06 92.92 183.41 94.27 182.05 99.92 180.69 94.27 175.04 92.92 180.69 91.56 182.05 85.91"/></svg>