<?xml version="1.0" encoding="iso-8859-1"?>
<!-- Generator: Adobe Illustrator 19.0.0, SVG Export Plug-In . SVG Version: 6.00 Build 0)  -->
<svg fill="#444F60" version="1.1" id="Capa_1" xmlns="http://www.w3.org/2000/svg" xmlns:xlink="http://www.w3.org/1999/xlink" x="0px" y="0px"
	 viewBox="0 0 512 512" style="enable-background:new 0 0 512 512;" xml:space="preserve">
<g>
	<g>
		<path d="M396.439,494.006l-53.706-53.713c-1.876-1.875-4.419-2.929-7.071-2.929c-0.005,0-0.01,0-0.014,0l-28.815,0.041
			c-0.063,0-0.126,0-0.189,0c-15.906,0-31.84-2.925-46.753-8.506l17.291-11.595c7.078-4.746,11.837-11.973,13.402-20.35
			c1.564-8.378-0.266-16.836-5.154-23.818c-6.078-8.68-15.866-13.392-25.832-13.392c-0.162,0-0.324,0.001-0.487,0.004l39.829-39.829
			c12.083-12.084,12.083-31.746,0-43.83c-2.94-2.94-6.367-5.215-10.099-6.753c2.766-4.702,4.245-10.073,4.245-15.672
			c0-8.278-3.224-16.062-9.077-21.916c-5.854-5.854-13.637-9.078-21.916-9.078c-5.599,0-10.969,1.48-15.672,4.246
			c-1.538-3.732-3.813-7.159-6.753-10.1c-5.854-5.854-13.637-9.078-21.916-9.078s-16.062,3.224-21.916,9.078l-14.301,14.301
			c-1.521-3.351-3.642-6.439-6.322-9.12c-5.854-5.854-13.637-9.077-21.916-9.077c-8.279,0-16.062,3.224-21.916,9.077l-6.339,6.339
			L99.271,202.71c-7.486-7.486-7.486-19.667,0-27.153c7.013-7.013,18.145-7.455,25.678-1.33l24.958,24.959
			c1.953,1.953,4.512,2.929,7.071,2.929s5.119-0.977,7.071-2.929c3.905-3.905,3.905-10.237,0-14.142l-43.056-43.056
			c-7.486-7.487-7.486-19.668,0-27.154c7.486-7.487,19.668-7.486,27.154,0l75.437,75.582c1.953,1.953,4.512,2.929,7.071,2.929
			c2.559,0,5.119-0.977,7.071-2.929c3.905-3.905,3.905-10.237,0-14.142l-57.339-57.485c-6.125-7.534-5.682-18.665,1.33-25.677
			c7.487-7.486,19.669-7.486,27.154,0l21.008,21.009c3.906,3.906,10.238,3.906,14.142,0c3.905-3.905,3.906-10.237,0-14.142
			L223.013,78.97c-15.285-15.284-40.154-15.283-55.438,0c-5.051,5.051-8.421,11.151-10.134,17.604
			c-6.621-4.778-14.545-7.363-22.871-7.363c-10.471,0-20.315,4.078-27.719,11.481c-13.758,13.758-15.124,35.279-4.114,50.589
			c-6.454,1.712-12.556,5.083-17.608,10.135c-14.424,14.425-15.228,37.382-2.427,52.767c-6.311,1.743-12.27,5.08-17.221,10.031
			c-15.283,15.284-15.283,40.153,0,55.438l4.463,4.463c-16.875,20.262-26.046,45.543-26.008,72.24l0.024,16.564L2.929,413.953
			c-3.905,3.905-3.905,10.237,0,14.143c1.953,1.952,4.512,2.929,7.071,2.929s5.119-0.977,7.071-2.929l43.966-43.967
			c1.879-1.879,2.933-4.429,2.929-7.086l-0.03-20.715c-0.036-24.854,9.625-48.223,27.2-65.798l49.626-49.627
			c0,0,0-0.001,0.001-0.001l4.76-4.76c2.076-2.077,4.836-3.22,7.773-3.22c2.937,0,5.697,1.143,7.773,3.22
			c2.077,2.076,3.22,4.836,3.22,7.773c0,2.521-0.848,4.91-2.402,6.85l-13.219,13.219c-3.905,3.905-3.905,10.237,0,14.143
			c0.009,0.009,0.019,0.016,0.027,0.025c0.009,0.009,0.016,0.018,0.025,0.027c1.953,1.952,4.512,2.929,7.071,2.929
			c2.559,0,5.119-0.977,7.071-2.929l47.114-47.219c2.076-2.077,4.836-3.22,7.773-3.22c2.937,0,5.697,1.144,7.773,3.22
			c3.99,3.99,4.261,10.308,0.821,14.62l-47.988,48.093c-3.905,3.905-3.905,10.237,0,14.143c1.953,1.952,4.512,2.929,7.071,2.929
			c2.559,0,5.119-0.977,7.071-2.929l61.819-61.924c2.076-2.077,4.836-3.22,7.773-3.22s5.697,1.144,7.773,3.22
			c4.286,4.286,4.286,11.26,0,15.546l-61.923,61.818c-3.905,3.905-3.906,10.237,0,14.143c3.906,3.904,10.238,3.905,14.142,0
			l48.094-47.988c4.311-3.441,10.629-3.17,14.619,0.822c4.286,4.285,4.286,11.26,0,15.545l-67.515,67.517
			c-4.756,4.755-5.196,12.047-1.045,17.339c4.15,5.292,11.338,6.603,17.09,3.116l20.397-12.365
			c5.142-3.119,11.872-1.702,15.321,3.225c1.781,2.543,2.447,5.623,1.877,8.675c-0.57,3.05-2.303,5.682-4.88,7.41l-47.189,31.644
			c-15.355,10.297-33.236,15.736-51.722,15.736c-0.043,0-0.088,0-0.131,0l-32.051-0.046c-0.005,0-0.009,0-0.014,0
			c-2.652,0-5.196,1.054-7.071,2.929l-43.967,43.967c-3.905,3.905-3.905,10.237,0,14.143c1.953,1.952,4.512,2.929,7.071,2.929
			c2.559,0,5.119-0.977,7.071-2.929l41.032-41.032l27.901,0.04c0.053,0,0.104,0,0.158,0c22.465,0,44.201-6.612,62.861-19.125
			l10.105-6.776c20.649,9.964,43.623,15.233,66.546,15.233c0.071,0,0.146,0,0.218,0l24.664-0.035l50.776,50.776
			c1.953,1.952,4.512,2.929,7.071,2.929s5.119-0.977,7.071-2.929C400.344,504.244,400.344,497.912,396.439,494.006z
			 M104.355,249.027c-0.001,0.001-0.001,0.001-0.002,0.002l-20.606,20.606l-4.123-4.123c-7.486-7.487-7.486-19.668,0-27.154
			c7.013-7.013,18.145-7.455,25.678-1.33l5.526,5.526L104.355,249.027z"/>
	</g>
</g>
<g>
	<g>
		<path d="M509.07,381.382c-1.86-1.87-4.44-2.93-7.07-2.93s-5.21,1.06-7.07,2.93c-1.86,1.86-2.93,4.43-2.93,7.07
			c0,2.63,1.07,5.21,2.93,7.069c1.86,1.86,4.44,2.931,7.07,2.931s5.21-1.07,7.07-2.931c1.86-1.87,2.93-4.439,2.93-7.069
			C512,385.811,510.93,383.242,509.07,381.382z"/>
	</g>
</g>
<g>
	<g>
		<path d="M482.18,354.488l-23.886-23.886l0.058-40.432c0.043-30.548-8.926-60.105-25.94-85.477l-44.015-65.638
			c-6.012-8.966-15.167-14.995-25.778-16.977c-10.612-1.982-21.325,0.337-30.167,6.529c-14.488,10.145-20.249,28.449-15.126,44.675
			l-26.135-26.136c-3.905-3.904-10.237-3.904-14.143,0c-3.905,3.905-3.905,10.237,0,14.143l56.144,56.144
			c5.194,5.194,13.161,5.675,18.941,1.14c5.78-4.534,7.212-12.385,3.403-18.668l-17.2-28.372c-5.4-8.908-2.946-20.567,5.587-26.542
			c4.404-3.083,9.743-4.238,15.024-3.251c5.285,0.987,9.844,3.99,12.838,8.455l44.015,65.638
			c14.791,22.058,22.589,47.753,22.551,74.309l-0.063,44.582c-0.004,2.657,1.05,5.207,2.929,7.086l26.821,26.821
			c1.953,1.952,4.512,2.929,7.071,2.929s5.119-0.977,7.071-2.929C486.085,364.726,486.085,358.394,482.18,354.488z"/>
	</g>
</g>
<g>
	<g>
		<path d="M267.68,123.642c-1.85-1.86-4.43-2.93-7.06-2.93c-2.64,0-5.21,1.07-7.08,2.93c-1.86,1.86-2.93,4.44-2.93,7.07
			c0,2.64,1.07,5.21,2.93,7.07c1.87,1.86,4.44,2.93,7.08,2.93c2.63,0,5.2-1.07,7.06-2.93c1.87-1.86,2.94-4.44,2.94-7.07
			S269.55,125.502,267.68,123.642z"/>
	</g>
</g>
<g>
	<g>
		<path d="M360.485,278.824c3.905-3.905,3.905-10.237,0-14.143c-3.905-3.904-10.237-3.904-14.143,0l-4.362,4.362
			c-18.674,18.675-18.674,49.061,0,67.735c1.953,1.952,4.512,2.929,7.071,2.929c2.559,0,5.119-0.977,7.071-2.929
			c3.905-3.905,3.906-10.237,0-14.143c-10.876-10.876-10.876-28.574,0-39.45L360.485,278.824z"/>
	</g>
</g>
<g>
	<g>
		<path d="M477.299,54.002c-6.357,0-12.571,1.804-17.944,5.103c-5.373-3.299-11.587-5.103-17.944-5.103
			c-19.134,0-34.701,15.852-34.701,35.335c0,11.042,7.939,24.303,24.271,40.543c10.996,10.934,21.843,19.256,22.3,19.605
			c1.792,1.371,3.933,2.056,6.074,2.056s4.281-0.685,6.074-2.056c0.457-0.349,11.304-8.672,22.3-19.605
			C504.061,113.641,512,100.379,512,89.337C512,69.853,496.433,54.002,477.299,54.002z M459.352,128.748
			c-16.712-13.88-32.642-31.59-32.642-39.411c0-8.456,6.595-15.335,14.701-15.335c4.032,0,7.794,1.671,10.594,4.707
			c1.894,2.052,4.558,3.219,7.35,3.219s5.457-1.167,7.35-3.219c2.8-3.035,6.562-4.707,10.594-4.707
			c8.106,0,14.701,6.879,14.701,15.335C492,97.138,476.065,114.853,459.352,128.748z"/>
	</g>
</g>
<g>
	<g>
		<path d="M70.589,0.003c-6.357,0-12.571,1.804-17.944,5.103c-5.373-3.299-11.587-5.103-17.944-5.103
			C15.567,0.002,0,15.853,0,35.337C0,46.379,7.939,59.64,24.271,75.88c10.996,10.934,21.844,19.257,22.3,19.606
			c1.792,1.371,3.933,2.056,6.074,2.056s4.281-0.685,6.074-2.056c0.457-0.349,11.304-8.672,22.3-19.605
			c16.332-16.24,24.271-29.501,24.271-40.543C105.29,15.854,89.723,0.003,70.589,0.003z M52.642,74.748
			C35.929,60.868,20,43.159,20,35.337c0-8.456,6.595-15.335,14.701-15.335c4.032,0,7.794,1.671,10.594,4.707
			c1.894,2.052,4.558,3.219,7.35,3.219s5.457-1.167,7.35-3.219c2.8-3.035,6.562-4.707,10.594-4.707
			c8.106,0,14.701,6.879,14.701,15.335C85.29,43.137,69.355,60.853,52.642,74.748z"/>
	</g>
</g>
<g>
</g>
<g>
</g>
<g>
</g>
<g>
</g>
<g>
</g>
<g>
</g>
<g>
</g>
<g>
</g>
<g>
</g>
<g>
</g>
<g>
</g>
<g>
</g>
<g>
</g>
<g>
</g>
<g>
</g>
</svg>
