<?xml version="1.0" encoding="iso-8859-1"?>
<!-- Generator: Adobe Illustrator 19.0.0, SVG Export Plug-In . SVG Version: 6.00 Build 0)  -->
<svg fill="#444F60" version="1.1" id="Capa_1" xmlns="http://www.w3.org/2000/svg" xmlns:xlink="http://www.w3.org/1999/xlink" x="0px" y="0px"
	 viewBox="0 0 471.477 471.477" style="enable-background:new 0 0 471.477 471.477;" xml:space="preserve">
<g>
	<g>
		<path d="M190.024,105.178c-17.673,0-32,14.327-32,32s14.327,32,32,32c17.673,0,32-14.327,32-32S207.697,105.178,190.024,105.178z
			 M190.024,153.178c-8.837,0-16-7.163-16-16c0.044-8.805,7.195-15.92,16-15.92v-0.08c8.837,0,16,7.163,16,16
			S198.861,153.178,190.024,153.178z"/>
	</g>
</g>
<g>
	<g>
		<path d="M281.544,105.178c-17.673,0-32,14.327-32,32s14.327,32,32,32c17.673,0,32-14.327,32-32S299.217,105.178,281.544,105.178z
			 M281.544,153.178c-8.837,0-16-7.163-16-16c0.044-8.805,7.195-15.92,16-15.92v-0.08c8.837,0,16,7.163,16,16
			S290.381,153.178,281.544,153.178z"/>
	</g>
</g>
<g>
	<g>
		<path d="M379.097,142.007c-3.452-18.993-18.742-33.603-37.872-36.189c-5.28-19.52-20.48-36.16-51.04-36.16h-46.4v-17.6
			c14.034-4.418,21.829-19.377,17.41-33.41c-4.418-14.034-19.377-21.829-33.41-17.41c-14.034,4.418-21.829,19.377-17.41,33.41
			c2.613,8.298,9.112,14.798,17.41,17.41v17.2h-46.32c-21.6,0-44.32,9.92-51.2,36.16c-24.381,3.347-41.433,25.825-38.086,50.206
			c2.624,19.117,17.255,34.372,36.246,37.794l-0.08,0.4c2.4,35.12,28.48,48,53.04,48h108.8c36.56,0,51.2-24,53.04-48
			C367.437,189.416,383.498,166.22,379.097,142.007z M128.104,177.818c-15.11-4.368-23.819-20.158-19.452-35.268
			c2.715-9.393,10.059-16.737,19.452-19.452V177.818z M225.144,27.098c0-5.876,4.764-10.64,10.64-10.64
			c5.876,0,10.64,4.764,10.64,10.64c0,5.876-4.764,10.64-10.64,10.64C229.908,37.738,225.144,32.974,225.144,27.098z
			 M327.464,188.058c0,13.92-4.88,37.28-37.28,37.28h-108.72c-13.92,0-37.28-4.88-37.28-37.28l-0.08-64.96
			c0-32.48,23.36-37.28,37.28-37.28h108.8c32.48,0,37.28,23.36,37.28,37.28V188.058z M343.144,177.258v-54.72
			c12.196,3.52,20.604,14.667,20.64,27.36C363.748,162.591,355.34,173.738,343.144,177.258z"/>
	</g>
</g>
<g>
	<g>
		<path d="M281.544,190.938h-91.52c-4.418,0-8,3.582-8,8s3.582,8,8,8h91.52c4.418,0,8-3.582,8-8S285.962,190.938,281.544,190.938z"
			/>
	</g>
</g>
<g>
	<g>
		<path d="M413.784,256.778L413.784,256.778c-0.153-17.142-14.173-30.915-31.315-30.762c-14.344,0.128-26.732,10.067-29.965,24.042
			l-21.36,4.16h-190.72l-21.36-4.16c-3.66-16.748-20.203-27.358-36.951-23.698c-16.748,3.66-27.358,20.203-23.698,36.951
			c2.488,11.384,11.141,20.416,22.409,23.388v59.76c-13.533,3.61-22.972,15.834-23.04,29.84v14.16c0,4.418,3.582,8,8,8s8-3.582,8-8
			v-14.24c0-8.306,6.734-15.04,15.04-15.04c8.306,0,15.04,6.734,15.04,15.04v14.24c0,4.418,3.582,8,8,8c4.418,0,8-3.582,8-8v-14.24
			c-0.068-14.006-9.507-26.23-23.04-29.84v-59.76c10.163-2.738,18.239-10.453,21.44-20.48l13.36,2.64v98.72
			c0.016,14.473,3.068,28.781,8.96,42v0.72c23.619,52.357,85.21,75.653,137.566,52.034c23.106-10.424,41.61-28.927,52.034-52.034
			l0.4-0.88c5.955-13.151,9.089-27.404,9.2-41.84v-98.72l13.36-2.64c3.201,10.027,11.277,17.742,21.44,20.48v59.76
			c-13.533,3.61-22.972,15.834-23.04,29.84v14.24c0,4.418,3.582,8,8,8s8-3.582,8-8v-14.24c0.008-8.306,6.748-15.034,15.054-15.026
			c8.295,0.008,15.018,6.731,15.026,15.026v14.24c0,4.418,3.582,8,8,8s8-3.582,8-8v-14.24c-0.068-14.006-9.507-26.23-23.04-29.84
			v-59.76C404.18,283.069,413.696,270.829,413.784,256.778z M88.824,271.818c-8.306,0-15.04-6.734-15.04-15.04
			c0-8.306,6.734-15.04,15.04-15.04c8.306,0,15.04,6.734,15.04,15.04C103.864,265.084,97.13,271.818,88.824,271.818z
			 M235.784,455.578c-30.139-0.001-58.182-15.425-74.32-40.88h148.64C293.966,440.152,265.923,455.577,235.784,455.578z
			 M323.784,367.578c-0.039,10.668-2.018,21.24-5.84,31.2h-164.48c-3.822-9.96-5.801-20.532-5.84-31.2v-97.36h176.16V367.578z
			 M382.827,271.816c-0.028,0-0.055,0.001-0.083,0.001l-0.16-0.24c-8.306,0-15.04-6.734-15.04-15.04
			c0-8.306,6.734-15.04,15.04-15.04c8.306,0,15.04,6.734,15.04,15.04C397.757,264.843,391.132,271.683,382.827,271.816z"/>
	</g>
</g>
<g>
	<g>
		<path d="M264.085,326.679c-1.465-1.322-3.367-2.056-5.341-2.061h-24l29.44-30.24c2.83-3.393,2.375-8.437-1.018-11.268
			c-3.034-2.531-7.461-2.468-10.422,0.148l-42.64,43.84c-3.093,3.155-3.042,8.22,0.113,11.313c1.507,1.477,3.537,2.299,5.647,2.287
			h24.64l-30.32,33.76c-2.952,3.272-2.702,8.316,0.56,11.28h0c3.272,2.952,8.316,2.702,11.28-0.56l42.64-47.2
			C267.624,334.698,267.365,329.639,264.085,326.679z"/>
	</g>
</g>
<g>
</g>
<g>
</g>
<g>
</g>
<g>
</g>
<g>
</g>
<g>
</g>
<g>
</g>
<g>
</g>
<g>
</g>
<g>
</g>
<g>
</g>
<g>
</g>
<g>
</g>
<g>
</g>
<g>
</g>
</svg>
