<?xml version="1.0" encoding="UTF-8"?>
<svg width="72px" height="29px" viewBox="0 0 72 29" version="1.1" xmlns="http://www.w3.org/2000/svg" xmlns:xlink="http://www.w3.org/1999/xlink">
    <!-- Generator: Sketch 56.3 (81716) - https://sketch.com -->
    <title>500x200</title>
    <desc>Created with Sketch.</desc>
    <g id="04-Seitenrahmen" stroke="none" stroke-width="1" fill="none" fill-rule="evenodd">
        <g id="Desktop-1440px---Privatkunden-v1" transform="translate(-180.000000, -62.000000)" fill-rule="nonzero">
            <g id="Group-5">
                <g id="500x200" transform="translate(180.000000, 62.000000)">
                    <path d="M41.5651609,21.0619841 L41.5651609,7.93903901 L43.1600274,7.93903901 C47.5337973,7.93903901 50.3540864,9.9156142 50.3540864,14.4549848 L50.3540864,14.5450152 C50.3540864,19.0843858 47.5337973,21.0619841 43.1600274,21.0619841 L41.5651609,21.0619841 Z M32,29 L42.6280687,29 C54.1958976,29 60,22.9116983 60,14.3342623 L60,14.2513935 C60,5.67600366 54.3190454,0 42.9551175,0 L32,0 L32,29 Z" id="Fill-1" fill="#006B2D"></path>
                    <polygon id="-g-Fill-8" fill="#E30613" points="6 20 21 20 21 10 6 10"></polygon>
                    <polygon id="-g-Fill-4" fill="#006B2D" points="63 29 72 29 72 0 63 0"></polygon>
                    <polygon id="-g-Fill-6" fill="#006B2D" points="0 29 9 29 9 0 0 0"></polygon>
                    <polygon id="-g-Fill-7" fill="#006B2D" points="19 29 28 29 28 0 19 0"></polygon>
                </g>
            </g>
        </g>
    </g>
</svg>