<svg enable-background="new 0 0 2000 1999.984" height="545.84497" viewBox="0 0 1750.2934 545.84497" width="1750.2933" xmlns="http://www.w3.org/2000/svg"><g clip-rule="evenodd" fill-rule="evenodd"><g transform="translate(-180.884 -727.069)"><path d="m356.996 807.521c-24.779 24.776-40.104 59.008-40.104 96.812 0 37.809 15.325 72.034 40.104 96.808 55.364 55.372 104.225 24.98 135.285 56.04 9.84 9.842 15.933 23.447 15.933 38.474 0 15.023-6.093 28.632-15.933 38.473-9.843 9.845-23.45 15.936-38.475 15.936-10.021 0-19.375-2.686-27.377-7.354-25.975-15.161-30.519-48.084-70.353-71.339-20.285-11.842-43.846-18.637-68.954-18.637-35.289 0-67.459 13.355-91.735 35.282 9.772 28.697 24.19 55.246 42.359 78.749 2.707-5.83 6.413-11.102 10.901-15.589 9.841-9.842 23.45-15.936 38.475-15.936 10.021 0 19.375 2.686 27.376 7.354 8.556 4.994 15.55 11.989 20.191 20.202 12.059 21.337 29.423 39.029 50.162 51.137 20.285 11.842 43.846 18.637 68.955 18.637 37.804 0 72.036-15.326 96.812-40.105 24.775-24.775 40.104-59.001 40.104-96.81 0-37.802-15.328-72.034-40.104-96.81-55.367-55.367-104.229-24.983-135.285-56.038-9.843-9.845-15.935-23.448-15.935-38.473s6.092-28.632 15.935-38.475c9.839-9.839 23.448-15.933 38.473-15.933 10.021 0 19.376 2.682 27.378 7.354 25.973 15.162 30.517 48.083 70.351 71.339 20.284 11.842 43.846 18.635 68.956 18.635 35.284 0 67.459-13.352 91.733-35.28-9.772-28.7-24.19-55.247-42.359-78.751-2.705 5.831-6.413 11.102-10.901 15.589-9.843 9.843-23.448 15.935-38.473 15.935-10.021 0-19.375-2.684-27.378-7.354-8.556-4.995-15.548-11.99-20.19-20.202-12.059-21.336-29.422-39.029-50.16-51.138-20.285-11.841-43.847-18.634-68.956-18.634-37.81-.001-72.037 15.327-96.811 40.102z" fill="#fff"/><g fill="#018ffa"><path d="m453.806 727.069c-150.731 0-272.922 122.192-272.922 272.924 0 30.797 5.1 60.402 14.503 88.021 24.276-21.927 56.446-35.282 91.735-35.282 25.108 0 48.669 6.795 68.954 18.637 39.833 23.255 44.377 56.178 70.353 71.339 8.002 4.669 17.356 7.354 27.377 7.354 15.025 0 28.632-6.091 38.475-15.936 9.84-9.841 15.933-23.449 15.933-38.473 0-15.026-6.093-28.632-15.933-38.474-31.06-31.06-79.921-.668-135.285-56.04-24.779-24.773-40.104-58.999-40.104-96.808 0-37.804 15.325-72.036 40.104-96.812 24.774-24.776 59.001-40.104 96.81-40.104 25.109 0 48.671 6.793 68.956 18.634 20.738 12.108 38.101 29.802 50.16 51.138 4.643 8.212 11.634 15.208 20.19 20.202 8.004 4.67 17.358 7.354 27.378 7.354 15.025 0 28.63-6.092 38.473-15.935 4.488-4.488 8.196-9.759 10.901-15.589-49.913-64.569-128.129-106.15-216.058-106.15z"/><path d="m550.617 998.844c24.775 24.776 40.104 59.008 40.104 96.81 0 37.809-15.328 72.034-40.104 96.81-24.776 24.779-59.008 40.105-96.812 40.105-25.108 0-48.67-6.795-68.955-18.637-20.738-12.107-38.103-29.8-50.162-51.137-4.641-8.213-11.635-15.208-20.191-20.202-8.002-4.669-17.356-7.354-27.376-7.354-15.025 0-28.634 6.094-38.475 15.936-4.488 4.487-8.194 9.759-10.901 15.589 49.916 64.571 128.132 106.15 216.06 106.15 150.732 0 272.923-122.19 272.923-272.921 0-30.797-5.102-60.403-14.505-88.02-24.274 21.928-56.449 35.28-91.733 35.28-25.109 0-48.671-6.793-68.956-18.635-39.834-23.257-44.378-56.178-70.351-71.339-8.002-4.672-17.358-7.354-27.378-7.354-15.025 0-28.634 6.094-38.473 15.933-9.843 9.843-15.935 23.45-15.935 38.475s6.092 28.628 15.935 38.473c31.056 31.055 79.918.672 135.285 56.038z"/></g></g><path d="m937.01209 160.34567c-33.2551-29.17093-67.0919-37.9221-112.0156-37.9221-52.50811 0-121.35069 23.33719-121.35069 89.84517 0 65.34457 64.75951 85.17928 119.01608 89.26457 40.83952 2.33349 57.17511 10.50184 57.17511 30.33656 0 21.00146-25.08788 35.0069-51.92307 34.42185-32.08835-.58281-78.76161-17.50233-99.18025-40.25559l-35.00467 50.75631c42.00514 43.75583 87.51279 51.34137 133.01817 51.34137 82.26298 0 123.68419-43.75582 123.68419-94.51214 0-76.42813-68.84258-88.67953-123.10137-92.1809-36.75423-2.33349-53.67486-12.83534-53.67486-31.50441 0-18.08515 18.67019-28.58587 52.5081-28.58587 27.41913 0 50.75856 6.41766 71.17497 25.67068zm279.45671-30.33768-39.6738 96.26395-43.7559 120.18506-44.3408-121.35068-39.6707-95.09721h-77.59479l123.09919 289.37353h77.0142l122.5153-289.37353h-77.5927zm183.1906-.58392v288.78959h-71.1772v-288.78959zm-77.5915-79.927251c0 55.423301 84.0114 55.423301 84.0114 0 0-55.4244251-84.0114-55.4244251-84.0114 0zm280.619 178.524671-56.5901-97.42845h-85.1781v2.33126l94.5121 139.43585-100.3459 144.10396v1.74844h85.1782l62.4238-96.26396 62.4283 96.26396h85.1781v-1.74844l-100.3448-144.10396 94.511-139.43585v-2.33126h-85.1781z" fill="#1a283f" stroke-width="1.11865"/></g></svg>